<svg width="24" height="24" viewBox="0 0 24 24" fill="none" xmlns="http://www.w3.org/2000/svg">
<path d="M12.0173 18.2841L12.0173 18.284C12.0173 17.217 11.1513 16.3482 10.0837 16.3482C9.016 16.3482 8.15 17.217 8.15 18.2841C8.15 19.3511 9.016 20.2199 10.0837 20.2199C11.1513 20.2199 12.0173 19.3511 12.0173 18.2841Z" stroke="#6F38AB" stroke-width="1.2"/>
<path d="M18.5705 18.2841L18.5705 18.284C18.5705 17.217 17.7045 16.3482 16.6369 16.3482C15.5692 16.3482 14.7032 17.217 14.7032 18.2841C14.7032 19.3511 15.5692 20.2199 16.6369 20.2199C17.7046 20.2199 18.5705 19.3511 18.5705 18.2841Z" stroke="#6F38AB" stroke-width="1.2"/>
<path d="M8.52615 5.32699L8.52617 5.32709L8.69359 6.14116H19.1542C19.5902 6.14116 20 6.33618 20.2751 6.67432C20.5501 7.01231 20.6579 7.45308 20.5701 7.87977L20.5701 7.87978L19.3875 13.6292C19.2497 14.2993 18.6563 14.7844 17.9717 14.7844H9.73538C9.73195 14.7844 9.72479 14.7847 9.71439 14.7851C9.63238 14.7886 9.34872 14.8005 9.09983 14.7401C8.94372 14.7023 8.75569 14.6293 8.58755 14.4828C8.41197 14.3299 8.28985 14.1242 8.23436 13.8781L8.23246 13.8696L8.23252 13.8696L6.58689 6.04555L5.01533 5.36229C5.01532 5.36228 5.0153 5.36227 5.01528 5.36226C4.49695 5.13693 4.26017 4.53421 4.48453 4.01644L8.52615 5.32699ZM8.52615 5.32699C8.43132 4.86628 8.11787 4.47946 7.68626 4.29175L7.68619 4.29172M8.52615 5.32699L7.68619 4.29172M7.68619 4.29172L5.83061 3.48499M7.68619 4.29172L5.83061 3.48499M5.83061 3.48499C5.83057 3.48497 5.83053 3.48495 5.83049 3.48494M5.83061 3.48499L5.83049 3.48494M5.83049 3.48494C5.83048 3.48493 5.83047 3.48493 5.83046 3.48492M5.83049 3.48494L5.83046 3.48492M5.83046 3.48492C5.31149 3.25922 4.70915 3.49815 4.4846 4.01629L5.83046 3.48492Z" stroke="#6F38AB" stroke-width="1.2"/>
</svg>
