<svg width="32" height="32" viewBox="0 0 32 32" fill="none" xmlns="http://www.w3.org/2000/svg">
<path d="M13.2909 22.0791C12.0281 22.0791 11.0007 23.1081 11.0007 24.373C11.0007 25.6378 12.0281 26.6669 13.2909 26.6669C14.5537 26.6669 15.5811 25.6378 15.5811 24.373C15.5811 23.1081 14.5537 22.0791 13.2909 22.0791Z" fill="#6F38AB"/>
<path d="M21.3246 22.0791C20.0618 22.0791 19.0344 23.1081 19.0344 24.373C19.0344 25.6378 20.0618 26.6669 21.3246 26.6669C22.5874 26.6669 23.6148 25.6378 23.6148 24.373C23.6148 23.1081 22.5874 22.0791 21.3246 22.0791Z" fill="#6F38AB"/>
<path d="M26.3959 9.95043C26.1521 9.65068 25.7908 9.4788 25.4047 9.4788H8.8459L8.44369 7.52316C8.35972 7.11521 8.08192 6.77268 7.70042 6.60676L4.8941 5.38668C4.57012 5.24572 4.1936 5.39463 4.05307 5.71903C3.91239 6.04354 4.06106 6.42071 4.38488 6.56147L7.19126 7.78159L9.77628 20.0721C9.95066 20.8455 10.8407 20.7348 11.1611 20.7348H23.6164C24.2202 20.7348 24.7469 20.3049 24.8687 19.7125L26.6571 11.0179C26.735 10.6393 26.6398 10.2501 26.3959 9.95043Z" fill="#6F38AB"/>
<circle cx="26" cy="6" r="5.5" fill="#DC56DF" stroke="white"/>
<path d="M24.9302 7.38951C24.8513 7.47214 24.7194 7.47211 24.6407 7.38944L23.3492 6.03424C23.2706 5.95174 23.139 5.9515 23.0601 6.03373L22.7992 6.30562C22.7251 6.38281 22.7249 6.50463 22.7987 6.58208L24.6406 8.5149C24.7194 8.5976 24.8514 8.5976 24.9302 8.5149L29.2019 4.03225C29.2755 3.95499 29.2755 3.83355 29.2019 3.7563L28.9437 3.48536C28.865 3.40268 28.7331 3.40265 28.6542 3.48529L24.9302 7.38951Z" fill="white"/>
</svg>
