<svg width="24" height="24" viewBox="0 0 24 24" fill="none" xmlns="http://www.w3.org/2000/svg">
<path d="M10.5534 15.8115C9.66265 15.8115 8.93799 16.5374 8.93799 17.4295C8.93799 18.3217 9.66265 19.0475 10.5534 19.0475C11.4441 19.0475 12.1688 18.3217 12.1688 17.4295C12.1687 16.5374 11.4441 15.8115 10.5534 15.8115Z" fill="white"/>
<path d="M16.2199 15.8115C15.3292 15.8115 14.6045 16.5374 14.6045 17.4295C14.6045 18.3217 15.3292 19.0475 16.2199 19.0475C17.1106 19.0475 17.8353 18.3217 17.8353 17.4295C17.8352 16.5374 17.1106 15.8115 16.2199 15.8115Z" fill="white"/>
<path d="M19.797 7.25656C19.625 7.04514 19.3702 6.9239 19.0979 6.9239H7.41806L7.13437 5.54449C7.07514 5.25674 6.87919 5.01513 6.6101 4.8981L4.63065 4.03751C4.40213 3.93809 4.13655 4.04312 4.03743 4.27194C3.9382 4.50083 4.04307 4.76687 4.27148 4.86615L6.25096 5.72677L8.07432 14.3959C8.19731 14.9414 8.82512 14.8634 9.05107 14.8634H17.8364C18.2623 14.8634 18.6339 14.5601 18.7198 14.1423L19.9813 8.00949C20.0362 7.74244 19.969 7.46795 19.797 7.25656Z" fill="white"/>
</svg>
