<svg width="32" height="32" viewBox="0 0 32 32" fill="none" xmlns="http://www.w3.org/2000/svg">
<path d="M0 8C0 3.58172 3.58172 0 8 0H24C28.4183 0 32 3.58172 32 8V24C32 28.4183 28.4183 32 24 32H8C3.58172 32 0 28.4183 0 24V8Z" fill="white"/>
<path fill-rule="evenodd" clip-rule="evenodd" d="M16.314 4C16.4244 4 16.514 4.08956 16.514 4.20002L16.5138 5.81449C16.5138 5.92495 16.6033 6.0145 16.7138 6.01451L23.8055 6.01481C23.9159 6.01481 24.0055 6.10435 24.0055 6.21481V6.96858C24.0055 6.99818 23.9814 7.02214 23.9518 7.02204C23.9114 7.02191 23.8855 7.06492 23.9044 7.1006L29.1964 17.0571C29.209 17.0808 29.2337 17.0958 29.2606 17.0959C29.3009 17.0961 29.3334 17.1288 29.3334 17.1691V17.6C29.3334 20.8766 26.6769 23.6444 23.5325 23.6444C20.3886 23.6444 17.7321 20.8766 17.7321 17.6V17.1681C17.7321 17.1284 17.7642 17.0961 17.804 17.0959C17.8305 17.0958 17.8549 17.081 17.8673 17.0576L23.0453 7.31562C23.1161 7.1824 23.0195 7.02175 22.8687 7.02175H16.7138C16.6033 7.02175 16.5138 7.11129 16.5138 7.22175V25.4581C16.5138 25.5685 16.6033 25.658 16.7137 25.6581L20.3095 25.6592C20.4199 25.6592 20.5095 25.7488 20.5095 25.8592V26.4667C20.5095 26.5771 20.4199 26.6667 20.3095 26.6667H11.7197C11.6092 26.6667 11.5197 26.5771 11.5197 26.4667V25.8592C11.5197 25.7488 11.6092 25.6592 11.7196 25.6592L15.3145 25.6581C15.425 25.658 15.5145 25.5685 15.5145 25.4581V7.22175C15.5145 7.11129 15.4249 7.02175 15.3145 7.02175H9.13007C8.97921 7.02175 8.88266 7.1824 8.95347 7.31562L14.1312 17.0571C14.1438 17.0809 14.1684 17.0958 14.1953 17.0959C14.2356 17.0961 14.2681 17.1288 14.2681 17.169V17.6C14.2681 20.8766 11.6116 23.6444 8.46765 23.6444C5.32323 23.6444 2.66675 20.8766 2.66675 17.6V17.1682C2.66675 17.1284 2.69888 17.0961 2.73865 17.0959C2.76525 17.0958 2.78962 17.081 2.8021 17.0575L8.10321 7.08385C8.11814 7.05576 8.0977 7.02191 8.0659 7.02204C8.04259 7.02214 8.02365 7.00328 8.02365 6.97998V6.21481C8.02365 6.10435 8.11319 6.01481 8.22365 6.01481L15.3145 6.01451C15.425 6.0145 15.5145 5.925 15.5145 5.81457L15.5151 4.19993C15.5151 4.0895 15.6046 4 15.7151 4H16.314ZM28.2824 18.3231C28.2992 18.206 28.2064 18.1037 28.0881 18.1037H18.9769C18.8586 18.1037 18.7658 18.206 18.7827 18.3231C19.1285 20.7255 21.163 22.637 23.5325 22.637C25.902 22.637 27.9366 20.7255 28.2824 18.3231ZM13.2175 18.3231C13.2344 18.206 13.1416 18.1037 13.0233 18.1037H3.91202C3.79372 18.1037 3.70094 18.206 3.71779 18.3231C4.0636 20.7255 6.09811 22.637 8.46765 22.637C10.8367 22.637 12.8717 20.7255 13.2175 18.3231ZM8.64422 8.86454C8.56901 8.72304 8.36626 8.72302 8.29103 8.86451L4.07073 16.8018C3.9999 16.935 4.09645 17.0957 4.24732 17.0957H12.6862C12.8371 17.0957 12.9336 16.935 12.8628 16.8018L8.64422 8.86454ZM23.7091 8.86453C23.6339 8.72304 23.4311 8.72303 23.3559 8.86452L19.136 16.8018C19.0652 16.935 19.1617 17.0957 19.3126 17.0957H27.7515C27.9023 17.0957 27.9989 16.935 27.9281 16.8018L23.7091 8.86453Z" fill="#666666" stroke="#666666" stroke-width="0.6"/>
</svg>
