<svg width="32" height="32" viewBox="0 0 32 32" fill="none" xmlns="http://www.w3.org/2000/svg">
<path d="M0 8C0 3.58172 3.58172 0 8 0H24C28.4183 0 32 3.58172 32 8V24C32 28.4183 28.4183 32 24 32H8C3.58172 32 0 28.4183 0 24V8Z" fill="white"/>
<path d="M25.1102 8.52104C24.058 7.32519 22.5983 6.66663 21 6.66663C18.7522 6.66663 17.3291 8.0113 16.5311 9.13937C16.324 9.43209 16.1479 9.72561 16 10.0018C15.8522 9.72561 15.6761 9.43209 15.469 9.13937C14.671 8.0113 13.2479 6.66663 11 6.66663C9.40179 6.66663 7.94208 7.32523 6.88983 8.52108C5.88617 9.66184 5.33337 11.1896 5.33337 12.823C5.33337 14.601 6.02642 16.2547 7.51442 18.0273C8.84429 19.6115 10.7575 21.2445 12.973 23.1354C13.7985 23.84 14.6522 24.5687 15.5611 25.3652L15.5884 25.3891C15.7062 25.4925 15.8531 25.5441 16 25.5441C16.147 25.5441 16.2939 25.4924 16.4117 25.3891L16.439 25.3652C17.3479 24.5687 18.2016 23.8401 19.0272 23.1353C21.2426 21.2445 23.1558 19.6115 24.4857 18.0273C25.9737 16.2547 26.6667 14.601 26.6667 12.823C26.6667 11.1896 26.1139 9.66184 25.1102 8.52104Z" fill="white" stroke="#6F38AB" stroke-width="2"/>
</svg>
