<svg width="32" height="32" viewBox="0 0 32 32" fill="none" xmlns="http://www.w3.org/2000/svg">
<path d="M24.7477 17.4533H24.7481C24.7942 16.9662 25.2268 16.6086 25.7143 16.6546C26.2014 16.7007 26.5591 17.1333 26.513 17.6209C26.4691 18.0796 26.083 18.4235 25.6314 18.4235C25.1051 18.4235 24.6986 17.9717 24.7477 17.4533Z" fill="white"/>
<path d="M24.485 14.2188C24.3687 13.7851 24.626 13.3395 25.0598 13.2232C25.4935 13.107 25.9395 13.3643 26.0558 13.7981C26.1721 14.2318 25.9143 14.6778 25.481 14.7941C25.4102 14.8128 25.3395 14.8217 25.27 14.8217C24.9106 14.8217 24.5821 14.5823 24.485 14.2188Z" fill="white"/>
<path d="M23.1147 11.2435C22.8746 10.9078 22.9519 10.4415 23.2872 10.2014C23.6225 9.96174 24.0888 10.0386 24.3289 10.3743C24.5689 10.7095 24.4916 11.1759 24.1564 11.4159C24.0245 11.51 23.873 11.5556 23.7225 11.5556C23.4895 11.5556 23.2603 11.4469 23.1147 11.2435Z" fill="white"/>
<path d="M24.7649 21.9124C24.236 21.9124 23.8037 21.4821 23.8037 20.9512C23.8037 20.3833 24.2964 19.9389 24.8596 19.9947C25.3679 20.0506 25.7261 20.467 25.7261 20.9512C25.7261 21.469 25.3061 21.9124 24.7649 21.9124Z" fill="white"/>
<path d="M23.5102 22.7851C23.1285 22.4712 22.5711 22.4982 22.2212 22.8471C20.6436 24.4205 18.5192 25.3423 16.2718 25.4051C11.4374 25.5402 7.39439 21.7169 7.25936 16.8825C7.16342 13.4485 9.08393 10.3177 12.0678 8.80813L12.3766 10.0744C12.4479 10.3668 12.8122 10.4676 13.0237 10.2535L15.9644 7.27679C16.1656 7.07314 16.0816 6.72891 15.8093 6.64079L11.8282 5.35245C11.5419 5.25982 11.2649 5.51705 11.3363 5.80938L11.6023 6.89986C7.73579 8.65642 5.21652 12.5979 5.33768 16.9361C5.50271 22.844 10.4171 27.4918 16.3255 27.3267C19.065 27.2502 21.6547 26.1267 23.5777 24.2093C23.9805 23.8077 23.9495 23.1463 23.5102 22.7851Z" fill="white"/>
</svg>
