<svg width="16" height="16" viewBox="0 0 16 16" fill="none" xmlns="http://www.w3.org/2000/svg">
<g opacity="0.48">
<path d="M2.76129 13.2389C2.82413 13.3017 2.9065 13.3331 2.98886 13.3331C3.07122 13.3331 3.15358 13.3017 3.21643 13.2389L8.00032 8.45496L12.7842 13.2389C12.8471 13.3017 12.9295 13.3332 13.0118 13.3332C13.0942 13.3332 13.1765 13.3017 13.2394 13.2389C13.3651 13.1132 13.3651 12.9094 13.2394 12.7837L8.45546 7.99982L13.2394 3.21592C13.3651 3.09022 13.3651 2.88647 13.2394 2.76077C13.1137 2.63508 12.91 2.63508 12.7842 2.76077L8.00032 7.54468L3.21641 2.76083C3.09071 2.63513 2.88696 2.63513 2.76126 2.76083C2.63557 2.88649 2.63557 3.09027 2.76126 3.21597L7.54518 7.99985L2.76129 12.7837C2.63559 12.9094 2.63559 13.1132 2.76129 13.2389Z" fill="#FC0D23" stroke="#FC0D23" stroke-width="0.5"/>
</g>
</svg>
