<svg width="24" height="24" viewBox="0 0 24 24" fill="none" xmlns="http://www.w3.org/2000/svg">
<path fill-rule="evenodd" clip-rule="evenodd" d="M10.8 13.5C10.6343 13.5 10.5 13.3657 10.5 13.2V11.8C10.5 11.6343 10.6343 11.5 10.8 11.5H18.2C18.3657 11.5 18.5 11.6343 18.5 11.8V13.2C18.5 13.3657 18.3657 13.5 18.2 13.5H10.8ZM10.8 19.5C10.6343 19.5 10.5 19.3657 10.5 19.2V17.8C10.5 17.6343 10.6343 17.5 10.8 17.5H14.2C14.3657 17.5 14.5 17.6343 14.5 17.8V19.2C14.5 19.3657 14.3657 19.5 14.2 19.5H10.8ZM10.8 7.5C10.6343 7.5 10.5 7.36569 10.5 7.2V5.8C10.5 5.63431 10.6343 5.5 10.8 5.5H22.2C22.3657 5.5 22.5 5.63431 22.5 5.8V7.2C22.5 7.36569 22.3657 7.5 22.2 7.5H10.8ZM6.5 17.2C6.5 17.3657 6.63431 17.5 6.8 17.5H8.27574C8.54301 17.5 8.67686 17.8231 8.48787 18.0121L5.71213 20.7879C5.59497 20.905 5.40503 20.905 5.28787 20.7879L2.51213 18.0121C2.32314 17.8231 2.45699 17.5 2.72426 17.5H4.2C4.36569 17.5 4.5 17.3657 4.5 17.2V7.8C4.5 7.63431 4.36569 7.5 4.2 7.5H2.72426C2.45699 7.5 2.32314 7.17686 2.51213 6.98787L5.28787 4.21213C5.40503 4.09497 5.59497 4.09497 5.71213 4.21213L8.48787 6.98787C8.67686 7.17686 8.54301 7.5 8.27574 7.5H6.8C6.63431 7.5 6.5 7.63431 6.5 7.8V17.2Z" fill="#6F38AB"/>
</svg>
