<svg width="32" height="32" viewBox="0 0 32 32" fill="none" xmlns="http://www.w3.org/2000/svg">
<path d="M13.7265 24.3152V24.3152C13.7265 22.9372 12.6079 21.8154 11.2298 21.8154C9.85161 21.8154 8.73301 22.9372 8.73301 24.3152C8.73301 25.6933 9.85161 26.8151 11.2298 26.8151C12.6079 26.8151 13.7265 25.6933 13.7265 24.3152Z" stroke="white" stroke-width="1.2"/>
<path d="M23.0468 24.3152V24.3152C23.0468 22.9372 21.9282 21.8154 20.5501 21.8154C19.1719 21.8154 18.0533 22.9372 18.0533 24.3152C18.0533 25.6933 19.1719 26.8151 20.5501 26.8151C21.9282 26.8151 23.0468 25.6933 23.0468 24.3152Z" stroke="white" stroke-width="1.2"/>
<path d="M8.76684 5.93835L8.76686 5.93845L9.04658 7.29853H24.1305C24.6742 7.29853 25.185 7.54158 25.5281 7.96346C25.8712 8.38512 26.0055 8.9345 25.8961 9.46687L24.2141 17.6439C24.0423 18.4793 23.3019 19.0845 22.4486 19.0845H10.7348C10.7241 19.0845 10.7067 19.0851 10.6837 19.086C10.5445 19.091 10.1994 19.1036 9.89061 19.0287C9.6948 18.9812 9.46836 18.8918 9.26867 18.7179C9.06156 18.5375 8.91477 18.2933 8.84711 17.9931L8.84521 17.9847L8.84527 17.9847L6.4779 6.72907L4.12279 5.70514C4.12278 5.70513 4.12276 5.70512 4.12274 5.70512C3.51399 5.44048 3.23571 4.73246 3.49935 4.12409L8.76684 5.93835ZM8.76684 5.93835C8.64856 5.36374 8.25755 4.88128 7.71943 4.64725L7.71936 4.64722M8.76684 5.93835L7.71936 4.64722M7.71936 4.64722L5.08025 3.49984M7.71936 4.64722L5.08025 3.49984M5.08025 3.49984C5.0802 3.49982 5.08015 3.49979 5.0801 3.49977M5.08025 3.49984L5.0801 3.49977M5.0801 3.49977C4.47066 3.23471 3.7632 3.51521 3.49942 4.12393L5.0801 3.49977Z" stroke="white" stroke-width="1.2"/>
</svg>
