<svg width="32" height="32" viewBox="0 0 32 32" fill="none" xmlns="http://www.w3.org/2000/svg">
<path fill-rule="evenodd" clip-rule="evenodd" d="M16.3137 4C16.4242 4 16.5137 4.08956 16.5137 4.20002L16.5135 5.81449C16.5135 5.92495 16.6031 6.0145 16.7135 6.01451L23.8052 6.01481C23.9157 6.01481 24.0052 6.10435 24.0052 6.21481V6.96858C24.0052 6.99818 23.9812 7.02214 23.9516 7.02204C23.9112 7.02191 23.8852 7.06492 23.9042 7.1006L29.1962 17.0571C29.2088 17.0808 29.2335 17.0958 29.2604 17.0959C29.3006 17.0961 29.3332 17.1288 29.3332 17.1691V17.6C29.3332 20.8766 26.6767 23.6444 23.5323 23.6444C20.3883 23.6444 17.7319 20.8766 17.7319 17.6V17.1681C17.7319 17.1284 17.764 17.0961 17.8037 17.0959C17.8303 17.0958 17.8546 17.081 17.8671 17.0576L23.045 7.31562C23.1159 7.1824 23.0193 7.02175 22.8684 7.02175H16.7135C16.6031 7.02175 16.5135 7.11129 16.5135 7.22175V25.4581C16.5135 25.5685 16.603 25.658 16.7135 25.6581L20.3093 25.6592C20.4197 25.6592 20.5092 25.7488 20.5092 25.8592V26.4667C20.5092 26.5771 20.4197 26.6667 20.3092 26.6667H11.7194C11.609 26.6667 11.5194 26.5771 11.5194 26.4667V25.8592C11.5194 25.7488 11.6089 25.6592 11.7194 25.6592L15.3143 25.6581C15.4247 25.658 15.5142 25.5685 15.5142 25.4581V7.22175C15.5142 7.11129 15.4247 7.02175 15.3142 7.02175H9.12983C8.97897 7.02175 8.88242 7.1824 8.95322 7.31562L14.1309 17.0571C14.1435 17.0809 14.1682 17.0958 14.1951 17.0959C14.2353 17.0961 14.2678 17.1288 14.2678 17.169V17.6C14.2678 20.8766 11.6113 23.6444 8.46741 23.6444C5.32298 23.6444 2.6665 20.8766 2.6665 17.6V17.1682C2.6665 17.1284 2.69863 17.0961 2.73841 17.0959C2.76501 17.0958 2.78938 17.081 2.80186 17.0575L8.10297 7.08385C8.1179 7.05576 8.09746 7.02191 8.06565 7.02204C8.04235 7.02214 8.02341 7.00328 8.02341 6.97998V6.21481C8.02341 6.10435 8.11295 6.01481 8.2234 6.01481L15.3143 6.01451C15.4247 6.0145 15.5143 5.925 15.5143 5.81457L15.5148 4.19993C15.5149 4.0895 15.6044 4 15.7148 4H16.3137ZM28.2821 18.3231C28.299 18.206 28.2062 18.1037 28.0879 18.1037H18.9766C18.8583 18.1037 18.7656 18.206 18.7824 18.3231C19.1282 20.7255 21.1627 22.637 23.5323 22.637C25.9018 22.637 27.9363 20.7255 28.2821 18.3231ZM13.2173 18.3231C13.2341 18.206 13.1413 18.1037 13.023 18.1037H3.91177C3.79347 18.1037 3.7007 18.206 3.71755 18.3231C4.06335 20.7255 6.09787 22.637 8.46741 22.637C10.8365 22.637 12.8714 20.7255 13.2173 18.3231ZM8.64398 8.86454C8.56877 8.72304 8.36601 8.72302 8.29078 8.86451L4.07049 16.8018C3.99966 16.935 4.09621 17.0957 4.24708 17.0957H12.686C12.8368 17.0957 12.9334 16.935 12.8626 16.8018L8.64398 8.86454ZM23.7089 8.86453C23.6336 8.72304 23.4309 8.72303 23.3557 8.86452L19.1357 16.8018C19.0649 16.935 19.1615 17.0957 19.3123 17.0957H27.7512C27.9021 17.0957 27.9987 16.935 27.9278 16.8018L23.7089 8.86453Z" fill="#6F38AB" stroke="#6F38AB" stroke-width="0.6"/>
</svg>
