<svg width="24" height="24" viewBox="0 0 24 24" fill="none" xmlns="http://www.w3.org/2000/svg">
<path opacity="0.48" d="M13.2225 13.5277C13.3913 13.5277 13.5281 13.6645 13.5281 13.8333V16.2777C13.5281 16.4464 13.6649 16.5832 13.8336 16.5832H14.9293C15.2015 16.5832 15.3378 16.9124 15.1454 17.1048L12.2163 20.0338C12.097 20.1532 11.9036 20.1532 11.7842 20.0338L8.85525 17.1048C8.66275 16.9124 8.79909 16.5832 9.07131 16.5832H10.167C10.3357 16.5832 10.4725 16.4464 10.4725 16.2777V13.8333C10.4725 13.6645 10.6093 13.5277 10.7781 13.5277H13.2225ZM17.105 8.85497L20.034 11.784C20.1533 11.9033 20.1533 12.0967 20.034 12.216L17.105 15.1451C16.9126 15.3375 16.5834 15.2012 16.5834 14.929V9.07103C16.5834 8.79881 16.9126 8.66248 17.105 8.85497ZM6.89544 8.85497C7.08792 8.66248 7.41705 8.79881 7.41705 9.07103V14.929C7.41705 15.2012 7.08792 15.3375 6.89544 15.1451L3.96645 12.216C3.84712 12.0967 3.84712 11.9033 3.96645 11.784L6.89544 8.85497ZM12.2163 3.96608L15.1454 6.89507C15.3378 7.08756 15.2015 7.41669 14.9293 7.41669H13.8336C13.6649 7.41669 13.5281 7.55349 13.5281 7.72225V10.1667C13.5281 10.3354 13.3913 10.4722 13.2225 10.4722H10.7781C10.6093 10.4722 10.4725 10.3354 10.4725 10.1667V7.72225C10.4725 7.55349 10.3357 7.41669 10.167 7.41669H9.07131C8.79909 7.41669 8.66275 7.08756 8.85525 6.89507L11.7842 3.96608C11.9036 3.84676 12.097 3.84676 12.2163 3.96608Z" fill="#666666"/>
</svg>
