<svg width="24" height="24" viewBox="0 0 24 24" fill="none" xmlns="http://www.w3.org/2000/svg">
<rect opacity="0.48" x="4" y="4" width="16" height="16" rx="4" fill="#666666"/>
<path d="M10.618 13.1831C10.618 12.7835 10.3046 12.724 9.43934 12.6984C8.67844 12.673 7.02236 12.6135 7.02236 10.9555V10.845C7.02236 9.86724 7.57438 9 9.46919 9H9.73771C10.4166 9 11.073 9.10199 11.6847 9.28056V10.6834C10.9612 10.4879 10.2525 10.3689 9.5214 10.3689C8.4397 10.3689 8.36514 10.6494 8.36514 10.845C8.36514 11.2531 8.69336 11.3126 9.53632 11.3381C10.245 11.3551 11.9607 11.4146 11.9607 13.0896V13.2001C11.9607 14.1693 11.4087 15.0365 9.50647 15.0365H9.23795C8.45469 15.0365 7.7087 14.9346 7 14.7645V13.3361C7.80562 13.5402 8.70828 13.6762 9.46919 13.6762C10.5359 13.6762 10.618 13.3957 10.618 13.1831Z" fill="white" stroke="white" stroke-width="0.3"/>
<path d="M15.6511 10.5303H12.8089V9.16992H17.4415V10.3602L14.5247 13.5061H17.5161V14.8665H12.7344V13.6762L15.6511 10.5303Z" fill="white" stroke="white" stroke-width="0.3"/>
</svg>
