<svg width="21" height="21" viewBox="0 0 21 21" fill="none" xmlns="http://www.w3.org/2000/svg">
<g clip-path="url(#clip0)">
<path d="M15.86 12.4854C14.4003 12.4854 13.2129 13.6728 13.2129 15.1324C13.2129 16.592 14.4003 17.7795 15.86 17.7795C17.3198 17.7795 18.507 16.592 18.507 15.1324C18.507 13.6728 17.3196 12.4854 15.86 12.4854ZM15.86 16.456C15.13 16.456 14.5364 15.8623 14.5364 15.1324C14.5364 14.4025 15.13 13.8089 15.86 13.8089C16.5899 13.8089 17.1835 14.4025 17.1835 15.1324C17.1835 15.8624 16.5899 16.456 15.86 16.456Z" fill="#DC56DF"/>
<path d="M6.81601 12.4854C5.35639 12.4854 4.16895 13.6728 4.16895 15.1324C4.16895 16.592 5.35639 17.7795 6.81601 17.7795C8.27563 17.7795 9.46308 16.592 9.46308 15.1324C9.46308 13.6728 8.27563 12.4854 6.81601 12.4854ZM6.81601 16.456C6.0861 16.456 5.49248 15.8623 5.49248 15.1324C5.49248 14.4025 6.0861 13.8089 6.81601 13.8089C7.54572 13.8089 8.13954 14.4025 8.13954 15.1324C8.13954 15.8624 7.54593 16.456 6.81601 16.456Z" fill="#DC56DF"/>
<path d="M17.6431 4.90861C17.5306 4.68516 17.3019 4.54419 17.0517 4.54419H13.5664V5.86772H16.6436L18.4456 9.45184L19.6284 8.85711L17.6431 4.90861Z" fill="#DC56DF"/>
<path d="M13.8745 14.4927H8.86719V15.8162H13.8745V14.4927Z" fill="#DC56DF"/>
<path d="M4.83083 14.4927H2.53675C2.17121 14.4927 1.875 14.7889 1.875 15.1544C1.875 15.52 2.17126 15.8162 2.53675 15.8162H4.83087C5.1964 15.8162 5.49262 15.5199 5.49262 15.1544C5.49262 14.7889 5.19636 14.4927 4.83083 14.4927Z" fill="#DC56DF"/>
<path d="M20.861 10.4472L19.5593 8.77069C19.4343 8.60921 19.2413 8.51479 19.0368 8.51479H14.2279V3.88245C14.2279 3.51692 13.9317 3.2207 13.5662 3.2207H2.53675C2.17121 3.2207 1.875 3.51696 1.875 3.88245C1.875 4.24794 2.17126 4.5442 2.53675 4.5442H12.9044V9.17654C12.9044 9.54207 13.2006 9.83829 13.5661 9.83829H18.7127L19.6764 11.0797V14.4927H17.8455C17.48 14.4927 17.1838 14.789 17.1838 15.1544C17.1838 15.52 17.4801 15.8162 17.8455 15.8162H20.3382C20.7037 15.8162 20.9999 15.5199 21 15.1544V10.8531C21 10.7061 20.951 10.5632 20.861 10.4472Z" fill="#DC56DF"/>
<path d="M4.78694 11.1396H1.7428C1.37727 11.1396 1.08105 11.4359 1.08105 11.8014C1.08105 12.1669 1.37731 12.4631 1.7428 12.4631H4.7869C5.15243 12.4631 5.44865 12.1669 5.44865 11.8014C5.44869 11.4359 5.15243 11.1396 4.78694 11.1396Z" fill="#DC56DF"/>
<path d="M6.30882 8.53687H0.661746C0.296256 8.53687 0 8.83312 0 9.19865C0 9.56418 0.296256 9.8604 0.661746 9.8604H6.30882C6.67435 9.8604 6.97056 9.56414 6.97056 9.19865C6.97056 8.83316 6.67435 8.53687 6.30882 8.53687Z" fill="#DC56DF"/>
<path d="M7.38987 5.93384H1.7428C1.37727 5.93384 1.08105 6.23009 1.08105 6.59558C1.08105 6.96112 1.37731 7.25733 1.7428 7.25733H7.38987C7.7554 7.25733 8.05162 6.96107 8.05162 6.59558C8.05166 6.23009 7.7554 5.93384 7.38987 5.93384Z" fill="#DC56DF"/>
</g>
<defs>
<clipPath id="clip0">
<rect width="21" height="21" fill="white"/>
</clipPath>
</defs>
</svg>
