<svg width="32" height="32" viewBox="0 0 32 32" fill="none" xmlns="http://www.w3.org/2000/svg">
<path d="M25.1098 8.52104C24.0576 7.32519 22.5979 6.66663 20.9997 6.66663C18.7518 6.66663 17.3287 8.0113 16.5307 9.13937C16.3237 9.43209 16.1475 9.72561 15.9997 10.0018C15.8518 9.72561 15.6757 9.43209 15.4686 9.13937C14.6706 8.0113 13.2475 6.66663 10.9997 6.66663C9.40142 6.66663 7.94172 7.32523 6.88947 8.52108C5.8858 9.66184 5.33301 11.1896 5.33301 12.823C5.33301 14.601 6.02605 16.2547 7.51405 18.0273C8.84392 19.6115 10.7571 21.2445 12.9726 23.1354C13.7981 23.84 14.6518 24.5687 15.5607 25.3652L15.588 25.3891C15.7058 25.4925 15.8528 25.5441 15.9997 25.5441C16.1466 25.5441 16.2935 25.4924 16.4113 25.3891L16.4386 25.3652C17.3475 24.5687 18.2012 23.8401 19.0269 23.1353C21.2422 21.2445 23.1554 19.6115 24.4853 18.0273C25.9733 16.2547 26.6663 14.601 26.6663 12.823C26.6663 11.1896 26.1135 9.66184 25.1098 8.52104Z" fill="#F8F8F8" stroke="#6F38AB" stroke-width="1.5"/>
</svg>
