<svg width="32" height="32" viewBox="0 0 32 32" fill="none" xmlns="http://www.w3.org/2000/svg">
<path d="M24.7768 8.85441C23.7246 7.65856 22.2649 7 20.6667 7C18.4188 7 16.9957 8.34467 16.1977 9.47274C15.9907 9.76547 15.8145 10.059 15.6667 10.3352C15.5188 10.059 15.3427 9.76547 15.1356 9.47274C14.3376 8.34467 12.9145 7 10.6667 7C9.06842 7 7.60871 7.65861 6.55646 8.85445C5.55279 9.99521 5 11.523 5 13.1564C5 14.9344 5.69304 16.5881 7.18104 18.3606C8.51092 19.9449 10.4241 21.5778 12.6396 23.4688C13.4651 24.1734 14.3188 24.9021 15.2277 25.6986L15.255 25.7225C15.3728 25.8259 15.5197 25.8775 15.6667 25.8775C15.8136 25.8775 15.9605 25.8258 16.0783 25.7225L16.1056 25.6986C17.0145 24.9021 17.8682 24.1734 18.6939 23.4687C20.9092 21.5779 22.8224 19.9449 24.1523 18.3606C25.6403 16.5881 26.3333 14.9344 26.3333 13.1564C26.3333 11.523 25.7805 9.99521 24.7768 8.85441Z" fill="#6F38AB"/>
<circle cx="26" cy="6" r="5.5" fill="#DC56DF" stroke="white"/>
<path d="M24.93 7.38935C24.8512 7.47198 24.7193 7.47195 24.6405 7.38928L23.3491 6.03407C23.2705 5.95157 23.1389 5.95134 23.06 6.03356L22.7991 6.30545C22.725 6.38264 22.7248 6.50446 22.7986 6.58191L24.6405 8.51473C24.7193 8.59743 24.8512 8.59743 24.93 8.51473L29.2018 4.03208C29.2754 3.95483 29.2754 3.83339 29.2018 3.75613L28.9436 3.4852C28.8648 3.40252 28.7329 3.40249 28.6541 3.48513L24.93 7.38935Z" fill="white"/>
</svg>
