<svg width="48" height="48" viewBox="0 0 48 48" fill="none" xmlns="http://www.w3.org/2000/svg">
<path fill-rule="evenodd" clip-rule="evenodd" d="M32.5014 3.45927C33.8017 3.07477 35.0954 2.69224 35.9989 3.21466C36.918 3.74528 37.2346 5.07305 37.5507 6.39885C37.8187 7.52285 38.0864 8.64544 38.7206 9.27966L38.7206 9.27972C39.3559 9.91023 40.4745 10.1771 41.5949 10.4444C42.9196 10.7605 44.2468 11.0771 44.7802 11.9961C45.302 12.8984 44.9194 14.1901 44.5348 15.4889C44.2046 16.6038 43.8729 17.7241 44.1105 18.6076C44.3363 19.4456 45.1558 20.2186 45.9846 21.0005C46.9841 21.9434 47.9973 22.8992 48.0002 23.9975C48.0002 25.0921 46.9883 26.0475 45.9897 26.9905C45.16 27.7739 44.3395 28.5487 44.1158 29.3875C43.8781 30.2739 44.2102 31.3948 44.5406 32.5098C44.9251 33.8074 45.3071 35.097 44.7855 35.999C44.2517 36.9215 42.923 37.2377 41.5973 37.5532C40.4747 37.8203 39.3543 38.0869 38.7205 38.7207C38.0862 39.3551 37.8185 40.4769 37.5505 41.6004C37.2344 42.9251 36.9178 44.2523 35.9988 44.7857C35.0965 45.3075 33.8048 44.925 32.5061 44.5404C31.3911 44.2102 30.2709 43.8784 29.3873 44.116C28.5494 44.3419 27.7753 45.1611 26.9928 45.9894C26.049 46.9884 25.0928 48.0004 23.9974 48.0004C22.9029 48.0004 21.9474 46.9885 21.0044 45.9899C20.221 45.1602 19.4462 44.3397 18.6075 44.116C17.7211 43.8783 16.6001 44.2104 15.4852 44.5408C14.1875 44.9253 12.898 45.3073 11.996 44.7857C11.0734 44.2519 10.7572 42.9232 10.4417 41.5974C10.1746 40.4749 9.90802 39.3545 9.27422 38.7207L9.27699 38.7179C8.64215 38.0855 7.52193 37.8182 6.39997 37.5506C5.07524 37.2345 3.74809 36.9179 3.21466 35.9989C2.69224 35.0955 3.07477 33.8017 3.45927 32.5014C3.7885 31.388 4.11917 30.2697 3.88438 29.3874C3.65866 28.55 2.8403 27.7775 2.01256 26.9962C1.01311 26.0528 0 25.0965 0 23.9975C0 22.8985 1.01311 21.9422 2.01256 20.9987C2.8403 20.2174 3.65866 19.4449 3.88438 18.6075C4.1196 17.7212 3.78731 16.6002 3.45696 15.4859C3.07245 14.1888 2.69057 12.9006 3.20931 12.0014C3.74313 11.0788 5.07186 10.7626 6.39758 10.4472C7.52012 10.1801 8.64051 9.91346 9.2743 9.27966C9.90866 8.64531 10.1763 7.52351 10.4444 6.39997C10.7604 5.07524 11.0771 3.74809 11.9961 3.21466C12.8991 2.69243 14.1907 3.0745 15.49 3.45886C16.6033 3.78823 17.7224 4.11927 18.6075 3.88438C19.4454 3.65852 20.2195 2.83924 21.002 2.01096C21.9458 1.01203 22.902 0 23.9975 0C25.0929 0 26.0491 1.01203 26.9929 2.01096C27.7754 2.83924 28.5495 3.65852 29.3874 3.88438C30.2697 4.11917 31.388 3.7885 32.5014 3.45927Z" fill="#9DCD4F"/>
<mask id="path-2-outside-1" maskUnits="userSpaceOnUse" x="3.7998" y="3.79956" width="41" height="41" fill="black">
<rect fill="white" x="3.7998" y="3.79956" width="41" height="41"/>
<path fill-rule="evenodd" clip-rule="evenodd" d="M30.7982 7.56669C31.8384 7.25912 32.8732 6.95312 33.5959 7.37102C34.3311 7.79547 34.5844 8.85757 34.8372 9.9181C35.0516 10.8172 35.2657 11.7152 35.7731 12.2225L35.7723 12.2233C36.2806 12.7271 37.175 12.9405 38.0708 13.1542C39.1305 13.407 40.1921 13.6603 40.6188 14.3954C41.0362 15.1172 40.7302 16.1504 40.4225 17.1893C40.1584 18.0812 39.893 18.9773 40.0831 19.6841C40.2638 20.3544 40.9192 20.9727 41.5822 21.5982C42.3817 22.3524 43.1922 23.117 43.1945 23.9956C43.1945 24.8711 42.3851 25.6354 41.5863 26.3897C40.9226 27.0163 40.2663 27.6361 40.0873 28.3071C39.8972 29.0161 40.1629 29.9128 40.4271 30.8046C40.7347 31.8427 41.0403 32.8742 40.6231 33.5957C40.1961 34.3337 39.1332 34.5866 38.0727 34.839C37.1748 35.0526 36.2786 35.2659 35.7716 35.7729C35.2641 36.2803 35.0501 37.1776 34.8356 38.0764C34.5828 39.1361 34.3295 40.1977 33.5944 40.6244C32.8726 41.0418 31.8394 40.7358 30.8005 40.4281C29.9086 40.164 29.0125 39.8986 28.3058 40.0886C27.6355 40.2693 27.0163 40.9247 26.3904 41.5872C25.6354 42.3863 24.8706 43.1958 23.9943 43.1958C23.1188 43.1958 22.3545 42.3864 21.6002 41.5876C20.9735 40.9239 20.3538 40.2676 19.6828 40.0886C18.9738 39.8985 18.0771 40.1642 17.1852 40.4284C16.1472 40.736 15.1157 41.0416 14.3942 40.6244C13.6562 40.1974 13.4033 39.1345 13.1509 38.074C12.9372 37.1761 12.724 36.2799 12.217 35.7729L12.2199 35.77C11.712 35.2646 10.8163 35.0509 9.91924 34.8369C8.85957 34.584 7.79796 34.3308 7.37127 33.5956C6.95337 32.873 7.25937 31.8381 7.56693 30.798C7.83029 29.9073 8.0948 29.0128 7.90699 28.307C7.72643 27.6372 7.0718 27.0193 6.40968 26.3943C5.61021 25.6396 4.7998 24.8746 4.7998 23.9955C4.7998 23.1164 5.61021 22.3514 6.40969 21.5968C7.0718 20.9718 7.72643 20.3539 7.90699 19.684C8.09514 18.975 7.82933 18.0784 7.56508 17.187C7.25751 16.1494 6.95203 15.1189 7.36698 14.3997C7.79399 13.6617 8.85687 13.4088 9.91733 13.1564C10.8153 12.9428 11.7115 12.7295 12.2185 12.2225C12.7259 11.7151 12.94 10.8177 13.1544 9.919C13.4072 8.85932 13.6605 7.79771 14.3956 7.37102C15.118 6.95327 16.1512 7.2589 17.1905 7.56636C18.0811 7.82982 18.9762 8.09463 19.6843 7.90674C20.3545 7.72607 20.9737 7.07071 21.5997 6.40816C22.3546 5.6091 23.1195 4.79956 23.9958 4.79956C24.872 4.79956 25.6369 5.6091 26.3918 6.40816C27.0178 7.07071 27.637 7.72607 28.3072 7.90674C29.013 8.09455 29.9076 7.83005 30.7982 7.56669Z"/>
</mask>
<path fill-rule="evenodd" clip-rule="evenodd" d="M30.7982 7.56669C31.8384 7.25912 32.8732 6.95312 33.5959 7.37102C34.3311 7.79547 34.5844 8.85757 34.8372 9.9181C35.0516 10.8172 35.2657 11.7152 35.7731 12.2225L35.7723 12.2233C36.2806 12.7271 37.175 12.9405 38.0708 13.1542C39.1305 13.407 40.1921 13.6603 40.6188 14.3954C41.0362 15.1172 40.7302 16.1504 40.4225 17.1893C40.1584 18.0812 39.893 18.9773 40.0831 19.6841C40.2638 20.3544 40.9192 20.9727 41.5822 21.5982C42.3817 22.3524 43.1922 23.117 43.1945 23.9956C43.1945 24.8711 42.3851 25.6354 41.5863 26.3897C40.9226 27.0163 40.2663 27.6361 40.0873 28.3071C39.8972 29.0161 40.1629 29.9128 40.4271 30.8046C40.7347 31.8427 41.0403 32.8742 40.6231 33.5957C40.1961 34.3337 39.1332 34.5866 38.0727 34.839C37.1748 35.0526 36.2786 35.2659 35.7716 35.7729C35.2641 36.2803 35.0501 37.1776 34.8356 38.0764C34.5828 39.1361 34.3295 40.1977 33.5944 40.6244C32.8726 41.0418 31.8394 40.7358 30.8005 40.4281C29.9086 40.164 29.0125 39.8986 28.3058 40.0886C27.6355 40.2693 27.0163 40.9247 26.3904 41.5872C25.6354 42.3863 24.8706 43.1958 23.9943 43.1958C23.1188 43.1958 22.3545 42.3864 21.6002 41.5876C20.9735 40.9239 20.3538 40.2676 19.6828 40.0886C18.9738 39.8985 18.0771 40.1642 17.1852 40.4284C16.1472 40.736 15.1157 41.0416 14.3942 40.6244C13.6562 40.1974 13.4033 39.1345 13.1509 38.074C12.9372 37.1761 12.724 36.2799 12.217 35.7729L12.2199 35.77C11.712 35.2646 10.8163 35.0509 9.91924 34.8369C8.85957 34.584 7.79796 34.3308 7.37127 33.5956C6.95337 32.873 7.25937 31.8381 7.56693 30.798C7.83029 29.9073 8.0948 29.0128 7.90699 28.307C7.72643 27.6372 7.0718 27.0193 6.40968 26.3943C5.61021 25.6396 4.7998 24.8746 4.7998 23.9955C4.7998 23.1164 5.61021 22.3514 6.40969 21.5968C7.0718 20.9718 7.72643 20.3539 7.90699 19.684C8.09514 18.975 7.82933 18.0784 7.56508 17.187C7.25751 16.1494 6.95203 15.1189 7.36698 14.3997C7.79399 13.6617 8.85687 13.4088 9.91733 13.1564C10.8153 12.9428 11.7115 12.7295 12.2185 12.2225C12.7259 11.7151 12.94 10.8177 13.1544 9.919C13.4072 8.85932 13.6605 7.79771 14.3956 7.37102C15.118 6.95327 16.1512 7.2589 17.1905 7.56636C18.0811 7.82982 18.9762 8.09463 19.6843 7.90674C20.3545 7.72607 20.9737 7.07071 21.5997 6.40816C22.3546 5.6091 23.1195 4.79956 23.9958 4.79956C24.872 4.79956 25.6369 5.6091 26.3918 6.40816C27.0178 7.07071 27.637 7.72607 28.3072 7.90674C29.013 8.09455 29.9076 7.83005 30.7982 7.56669Z" fill="#9DCD4F"/>
<path d="M33.5959 7.37102L33.0953 8.2367L33.0959 8.23707L33.5959 7.37102ZM30.7982 7.56669L30.5146 6.60773L30.7982 7.56669ZM34.8372 9.9181L33.8645 10.15L33.8645 10.15L34.8372 9.9181ZM35.7731 12.2225L36.4799 12.9298L37.1875 12.2227L36.4802 11.5154L35.7731 12.2225ZM35.7723 12.2233L35.0654 11.5159L34.3547 12.2262L35.0683 12.9335L35.7723 12.2233ZM38.0708 13.1542L37.8387 14.1269L38.0708 13.1542ZM40.6188 14.3954L41.4845 13.8948L41.4836 13.8934L40.6188 14.3954ZM40.4225 17.1893L41.3813 17.4733V17.4733L40.4225 17.1893ZM40.0831 19.6841L39.1174 19.9438L39.1175 19.9444L40.0831 19.6841ZM41.5822 21.5982L42.2685 20.8708L42.2685 20.8708L41.5822 21.5982ZM43.1945 23.9956H44.1945L44.1945 23.9929L43.1945 23.9956ZM41.5863 26.3897L40.8997 25.6626L40.8997 25.6626L41.5863 26.3897ZM40.0873 28.3071L41.0532 28.5661L41.0536 28.5647L40.0873 28.3071ZM40.4271 30.8046L39.4683 31.0887V31.0887L40.4271 30.8046ZM40.6231 33.5957L41.4886 34.0965L41.4887 34.0963L40.6231 33.5957ZM38.0727 34.839L38.3042 35.8118L38.0727 34.839ZM34.8356 38.0764L33.8629 37.8443H33.8629L34.8356 38.0764ZM33.5944 40.6244L34.095 41.49L34.0964 41.4892L33.5944 40.6244ZM30.8005 40.4281L30.5166 41.3869H30.5166L30.8005 40.4281ZM28.3058 40.0886L28.0461 39.123L28.0455 39.1231L28.3058 40.0886ZM26.3904 41.5872L25.6635 40.9005L25.6635 40.9005L26.3904 41.5872ZM21.6002 41.5876L22.3273 40.901L22.3273 40.901L21.6002 41.5876ZM19.6828 40.0886L19.4238 41.0545L19.4251 41.0549L19.6828 40.0886ZM17.1852 40.4284L16.9011 39.4696H16.9011L17.1852 40.4284ZM14.3942 40.6244L13.8933 41.4899L13.8936 41.49L14.3942 40.6244ZM13.1509 38.074L14.1237 37.8425V37.8425L13.1509 38.074ZM12.217 35.7729L11.5099 35.0658L10.8028 35.7729L11.5099 36.48L12.217 35.7729ZM12.2199 35.77L12.927 36.4771L13.6359 35.7682L12.9252 35.0611L12.2199 35.77ZM9.91924 34.8369L10.1513 33.8642H10.1513L9.91924 34.8369ZM7.37127 33.5956L6.50559 34.0962L6.5064 34.0976L7.37127 33.5956ZM7.56693 30.798L6.60798 30.5144L7.56693 30.798ZM7.90699 28.307L8.87336 28.0498L8.87252 28.0467L7.90699 28.307ZM6.40968 26.3943L5.72325 27.1214H5.72325L6.40968 26.3943ZM6.40969 21.5968L5.72326 20.8696H5.72325L6.40969 21.5968ZM7.90699 19.684L8.87253 19.9443L8.87353 19.9405L7.90699 19.684ZM7.56508 17.187L6.60632 17.4712L6.60632 17.4712L7.56508 17.187ZM7.36698 14.3997L6.50143 13.8989L6.50079 13.9L7.36698 14.3997ZM9.91733 13.1564L9.68584 12.1836V12.1836L9.91733 13.1564ZM12.2185 12.2225L12.9256 12.9296L12.2185 12.2225ZM13.1544 9.919L14.1271 10.1511V10.1511L13.1544 9.919ZM14.3956 7.37102L13.895 6.50534L13.8936 6.50616L14.3956 7.37102ZM17.1905 7.56636L17.4741 6.60744L17.1905 7.56636ZM19.6843 7.90674L19.9408 8.8733L19.9446 8.87228L19.6843 7.90674ZM21.5997 6.40816L22.3266 7.09492L22.3266 7.09492L21.5997 6.40816ZM26.3918 6.40816L25.665 7.09491L25.665 7.09492L26.3918 6.40816ZM28.3072 7.90674L28.047 8.87228L28.0501 8.87311L28.3072 7.90674ZM34.0965 6.50534C33.4587 6.13652 32.7589 6.13031 32.1863 6.20526C31.614 6.28018 31.0155 6.45962 30.5146 6.60773L31.0818 8.52564C31.621 8.36619 32.0601 8.23885 32.4459 8.18835C32.8314 8.13788 33.0104 8.18763 33.0953 8.2367L34.0965 6.50534ZM35.81 9.68617C35.6882 9.17533 35.5444 8.56211 35.3214 8.02343C35.098 7.48395 34.7395 6.87653 34.0958 6.50497L33.0959 8.23707C33.1875 8.28996 33.3233 8.42582 33.4735 8.78863C33.6241 9.15225 33.7334 9.60035 33.8645 10.15L35.81 9.68617ZM36.4802 11.5154C36.3777 11.413 36.2591 11.2209 36.1365 10.8793C36.0149 10.5408 35.9201 10.1481 35.81 9.68617L33.8645 10.15C33.9688 10.5872 34.0882 11.093 34.2541 11.5552C34.4189 12.0142 34.6611 12.5247 35.0659 12.9296L36.4802 11.5154ZM36.4792 12.9306L36.4799 12.9298L35.0662 11.5152L35.0654 11.5159L36.4792 12.9306ZM38.3029 12.1815C37.8427 12.0717 37.4513 11.9772 37.1136 11.8562C36.7729 11.734 36.58 11.6158 36.4763 11.513L35.0683 12.9335C35.473 13.3345 35.9814 13.5749 36.4389 13.7389C36.8994 13.904 37.4031 14.023 37.8387 14.1269L38.3029 12.1815ZM41.4836 13.8934C41.111 13.2514 40.5042 12.8934 39.9647 12.67C39.4261 12.447 38.8134 12.3033 38.3029 12.1815L37.8387 14.1269C38.3879 14.2579 38.8358 14.3673 39.1996 14.5179C39.5625 14.6681 39.6999 14.8043 39.7539 14.8974L41.4836 13.8934ZM41.3813 17.4733C41.5295 16.973 41.709 16.3753 41.784 15.8036C41.8591 15.2316 41.8531 14.5323 41.4845 13.8948L39.7531 14.896C39.8019 14.9803 39.8515 15.1586 39.801 15.5433C39.7505 15.9284 39.6232 16.3667 39.4637 16.9054L41.3813 17.4733ZM41.0488 19.4244C41.0089 19.2762 41.0024 19.0433 41.0669 18.6817C41.1309 18.323 41.2457 17.9314 41.3813 17.4733L39.4637 16.9054C39.3352 17.3392 39.1852 17.8416 39.098 18.3305C39.0113 18.8167 38.9672 19.3852 39.1174 19.9438L41.0488 19.4244ZM42.2685 20.8708C41.9276 20.5493 41.6405 20.2769 41.4134 20.01C41.1837 19.74 41.0829 19.5512 41.0486 19.4238L39.1175 19.9444C39.2639 20.4872 39.5812 20.9428 39.8901 21.306C40.2017 21.6721 40.5738 22.0217 40.896 22.3256L42.2685 20.8708ZM44.1945 23.9929C44.1925 23.2387 43.8438 22.6154 43.4811 22.142C43.1199 21.6707 42.6538 21.2343 42.2685 20.8708L40.896 22.3256C41.3102 22.7163 41.649 23.0394 41.8935 23.3585C42.1365 23.6756 42.1942 23.8738 42.1945 23.9982L44.1945 23.9929ZM42.2728 27.1167C42.6578 26.7532 43.1235 26.3169 43.484 25.8459C43.8459 25.3732 44.1945 24.7497 44.1945 23.9956H42.1945C42.1945 24.117 42.1385 24.3134 41.8959 24.6302C41.652 24.9488 41.3136 25.2718 40.8997 25.6626L42.2728 27.1167ZM41.0536 28.5647C41.0873 28.4382 41.1874 28.2496 41.4172 27.9792C41.6443 27.7118 41.9317 27.4389 42.2728 27.1167L40.8997 25.6626C40.5773 25.9671 40.2046 26.3174 39.8929 26.6843C39.5839 27.0481 39.2663 27.505 39.1211 28.0494L41.0536 28.5647ZM41.3859 30.5206C41.2502 30.0625 41.1354 29.6708 41.0713 29.3117C41.0068 28.9499 41.013 28.7159 41.0532 28.5661L39.1215 28.048C38.9715 28.6073 39.0156 29.1761 39.1024 29.6629C39.1897 30.1523 39.3398 30.6549 39.4683 31.0887L41.3859 30.5206ZM41.4887 34.0963C41.8572 33.4591 41.8634 32.7605 41.7884 32.1888C41.7134 31.6175 41.534 31.0204 41.3859 30.5206L39.4683 31.0887C39.6278 31.627 39.755 32.0646 39.8054 32.449C39.8558 32.8328 39.8062 33.0108 39.7574 33.0951L41.4887 34.0963ZM38.3042 35.8118C38.815 35.6902 39.4286 35.5467 39.968 35.3234C40.5087 35.0995 41.116 34.7405 41.4886 34.0965L39.7575 33.0949C39.7031 33.1889 39.5655 33.3253 39.2029 33.4755C38.839 33.6262 38.3909 33.7353 37.8412 33.8661L38.3042 35.8118ZM36.4787 36.48C36.581 36.3777 36.7725 36.2594 37.1132 36.1372C37.451 36.016 37.8429 35.9216 38.3042 35.8118L37.8412 33.8661C37.4046 33.97 36.8995 34.089 36.4378 34.2547C35.9792 34.4192 35.4692 34.6611 35.0645 35.0658L36.4787 36.48ZM35.8083 38.3085C35.9185 37.8467 36.0133 37.4543 36.1348 37.116C36.2575 36.7747 36.3761 36.5826 36.4787 36.48L35.0645 35.0658C34.6597 35.4706 34.4175 35.9809 34.2526 36.4398C34.0866 36.9017 33.9672 37.4073 33.8629 37.8443L35.8083 38.3085ZM34.0964 41.4892C34.7384 41.1166 35.0964 40.5098 35.3198 39.9703C35.5428 39.4317 35.6865 38.8189 35.8083 38.3085L33.8629 37.8443C33.7319 38.3935 33.6226 38.8414 33.4719 39.2052C33.3217 39.5681 33.1855 39.7055 33.0924 39.7595L34.0964 41.4892ZM30.5166 41.3869C31.0168 41.5351 31.6145 41.7146 32.1863 41.7896C32.7583 41.8647 33.4575 41.8587 34.095 41.49L33.0938 39.7587C33.0095 39.8074 32.8312 39.8571 32.4465 39.8066C32.0614 39.7561 31.6231 39.6288 31.0845 39.4693L30.5166 41.3869ZM28.5655 41.0543C28.7137 41.0145 28.9465 41.008 29.3081 41.0725C29.6669 41.1365 30.0585 41.2513 30.5166 41.3869L31.0845 39.4693C30.6506 39.3408 30.1482 39.1908 29.6593 39.1036C29.1732 39.0169 28.6047 38.9728 28.0461 39.123L28.5655 41.0543ZM27.1172 42.274C27.439 41.9334 27.7118 41.6464 27.979 41.4192C28.2494 41.1895 28.4384 41.0886 28.566 41.0542L28.0455 39.1231C27.5029 39.2694 27.0472 39.5865 26.6839 39.8952C26.3175 40.2066 25.9677 40.5785 25.6635 40.9005L27.1172 42.274ZM23.9943 44.1958C24.7486 44.1958 25.3723 43.8474 25.8454 43.4854C26.3167 43.1249 26.7534 42.6591 27.1173 42.274L25.6635 40.9005C25.2724 41.3144 24.9491 41.653 24.6302 41.8969C24.3131 42.1395 24.1163 42.1958 23.9943 42.1958V44.1958ZM20.8731 42.2741C21.2366 42.6591 21.673 43.1248 22.1439 43.4853C22.6167 43.8472 23.2402 44.1958 23.9943 44.1958V42.1958C23.8729 42.1958 23.6765 42.1398 23.3596 41.8972C23.041 41.6533 22.7181 41.3149 22.3273 40.901L20.8731 42.2741ZM19.4251 41.0549C19.5517 41.0886 19.7402 41.1887 20.0107 41.4185C20.2781 41.6456 20.5509 41.933 20.8731 42.2741L22.3273 40.901C22.0228 40.5786 21.6725 40.2059 21.3055 39.8942C20.9417 39.5852 20.4849 39.2676 19.9405 39.1224L19.4251 41.0549ZM17.4693 41.3872C17.9273 41.2515 18.319 41.1367 18.6782 41.0726C19.04 41.0081 19.274 41.0143 19.4238 41.0545L19.9418 39.1228C19.3826 38.9728 18.8137 39.0169 18.327 39.1037C17.8375 39.191 17.335 39.3411 16.9011 39.4696L17.4693 41.3872ZM13.8936 41.49C14.5307 41.8585 15.2294 41.8647 15.8011 41.7897C16.3723 41.7147 16.9695 41.5353 17.4693 41.3872L16.9011 39.4696C16.3629 39.6291 15.9253 39.7563 15.5409 39.8067C15.157 39.8571 14.9791 39.8075 14.8948 39.7587L13.8936 41.49ZM12.1781 38.3055C12.2996 38.8163 12.4431 39.4299 12.6665 39.9693C12.8904 40.51 13.2494 41.1173 13.8933 41.4899L14.895 39.7588C14.801 39.7044 14.6645 39.5668 14.5143 39.2042C14.3637 38.8403 14.2545 38.3922 14.1237 37.8425L12.1781 38.3055ZM11.5099 36.48C11.6122 36.5822 11.7304 36.7738 11.8527 37.1145C11.9739 37.4522 12.0683 37.8441 12.1781 38.3055L14.1237 37.8425C14.0199 37.4059 13.9008 36.9008 13.7352 36.4391C13.5707 35.9805 13.3288 35.4705 12.9241 35.0658L11.5099 36.48ZM11.5128 35.0629L11.5099 35.0658L12.9241 36.48L12.927 36.4771L11.5128 35.0629ZM9.68717 35.8096C10.148 35.9195 10.5399 36.0142 10.8778 36.1354C11.2188 36.2577 11.4113 36.3761 11.5146 36.4788L12.9252 35.0611C12.5205 34.6584 12.0113 34.4172 11.5532 34.2529C11.092 34.0874 10.5875 33.9682 10.1513 33.8642L9.68717 35.8096ZM6.5064 34.0976C6.87904 34.7396 7.4858 35.0977 8.02534 35.321C8.56395 35.5441 9.17669 35.6878 9.68717 35.8096L10.1513 33.8642C9.60212 33.7331 9.15421 33.6238 8.79043 33.4732C8.42758 33.3229 8.29018 33.1868 8.23613 33.0936L6.5064 34.0976ZM6.60798 30.5144C6.45986 31.0153 6.28043 31.6137 6.20551 32.1861C6.13056 32.7587 6.13676 33.4584 6.50559 34.0962L8.23694 33.095C8.18787 33.0102 8.13813 32.8312 8.18859 32.4457C8.23909 32.0599 8.36643 31.6208 8.52589 31.0815L6.60798 30.5144ZM6.94062 28.5642C6.98018 28.7128 6.98624 28.946 6.92172 29.3074C6.85771 29.6658 6.74322 30.057 6.60798 30.5144L8.52589 31.0815C8.65401 30.6482 8.80345 30.1468 8.89057 29.6589C8.97719 29.1739 9.0216 28.6069 8.87336 28.0498L6.94062 28.5642ZM5.72325 27.1214C6.06362 27.4427 6.3503 27.7149 6.57711 27.9816C6.80647 28.2513 6.90712 28.4399 6.94145 28.5673L8.87252 28.0467C8.72629 27.5043 8.40936 27.049 8.10073 26.686C7.78956 26.3201 7.41787 25.9708 7.09612 25.6671L5.72325 27.1214ZM3.7998 23.9955C3.7998 24.7508 4.14813 25.3752 4.5107 25.8492C4.87169 26.321 5.33798 26.7578 5.72325 27.1214L7.09612 25.6671C6.68191 25.2761 6.34326 24.953 6.09918 24.6339C5.85668 24.317 5.7998 24.1193 5.7998 23.9955H3.7998ZM5.72325 20.8696C5.33798 21.2333 4.87169 21.67 4.5107 22.1419C4.14813 22.6158 3.7998 23.2402 3.7998 23.9955H5.7998C5.7998 23.8717 5.85668 23.6741 6.09918 23.3571C6.34326 23.038 6.68191 22.715 7.09612 22.324L5.72325 20.8696ZM6.94145 19.4238C6.90712 19.5511 6.80647 19.7397 6.57711 20.0094C6.3503 20.2761 6.06362 20.5483 5.72326 20.8696L7.09612 22.324C7.41787 22.0203 7.78956 21.6709 8.10073 21.305C8.40936 20.9421 8.72629 20.4868 8.87252 19.9443L6.94145 19.4238ZM6.60632 17.4712C6.74201 17.9289 6.85699 18.3208 6.92134 18.6802C6.98619 19.0423 6.98038 19.277 6.94044 19.4275L8.87353 19.9405C9.02174 19.382 8.97711 18.8139 8.89003 18.3276C8.80246 17.8386 8.6524 17.3364 8.52384 16.9027L6.60632 17.4712ZM6.50079 13.9C6.13363 14.5364 6.12843 15.2343 6.20367 15.8047C6.2789 16.375 6.45822 16.9716 6.60632 17.4712L8.52384 16.9027C8.36437 16.3648 8.23716 15.9273 8.1865 15.5432C8.13585 15.1592 8.18538 14.9822 8.23317 14.8994L6.50079 13.9ZM9.68584 12.1836C9.17503 12.3051 8.56144 12.4487 8.02203 12.672C7.48139 12.8959 6.87403 13.2549 6.50143 13.8989L8.23253 14.9005C8.28694 14.8065 8.42453 14.67 8.78719 14.5199C9.15109 14.3692 9.59917 14.2601 10.1488 14.1293L9.68584 12.1836ZM11.5114 11.5154C11.4091 11.6177 11.2176 11.7359 10.8768 11.8582C10.5391 11.9794 10.1472 12.0738 9.68584 12.1836L10.1488 14.1293C10.5854 14.0254 11.0906 13.9063 11.5522 13.7407C12.0108 13.5762 12.5209 13.3343 12.9256 12.9296L11.5114 11.5154ZM12.1817 9.68693C12.0716 10.1487 11.9767 10.5411 11.8552 10.8794C11.7326 11.2207 11.614 11.4128 11.5114 11.5154L12.9256 12.9296C13.3304 12.5248 13.5726 12.0145 13.7374 11.5556C13.9034 11.0936 14.0229 10.5881 14.1271 10.1511L12.1817 9.68693ZM13.8936 6.50616C13.2516 6.8788 12.8936 7.48555 12.6702 8.0251C12.4472 8.56371 12.3035 9.17645 12.1817 9.68693L14.1271 10.1511C14.2581 9.60188 14.3675 9.15397 14.5181 8.79019C14.6683 8.42733 14.8045 8.28994 14.8976 8.23589L13.8936 6.50616ZM17.4741 6.60744C16.9737 6.45939 16.3759 6.28003 15.804 6.20519C15.2317 6.13029 14.5325 6.13669 13.895 6.50534L14.8962 8.2367C14.9811 8.18761 15.1598 8.13794 15.5445 8.18828C15.9296 8.23868 16.3679 8.36587 16.9068 8.52528L17.4741 6.60744ZM19.4278 6.94019C19.2775 6.98008 19.0432 6.98594 18.6816 6.92138C18.3228 6.8573 17.9315 6.74273 17.4741 6.60744L16.9068 8.52528C17.3401 8.65345 17.8416 8.80302 18.33 8.89023C18.8158 8.97697 19.383 9.0213 19.9408 8.87329L19.4278 6.94019ZM20.8728 5.7214C20.551 6.06197 20.2783 6.34901 20.011 6.57615C19.7407 6.80589 19.5516 6.9068 19.424 6.94121L19.9446 8.87228C20.4872 8.726 20.9428 8.40891 21.3061 8.10016C21.6725 7.78881 22.0224 7.4169 22.3266 7.09492L20.8728 5.7214ZM23.9958 3.79956C23.2415 3.79956 22.6177 4.14804 22.1446 4.50997C21.6733 4.87054 21.2366 5.33632 20.8728 5.7214L22.3266 7.09492C22.7177 6.68094 23.0409 6.34242 23.3598 6.09845C23.6769 5.85585 23.8737 5.79956 23.9958 5.79956V3.79956ZM27.1187 5.7214C26.7549 5.33631 26.3182 4.87054 25.8469 4.50997C25.3738 4.14804 24.75 3.79956 23.9958 3.79956V5.79956C24.1178 5.79956 24.3146 5.85585 24.6317 6.09845C24.9506 6.34242 25.2738 6.68094 25.665 7.09491L27.1187 5.7214ZM28.5675 6.94121C28.4399 6.9068 28.2508 6.80588 27.9805 6.57615C27.7132 6.34901 27.4405 6.06197 27.1187 5.7214L25.665 7.09492C25.9692 7.4169 26.319 7.78881 26.6854 8.10016C27.0487 8.40891 27.5043 8.726 28.047 8.87228L28.5675 6.94121ZM30.5146 6.60773C30.0573 6.74297 29.6661 6.85746 29.3076 6.92148C28.9463 6.986 28.7131 6.97994 28.5644 6.94037L28.0501 8.87311C28.6072 9.02136 29.1741 8.97695 29.6592 8.89033C30.1471 8.8032 30.6485 8.65376 31.0818 8.52564L30.5146 6.60773Z" fill="white" mask="url(#path-2-outside-1)"/>
</svg>
