<svg width="32" height="32" viewBox="0 0 32 32" fill="none" xmlns="http://www.w3.org/2000/svg">
<path d="M24.7913 8.5H7.20801C6.17413 8.5 5.33301 9.34113 5.33301 10.375V21.625C5.33301 22.6589 6.17413 23.5 7.20801 23.5H24.7913C25.8252 23.5 26.6663 22.6589 26.6663 21.625V10.375C26.6663 9.34113 25.8252 8.5 24.7913 8.5ZM25.4163 21.625C25.4163 21.9696 25.136 22.25 24.7913 22.25H7.20801C6.86338 22.25 6.58301 21.9696 6.58301 21.625V14.75H25.4163V21.625ZM25.4163 13.5H6.58301V12.25H25.4163V13.5ZM25.4163 11H6.58301V10.375C6.58301 10.0304 6.86338 9.75 7.20801 9.75H24.7913C25.136 9.75 25.4163 10.0304 25.4163 10.375V11Z" fill="#6F38AB"/>
<path d="M21.666 16C21.2111 16 20.7847 16.1227 20.4168 16.3359C20.0393 16.1175 19.6091 16 19.166 16C17.7875 16 16.666 17.1215 16.666 18.5C16.666 19.8785 17.7875 21 19.166 21C19.6091 21 20.0393 20.8825 20.4168 20.6641C20.7846 20.8773 21.2111 21 21.666 21C23.0445 21 24.166 19.8785 24.166 18.5C24.166 17.1215 23.0445 16 21.666 16ZM19.4793 19.7099C19.3778 19.7361 19.2727 19.75 19.166 19.75C18.4768 19.75 17.916 19.1893 17.916 18.5C17.916 17.8108 18.4768 17.25 19.166 17.25C19.2727 17.25 19.3778 17.2639 19.4793 17.2901C19.28 17.6489 19.166 18.0613 19.166 18.5C19.166 18.9387 19.28 19.3511 19.4793 19.7099ZM21.666 19.75C20.9768 19.75 20.416 19.1893 20.416 18.5C20.416 17.8108 20.9768 17.25 21.666 17.25C22.3553 17.25 22.916 17.8108 22.916 18.5C22.916 19.1893 22.3553 19.75 21.666 19.75Z" fill="#6F38AB"/>
<path d="M9.70801 18.5H8.45801C8.11284 18.5 7.83301 18.7798 7.83301 19.125C7.83301 19.4702 8.11284 19.75 8.45801 19.75H9.70801C10.0532 19.75 10.333 19.4702 10.333 19.125C10.333 18.7798 10.0532 18.5 9.70801 18.5Z" fill="#6F38AB"/>
<path d="M13.458 18.5H12.208C11.8628 18.5 11.583 18.7798 11.583 19.125C11.583 19.4702 11.8628 19.75 12.208 19.75H13.458C13.8032 19.75 14.083 19.4702 14.083 19.125C14.083 18.7798 13.8032 18.5 13.458 18.5Z" fill="#6F38AB"/>
</svg>
