<svg width="13" height="13" viewBox="0 0 13 13" fill="none" xmlns="http://www.w3.org/2000/svg">
<path fill-rule="evenodd" clip-rule="evenodd" d="M6.01728 1C7.09102 1 8.10061 1.41889 8.85989 2.17941C10.2651 3.58664 10.4397 6.23437 9.23325 7.84506L6.01728 12.4974L2.79649 7.83856C1.59488 6.23438 1.7695 3.58664 3.17467 2.17941C3.93396 1.41889 4.94334 1 6.01728 1ZM4.587 4.98957C4.587 4.1793 5.24545 3.51978 6.05442 3.51978C6.86339 3.51978 7.52185 4.1793 7.52185 4.98957C7.52185 5.79985 6.86339 6.45937 6.05442 6.45937C5.24545 6.45937 4.587 5.79985 4.587 4.98957Z" fill="#888888"/>
<path d="M8.85989 2.17941L8.78913 2.25006L8.78913 2.25007L8.85989 2.17941ZM9.23325 7.84506L9.15315 7.78507L9.15099 7.7882L9.23325 7.84506ZM6.01728 12.4974L5.93502 12.5543L6.01729 12.6733L6.09954 12.5543L6.01728 12.4974ZM2.79649 7.83856L2.87881 7.78165L2.87653 7.7786L2.79649 7.83856ZM3.17467 2.17941L3.24543 2.25007L3.24544 2.25006L3.17467 2.17941ZM8.93066 2.10876C8.15263 1.32947 7.11759 0.9 6.01728 0.9V1.1C7.06444 1.1 8.04858 1.50832 8.78913 2.25006L8.93066 2.10876ZM9.31329 7.90501C9.93327 7.07728 10.1955 5.98792 10.1257 4.92936C10.0559 3.87087 9.6535 2.83266 8.93066 2.10875L8.78913 2.25007C9.47145 2.93339 9.85891 3.92266 9.92614 4.94252C9.99336 5.9623 9.73966 7.00216 9.15321 7.78511L9.31329 7.90501ZM6.09954 12.5543L9.31551 7.90193L9.15099 7.7882L5.93502 12.4405L6.09954 12.5543ZM2.71423 7.89542L5.93502 12.5543L6.09954 12.4405L2.87875 7.78169L2.71423 7.89542ZM3.10391 2.10875C2.38107 2.83265 1.97864 3.87084 1.90826 4.92848C1.83787 5.98617 2.09883 7.07396 2.71646 7.89851L2.87653 7.7786C2.29255 6.99897 2.04 5.9608 2.10782 4.94176C2.17563 3.92269 2.56311 2.93339 3.24543 2.25007L3.10391 2.10875ZM6.01728 0.9C4.91676 0.9 3.88193 1.32947 3.1039 2.10876L3.24544 2.25006C3.98599 1.50831 4.96991 1.1 6.01728 1.1V0.9ZM6.05442 3.41978C5.19007 3.41978 4.487 4.12422 4.487 4.98957H4.687C4.687 4.23437 5.30083 3.61978 6.05442 3.61978V3.41978ZM7.62185 4.98957C7.62185 4.12422 6.91877 3.41978 6.05442 3.41978V3.61978C6.80801 3.61978 7.42185 4.23437 7.42185 4.98957H7.62185ZM6.05442 6.55937C6.91877 6.55937 7.62185 5.85493 7.62185 4.98957H7.42185C7.42185 5.74478 6.80801 6.35937 6.05442 6.35937V6.55937ZM4.487 4.98957C4.487 5.85493 5.19007 6.55937 6.05442 6.55937V6.35937C5.30083 6.35937 4.687 5.74478 4.687 4.98957H4.487Z" fill="#888888"/>
</svg>
