<svg width="16" height="16" viewBox="0 0 16 16" fill="none" xmlns="http://www.w3.org/2000/svg">
<path d="M7.90202 3.55127V6.08786H5.75568V3.55127H4.58496V6.6732C4.58496 6.99651 4.84702 7.25858 5.17034 7.25858H8.4874C8.81071 7.25858 9.07277 6.99651 9.07277 6.6732V3.55127H7.90202Z" fill="#DC56DF"/>
<path d="M15.4146 0.624512H2.92684C2.77172 0.624512 2.62266 0.686168 2.513 0.796012L0.1715 3.13748C0.0616562 3.24714 0 3.3962 0 3.55132V14.7904C0 15.1137 0.262063 15.3757 0.585375 15.3757H13.0732C13.2285 15.3757 13.3774 15.3139 13.487 15.2042L15.8285 12.8628C15.9383 12.7531 16 12.6042 16 12.4489V1.20986C16 0.886543 15.7379 0.624512 15.4146 0.624512ZM14.8293 12.2065L12.8308 14.205H1.17072V3.79386L3.16934 1.79523H14.8293V12.2065H14.8293Z" fill="#DC56DF"/>
<path d="M15.0004 0.795898L12.8304 2.96583H0.584961V4.13655H13.0728C13.2281 4.13655 13.377 4.07489 13.4866 3.96505L15.8281 1.62358L15.0004 0.795898Z" fill="#DC56DF"/>
<path d="M13.659 3.55127H12.4883V14.7903H13.659V3.55127Z" fill="#DC56DF"/>
</svg>
