<svg width="16" height="16" viewBox="0 0 16 16" fill="none" xmlns="http://www.w3.org/2000/svg">
<circle opacity="0.4" cx="8" cy="8" r="7.5" stroke="#666666"/>
<path opacity="0.48" d="M7.23066 9.27843C7.23066 8.89017 7.31653 8.5691 7.48826 8.31523C7.66746 8.06137 7.92506 7.78137 8.26106 7.47523C8.50746 7.25124 8.68666 7.06457 8.79866 6.91523C8.91813 6.75843 8.97786 6.58297 8.97786 6.38883C8.97786 6.11257 8.86586 5.89603 8.64186 5.73923C8.42533 5.57497 8.13413 5.49283 7.76826 5.49283C7.41733 5.49283 7.10373 5.5675 6.82746 5.71683C6.55866 5.8587 6.33093 6.0603 6.14426 6.32163L4.78906 5.52643C5.10266 5.04857 5.52453 4.67897 6.05466 4.41763C6.59226 4.1563 7.22693 4.02563 7.95866 4.02563C8.81733 4.02563 9.50426 4.20857 10.0195 4.57443C10.5421 4.9403 10.8035 5.44803 10.8035 6.09763C10.8035 6.40377 10.7512 6.67257 10.6467 6.90403C10.5496 7.1355 10.4264 7.33337 10.2771 7.49763C10.1352 7.65443 9.94853 7.83737 9.71706 8.04643C9.4408 8.29283 9.2392 8.5019 9.11226 8.67363C8.98533 8.8379 8.92186 9.0395 8.92186 9.27843H7.23066ZM8.08186 12.0896C7.77573 12.0896 7.51813 11.9926 7.30906 11.7984C7.10746 11.5968 7.00666 11.3542 7.00666 11.0704C7.00666 10.7867 7.10746 10.5515 7.30906 10.3648C7.51066 10.1707 7.76826 10.0736 8.08186 10.0736C8.39546 10.0736 8.65306 10.1707 8.85466 10.3648C9.05626 10.5515 9.15706 10.7867 9.15706 11.0704C9.15706 11.3542 9.05253 11.5968 8.84346 11.7984C8.64186 11.9926 8.388 12.0896 8.08186 12.0896Z" fill="#666666"/>
</svg>
