<svg width="28" height="28" viewBox="0 0 28 28" fill="none" xmlns="http://www.w3.org/2000/svg">
<path d="M22.4404 8.75C20.0291 8.75 18.0654 6.78766 18.0654 4.375C18.0654 1.96234 20.0291 0 22.4404 0C24.852 0 26.8154 1.96234 26.8154 4.375C26.8154 6.78766 24.852 8.75 22.4404 8.75ZM22.4404 1.75C20.9938 1.75 19.8154 2.92706 19.8154 4.375C19.8154 5.82294 20.9938 7 22.4404 7C23.8871 7 25.0654 5.82294 25.0654 4.375C25.0654 2.92706 23.8871 1.75 22.4404 1.75Z" fill="#6F38AB"/>
<path d="M22.4404 28C20.0291 28 18.0654 26.0377 18.0654 23.625C18.0654 21.2123 20.0291 19.25 22.4404 19.25C24.852 19.25 26.8154 21.2123 26.8154 23.625C26.8154 26.0377 24.852 28 22.4404 28ZM22.4404 21C20.9938 21 19.8154 22.1771 19.8154 23.625C19.8154 25.0729 20.9938 26.25 22.4404 26.25C23.8871 26.25 25.0654 25.0729 25.0654 23.625C25.0654 22.1771 23.8871 21 22.4404 21Z" fill="#6F38AB"/>
<path d="M5.52344 18.375C3.11185 18.375 1.14844 16.4127 1.14844 14C1.14844 11.5873 3.11185 9.625 5.52344 9.625C7.93503 9.625 9.89844 11.5873 9.89844 14C9.89844 16.4127 7.93503 18.375 5.52344 18.375ZM5.52344 11.375C4.07678 11.375 2.89844 12.5521 2.89844 14C2.89844 15.4479 4.07678 16.625 5.52344 16.625C6.97009 16.625 8.14844 15.4479 8.14844 14C8.14844 12.5521 6.97009 11.375 5.52344 11.375Z" fill="#6F38AB"/>
<path d="M8.56911 13.1483C8.26449 13.1483 7.96819 12.9895 7.8084 12.7073C7.56914 12.2874 7.71505 11.7529 8.13503 11.5138L18.9606 5.34204C19.3793 5.10065 19.9148 5.24762 20.1528 5.66889C20.3921 6.08887 20.2462 6.62314 19.8262 6.8624L9.00063 13.034C8.86413 13.1109 8.71609 13.1483 8.56911 13.1483Z" fill="#6F38AB"/>
<path d="M19.3942 22.7731C19.2472 22.7731 19.099 22.7357 18.9625 22.6578L8.13689 16.486C7.71691 16.2469 7.57122 15.7125 7.81026 15.2925C8.04824 14.8714 8.58272 14.7255 9.0027 14.9658L19.8281 21.1374C20.248 21.3767 20.3939 21.9109 20.1549 22.3309C19.9938 22.6144 19.6975 22.7731 19.3942 22.7731Z" fill="#6F38AB"/>
</svg>
