<svg width="10" height="10" viewBox="0 0 10 10" fill="none" xmlns="http://www.w3.org/2000/svg">
<circle cx="5" cy="5" r="5" fill="#292929"/>
<path d="M3.03536 6.96464C3.05893 6.98819 3.08981 6.99998 3.1207 6.99998C3.15159 6.99998 3.18247 6.98819 3.20604 6.96464L5 5.17067L6.79397 6.96465C6.81753 6.9882 6.84843 6.99999 6.87932 6.99999C6.91019 6.99999 6.94108 6.9882 6.96466 6.96465C7.01178 6.91752 7.01178 6.8411 6.96466 6.79396L5.17068 4.99999L6.96466 3.20603C7.01178 3.15889 7.01178 3.08249 6.96466 3.03535C6.91752 2.98822 6.84111 2.98822 6.79397 3.03535L5 4.82932L3.20603 3.03537C3.15889 2.98824 3.08249 2.98824 3.03535 3.03537C2.98822 3.0825 2.98822 3.15891 3.03535 3.20605L4.82932 5L3.03536 6.79396C2.98823 6.84109 2.98823 6.91751 3.03536 6.96464Z" fill="white" stroke="white" stroke-width="0.8"/>
</svg>
