<svg width="40" height="34" viewBox="0 0 40 34" fill="none" xmlns="http://www.w3.org/2000/svg">
<path d="M37.9575 24.7282H2.04278C0.916408 24.7282 0 23.76 0 22.5697V2.15857C0 0.96833 0.916408 0 2.04278 0H37.9575C39.0834 0 40 0.96833 40 2.15857V22.5697C40 23.76 39.0834 24.7282 37.9575 24.7282ZM2.04278 1.74365C1.82612 1.74365 1.64955 1.92976 1.64955 2.15857V22.5697C1.64955 22.7985 1.82612 22.9847 2.04278 22.9847H37.9575C38.174 22.9847 38.3504 22.7985 38.3504 22.5697V2.15857C38.3504 1.92976 38.1741 1.74365 37.9575 1.74365H2.04278Z" fill="white"/>
<path d="M15.7297 18.9895C15.4589 18.8329 15.2827 18.541 15.2827 18.2149V6.51353C15.2827 6.18722 15.4553 5.88843 15.7297 5.73873C16.004 5.58912 16.3341 5.61406 16.5857 5.80318L24.3701 11.6538C24.5879 11.8174 24.7168 12.0821 24.7168 12.3642C24.7168 12.6465 24.5879 12.9112 24.3701 13.0748C24.3701 13.0748 18.5315 17.4625 16.5857 18.9252C16.4435 19.0321 16.137 19.2251 15.7297 18.9895ZM16.9326 8.20326V16.5251L22.4687 12.3642L16.9326 8.20326Z" fill="white"/>
<path d="M39.1753 29.6769H23.4095C23.0434 28.1946 21.7657 27.0977 20.2502 27.0977C18.7349 27.0977 17.4575 28.1946 17.0913 29.6769H0.824816C0.369388 29.6769 0 30.0674 0 30.5487C0 31.0302 0.369388 31.4205 0.824816 31.4205H17.0913C17.4576 32.9028 18.735 33.9999 20.2503 33.9999C21.7658 33.9999 23.0435 32.9027 23.4096 31.4205H39.1753C39.6304 31.4205 40 31.0303 40 30.5487C40 30.0674 39.6304 29.6769 39.1753 29.6769ZM20.2502 32.2562C19.3598 32.2562 18.6349 31.4902 18.6349 30.5486C18.6349 29.6072 19.3598 28.8413 20.2502 28.8413C21.1411 28.8413 21.8658 29.6072 21.8658 30.5486C21.8658 31.4903 21.1411 32.2562 20.2502 32.2562Z" fill="white"/>
</svg>
