<svg width="36" height="19" viewBox="0 0 36 19" fill="none" xmlns="http://www.w3.org/2000/svg">
<path d="M8.01278 16.7874C8.45151 16.3731 8.7318 15.8125 8.75618 15.2092H26.7927C26.7562 15.7942 26.8537 16.3609 27.1705 16.7874H8.01278Z" fill="white"/>
<path d="M0.207176 13.0521C0.25592 12.912 0.33514 12.6865 0.347328 12.5951V3.8937C0.347328 0.0792148 2.62017 0 2.71767 0H20.1388C22.7773 0 23.8558 0.883548 23.9655 0.981043L23.9838 0.99323L30.6317 7.59242L33.8734 8.90251L33.8978 8.91469C34.111 9.01219 36 9.89574 36 11.5958V14.6486C36 16.0074 33.5748 16.5985 31.893 16.7508C32.2038 16.2329 32.4232 15.654 32.4597 15.0934C33.3859 14.935 34.1537 14.6608 34.4279 14.4658V11.5958C34.4279 11.0657 33.654 10.5355 33.2701 10.3588L29.7481 8.93907L22.9235 2.16926C22.8077 2.09005 22.0034 1.5782 20.1388 1.5782H2.77251H2.76641H2.73595H2.76032C2.45565 1.63913 1.92552 2.19364 1.92552 3.8937V12.6195C1.92552 12.9059 1.81584 13.2288 1.70007 13.564C1.65741 13.6919 1.59039 13.8808 1.5782 13.9601V14.4232C1.69397 14.6425 2.44347 14.9228 3.41232 15.0873C3.40014 15.1483 3.38795 15.2092 3.38186 15.2701C3.30264 15.7393 3.29045 16.2451 3.45498 16.6838C3.1564 16.6412 2.81516 16.5863 2.47393 16.5071C0.834801 16.1232 0 15.4286 0 14.4414V13.9357C0 13.6676 0.0974922 13.3812 0.207176 13.0521Z" fill="white"/>
<path d="M29.4803 18.8044C31.4607 18.8044 33.0693 17.1957 33.0693 15.2153C33.0693 13.235 31.4607 11.6263 29.4803 11.6263C27.4999 11.6263 25.8913 13.235 25.8913 15.2153C25.8913 17.1957 27.4999 18.8044 29.4803 18.8044ZM29.4803 13.1984C30.5893 13.1984 31.4972 14.1002 31.4972 15.2153C31.4972 16.3243 30.5954 17.2323 29.4803 17.2323C28.3713 17.2323 27.4634 16.3304 27.4634 15.2153C27.4695 14.1002 28.3713 13.1984 29.4803 13.1984Z" fill="white"/>
<path d="M6.15448 18.8044C8.13486 18.8044 9.74353 17.1957 9.74353 15.2153C9.74353 13.235 8.13486 11.6263 6.15448 11.6263C4.17411 11.6263 2.56543 13.235 2.56543 15.2153C2.55934 17.1957 4.17411 18.8044 6.15448 18.8044ZM6.15448 13.1984C7.26349 13.1984 8.17142 14.1002 8.17142 15.2153C8.17142 16.3243 7.26959 17.2323 6.15448 17.2323C5.04547 17.2323 4.13754 16.3304 4.13754 15.2153C4.13754 14.1002 5.03938 13.1984 6.15448 13.1984Z" fill="white"/>
<path d="M21.0405 8.88415H29.8333C30.266 8.88415 30.6194 8.53073 30.6194 8.0981C30.6194 7.66546 30.266 7.31205 29.8333 7.31205H21.0405C20.6871 7.31205 20.486 7.19018 20.4372 6.95863V4.10081C20.4372 3.66818 20.0838 3.31476 19.6512 3.31476C19.2186 3.31476 18.8651 3.66818 18.8651 4.10081V7.04393V7.0744C18.9261 7.80561 19.5537 8.88415 21.0405 8.88415Z" fill="white"/>
<path d="M8.64659 7.46478C8.64659 7.13382 8.33075 7.08454 7.45865 7.06337C6.69172 7.04227 5.02253 6.99298 5.02253 5.6197V5.52815C5.02253 4.71833 5.57893 4 7.48873 4H7.75938C8.44361 4 9.10524 4.08448 9.7218 4.23239V5.39433C8.99251 5.23239 8.2782 5.13382 7.54135 5.13382C6.4511 5.13382 6.37594 5.36621 6.37594 5.52815C6.37594 5.86624 6.70676 5.91552 7.55639 5.93663C8.27071 5.95072 10 6 10 7.38737V7.47887C10 8.28167 9.4436 9 7.52631 9H7.25566C6.4662 9 5.71431 8.91552 5 8.77468V7.59158C5.812 7.7606 6.7218 7.87325 7.48873 7.87325C8.56389 7.87325 8.64659 7.64086 8.64659 7.46478Z" fill="white"/>
<path d="M13.2196 5.19406H10.2476V4H15.0916V5.04475L12.0417 7.80594H15.1697V9H10.1697V7.95525L13.2196 5.19406Z" fill="white"/>
</svg>
