<svg width="13" height="13" viewBox="0 0 13 13" fill="none" xmlns="http://www.w3.org/2000/svg">
<path fill-rule="evenodd" clip-rule="evenodd" d="M1 1H4.90909L4.90909 4.90909L1 4.90909L1 1ZM0 1C0 0.447716 0.447715 0 1 0H4.90909C5.46138 0 5.90909 0.447715 5.90909 1V4.90909C5.90909 5.46138 5.46138 5.90909 4.90909 5.90909H1C0.447716 5.90909 0 5.46138 0 4.90909V1ZM8.09091 1H12V4.90909L8.09091 4.90909V1ZM7.09091 1C7.09091 0.447716 7.53862 0 8.09091 0H12C12.5523 0 13 0.447715 13 1V4.90909C13 5.46138 12.5523 5.90909 12 5.90909H8.09091C7.53862 5.90909 7.09091 5.46138 7.09091 4.90909V1ZM4.90909 8.09091H1L1 12H4.90909L4.90909 8.09091ZM1 7.09091C0.447715 7.09091 0 7.53862 0 8.09091V12C0 12.5523 0.447716 13 1 13H4.90909C5.46138 13 5.90909 12.5523 5.90909 12V8.09091C5.90909 7.53862 5.46138 7.09091 4.90909 7.09091H1ZM8.09091 8.09091H12V12H8.09091V8.09091ZM7.09091 8.09091C7.09091 7.53862 7.53862 7.09091 8.09091 7.09091H12C12.5523 7.09091 13 7.53862 13 8.09091V12C13 12.5523 12.5523 13 12 13H8.09091C7.53862 13 7.09091 12.5523 7.09091 12V8.09091Z" fill="#BEB7D1"/>
</svg>
