<svg width="672" height="687" viewBox="0 0 672 687" fill="none" xmlns="http://www.w3.org/2000/svg">
<g clip-path="url(#clip0)">
<path d="M435.895 625.531L284.685 537.619C280.624 535.262 278.593 532.148 278.528 528.862V517.424C278.528 513.424 281.553 520.365 287.169 517.078L419.931 465.987C430.451 459.911 446.35 459.241 455.466 464.516L557.101 524.105C560.146 525.856 562.35 518.397 563.128 520.775C563.387 521.575 563.235 532.019 563.235 532.84C563.235 536.927 560.384 541.273 554.595 544.645L471.451 624.039C460.974 630.115 444.989 630.785 435.895 625.531Z" fill="url(#paint0_linear)"/>
<path d="M435.896 614.287L284.686 526.396C275.57 521.12 276.715 511.931 287.235 505.855L419.932 454.764C430.452 448.688 446.351 448.018 455.467 453.272L557.102 512.882C566.196 518.136 565.073 527.347 554.553 533.422L471.409 612.816C460.975 618.892 444.99 619.562 435.896 614.287Z" fill="url(#paint1_linear)"/>
<path style="mix-blend-mode:multiply" opacity="0.82" d="M557.101 512.882L455.574 453.272C446.459 448.018 430.56 448.688 420.04 454.764L353.184 480.493C353.867 481.029 354.589 481.513 355.344 481.942L506.554 569.833C508.815 571.096 511.255 572.008 513.79 572.536L554.833 533.422C565.072 527.347 566.195 518.136 557.101 512.882Z" fill="url(#paint2_linear)"/>
<path style="mix-blend-mode:screen" opacity="0.6" d="M554.554 531.498L471.41 610.914C460.911 616.989 444.991 617.66 435.897 612.384L284.687 524.471C283.095 523.723 281.711 522.597 280.653 521.192C279.595 519.786 278.896 518.143 278.617 516.406C278.141 520.125 280.129 523.758 284.687 526.395L435.897 614.287C444.991 619.562 460.911 618.892 471.41 612.816L554.554 533.422C560.71 529.855 563.626 525.249 563.194 520.968C562.697 524.666 559.803 528.471 554.554 531.498Z" fill="url(#paint3_radial)"/>
<path d="M627.868 611.761L266.39 402.681C247.402 391.719 232 362.271 232 336.931V35.333C232 9.99269 247.402 -1.66127 266.39 9.32243L627.868 218.38C646.856 229.342 662.236 258.791 662.236 284.131V585.729C662.236 611.069 646.856 622.701 627.868 611.761Z" fill="url(#paint4_linear)"/>
<path d="M632.296 591.955L276.045 385.946C260.751 376.216 251.311 356.757 251.311 336.93V33.4518C251.303 32.3726 251.58 31.3104 252.114 30.3729C252.648 29.4354 253.42 28.656 254.352 28.1137C255.285 27.5714 256.344 27.2856 257.422 27.2852C258.5 27.2847 259.559 27.5697 260.492 28.1113L261.572 28.7383L618.212 235.028C636.4 245.515 642.946 264.174 642.946 284.044V586.701C642.976 587.867 642.692 589.019 642.123 590.036C641.555 591.054 640.722 591.899 639.714 592.484C638.706 593.068 637.559 593.369 636.395 593.356C635.23 593.343 634.09 593.016 633.095 592.409L632.296 591.955Z" fill="url(#paint5_linear)"/>
<g style="mix-blend-mode:multiply">
<path d="M636.768 589.358L635.947 588.904L279.696 382.895C264.424 373.165 254.984 353.749 254.984 333.879V30.4004C255.011 29.4278 255.279 28.4771 255.762 27.6328C254.513 28.0091 253.418 28.7779 252.64 29.8255C251.862 30.8731 251.442 32.1436 251.441 33.449V336.928C251.441 356.798 260.881 376.235 276.175 385.943L632.426 591.953L633.226 592.407C633.98 592.85 634.816 593.136 635.683 593.248C636.551 593.36 637.432 593.294 638.274 593.056C639.115 592.817 639.9 592.411 640.581 591.861C641.261 591.311 641.823 590.629 642.233 589.855C641.342 590.178 640.39 590.3 639.446 590.214C638.501 590.128 637.587 589.836 636.768 589.358Z" fill="#BCBEC0"/>
</g>
<path d="M637.611 213.188L276.132 4.13071C268.723 -0.215196 261.659 -1.01519 255.999 1.16858C255.286 1.44966 245.695 6.48745 244.961 6.91988C250.815 4.08747 258.246 4.60639 266.346 9.29824L627.868 218.378C646.856 229.34 662.236 258.788 662.236 284.128V585.726C662.236 601.553 656.253 612.018 647.115 615.001C648.193 614.957 649.235 614.604 650.118 613.985C650.55 613.726 660.919 607.845 661.372 607.499C667.853 602.915 671.978 593.51 671.978 580.493V278.918C672 253.599 656.598 224.172 637.611 213.188Z" fill="url(#paint6_linear)"/>
<path style="mix-blend-mode:screen" opacity="0.6" d="M629.467 217.556L268.031 8.47666C260.255 3.9794 253.083 3.35238 247.315 5.83884C253.128 5.18393 258.989 6.55873 263.905 9.7307L625.384 218.788C644.372 229.772 659.709 259.199 659.709 284.539V586.158C659.709 601.099 654.33 611.218 646.035 614.807C656.641 613.12 663.835 602.223 663.835 584.904V283.242C663.899 257.966 648.498 228.518 629.467 217.556Z" fill="url(#paint7_radial)"/>
<path d="M434.146 232.238L460.5 247.373V217.103L434.146 201.968V232.238ZM434.146 402.593L460.5 417.836V387.566L434.146 372.323V402.593ZM404.466 215.092L430.841 230.227V199.957L404.466 184.822V215.092ZM404.466 249.167L430.841 264.411V234.141L404.466 219.006V249.167ZM404.466 283.243L430.841 298.486V268.108L404.466 252.973V283.243ZM404.466 317.318L430.841 332.453V302.183L404.466 286.94V317.318ZM404.466 385.447L430.841 400.582V370.312L404.466 355.069V385.447ZM404.466 351.372L430.841 366.615V336.345L404.466 321.21V351.372ZM523.123 283.675L549.498 298.81V268.54L523.123 253.405V283.675ZM608.815 371.048L582.462 355.804V386.074L608.815 401.209V371.048ZM608.815 405.123L582.462 389.88V420.15L608.815 435.393V405.123ZM608.815 439.177L582.462 424.042V454.312L608.815 469.447V439.177ZM463.805 385.664L490.159 400.799V370.529L463.805 355.394V385.664ZM463.805 419.739L490.159 434.874V404.604L463.805 389.469V419.739ZM582.483 321.751V352.021L608.837 367.156V336.886L582.483 321.751ZM582.483 488.236L608.837 503.371V473.101L582.483 457.966V488.236ZM463.805 283.459L490.159 298.594V268.324L463.805 253.189V283.459ZM463.805 317.513L490.159 332.756V302.486L463.805 287.243V317.513ZM463.805 351.588L490.159 366.723V336.453L463.805 321.318V351.588ZM345.148 283.027L371.524 298.162V267.892L345.148 252.757V283.027ZM345.148 317.102L371.524 332.237V301.967L345.148 286.832V317.102ZM345.148 351.156L371.524 366.399V336.129L345.148 320.994V351.156ZM523.123 385.88L549.541 401.123V370.853L523.166 355.718L523.123 385.88ZM523.123 317.729L549.541 332.972V302.702L523.166 287.567L523.123 317.729ZM523.123 351.804L549.498 366.939V336.669L523.123 321.426V351.804ZM315.489 265.946L341.843 281.081V250.811L315.489 235.676V265.946ZM463.805 249.449L490.159 264.584V234.314L463.805 219.179V249.449ZM345.148 214.854L371.524 230.097V199.827L345.148 184.606V214.854ZM345.148 180.8L371.524 195.935V165.665L345.148 150.53V180.8ZM552.781 403.026L579.157 418.161V387.891L552.781 372.648V403.026ZM285.831 146.53L312.184 161.665V131.395L285.831 116.152V146.53ZM285.831 180.606L312.184 195.741V165.471L285.831 150.336V180.606ZM285.831 214.681L312.184 229.816V199.546L285.831 184.411V214.681ZM285.831 248.735L312.184 263.87V233.6L285.831 218.465V248.735ZM345.148 248.951L371.524 264.086V233.816L345.148 218.681V248.951ZM608.815 303.005L582.462 287.87V318.14L608.815 333.275V303.005Z" fill="url(#paint8_linear)"/>
<path d="M374.807 129.731L401.182 144.974V114.704L374.807 99.4607V129.731ZM374.807 163.806L401.182 178.941V148.671L374.807 133.601V163.806ZM374.807 197.882L401.182 213.017V182.747L374.807 167.612V197.882ZM374.807 231.935L401.182 247.07V216.8L374.807 201.665V231.935ZM374.807 266.011L401.182 281.254V250.984L374.807 235.849V266.011ZM374.807 300.086L401.182 315.221V284.951L374.807 269.708V300.086ZM374.807 334.14L401.182 349.275V319.005L374.807 303.87V334.14ZM374.807 368.215L401.182 383.35V353.08L374.807 337.945V368.215ZM374.807 402.291L401.182 417.534V387.264L374.807 372.129V402.291ZM374.807 436.366L401.182 451.501V421.231L374.807 405.988V436.366ZM434.146 266.227L460.5 281.362V251.092L434.146 235.957V266.227ZM404.465 147.028L430.841 162.163V131.893L404.465 116.758V147.028ZM434.146 368.518L460.5 383.761V353.491L434.146 338.356V368.518ZM434.146 334.443L460.5 349.578V319.308L434.146 304.173V334.443ZM434.146 164.109L460.5 179.244V148.974L434.146 133.839V164.109ZM404.465 181.038L430.841 196.173V165.903L404.465 150.768V181.038ZM493.377 505.014L519.752 520.257V489.987L493.377 474.722V505.014ZM493.377 368.799L519.752 384.042V353.772L493.377 338.443V368.799ZM434.146 198.163L460.5 213.298V183.028L434.146 167.893V198.163ZM434.146 300.389L460.5 315.524V285.405L434.146 270.27V300.389ZM256.15 265.665L282.525 280.8V250.53L256.15 235.395V265.665ZM256.15 299.74L282.525 314.983V284.713L256.15 269.578V299.74ZM256.15 333.816L282.525 348.951V318.681L256.15 303.437V333.816ZM279.695 381.383L282.525 383.026V352.756L256.15 337.621V340.691C256.155 348.958 258.334 357.079 262.466 364.236C266.599 371.394 272.541 377.337 279.695 381.469V381.383ZM523.122 454.052L549.541 469.187V438.917L523.165 423.782L523.122 454.052ZM523.122 488.128L549.498 503.263V472.993L523.122 457.75V488.128ZM493.377 198.379L519.752 213.514V183.244L493.377 168.109V198.379ZM493.377 436.863L519.752 451.998V421.728L493.377 406.593V436.863ZM612.185 505.447L638.539 520.582V490.312L612.185 475.155V505.447ZM612.185 301.016L638.539 316.259V285.989L612.185 270.854V301.016ZM612.185 471.35L638.539 486.593V456.323L612.185 441.08V471.35ZM612.185 539.479L638.539 554.614V524.344L612.185 509.209V539.479ZM523.122 215.525L549.498 230.66V200.39L523.122 185.255V215.525ZM523.122 249.6L549.498 264.735V234.465L523.122 219.33V249.6ZM404.465 453.577L430.841 468.82V438.55L404.465 423.307V453.577ZM404.465 419.523L430.841 434.658V404.388L404.465 389.253V419.523ZM612.185 573.576L638.539 588.819V558.549L612.185 543.414V573.576ZM582.526 556.43L608.88 571.565V541.295L582.526 526.16V556.43ZM493.377 470.939L519.752 486.182V455.912L493.377 440.777V470.939ZM434.059 470.723L460.413 485.858V455.588L434.059 440.453V470.723ZM434.059 436.669L460.413 451.804V421.62L434.146 406.485L434.059 436.669ZM285.83 112.434L312.184 127.677V97.4067L285.83 82.2717V112.434ZM493.377 334.659L519.752 349.902V319.632L493.377 304.497V334.659ZM612.185 437.296L638.539 452.539V422.269L612.185 407.134V437.296ZM552.781 232.67L579.156 247.805V217.535L552.781 202.379V232.67ZM463.805 453.793L490.158 469.036V438.766L463.805 423.631V453.793ZM612.185 369.167L638.539 384.302V354.032L612.185 338.875V369.167ZM463.869 487.868L490.223 503.111V472.841L463.869 457.598V487.868ZM493.377 266.53L519.752 281.665V251.395L493.377 236.26V266.53ZM552.695 471.155L579.156 486.485V456.215L552.781 441.08L552.695 471.155ZM493.377 300.54L519.752 315.675V285.405L493.377 270.27V300.54ZM582.375 522.311L608.729 537.446V507.176L582.375 492.041V522.311ZM612.185 335.134L638.539 350.378V319.999L612.185 304.864V335.134ZM493.377 232.454L519.752 247.589V217.319L493.377 202.163V232.454ZM612.034 403.264L638.388 418.399V388.129L612.034 372.994V403.264ZM256.15 61.2557L282.525 76.4988V46.2288L256.15 31.0938V61.2557ZM256.15 95.3311L282.525 110.466V80.196L256.15 65.0394V95.3311ZM285.83 350.94L312.184 366.183V335.913L285.83 320.67V350.94ZM256.15 129.385L282.525 144.52V114.25L256.15 99.1148V129.385ZM256.15 163.46L282.525 178.703V148.433L256.15 133.298V163.46ZM256.15 197.536L282.525 212.671V182.401L256.15 167.244V197.536ZM256.15 231.589L282.525 246.724V216.454L256.15 201.319V231.589ZM285.83 385.102L312.184 400.345V370.075L285.83 354.94V385.102ZM612.185 236.67V266.94L638.539 282.075V277.405C638.538 269.617 636.49 261.967 632.6 255.223C628.709 248.478 623.114 242.878 616.376 238.984L612.185 236.67ZM493.377 402.81L519.752 417.945V387.675L493.377 372.518V402.81ZM345.061 385.231L371.437 400.474V370.204L345.061 354.961V385.231ZM345.061 419.307L371.437 434.442V404.323L345.061 389.08V419.307ZM285.83 316.886L312.184 332.021V301.751L285.83 286.616V316.886ZM552.781 368.95L579.156 384.194V353.923L552.781 338.68V368.95ZM582.461 283.892L608.815 299.027V268.757L582.461 253.622V283.892ZM552.781 437.08L579.156 452.215V421.945L552.781 406.81V437.08ZM552.781 334.875L579.156 350.118V319.848L552.781 304.713V334.875ZM463.805 181.363L490.158 196.498V166.228L463.805 150.985V181.363ZM463.805 215.417L490.158 230.552V200.282L463.805 185.147V215.417ZM345.148 112.671L371.523 127.806V97.5364L345.148 82.4014V112.671ZM345.148 146.747L371.523 161.882V131.612L345.148 116.477V146.747ZM315.489 95.5256L341.843 110.661V80.3906L315.489 65.2556V95.5256ZM315.489 129.601L341.843 144.736V114.596L315.489 99.4607V129.601ZM552.781 505.23L579.156 520.473V490.203L552.781 474.96V505.23ZM552.781 539.306L579.156 554.441V524.171L552.781 508.928V539.306ZM315.489 163.676L341.843 178.811V148.541L315.489 133.406V163.676ZM315.489 197.752L341.843 212.887V182.617L315.489 167.482V197.752ZM315.489 299.956L341.843 315.199V284.929L315.489 269.686V299.956ZM523.122 522.16L549.498 537.295V507.025L523.122 491.89V522.16ZM315.489 231.806L341.843 247.049V216.779L315.489 201.644V231.806ZM523.122 419.912L549.498 435.047V404.777L523.122 389.534V419.912ZM285.83 282.811L312.184 297.946V267.676L285.83 252.541V282.811ZM285.83 78.4015L312.184 93.5365V63.2665L285.83 48.1314V78.4015ZM552.781 266.746L579.156 281.881V251.611L552.781 236.476V266.746ZM552.781 300.8L579.156 315.935V285.665L552.781 270.53V300.8ZM315.489 368.086L341.843 383.221V352.951L315.489 337.816V368.086ZM315.489 402.161L341.843 417.404V387.026L315.489 371.891V402.161ZM582.461 249.816L608.815 264.951V234.681L582.461 219.546V249.816ZM315.489 334.14L341.843 349.275V319.005L315.489 303.762V334.14Z" fill="url(#paint9_linear)"/>
</g>
<path d="M627.12 671.524C627.443 662.977 620.775 655.786 612.228 655.464C603.681 655.142 596.491 661.809 596.169 670.356C595.846 678.903 602.514 686.093 611.061 686.416C619.608 686.738 626.798 680.071 627.12 671.524Z" fill="url(#paint10_radial)"/>
<path d="M563.837 543.598L530.282 561.711L592.773 676.526V676.685C595.671 682.074 605.543 682.391 614.803 677.409C624.064 672.428 629.226 663.983 626.328 658.594V658.458L563.837 543.598Z" fill="url(#paint11_linear)"/>
<path style="mix-blend-mode:color-dodge" d="M563.837 543.598L530.282 561.711L592.773 676.526V676.685C595.671 682.074 605.543 682.391 614.803 677.409C624.064 672.428 629.226 663.983 626.328 658.594V658.458L563.837 543.598Z" fill="url(#paint12_radial)"/>
<path d="M563.88 543.668C566.778 549.079 561.616 557.502 552.355 562.483C543.095 567.464 533.223 567.147 530.325 561.759C527.427 556.37 532.589 547.947 541.827 542.944C551.065 537.94 560.959 538.279 563.88 543.668Z" fill="url(#paint13_linear)"/>
<path d="M544.136 523.719L524.189 534.474L536.098 556.209C537.819 559.425 543.683 559.606 549.208 556.64C554.732 553.674 557.789 548.67 556 545.455L544.136 523.719Z" fill="url(#paint14_linear)"/>
<mask id="mask0" mask-type="alpha" maskUnits="userSpaceOnUse" x="372" y="301" width="182" height="234">
<path style="mix-blend-mode:screen" d="M527.019 528.004C562.071 507.513 561.71 441.676 526.211 380.952C490.713 320.228 433.52 287.613 398.468 308.104C363.416 328.596 363.777 394.433 399.275 455.157C434.774 515.881 491.966 548.496 527.019 528.004Z" fill="#B0FBFF"/>
</mask>
<g mask="url(#mask0)">
<path d="M546.387 552.288C587.51 528.38 587.273 451.251 545.858 380.017C504.443 308.782 437.532 270.418 396.409 294.326C355.286 318.235 355.522 395.364 396.938 466.598C438.353 537.832 505.264 576.197 546.387 552.288Z" fill="url(#paint15_linear)"/>
<path d="M400.766 220.367L433.121 239.046V201.914L400.766 183.234V220.367ZM400.766 429.167L433.121 447.847V410.714L400.766 392.035V429.167ZM364.381 199.355L396.668 218.034V180.902L364.381 162.223V199.355ZM364.381 241.106L396.668 259.786V222.676L364.381 203.997V241.106ZM364.381 282.88L396.668 301.537V264.45L364.381 245.748V282.88ZM364.381 324.631L396.668 343.31V306.178L364.381 287.522V324.631ZM364.381 408.156L396.668 426.835V389.703L364.381 371.024V408.156ZM364.381 366.337L396.668 385.061V347.952L364.381 329.273V366.337ZM509.876 283.401L542.23 302.08V264.948L509.876 246.336V283.401ZM615.023 390.495L582.736 371.816V408.948L615.091 427.628L615.023 390.495ZM615.023 432.269L582.736 413.59V450.699L615.091 469.379L615.023 432.269ZM615.023 474.02L582.736 455.341V492.473L615.091 511.243L615.023 474.02ZM437.105 408.36L469.46 427.016V389.975L437.173 371.295L437.105 408.36ZM437.105 450.111L469.46 468.79V431.726L437.173 413.047L437.105 450.111ZM582.781 330.11V367.197L615.114 385.877V348.744L582.781 330.11ZM582.781 534.27L615.114 552.949V515.771L582.781 497.115V534.27ZM437.173 283.129L469.528 301.808V264.699L437.173 246.019V283.129ZM437.173 324.903L469.528 343.695V306.45L437.173 287.771V324.903ZM437.173 366.654L469.528 385.333V348.224L437.173 329.544V366.654ZM291.588 282.563L323.943 301.242V264.155L291.588 245.476V282.563ZM291.588 324.314L323.943 342.993V305.929L291.588 287.25V324.314ZM291.588 366.088L323.943 384.767V347.68L291.588 329.001V366.088ZM509.876 408.677L542.298 427.469V390.224L509.876 371.567V408.677ZM509.876 325.152L542.23 343.831V306.722L509.876 288.042V325.152ZM509.876 366.926L542.23 385.605V348.473L509.876 329.793V366.926ZM255.203 261.597L287.558 280.299V243.144L255.203 224.465V261.597ZM437.173 241.378L469.528 260.057V222.925L437.173 204.246V241.378ZM291.588 199.083L323.943 217.763V180.676L291.588 162.019V199.083ZM291.588 157.332L323.943 176.012V138.879L291.588 120.2V157.332ZM546.351 429.733L578.706 448.367V411.258L546.351 392.578V429.733ZM218.818 115.31L251.15 133.989V96.902L218.818 78.2227V115.31ZM218.818 157.061L251.15 175.74V138.608L218.818 119.951V157.061ZM218.818 198.834L251.15 217.491V180.382L218.818 161.702V198.834ZM218.818 240.585L251.15 259.265V222.133L218.818 203.453V240.585ZM291.588 240.857L323.943 259.514V222.404L291.588 203.725V240.857ZM615.091 306.971L582.736 288.291V325.424L615.091 344.103V306.971Z" fill="url(#paint16_linear)"/>
<path d="M327.998 94.8177L360.443 113.497V76.3648L328.111 57.6855L327.998 94.8177ZM327.998 136.569L360.443 155.248V118.139L328.111 99.4592L327.998 136.569ZM327.998 178.343L360.443 197.022V159.89L328.111 141.21L327.998 178.343ZM327.998 220.094L360.443 238.773V201.663L327.998 182.939V220.094ZM327.998 261.867L360.443 280.524V243.414L327.998 224.735V261.867ZM327.998 303.618L360.443 322.298V285.166L328.111 266.509L327.998 303.618ZM327.998 345.37L360.443 364.072V326.939L328.111 308.26L327.998 345.37ZM327.998 387.143L360.443 405.823V368.6L328.111 349.921L327.998 387.143ZM327.998 428.894L360.443 447.574V410.464L328.111 391.785L327.998 428.894ZM327.998 470.668L360.443 489.347V452.215L328.111 433.536L327.998 470.668ZM400.768 262.184L433.122 280.796V243.686L400.768 225.007V262.184ZM364.383 115.829L396.669 134.508V97.3762L364.383 78.7875V115.829ZM400.768 387.528L433.122 406.072V368.962L400.768 350.283V387.528ZM400.768 345.754L433.122 364.321V327.188L400.768 308.532V345.754ZM400.768 136.954L433.122 155.52V118.388L400.768 99.7083V136.954ZM364.383 157.58L396.669 176.26V139.15L364.383 120.471V157.58ZM473.651 554.714L506.006 573.393V536.261L473.651 517.582V554.714ZM473.651 387.664L506.006 406.343V369.211L473.651 350.487V387.664ZM400.768 178.592L433.122 197.271V160.161L400.768 141.482V178.592ZM400.768 303.89L433.122 322.547V285.437L400.768 266.713V303.89ZM182.412 261.324L214.767 280.003V242.894L182.412 224.214V261.324ZM182.412 303.098L214.767 321.777V284.645L182.412 265.966V303.098ZM182.412 344.849L214.767 363.528V326.419L182.412 307.739V344.849ZM211.303 403.287L214.767 405.302V368.17L182.412 349.49V353.271C182.412 363.411 185.082 373.372 190.153 382.152C195.225 390.932 202.519 398.221 211.303 403.287ZM509.877 492.2L542.232 510.88V473.747L509.877 455.068V492.2ZM509.877 533.883L542.232 552.563V515.521L509.877 496.842V533.883ZM473.651 178.863L506.006 197.543V160.41L473.651 141.731V178.863ZM473.651 471.189L506.006 489.868V452.736L473.651 434.057V471.189ZM619.236 555.234L651.569 573.914V536.782L619.146 518.034L619.236 555.234ZM619.236 304.66L651.478 323.317V286.23L619.146 267.55L619.236 304.66ZM619.236 513.483L651.569 532.163V495.03L619.236 476.351V513.483ZM619.236 596.986L651.569 615.665V578.555L619.236 559.876V596.986ZM509.877 199.875L542.3 218.554V181.422L509.877 162.742V199.875ZM509.877 241.626L542.232 260.305V223.196L509.877 204.516V241.626ZM364.383 491.68L396.669 510.359V473.227L364.383 454.638V491.68ZM364.383 449.906L396.669 468.585V431.476L364.383 412.796V449.906ZM619.146 638.759L651.478 657.439V620.306L619.146 601.627V638.759ZM582.738 617.657L615.093 636.337V599.204L582.738 580.525V617.657ZM473.651 512.94L505.915 531.619V494.51L473.651 475.83V512.94ZM400.858 512.691L433.213 531.37V494.238L400.858 475.559V512.691ZM400.858 470.917L433.213 489.596V452.487L400.768 433.808L400.858 470.917ZM218.82 73.5346L251.152 92.2139V55.1044L218.82 36.425V73.5346ZM473.651 345.958L506.006 364.638V327.46L473.651 308.781V345.958ZM619.236 471.755L651.569 490.434V453.279L619.236 434.6V471.755ZM546.353 220.886L578.708 239.543V202.411L546.353 183.754V220.886ZM437.175 491.929L469.53 510.608V473.498L437.175 454.819V491.929ZM619.146 388.185L651.478 406.864V369.755L619.146 351.075V388.185ZM437.175 533.702L469.53 552.382V515.249L437.175 496.57V533.702ZM473.651 262.388L506.006 281.067V243.935L473.651 225.256V262.388ZM546.353 513.212L578.708 531.891V494.759L546.353 476.102V513.212ZM473.651 304.139L506.006 322.819V285.709L473.651 267.03V304.139ZM582.738 575.974L615.093 594.653V557.544L582.738 538.865V575.974ZM619.146 346.434L651.478 365.113V327.981L619.146 309.302V346.434ZM473.651 220.614L505.915 239.294V202.184L473.651 183.505V220.614ZM619.236 429.959L651.569 448.638V411.619L619.146 392.826L619.236 429.959ZM182.412 10.8627L214.767 29.542V-7.59022L182.412 -26.2695V10.8627ZM182.412 52.6138L214.767 71.2931V34.093L182.412 15.391V52.6138ZM218.82 365.86L251.152 384.449V347.43L218.82 328.751V365.86ZM182.412 94.2969L214.767 112.976V75.844L182.412 57.1647V94.2969ZM182.412 136.048L214.767 154.727V117.595L182.412 98.9385V136.048ZM182.412 177.799L214.767 196.524V159.369L182.412 140.69V177.799ZM182.412 219.573L214.767 238.252V201.052L182.412 182.373V219.573ZM218.82 407.634L251.152 426.313V389.181L218.82 370.502V407.634ZM619.146 225.777V262.909L651.478 281.588V275.769C651.484 266.225 648.976 256.847 644.207 248.58C639.437 240.312 632.574 233.447 624.308 228.675L619.146 225.777ZM473.651 429.438L506.006 448.094V410.985L473.651 392.306V429.438ZM291.68 407.883L324.035 426.562V389.453L291.59 370.864L291.68 407.883ZM291.68 449.657L324.035 468.336V431.204L291.59 412.525L291.68 449.657ZM218.82 324.109L251.152 342.788V305.656L218.82 287.09V324.109ZM546.353 387.936L578.708 406.615V369.483L546.353 350.804V387.936ZM582.738 283.649L615.093 302.328V265.218L582.738 246.539V283.649ZM546.353 471.574L578.708 490.23V453.008L546.353 434.26V471.574ZM546.353 346.275L578.708 364.841V327.845L546.353 309.052V346.275ZM437.175 157.852L469.53 176.531V139.399L437.175 120.72V157.852ZM437.175 199.603L469.53 218.282V181.173L437.175 162.561V199.603ZM291.59 73.8063L323.945 92.4856V55.3534L291.59 36.6741V73.8063ZM291.59 115.557L323.945 134.237V97.1271L291.59 78.4478V115.557ZM255.205 52.7949L287.56 71.4742V34.342L255.205 15.6627V52.7949ZM255.205 94.546L287.56 113.225V76.1158L255.205 57.4364V94.546ZM546.353 554.963L578.708 573.642V536.533L546.353 517.853V554.963ZM546.353 596.737L578.708 615.393V578.261L546.353 559.582V596.737ZM255.205 136.32L287.56 154.999V117.867L255.205 99.1649V136.32ZM255.205 178.071L287.56 196.75V159.618L255.205 140.961V178.071ZM255.205 303.347L287.56 322.026V284.826L255.205 266.147V303.347ZM509.877 575.725L542.232 594.404V557.272L509.877 538.593V575.725ZM255.205 219.845L287.56 238.501V201.392L255.205 182.712V219.845ZM509.877 450.449L542.232 469.106V431.996L509.877 413.317V450.449ZM218.82 282.335L251.152 301.015V263.905L218.82 245.226V282.335ZM218.82 31.7835L251.152 50.4628V13.3306L218.82 -5.34871V31.7835ZM546.353 262.637L578.708 281.316V244.207L546.353 225.528V262.637ZM546.353 304.411L578.708 323.09V285.958L546.353 267.279V304.411ZM255.205 386.872L287.56 405.551V368.441L255.205 349.762V386.872ZM255.205 428.645L287.56 447.325V410.192L255.205 391.513V428.645ZM582.738 241.807L615.093 260.486V223.445L582.738 204.765V241.807ZM255.205 345.121L287.56 363.8V326.668L255.205 307.988V345.121Z" fill="url(#paint17_linear)"/>
</g>
<path d="M476.076 519.998C423.367 489.568 380.619 415.847 380.619 355.349C380.619 331.054 387.525 312.579 399.208 301.145C376.974 308.367 362.71 331.258 362.71 366.33C362.71 426.828 405.457 500.549 458.167 530.979C489.707 549.206 517.669 547.779 535.148 530.753C518.937 535.915 498.333 532.836 476.076 519.998Z" fill="url(#paint18_linear)"/>
<path d="M478.407 300.242C452.482 285.276 428.98 283.556 411.772 292.884C411.297 293.133 386.595 306.922 385.825 308.099C403.327 294.899 429.252 295.103 458.165 311.812C510.875 342.243 553.622 415.964 553.622 476.462C553.622 507.322 542.482 528.764 524.596 538.341C526.226 537.85 527.791 537.166 529.26 536.304L547.079 525.504C563.675 515.383 573.864 494.439 573.864 464.892C573.864 404.394 531.116 330.695 478.407 300.242Z" fill="url(#paint19_linear)"/>
<path d="M463.489 377.656C441.232 364.819 423.142 375.121 423.142 400.66C423.142 426.2 441.255 457.423 463.489 470.261C485.723 483.098 503.836 472.751 503.836 447.144C503.836 421.536 485.746 390.381 463.489 377.656ZM475.353 413.159C477.061 414.263 478.485 415.756 479.508 417.514C480.531 419.273 481.124 421.248 481.24 423.279C481.24 426.993 478.613 428.509 475.353 426.63C473.65 425.522 472.232 424.028 471.213 422.27C470.195 420.511 469.604 418.538 469.489 416.509C469.489 412.66 472.115 411.166 475.353 413.045V413.159ZM451.625 399.574C453.331 400.678 454.752 402.171 455.772 403.93C456.791 405.689 457.379 407.664 457.489 409.694C457.489 413.408 454.862 414.902 451.625 413.045C449.919 411.934 448.499 410.437 447.48 408.675C446.461 406.912 445.872 404.935 445.761 402.902C445.761 398.962 448.387 397.468 451.625 399.347V399.574ZM463.67 433.536C472.251 438.494 480.198 448.547 484.342 459.415C485.18 461.679 484.342 463.423 482.802 463.196C481.959 462.938 481.191 462.477 480.568 461.854C479.944 461.23 479.483 460.463 479.225 459.619C476.277 451.638 470.818 444.829 463.67 440.215C456.878 436.343 450.923 437.136 447.821 442.027C447.164 443.113 445.557 442.955 444.289 441.619C443.506 440.944 442.934 440.057 442.641 439.066C442.347 438.074 442.346 437.019 442.636 436.027C446.711 429.347 454.795 428.283 463.67 433.4V433.536Z" fill="url(#paint20_linear)"/>
<path d="M458.167 311.813C405.457 281.36 362.71 305.722 362.71 366.334C362.71 426.946 405.457 500.553 458.167 530.984C510.877 561.414 553.624 537.052 553.624 476.644C553.624 416.236 510.877 342.243 458.167 311.813ZM457.51 523.625C408.831 495.527 369.367 427.466 369.367 371.609C369.367 315.753 408.831 293.27 457.51 321.368C506.19 349.466 545.631 417.527 545.631 473.383C545.631 529.24 506.167 551.723 457.51 523.625Z" fill="url(#paint21_linear)"/>
<path style="mix-blend-mode:screen" d="M462.742 309.501C437.428 294.92 414.515 292.95 397.443 301.486C413.292 296.958 436.772 299.449 458.168 311.811C510.878 342.241 553.625 415.962 553.625 476.461C553.625 507.955 538.365 530.529 519.821 539.857C543.119 533.336 558.312 510.151 558.312 474.196C558.199 413.675 515.474 339.954 462.742 309.501Z" fill="url(#paint22_radial)"/>
<g clip-path="url(#clip1)">
<path d="M203.822 454.528V451.77H-0.000276238V456.797C-1.24526 466.006 3.64576 474.948 14.9396 481.488L61.671 508.493C83.9029 521.395 123.164 519.793 148.998 504.845L182.435 485.537C197.953 476.683 205.156 465.161 203.822 454.528Z" fill="url(#paint23_linear)"/>
<path d="M61.8487 500.437L15.1172 473.433C-7.11469 460.486 -4.44686 437.842 21.3866 422.982L54.8234 403.674C80.6569 388.77 119.741 387.124 142.106 400.071L188.882 427.075C211.114 440.021 208.446 462.666 182.612 477.526L149.176 496.834C123.342 511.738 84.4808 513.384 61.8487 500.437Z" fill="url(#paint24_linear)"/>
<path style="mix-blend-mode:color-dodge" d="M182.612 475.57L149.175 494.878C123.341 509.782 84.2576 511.428 61.8479 498.482L15.1164 471.477C5.64561 466.005 0.710125 458.798 -0.00129608 451.19C-0.668253 460.088 4.44509 468.363 14.983 474.547L61.8479 501.552C84.0798 514.498 123.341 512.896 149.175 497.948L182.612 478.64C197.507 470.009 204.844 458.887 203.865 448.477C203.198 457.953 196.04 467.785 182.612 475.57Z" fill="url(#paint25_radial)"/>
<path opacity="0.2" d="M203.82 466.407V463.648C202.62 472.546 195.461 482.022 182.655 489.407L149.219 508.716C123.385 523.664 84.3014 525.265 61.8916 512.364L15.1157 485.226C5.77831 479.753 0.887287 472.724 -0.0019896 465.206V468.587C-1.02466 477.751 3.8219 486.738 15.1157 493.1L61.8472 520.238C84.0791 533.184 123.341 531.583 149.174 516.635L182.611 497.549C197.951 488.651 205.154 476.906 203.82 466.407Z" fill="url(#paint26_linear)"/>
<path d="M122.452 295.566H82.4342L38.993 442.824C38.973 442.987 38.973 443.151 38.993 443.314C38.993 463.779 67.4054 480.329 102.487 480.329C137.569 480.329 165.937 463.779 165.937 443.314V442.824L122.452 295.566Z" fill="url(#paint27_linear)"/>
<path d="M122.451 295.656C122.451 302.062 113.559 307.312 102.487 307.312C91.4157 307.312 82.4785 302.062 82.4785 295.656C82.4785 289.25 91.4157 284 102.487 284C113.559 284 122.451 289.205 122.451 295.656Z" fill="url(#paint28_linear)"/>
<path d="M165.937 442.827L157.311 413.598C157.333 413.953 157.333 414.31 157.311 414.665C157.311 432.461 132.723 446.608 102.443 446.608C72.163 446.608 47.5745 432.327 47.5745 414.665C47.5745 414.309 47.5745 413.954 47.5745 413.598L38.993 442.827C38.973 442.989 38.973 443.154 38.993 443.316C38.993 463.781 67.4054 480.331 102.487 480.331C137.569 480.331 165.937 463.781 165.937 443.316V442.827Z" fill="url(#paint29_linear)"/>
<path d="M139.882 354.56C139.882 354.56 139.882 354.961 139.882 355.138C139.882 367.195 123.119 376.982 102.443 376.982C81.7674 376.982 65.049 367.195 65.049 355.183C65.049 354.961 65.049 354.738 65.049 354.516L56.1562 384.323V384.946C56.1562 399.805 76.8319 411.639 102.354 411.639C127.876 411.639 148.508 399.627 148.508 384.946C148.508 384.946 148.508 384.635 148.508 384.412L139.882 354.56Z" fill="url(#paint30_linear)"/>
<path d="M122.452 295.566C122.452 301.973 113.559 307.222 102.487 307.222C91.4159 307.222 82.4787 301.973 82.4787 295.566L73.5859 325.107V325.418C73.5859 334.628 86.436 342.146 102.31 342.146C118.183 342.146 130.989 334.628 130.989 325.418V325.107L122.452 295.566Z" fill="url(#paint31_linear)"/>
<path d="M118.895 294.989C118.895 299.438 111.559 303.397 102.488 303.397C93.4176 303.397 86.0366 299.616 86.0366 294.989C86.0366 290.362 93.3731 286.625 102.488 286.625C111.603 286.625 118.895 290.362 118.895 294.989Z" fill="url(#paint32_linear)"/>
<path style="mix-blend-mode:multiply" d="M118.895 294.989C118.895 299.438 111.559 303.397 102.488 303.397C93.4176 303.397 86.0366 299.616 86.0366 294.989C86.0366 290.362 93.3731 286.625 102.488 286.625C111.603 286.625 118.895 290.362 118.895 294.989Z" fill="url(#paint33_linear)"/>
<path style="mix-blend-mode:color-dodge" d="M119.161 290.316L106.222 292.897L120.05 440.155C120.075 440.317 120.075 440.482 120.05 440.644C123.918 460.709 136.235 475.167 147.573 472.988C158.911 470.808 164.958 452.79 160.912 432.948V432.458L119.161 290.316Z" fill="url(#paint34_radial)"/>
<path style="mix-blend-mode:color-dodge" d="M88.5264 290.316L101.465 292.897L87.6815 440.155C87.6815 440.155 87.6815 440.466 87.6815 440.644C83.8132 460.709 71.4967 475.167 60.1584 472.988C48.8202 470.808 42.7731 452.79 46.8193 432.948C46.8366 432.785 46.8366 432.621 46.8193 432.458L88.5264 290.316Z" fill="url(#paint35_radial)"/>
</g>
<defs>
<linearGradient id="paint0_linear" x1="-429525" y1="42837.9" x2="-389939" y2="42837.9" gradientUnits="userSpaceOnUse">
<stop offset="0.06" stop-color="#200041"/>
<stop offset="0.26" stop-color="#210243"/>
<stop offset="0.36" stop-color="#25084B"/>
<stop offset="0.43" stop-color="#2C1358"/>
<stop offset="0.47" stop-color="#311B61"/>
<stop offset="0.48" stop-color="#351F65"/>
<stop offset="0.5" stop-color="#422C73"/>
<stop offset="0.51" stop-color="#584188"/>
<stop offset="0.52" stop-color="#765FA7"/>
<stop offset="0.53" stop-color="#8770B8"/>
<stop offset="0.54" stop-color="#7E67AE"/>
<stop offset="0.56" stop-color="#5C468D"/>
<stop offset="0.59" stop-color="#442E75"/>
<stop offset="0.61" stop-color="#362066"/>
<stop offset="0.63" stop-color="#311B61"/>
<stop offset="0.67" stop-color="#2A1155"/>
<stop offset="0.75" stop-color="#230446"/>
<stop offset="0.81" stop-color="#200041"/>
<stop offset="1" stop-color="#200041"/>
</linearGradient>
<linearGradient id="paint1_linear" x1="370.292" y1="564.341" x2="506.484" y2="489.075" gradientUnits="userSpaceOnUse">
<stop stop-color="#311B61"/>
<stop offset="0.2" stop-color="#290F52"/>
<stop offset="0.49" stop-color="#200041"/>
<stop offset="1" stop-color="#0F001F"/>
</linearGradient>
<linearGradient id="paint2_linear" x1="442.484" y1="528.709" x2="469.241" y2="483.888" gradientUnits="userSpaceOnUse">
<stop stop-color="white"/>
<stop offset="1"/>
</linearGradient>
<radialGradient id="paint3_radial" cx="0" cy="0" r="1" gradientUnits="userSpaceOnUse" gradientTransform="translate(443.371 589.66) scale(106.841 106.94)">
<stop stop-color="#AF8AFC"/>
<stop offset="1" stop-color="#10054D"/>
</radialGradient>
<linearGradient id="paint4_linear" x1="-574804" y1="172274" x2="-712271" y2="38264" gradientUnits="userSpaceOnUse">
<stop stop-color="#311B61"/>
<stop offset="0.2" stop-color="#290F52"/>
<stop offset="0.49" stop-color="#200041"/>
<stop offset="1" stop-color="#0F001F"/>
</linearGradient>
<linearGradient id="paint5_linear" x1="311.774" y1="-0.472242" x2="500.344" y2="430.618" gradientUnits="userSpaceOnUse">
<stop offset="0.01" stop-color="#9F19AB"/>
<stop offset="0.43" stop-color="#5F27BD"/>
<stop offset="0.9" stop-color="#2B0045"/>
</linearGradient>
<linearGradient id="paint6_linear" x1="-550347" y1="176962" x2="-664949" y2="49812.1" gradientUnits="userSpaceOnUse">
<stop offset="0.06" stop-color="#200041"/>
<stop offset="0.26" stop-color="#210243"/>
<stop offset="0.36" stop-color="#25084B"/>
<stop offset="0.43" stop-color="#2C1358"/>
<stop offset="0.47" stop-color="#311B61"/>
<stop offset="0.48" stop-color="#351F65"/>
<stop offset="0.5" stop-color="#422C73"/>
<stop offset="0.51" stop-color="#584188"/>
<stop offset="0.52" stop-color="#765FA7"/>
<stop offset="0.53" stop-color="#8770B8"/>
<stop offset="0.54" stop-color="#7E67AE"/>
<stop offset="0.56" stop-color="#5C468D"/>
<stop offset="0.59" stop-color="#442E75"/>
<stop offset="0.61" stop-color="#362066"/>
<stop offset="0.63" stop-color="#311B61"/>
<stop offset="0.67" stop-color="#2A1155"/>
<stop offset="0.75" stop-color="#230446"/>
<stop offset="0.81" stop-color="#200041"/>
<stop offset="1" stop-color="#200041"/>
</linearGradient>
<radialGradient id="paint7_radial" cx="0" cy="0" r="1" gradientUnits="userSpaceOnUse" gradientTransform="translate(-558522 82581) scale(12099.9 17732.5)">
<stop stop-color="#AF8AFC"/>
<stop offset="1" stop-color="#10054D"/>
</radialGradient>
<linearGradient id="paint8_linear" x1="625.06" y1="511.846" x2="280.713" y2="82.8852" gradientUnits="userSpaceOnUse">
<stop offset="0.04" stop-color="#9F19AB"/>
<stop offset="0.24" stop-color="#AE25B1"/>
<stop offset="0.65" stop-color="#D744BF"/>
<stop offset="1" stop-color="#FF63CE"/>
</linearGradient>
<linearGradient id="paint9_linear" x1="256.949" y1="30.4451" x2="636.858" y2="586.329" gradientUnits="userSpaceOnUse">
<stop offset="0.01" stop-color="#9F19AB"/>
<stop offset="0.43" stop-color="#5F27BD"/>
<stop offset="0.9" stop-color="#3D065F"/>
</linearGradient>
<radialGradient id="paint10_radial" cx="0" cy="0" r="1" gradientUnits="userSpaceOnUse" gradientTransform="translate(602.496 662.826) rotate(-28.5089) scale(24.7435)">
<stop stop-color="#EEEEF0"/>
<stop offset="0.51" stop-color="#D1D3D8"/>
<stop offset="0.99" stop-color="#9DA7B3"/>
</radialGradient>
<linearGradient id="paint11_linear" x1="564.166" y1="624.147" x2="597.612" y2="606.124" gradientUnits="userSpaceOnUse">
<stop stop-color="#C211A1"/>
<stop offset="0.05" stop-color="#C518A5"/>
<stop offset="0.13" stop-color="#CE2DAF"/>
<stop offset="0.14" stop-color="#CF30B1"/>
<stop offset="0.23" stop-color="#FF63CE"/>
<stop offset="0.28" stop-color="#EB48BF"/>
<stop offset="0.38" stop-color="#C211A1"/>
<stop offset="0.54" stop-color="#A919AB"/>
<stop offset="0.62" stop-color="#AC1BAB"/>
<stop offset="0.7" stop-color="#B723AB"/>
<stop offset="0.77" stop-color="#C92FAA"/>
<stop offset="0.82" stop-color="#DC3DAA"/>
<stop offset="0.93" stop-color="#CD24A5"/>
<stop offset="1" stop-color="#C211A1"/>
</linearGradient>
<radialGradient id="paint12_radial" cx="0" cy="0" r="1" gradientUnits="userSpaceOnUse" gradientTransform="translate(595.933 666.39) rotate(-28.32) scale(51.7813)">
<stop stop-color="#45108A"/>
<stop offset="0.16" stop-color="#300B60"/>
<stop offset="0.32" stop-color="#1F073D"/>
<stop offset="0.49" stop-color="#110423"/>
<stop offset="0.65" stop-color="#08020F"/>
<stop offset="0.82" stop-color="#020004"/>
<stop offset="1"/>
</radialGradient>
<linearGradient id="paint13_linear" x1="553.578" y1="526.053" x2="543.955" y2="565.653" gradientUnits="userSpaceOnUse">
<stop offset="0.04" stop-color="#9F19AB"/>
<stop offset="0.24" stop-color="#AE25B1"/>
<stop offset="0.65" stop-color="#D744BF"/>
<stop offset="1" stop-color="#FF63CE"/>
</linearGradient>
<linearGradient id="paint14_linear" x1="531.752" y1="548.302" x2="551.565" y2="537.625" gradientUnits="userSpaceOnUse">
<stop stop-color="#BEC5D8"/>
<stop offset="0.12" stop-color="#DFE2EC"/>
<stop offset="0.25" stop-color="white"/>
<stop offset="0.29" stop-color="#E9EAF0"/>
<stop offset="0.36" stop-color="#BEC1D2"/>
<stop offset="0.43" stop-color="#9CA1BA"/>
<stop offset="0.5" stop-color="#848BAA"/>
<stop offset="0.56" stop-color="#757D9F"/>
<stop offset="0.62" stop-color="#70789C"/>
<stop offset="0.67" stop-color="#767EA3"/>
<stop offset="0.75" stop-color="#888FB5"/>
<stop offset="0.84" stop-color="#A5AAD4"/>
<stop offset="0.88" stop-color="#B4B8E3"/>
<stop offset="0.89" stop-color="#B2B6E1"/>
<stop offset="0.93" stop-color="#9DA1C9"/>
<stop offset="0.97" stop-color="#9094BA"/>
<stop offset="1" stop-color="#8B90B5"/>
</linearGradient>
<linearGradient id="paint15_linear" x1="332.159" y1="262.619" x2="479.846" y2="433.024" gradientUnits="userSpaceOnUse">
<stop offset="0.01" stop-color="#9F19AB"/>
<stop offset="0.43" stop-color="#5F27BD"/>
<stop offset="0.9" stop-color="#3D065F"/>
</linearGradient>
<linearGradient id="paint16_linear" x1="47881.3" y1="69340.8" x2="-42688.4" y2="-24934.1" gradientUnits="userSpaceOnUse">
<stop offset="0.04" stop-color="#9F19AB"/>
<stop offset="0.24" stop-color="#AE25B1"/>
<stop offset="0.65" stop-color="#D744BF"/>
<stop offset="1" stop-color="#FF63CE"/>
</linearGradient>
<linearGradient id="paint17_linear" x1="-36979.5" y1="-78468.1" x2="113954" y2="73216.7" gradientUnits="userSpaceOnUse">
<stop offset="0.01" stop-color="#9F19AB"/>
<stop offset="0.43" stop-color="#5F27BD"/>
<stop offset="0.9" stop-color="#3D065F"/>
</linearGradient>
<linearGradient id="paint18_linear" x1="371.042" y1="331.824" x2="523.375" y2="602.957" gradientUnits="userSpaceOnUse">
<stop stop-color="#BEC5D8"/>
<stop offset="0.12" stop-color="#DFE2EC"/>
<stop offset="0.25" stop-color="white"/>
<stop offset="0.29" stop-color="#E9EAF0"/>
<stop offset="0.36" stop-color="#BEC1D2"/>
<stop offset="0.43" stop-color="#9CA1BA"/>
<stop offset="0.5" stop-color="#848BAA"/>
<stop offset="0.56" stop-color="#757D9F"/>
<stop offset="0.62" stop-color="#70789C"/>
<stop offset="0.77" stop-color="#777EA2"/>
<stop offset="0.98" stop-color="#898EB3"/>
<stop offset="1" stop-color="#8B90B5"/>
</linearGradient>
<linearGradient id="paint19_linear" x1="6564.77" y1="6022.22" x2="21863.9" y2="27939.2" gradientUnits="userSpaceOnUse">
<stop stop-color="#BEC5D8"/>
<stop offset="0.12" stop-color="#DFE2EC"/>
<stop offset="0.25" stop-color="white"/>
<stop offset="0.29" stop-color="#E9EAF0"/>
<stop offset="0.36" stop-color="#BEC1D2"/>
<stop offset="0.43" stop-color="#9CA1BA"/>
<stop offset="0.5" stop-color="#848BAA"/>
<stop offset="0.56" stop-color="#757D9F"/>
<stop offset="0.62" stop-color="#70789C"/>
<stop offset="0.67" stop-color="#767EA3"/>
<stop offset="0.75" stop-color="#888FB5"/>
<stop offset="0.84" stop-color="#A5AAD4"/>
<stop offset="0.88" stop-color="#B4B8E3"/>
<stop offset="0.89" stop-color="#B2B6E1"/>
<stop offset="0.93" stop-color="#9DA1C9"/>
<stop offset="0.97" stop-color="#9094BA"/>
<stop offset="1" stop-color="#8B90B5"/>
</linearGradient>
<linearGradient id="paint20_linear" x1="422.775" y1="391.07" x2="498.162" y2="461.636" gradientUnits="userSpaceOnUse">
<stop offset="0.04" stop-color="#FFFA26"/>
<stop offset="1" stop-color="#FFA217"/>
</linearGradient>
<linearGradient id="paint21_linear" x1="533.45" y1="479.972" x2="345.185" y2="333.368" gradientUnits="userSpaceOnUse">
<stop stop-color="white"/>
<stop offset="0.18" stop-color="#EAEBF7"/>
<stop offset="0.48" stop-color="#CACDEB"/>
<stop offset="0.58" stop-color="#B7BADB"/>
<stop offset="0.74" stop-color="#9FA3C6"/>
<stop offset="0.88" stop-color="#9095B9"/>
<stop offset="1" stop-color="#8B90B5"/>
</linearGradient>
<radialGradient id="paint22_radial" cx="0" cy="0" r="1" gradientUnits="userSpaceOnUse" gradientTransform="translate(10292.5 12220.1) scale(7327.56 11088.6)">
<stop stop-color="white"/>
<stop offset="1"/>
</radialGradient>
<linearGradient id="paint23_linear" x1="205.022" y1="484.469" x2="-2.62365" y2="484.469" gradientUnits="userSpaceOnUse">
<stop offset="0.04" stop-color="#9F19AB"/>
<stop offset="0.13" stop-color="#A31CAC"/>
<stop offset="0.22" stop-color="#AE25B1"/>
<stop offset="0.31" stop-color="#C234B8"/>
<stop offset="0.4" stop-color="#DC48C1"/>
<stop offset="0.48" stop-color="#FF63CE"/>
<stop offset="0.61" stop-color="#ED55C7"/>
<stop offset="0.74" stop-color="#E04BC3"/>
<stop offset="0.87" stop-color="#DC48C1"/>
</linearGradient>
<linearGradient id="paint24_linear" x1="222.141" y1="221.181" x2="84.8488" y2="482.667" gradientUnits="userSpaceOnUse">
<stop offset="0.04" stop-color="#9F19AB"/>
<stop offset="0.24" stop-color="#AE25B1"/>
<stop offset="0.65" stop-color="#D744BF"/>
<stop offset="1" stop-color="#FF63CE"/>
</linearGradient>
<radialGradient id="paint25_radial" cx="0" cy="0" r="1" gradientUnits="userSpaceOnUse" gradientTransform="translate(91.5052 480.242) scale(58.381 58.4138)">
<stop stop-color="white"/>
<stop offset="1"/>
</radialGradient>
<linearGradient id="paint26_linear" x1="9411.47" y1="3580.99" x2="-120.562" y2="3580.99" gradientUnits="userSpaceOnUse">
<stop offset="0.04" stop-color="#9F19AB"/>
<stop offset="0.13" stop-color="#A31CAC"/>
<stop offset="0.22" stop-color="#AE25B1"/>
<stop offset="0.31" stop-color="#C234B8"/>
<stop offset="0.4" stop-color="#DC48C1"/>
<stop offset="0.48" stop-color="#FF63CE"/>
<stop offset="0.61" stop-color="#ED55C7"/>
<stop offset="0.74" stop-color="#E04BC3"/>
<stop offset="0.87" stop-color="#DC48C1"/>
</linearGradient>
<linearGradient id="paint27_linear" x1="54.4664" y1="376.892" x2="160.962" y2="399.335" gradientUnits="userSpaceOnUse">
<stop offset="0.01" stop-color="#C1A1D5"/>
<stop offset="0.05" stop-color="#C8ABDA"/>
<stop offset="0.11" stop-color="#DAC6E6"/>
<stop offset="0.2" stop-color="#F7F2F9"/>
<stop offset="0.22" stop-color="white"/>
<stop offset="0.25" stop-color="#F9F5FB"/>
<stop offset="0.31" stop-color="#E8DBEF"/>
<stop offset="0.36" stop-color="#D5BFE3"/>
<stop offset="0.4" stop-color="#C7AFE1"/>
<stop offset="0.48" stop-color="#B397DE"/>
<stop offset="0.55" stop-color="#A788DC"/>
<stop offset="0.61" stop-color="#A383DB"/>
<stop offset="0.76" stop-color="#AE8DDC"/>
<stop offset="1" stop-color="#C8A6DE"/>
</linearGradient>
<linearGradient id="paint28_linear" x1="593.733" y1="225.487" x2="981.935" y2="558.309" gradientUnits="userSpaceOnUse">
<stop offset="0.04" stop-color="#9F19AB"/>
<stop offset="0.24" stop-color="#AE25B1"/>
<stop offset="0.65" stop-color="#D744BF"/>
<stop offset="1" stop-color="#FF63CE"/>
</linearGradient>
<linearGradient id="paint29_linear" x1="44.8178" y1="430.236" x2="149.624" y2="452.279" gradientUnits="userSpaceOnUse">
<stop stop-color="#C211A1"/>
<stop offset="0.03" stop-color="#C518A5"/>
<stop offset="0.08" stop-color="#CE2DAF"/>
<stop offset="0.09" stop-color="#CF30B1"/>
<stop offset="0.21" stop-color="#FF63CE"/>
<stop offset="0.28" stop-color="#EB48BF"/>
<stop offset="0.41" stop-color="#C211A1"/>
<stop offset="0.54" stop-color="#A919AB"/>
<stop offset="0.73" stop-color="#AC18AA"/>
<stop offset="0.9" stop-color="#B715A5"/>
<stop offset="1" stop-color="#C211A1"/>
</linearGradient>
<linearGradient id="paint30_linear" x1="1246.56" y1="1466.14" x2="3284.84" y2="2159.29" gradientUnits="userSpaceOnUse">
<stop stop-color="#C211A1"/>
<stop offset="0.03" stop-color="#C518A5"/>
<stop offset="0.08" stop-color="#CE2DAF"/>
<stop offset="0.09" stop-color="#CF30B1"/>
<stop offset="0.21" stop-color="#FF63CE"/>
<stop offset="0.28" stop-color="#EB48BF"/>
<stop offset="0.41" stop-color="#C211A1"/>
<stop offset="0.54" stop-color="#A919AB"/>
<stop offset="0.73" stop-color="#AC18AA"/>
<stop offset="0.9" stop-color="#B715A5"/>
<stop offset="1" stop-color="#C211A1"/>
</linearGradient>
<linearGradient id="paint31_linear" x1="977.106" y1="572.25" x2="2300.97" y2="915.572" gradientUnits="userSpaceOnUse">
<stop stop-color="#C211A1"/>
<stop offset="0.03" stop-color="#C518A5"/>
<stop offset="0.08" stop-color="#CE2DAF"/>
<stop offset="0.09" stop-color="#CF30B1"/>
<stop offset="0.21" stop-color="#FF63CE"/>
<stop offset="0.28" stop-color="#EB48BF"/>
<stop offset="0.41" stop-color="#C211A1"/>
<stop offset="0.54" stop-color="#A919AB"/>
<stop offset="0.73" stop-color="#AC18AA"/>
<stop offset="0.9" stop-color="#B715A5"/>
<stop offset="1" stop-color="#C211A1"/>
</linearGradient>
<linearGradient id="paint32_linear" x1="118.495" y1="294.989" x2="82.1238" y2="294.989" gradientUnits="userSpaceOnUse">
<stop offset="0.04" stop-color="#9F19AB"/>
<stop offset="0.16" stop-color="#AE25B1"/>
<stop offset="0.41" stop-color="#D744BF"/>
<stop offset="0.63" stop-color="#FF63CE"/>
<stop offset="0.87" stop-color="#DC48C1"/>
</linearGradient>
<linearGradient id="paint33_linear" x1="843.431" y1="303.565" x2="843.431" y2="538.042" gradientUnits="userSpaceOnUse">
<stop stop-color="white"/>
<stop offset="1"/>
</linearGradient>
<radialGradient id="paint34_radial" cx="0" cy="0" r="1" gradientUnits="userSpaceOnUse" gradientTransform="translate(174.2 355.105) rotate(-10.6255) scale(19.4421 59.6416)">
<stop stop-color="#10054D"/>
<stop offset="0.1" stop-color="#0D043D"/>
<stop offset="0.32" stop-color="#070222"/>
<stop offset="0.54" stop-color="#03010F"/>
<stop offset="0.76" stop-color="#010004"/>
<stop offset="1"/>
</radialGradient>
<radialGradient id="paint35_radial" cx="0" cy="0" r="1" gradientUnits="userSpaceOnUse" gradientTransform="translate(282.237 517.023) rotate(-169.375) scale(19.4421 59.6416)">
<stop stop-color="#972A74"/>
<stop offset="0.04" stop-color="#8A266A"/>
<stop offset="0.19" stop-color="#601B4A"/>
<stop offset="0.35" stop-color="#3D112F"/>
<stop offset="0.51" stop-color="#230A1B"/>
<stop offset="0.67" stop-color="#0F040C"/>
<stop offset="0.83" stop-color="#040103"/>
<stop offset="1"/>
</radialGradient>
<clipPath id="clip0">
<rect width="440" height="647" fill="white" transform="translate(232)"/>
</clipPath>
<clipPath id="clip1">
<rect width="204" height="245" fill="white" transform="translate(0 284)"/>
</clipPath>
</defs>
</svg>
