<?xml version="1.0" encoding="utf-8"?>
<!-- Generator: Adobe Illustrator 16.0.0, SVG Export Plug-In . SVG Version: 6.00 Build 0)  -->
<!DOCTYPE svg PUBLIC "-//W3C//DTD SVG 1.1//EN" "http://www.w3.org/Graphics/SVG/1.1/DTD/svg11.dtd">
<svg version="1.1" id="Слой_1" xmlns="http://www.w3.org/2000/svg" xmlns:xlink="http://www.w3.org/1999/xlink" x="0px" y="0px"
	 width="30px" height="35px" viewBox="0 0 30 35" enable-background="new 0 0 30 35" xml:space="preserve">
<g id="Layer_x0020_1">
	<path fill="#FBAD24" d="M17.984,18.483L4.379,31.878c-0.542,0.542-1.42,0.542-1.962,0L1.6,31.059c-0.541-0.546-0.541-1.42,0-1.963
		L13.411,17.5L1.612,5.904c-0.543-0.541-0.543-1.419,0-1.962l0.815-0.821c0.544-0.543,1.425-0.543,1.968,0l13.598,13.396
		C18.526,17.059,18.526,17.941,17.984,18.483L17.984,18.483z"/>
</g>
<g id="Layer_x0020_1_1_">
	<path fill="#FBAD24" d="M28.592,18.483L14.987,31.878c-0.542,0.542-1.42,0.542-1.962,0l-0.817-0.819
		c-0.541-0.546-0.541-1.42,0-1.963L24.018,17.5L12.219,5.904c-0.543-0.541-0.543-1.419,0-1.962l0.815-0.821
		c0.544-0.543,1.425-0.543,1.968,0l13.598,13.396C29.134,17.059,29.134,17.941,28.592,18.483L28.592,18.483z"/>
</g>
</svg>
