<?xml version="1.0" encoding="utf-8"?>
<!-- Generator: Adobe Illustrator 16.0.0, SVG Export Plug-In . SVG Version: 6.00 Build 0)  -->
<!DOCTYPE svg PUBLIC "-//W3C//DTD SVG 1.1//EN" "http://www.w3.org/Graphics/SVG/1.1/DTD/svg11.dtd">
<svg version="1.1" id="Слой_1" xmlns="http://www.w3.org/2000/svg" xmlns:xlink="http://www.w3.org/1999/xlink" x="0px" y="0px"
	 width="30px" height="35px" viewBox="0 0 30 35" enable-background="new 0 0 30 35" xml:space="preserve">
<g id="Layer_x0020_1">
	<path fill="#FBAD24" d="M12.209,16.515L25.814,3.12c0.542-0.542,1.42-0.542,1.962,0l0.817,0.82c0.541,0.546,0.541,1.42,0,1.963
		L16.783,17.499l11.799,11.596c0.543,0.541,0.543,1.419,0,1.962l-0.815,0.821c-0.544,0.543-1.425,0.543-1.968,0L12.2,18.482
		C11.667,17.94,11.667,17.057,12.209,16.515L12.209,16.515z"/>
</g>
<g id="Layer_x0020_1_1_">
	<path fill="#FBAD24" d="M1.602,16.515L15.207,3.12c0.542-0.542,1.42-0.542,1.962,0l0.817,0.82c0.541,0.546,0.541,1.42,0,1.963
		L6.176,17.499l11.799,11.596c0.543,0.541,0.543,1.419,0,1.962l-0.815,0.821c-0.544,0.543-1.425,0.543-1.968,0L1.593,18.482
		C1.06,17.94,1.06,17.057,1.602,16.515L1.602,16.515z"/>
</g>
</svg>
