<svg width="45" height="22" viewBox="0 0 45 22" fill="none" xmlns="http://www.w3.org/2000/svg">
<g opacity="0.8">
<path d="M14.0663 6.165C13.908 6.31348 13.7476 6.46033 13.5912 6.61133C13.037 7.14624 12.6207 7.76917 12.474 8.54507C12.2709 9.61985 12.4872 10.6055 13.1255 11.4895C13.4447 11.9315 13.8257 12.2984 14.3325 12.5094C14.3916 12.5339 14.4517 12.5558 14.5246 12.5841C14.4586 12.7674 14.4003 12.9478 14.3295 13.123C13.9164 14.1444 13.3795 15.0891 12.6471 15.909C12.5108 16.0616 12.3568 16.2 12.1992 16.3301C11.6639 16.7723 11.0643 16.9425 10.3886 16.7415C10.0514 16.6412 9.71773 16.5283 9.3821 16.4224C9.03614 16.3132 8.68618 16.2256 8.32128 16.2166C7.86969 16.2056 7.45144 16.3439 7.03466 16.5007C6.7177 16.62 6.39921 16.7435 6.07166 16.823C5.55632 16.948 5.09019 16.7859 4.6624 16.4904C4.23095 16.1925 3.88986 15.8013 3.59444 15.3706C2.8539 14.2911 2.28975 13.1233 1.94385 11.85C1.63624 10.7176 1.54995 9.56872 1.72286 8.40537C1.87544 7.37927 2.25001 6.45345 2.9576 5.68837C3.6906 4.89579 4.59238 4.57003 5.65034 4.67712C6.17702 4.73042 6.68002 4.88632 7.18496 5.03624C7.39542 5.09873 7.61021 5.14571 7.82281 5.20072C8.12682 5.27942 8.42704 5.24368 8.72099 5.15565C9.13543 5.03147 9.54501 4.89075 9.95906 4.76521C10.5746 4.57854 11.1992 4.52516 11.8343 4.6507C12.6561 4.81314 13.3054 5.26492 13.8491 5.8954C13.9173 5.97445 13.984 6.05485 14.0511 6.13498C14.0571 6.14213 14.0599 6.15213 14.0663 6.165Z" fill="#D3C6D8"/>
<path d="M10.9757 0.998047C10.9844 1.18234 11.0097 1.35608 10.998 1.5271C10.9342 2.46047 10.575 3.26286 9.9439 3.93882C9.65896 4.24403 9.34474 4.51199 8.95576 4.66884C8.62481 4.80228 8.27304 4.83115 7.92201 4.85729C7.91668 4.8577 7.91081 4.85157 7.90527 4.84844C7.95402 2.76486 8.9843 1.41701 10.9757 0.998047Z" fill="#D3C6D8"/>
<path d="M18.4523 3.47518C19.267 3.33657 20.3339 3.21777 21.6917 3.21777C23.3599 3.21777 24.582 3.61379 25.3578 4.32673C26.0756 4.96041 26.5023 5.93082 26.5023 7.11902C26.5023 8.3271 26.1532 9.27763 25.4937 9.97075C24.6014 10.9411 23.1465 11.4362 21.4977 11.4362C20.9934 11.4362 20.5278 11.4164 20.1399 11.3173V16.6643H18.4523V3.47518H18.4523ZM20.1398 9.91132C20.5084 10.0104 20.974 10.0499 21.5365 10.0499C23.5732 10.0499 24.8147 9.04003 24.8147 7.19827C24.8147 5.43575 23.5927 4.5842 21.7305 4.5842C20.9934 4.5842 20.4308 4.64357 20.1399 4.72281V9.91132H20.1398Z" fill="#D3C6D8"/>
<path d="M32.5918 16.6643L32.456 15.4562H32.3978C31.8741 16.2088 30.8654 16.8821 29.5269 16.8821C27.6259 16.8821 26.656 15.5157 26.656 14.1294C26.656 11.8124 28.6734 10.545 32.3008 10.5648V10.3668C32.3008 9.57462 32.0874 8.14876 30.167 8.14876C29.2941 8.14876 28.3825 8.42605 27.7229 8.86169L27.335 7.71311C28.1109 7.19823 29.236 6.86157 30.4192 6.86157C33.2901 6.86157 33.9884 8.86169 33.9884 10.7827V14.3672C33.9884 15.1989 34.0272 16.0109 34.1435 16.6643H32.5918ZM32.3396 11.7728C30.4774 11.7332 28.363 12.0698 28.363 13.9314C28.363 15.0602 29.1001 15.5949 29.9731 15.5949C31.1951 15.5949 31.971 14.8027 32.2425 13.9908C32.3008 13.8126 32.3396 13.6145 32.3396 13.4363V11.7728Z" fill="#D3C6D8"/>
<path d="M36.2557 7.07935L38.3118 12.7432C38.5252 13.3769 38.758 14.1294 38.9132 14.7037H38.9519C39.1265 14.1294 39.3206 13.3967 39.5532 12.7036L41.4155 7.07935H43.2195L40.659 13.9116C39.4369 17.1989 38.6028 18.8823 37.439 19.9121C36.6049 20.6646 35.7709 20.9616 35.3441 21.0409L34.9173 19.5754C35.3441 19.4368 35.9066 19.1595 36.4108 18.7239C36.8764 18.3476 37.4584 17.6743 37.8464 16.7831C37.924 16.6049 37.9821 16.4662 37.9821 16.3672C37.9821 16.2682 37.9433 16.1295 37.8657 15.9117L34.3936 7.07935H36.2557Z" fill="#D3C6D8"/>
</g>
</svg>
