<svg xmlns="http://www.w3.org/2000/svg" viewBox="0 0 74 58.3"><defs><style>.cls-1{fill:#fbad24;}</style></defs><title>benefit-1</title><g id="Слой_2" data-name="Слой 2"><g id="Слой_1-2" data-name="Слой 1"><path class="cls-1" d="M72.81,47.75,46.64,13.53a1.65,1.65,0,0,0-1.31-.65H43.52a8.09,8.09,0,1,0-13,0H28.67a1.65,1.65,0,0,0-1.31.65L1.19,47.75l-.07.1A6.76,6.76,0,0,0,6.77,58.3H67.23a6.76,6.76,0,0,0,5.65-10.46ZM32.21,8.09A4.79,4.79,0,1,1,37,12.88,4.79,4.79,0,0,1,32.21,8.09ZM70.26,53.19a3.4,3.4,0,0,1-3,1.81H6.77a3.45,3.45,0,0,1-2.92-5.3L29.48,16.19h15L70.15,49.7A3.4,3.4,0,0,1,70.26,53.19Z"/><polygon class="cls-1" points="15.73 42.44 15.73 43.27 17.14 43.27 17.14 49.1 19.01 49.1 19.01 41.82 17.66 41.82 15.73 42.44"/><path class="cls-1" d="M27.64,41.71H25.46a1.55,1.55,0,0,0-1.66,1.56v4.37a1.55,1.55,0,0,0,1.66,1.56h2.18a1.55,1.55,0,0,0,1.66-1.56V43.27A1.56,1.56,0,0,0,27.64,41.71Zm-.21,5.77a.36.36,0,0,1-.36.36H26a.36.36,0,0,1-.36-.36V43.43a.36.36,0,0,1,.36-.36h1a.36.36,0,0,1,.36.36Z"/><path class="cls-1" d="M34.5,41.71H32.32a1.55,1.55,0,0,0-1.66,1.56v4.37a1.55,1.55,0,0,0,1.66,1.56H34.5a1.55,1.55,0,0,0,1.66-1.56V43.27A1.56,1.56,0,0,0,34.5,41.71Zm-.21,5.77a.36.36,0,0,1-.36.36h-1a.36.36,0,0,1-.36-.36V43.43a.36.36,0,0,1,.36-.36h1a.36.36,0,0,1,.36.36Z"/><path class="cls-1" d="M41.37,41.71H39.18a1.55,1.55,0,0,0-1.66,1.56v4.37a1.55,1.55,0,0,0,1.66,1.56h2.18A1.55,1.55,0,0,0,43,47.64V43.27A1.56,1.56,0,0,0,41.37,41.71Zm-.21,5.77a.36.36,0,0,1-.36.36h-1a.36.36,0,0,1-.36-.36V43.43a.36.36,0,0,1,.36-.36h1a.36.36,0,0,1,.36.36Z"/><polygon class="cls-1" points="52.7 44.26 52.7 43.59 50.94 43.59 50.09 45.77 49.38 45.77 49.38 43.59 47.61 43.59 47.61 49.1 49.38 49.1 49.38 47.02 50.09 47.02 51.09 49.1 52.86 49.1 52.86 48.42 51.51 46.34 52.7 44.26"/><polygon class="cls-1" points="53.85 49.1 55.62 49.1 55.62 44.83 57.85 44.83 58.27 44.37 58.27 43.59 53.85 43.59 53.85 49.1"/></g></g></svg>