<svg height="502pt" viewBox="-8 0 502 502.00187" width="502pt" xmlns="http://www.w3.org/2000/svg" fill="#fbad24"><path d="m243.222656 35.03125c-63.917968 0-115.738281 51.816406-115.738281 115.738281s51.816406 115.738281 115.738281 115.738281 115.738282-51.816406 115.738282-115.738281c-.070313-63.890625-51.847657-115.664062-115.738282-115.738281zm0 215.476562c-55.082031 0-99.738281-44.652343-99.738281-99.738281 0-55.082031 44.65625-99.738281 99.738281-99.738281 55.085938 0 99.738282 44.65625 99.738282 99.738281-.0625 55.058594-44.679688 99.675781-99.738282 99.738281zm0 0"/><path d="m285.152344 152h-39.929688v-55.136719c0-4.417969-3.582031-8-8-8-4.417968 0-8 3.582031-8 8v62.894531c-.011718 4.46875 3.546875 8.128907 8.011719 8.242188h47.917969c4.421875 0 8-3.582031 8-8s-3.578125-8-8-8zm0 0"/><path d="m393.996094 150.769531c0-83.132812-67.636719-150.769531-150.773438-150.769531-83.132812 0-150.769531 67.636719-150.769531 150.769531 0 83.136719 67.636719 150.769531 150.769531 150.769531 83.136719 0 150.773438-67.632812 150.773438-150.769531zm-150.773438 134.769531c-74.3125 0-134.769531-60.457031-134.769531-134.769531 0-74.308593 60.457031-134.769531 134.769531-134.769531s134.773438 60.457031 134.773438 134.769531c0 74.316407-60.460938 134.769531-134.773438 134.769531zm0 0"/><path d="m463.3125 132.042969c-.660156-4.179688-4.464844-7.125-8.679688-6.707031-19.15625 1.847656-33.480468 18.414062-32.542968 37.636718l1.4375 58.933594c-15.757813 1.570312-29.550782 11.261719-36.367188 25.554688l-21.535156 45.222656c-3.351562 7.007812-8.234375 13.175781-14.289062 18.046875l-4.480469 3.589843c-22.765625 18.164063-35.449219 46.136719-34.117188 75.234376l-8.800781-4.191407c-3.988281-1.898437-8.761719-.203125-10.660156 3.785157l-23.617188 49.585937c-1.898437 3.988281-.203125 8.761719 3.785156 10.664063l108.816407 51.824218c1.914062.914063 4.113281 1.027344 6.113281.320313 2-.710938 3.636719-2.1875 4.546875-4.105469l23.617187-49.585938c1.898438-3.988281.207032-8.761718-3.78125-10.664062l-4.644531-2.210938-1.160156-15.507812c-.464844-6.0625 1.445313-12.066406 5.324219-16.742188l56.351562-68.191406c.113282-.136718.222656-.277344.328125-.425781 11.617188-16.214844 17.742188-35.722656 17.480469-55.671875-.007812-.378906-.042969-.753906-.101562-1.128906zm-81.398438 351.296875-94.371093-44.949219 16.738281-35.140625 94.375 44.949219zm74.210938-158.785156-56.175781 67.980468c-6.519531 7.859375-9.730469 17.945313-8.949219 28.125l.480469 6.394532-61.855469-29.453126c-4.402344-26.792968 6.015625-53.871093 27.238281-70.800781l4.480469-3.589843c7.933594-6.382813 14.335938-14.464844 18.726562-23.652344l21.535157-45.222656c5.632812-11.785157 18.386719-18.421876 31.273437-16.261719l-31.484375 66.109375c-1.269531 2.585937-1.050781 5.652344.574219 8.03125 1.621094 2.378906 4.398438 3.703125 7.269531 3.464844 2.871094-.238282 5.390625-2.003907 6.601563-4.617188l35.398437-74.335938c1.898438-3.988281.203125-8.761718-3.785156-10.660156-2.535156-1.207031-5.175781-2.171875-7.890625-2.886718l-1.484375-60.699219c0-.070313 0-.140625-.003906-.210938-.40625-7.871093 3.832031-15.253906 10.835937-18.871093l21.535156 135.839843c.09375 16.234375-4.914062 32.085938-14.320312 45.316407zm0 0"/><path d="m193.171875 389.148438c-1.902344-3.988282-6.675781-5.683594-10.664063-3.785157l-8.800781 4.191407c1.335938-29.097657-11.351562-57.070313-34.117187-75.234376l-4.476563-3.589843c-6.054687-4.867188-10.9375-11.035157-14.289062-18.046875l-21.539063-45.222656c-6.816406-14.296876-20.609375-23.984376-36.367187-25.554688l1.441406-58.933594c.9375-19.222656-13.390625-35.789062-32.542969-37.636718-4.214844-.414063-8.019531 2.527343-8.679687 6.707031l-23.027344 145.265625c-.0625.375-.09375.75-.1015625 1.128906-.2617185 19.949219 5.8632815 39.457031 17.4804685 55.671875.105469.148437.210938.289063.328125.425781l56.347656 68.191406c3.882813 4.679688 5.792969 10.679688 5.328126 16.742188l-1.160157 15.507812-4.644531 2.210938c-3.988281 1.902344-5.679688 6.675781-3.78125 10.664062l23.617188 49.585938c.910156 1.917969 2.546874 3.394531 4.546874 4.105469 2 .707031 4.199219.59375 6.117188-.320313l108.816406-51.824218c3.988282-1.898438 5.679688-6.671876 3.78125-10.660157zm-106.667969 3.386718-56.179687-67.980468c-9.40625-13.230469-14.417969-29.082032-14.324219-45.316407l21.535156-135.839843c7.007813 3.617187 11.246094 11.003906 10.835938 18.875 0 .070312-.003906.140624-.007813.210937l-1.480469 60.699219c-2.714843.714844-5.355468 1.679687-7.890624 2.886718-3.992188 1.898438-5.683594 6.671876-3.785157 10.660157l35.398438 74.335937c1.210937 2.613282 3.730469 4.378906 6.601562 4.617188 2.867188.238281 5.648438-1.085938 7.269531-3.464844 1.625-2.378906 1.84375-5.445312.574219-8.03125l-31.480469-66.109375c12.882813-2.15625 25.636719 4.476563 31.273438 16.261719l21.535156 45.222656c4.390625 9.1875 10.792969 17.269531 18.726563 23.652344l4.476562 3.589844c21.222657 16.929687 31.640625 44.003906 27.242188 70.796874l-61.851563 29.457032.476563-6.394532c.78125-10.183593-2.425781-20.269531-8.945313-28.128906zm18.027344 90.800782-16.738281-35.136719 94.371093-44.945313 16.738282 35.144532zm0 0"/></svg>