<svg xmlns="http://www.w3.org/2000/svg" viewBox="0 0 56 56"><defs><style>.cls-1{fill:#fbad24;}</style></defs><title>benefit-2</title><g id="Слой_2" data-name="Слой 2"><g id="Слой_1-2" data-name="Слой 1"><polygon class="cls-1" points="35.37 20.59 36.96 20.59 36.96 14.42 35.81 14.42 34.18 14.95 34.18 15.65 35.37 15.65 35.37 20.59"/><path class="cls-1" d="M42.81,19.26V18.12A1.32,1.32,0,0,0,41.4,16.8H40V15.57h2.25l.35-.4v-.75H38.41v3.52h2.51a.3.3,0,0,1,.31.31v.88a.3.3,0,0,1-.31.31H38.41v1.14h3A1.32,1.32,0,0,0,42.81,19.26Z"/><path class="cls-1" d="M28,0A28,28,0,1,0,56,28,28,28,0,0,0,28,0Zm0,53.3A25.3,25.3,0,1,1,53.3,28,25.33,25.33,0,0,1,28,53.3Z"/><path class="cls-1" d="M29.35,6.15a1.35,1.35,0,0,0-2.7,0V28A1.35,1.35,0,0,0,28,29.35H49.85a1.35,1.35,0,0,0,0-2.7H29.35Z"/><path class="cls-1" d="M47.17,38.46l-4-2.23a.95.95,0,1,0-.92,1.66l4,2.23a.95.95,0,1,0,.92-1.66Z"/><path class="cls-1" d="M37.36,43a.95.95,0,1,0-1.61,1l2.18,3.57a.95.95,0,1,0,1.61-1Z"/><path class="cls-1" d="M28,44.53a1.35,1.35,0,0,0-1.35,1.35v4a1.35,1.35,0,0,0,2.7,0v-4A1.35,1.35,0,0,0,28,44.53Z"/><path class="cls-1" d="M19.94,42.66a1,1,0,0,0-1.3.31l-2.18,3.57a.95.95,0,1,0,1.61,1L20.25,44A1,1,0,0,0,19.94,42.66Z"/><path class="cls-1" d="M12.84,36.25l-4,2.32a.95.95,0,1,0,1,1.63l4-2.32a.95.95,0,1,0-1-1.63Z"/><path class="cls-1" d="M12.32,28A1.35,1.35,0,0,0,11,26.65H6.15a1.35,1.35,0,0,0,0,2.7H11A1.35,1.35,0,0,0,12.32,28Z"/><path class="cls-1" d="M8.89,17.54l4,2.23a.95.95,0,1,0,.93-1.65l-4-2.23a.95.95,0,1,0-.93,1.65Z"/><path class="cls-1" d="M18.07,8.47a.95.95,0,1,0-1.61,1L18.64,13a.95.95,0,1,0,1.61-1Z"/></g></g></svg>