<svg xmlns="http://www.w3.org/2000/svg" viewBox="0 0 190.24 190.25"><defs><style>.cls-1{fill:#fbad24;}</style></defs><title>benefit-4</title><g id="Слой_2" data-name="Слой 2"><g id="Слой_1-2" data-name="Слой 1"><path class="cls-1" d="M184.89,0,164.24,1.47c-.25,0-25.64,1.84-53.89,6.82C68.8,15.62,41.84,25.94,27.95,39.83a86.7,86.7,0,0,0-3.43,118.82L1.46,181.71a5,5,0,1,0,7.07,7.07l23.06-23.06a86.68,86.68,0,0,0,118.82-3.43c13.9-13.9,24.21-40.85,31.54-82.4,5.08-28.84,6.8-53.65,6.82-53.88l1.46-20.66A5,5,0,0,0,184.89,0Zm-6.1,25.31c0,.25-1.74,24.77-6.69,52.84-7,39.46-16.37,64.67-28.76,77.07a76.67,76.67,0,0,1-104.66,3.41L140.54,56.77a5,5,0,0,0-7.07-7.07L31.61,151.56A76.68,76.68,0,0,1,35,46.9c12.4-12.4,37.61-21.8,77.07-28.76,27.71-4.89,52.61-6.67,52.86-6.69l14.9-1.05Z"/></g></g></svg>