<svg width="27" height="26" viewBox="0 0 27 26" fill="none" xmlns="http://www.w3.org/2000/svg">
<path d="M11.059 20.6821C9.97123 20.6821 9.08301 21.57 9.08301 22.6625C9.08301 23.755 9.97123 24.6429 11.059 24.6429C12.1467 24.6429 13.0349 23.755 13.035 22.6625L11.059 20.6821ZM11.059 20.6821C12.1466 20.6821 13.0349 21.57 13.035 22.6625L11.059 20.6821Z" stroke="#6F38AB" stroke-width="1.5"/>
<path d="M20.6215 20.6821C19.5337 20.6821 18.6455 21.57 18.6455 22.6625C18.6455 23.755 19.5337 24.6429 20.6215 24.6429C21.7092 24.6429 22.5974 23.755 22.5975 22.6625L20.6215 20.6821ZM20.6215 20.6821C21.7091 20.6821 22.5974 21.57 22.5975 22.6625L20.6215 20.6821Z" stroke="#6F38AB" stroke-width="1.5"/>
<path d="M26.0757 5.96872L26.0757 5.96883C26.2238 6.15079 26.2811 6.38469 26.2338 6.61491L24.1051 16.964L24.1051 16.964C24.0316 17.3211 23.711 17.5819 23.349 17.5819H8.52368C8.47403 17.5819 8.4149 17.5837 8.36479 17.5851C8.35307 17.5855 8.34185 17.5858 8.33135 17.5861C8.26846 17.5878 8.20698 17.589 8.14423 17.5882C8.01576 17.5865 7.90361 17.5763 7.81127 17.5539C7.71966 17.5316 7.67713 17.5045 7.65947 17.4891L7.65918 17.4889C7.65067 17.4815 7.62625 17.4602 7.60799 17.3822L4.53244 2.75956L4.49445 2.57895C4.52141 2.63518 4.54177 2.69503 4.55462 2.75741C4.55463 2.75745 4.55464 2.75749 4.55465 2.75753L5.03336 5.08517L5.15653 5.68408H5.76798H25.4776C25.7113 5.68408 25.9278 5.78692 26.0757 5.96872ZM4.10551 2.20335C4.16502 2.22924 4.22042 2.26232 4.27072 2.30142L4.09753 2.22612L0.757157 0.773828L0.757092 0.7738C0.754673 0.772748 0.754017 0.772051 0.753744 0.771761L0.753711 0.771726C0.753082 0.771064 0.752 0.769636 0.75111 0.767378C0.750221 0.76512 0.749989 0.763214 0.75 0.762048C0.750006 0.761424 0.750019 0.760136 0.751288 0.75721L0.751372 0.757016C0.752572 0.754246 0.753405 0.75346 0.753685 0.753196L0.753715 0.753167C0.75435 0.752561 0.755608 0.751624 0.757507 0.750874C0.759404 0.750124 0.760841 0.749994 0.761481 0.75C0.761486 0.75 0.761494 0.75 0.761504 0.75C0.761672 0.749994 0.762554 0.749964 0.76501 0.751033L0.765197 0.751114L4.10542 2.20331C4.10545 2.20332 4.10548 2.20333 4.10551 2.20335Z" stroke="#6F38AB" stroke-width="1.5"/>
</svg>
