<svg width="24" height="24" viewBox="0 0 24 24" fill="none" xmlns="http://www.w3.org/2000/svg">
<path d="M4.14144 19.8585C4.23571 19.9528 4.35926 19.9999 4.4828 19.9999C4.60634 19.9999 4.72989 19.9528 4.82416 19.8585L12 12.6827L19.1759 19.8586C19.2701 19.9528 19.3937 20 19.5173 20C19.6408 20 19.7643 19.9528 19.8586 19.8586C20.0471 19.6701 20.0471 19.3644 19.8586 19.1758L12.6827 12L19.8586 4.82412C20.0471 4.63558 20.0471 4.32994 19.8586 4.1414C19.6701 3.95287 19.3645 3.95287 19.1759 4.1414L12 11.3173L4.82412 4.14148C4.63558 3.95294 4.32995 3.95294 4.14141 4.14148C3.95286 4.32998 3.95286 4.63565 4.14141 4.82419L11.3173 12L4.14144 19.1758C3.9529 19.3644 3.9529 19.67 4.14144 19.8585Z" fill="#666666" stroke="#666666" stroke-width="0.5"/>
</svg>
