<svg width="32" height="32" viewBox="0 0 32 32" fill="none" xmlns="http://www.w3.org/2000/svg">
<path d="M5.52209 26.478C5.64778 26.6036 5.81251 26.6665 5.97723 26.6665C6.14196 26.6665 6.30668 26.6036 6.43237 26.478L16.0002 16.9102L25.568 26.478C25.6936 26.6037 25.8585 26.6665 26.0232 26.6665C26.1879 26.6665 26.3526 26.6037 26.4783 26.478C26.7297 26.2267 26.7297 25.8191 26.4783 25.5677L16.9104 15.9999L26.4783 6.43208C26.7297 6.18069 26.7297 5.77318 26.4783 5.52179C26.2269 5.27041 25.8194 5.27041 25.568 5.52179L16.0002 15.0896L6.43232 5.52189C6.18094 5.27051 5.77342 5.27051 5.52204 5.52189C5.27065 5.77323 5.27065 6.18079 5.52204 6.43218L15.0899 15.9999L5.52209 25.5677C5.2707 25.8191 5.2707 26.2266 5.52209 26.478Z" fill="#666666" stroke="#666666" stroke-width="0.5"/>
</svg>
