<svg xmlns="http://www.w3.org/2000/svg" viewBox="0 0 30.93 30.93"><defs><style>.cls-1{fill:#fbad24;}</style></defs><title>complect-4</title><g id="Слой_2" data-name="Слой 2"><g id="Слой_1-2" data-name="Слой 1"><path class="cls-1" d="M3.52,11.45a.56.56,0,0,0,.41.2H4a.56.56,0,0,0,.4-.16L6,9.86,13,16.91a.56.56,0,0,0,.79,0l3.09-3.09a.56.56,0,0,0,0-.79L9.86,6l1.63-1.63a.56.56,0,0,0,0-.83L7.44.13a.56.56,0,0,0-.76,0L.16,6.68a.56.56,0,0,0,0,.76ZM9.11,6.81l1.75,1.75-2.3,2.3L6.81,9.11Zm4.08,4.08-2.3,2.3L9.35,11.65l2.3-2.3Zm.25,4.84L11.68,14l2.3-2.3,1.75,1.75ZM4,10.26,3.3,9.45,9.45,3.3l.81.68ZM7.11,1.32,8.59,2.58l-6,6L1.32,7.11Z"/><path class="cls-1" d="M24.88,13.74a25.25,25.25,0,0,0-4.81.35h0l-.09,0h0l-.08,0h0l-.07.06h0l-5.52,5.52h0l-.06.07h0l0,.08v0a.56.56,0,0,0,0,.09h0a25.25,25.25,0,0,0-.35,4.81c.14,4.33,1.76,5.64,3.08,6a2.62,2.62,0,0,0,.64.08A2.9,2.9,0,0,0,19.55,30a3.86,3.86,0,0,0,.7-3.9c-.25-.83-.74-2.37-1-3l3.76-3.76,3,1a4.94,4.94,0,0,0,1.45.23A3.49,3.49,0,0,0,30,19.55a2.83,2.83,0,0,0,.84-2.73C30.52,15.5,29.21,13.89,24.88,13.74ZM18.74,29.23a1.69,1.69,0,0,1-1.64.53c-2.56-.64-2.41-5.84-2-8.63l3.12,2.13c.18.57.72,2.29,1,3.18A2.78,2.78,0,0,1,18.74,29.23Zm-.15-7.06-3.07-2.09,4.56-4.56,2.09,3.07Zm10.64-3.44a2.78,2.78,0,0,1-2.8.44l-3.18-1-2.13-3.13c2.8-.38,8-.52,8.63,2A1.69,1.69,0,0,1,29.23,18.74Z"/></g></g></svg>