<svg xmlns="http://www.w3.org/2000/svg" viewBox="0 0 30.63 30.63"><defs><style>.cls-1{fill:#fbad24;}</style></defs><title>complect-3</title><g id="Слой_2" data-name="Слой 2"><g id="Слой_1-2" data-name="Слой 1"><path class="cls-1" d="M14.19,19.59,24.35,29.75a3,3,0,0,0,4.27,0l1.13-1.13a3,3,0,0,0,0-4.27L19.59,14.19a3,3,0,0,0-4.27,0l-.07.07L4.59,3.6,3.19,1.54.86,0,0,.86,1.54,3.19,3.6,4.59,14.26,15.25l-.07.07A3,3,0,0,0,14.19,19.59Zm3.26-4.88a1.61,1.61,0,0,1,1.14.47L28.76,25.34a1.62,1.62,0,0,1,0,2.29l-1.13,1.13a1.62,1.62,0,0,1-2.29,0L15.18,18.6a1.62,1.62,0,0,1,0-2.29l1.13-1.13A1.61,1.61,0,0,1,17.46,14.71Z"/><path class="cls-1" d="M25.63,26.62a.7.7,0,0,0,1-1L17.8,16.8a.7.7,0,1,0-1,1Z"/></g></g></svg>