<svg xmlns="http://www.w3.org/2000/svg" viewBox="0 0 30.03 30.03"><defs><style>.cls-1{fill:#fbad24;}</style></defs><title>complect-2</title><g id="Слой_2" data-name="Слой 2"><g id="Слой_1-2" data-name="Слой 1"><path class="cls-1" d="M.2,15.63l5.44,5.44a.68.68,0,0,0,1,0l5.21-5.21,14,14a.68.68,0,0,0,1,0l3.07-3.07a.68.68,0,0,0,0-1l-14-14,5.21-5.21a.68.68,0,0,0,0-1L15.63.2a.68.68,0,0,0-1,0L9.45,5.41l-1-1a.68.68,0,0,0-1,0L4.4,7.46a.68.68,0,0,0,0,1l1,1L.2,14.66A.68.68,0,0,0,.2,15.63ZM26.28,28.38,12.79,14.89l2.1-2.1L28.38,26.28ZM5.85,7.95l2.1-2.1.53.53L6.87,8l-.48.48Zm9.3-6.29,4.47,4.47L6.13,19.62,1.65,15.14Z"/></g></g></svg>