<svg xmlns="http://www.w3.org/2000/svg" viewBox="0 0 29.97 32.56"><defs><style>.cls-1{fill:#fbad24;}</style></defs><title>complect-6</title><g id="Слой_2" data-name="Слой 2"><g id="Слой_1-2" data-name="Слой 1"><path class="cls-1" d="M29.61,8.69l-4.2-2.06v-3A.64.64,0,0,0,24.78,3H18.06l-6-3a.64.64,0,0,0-.85.29L9.87,3H5.19a.64.64,0,0,0-.64.64v10.2L.07,23a.64.64,0,0,0,.29.85l4.2,2.06v3a.64.64,0,0,0,.64.64h6.72l6,3a.64.64,0,0,0,.85-.29l1.31-2.66h4.68a.64.64,0,0,0,.64-.64V18.7l4.49-9.16a.64.64,0,0,0-.29-.85ZM12,1.49,15.17,3H11.29ZM1.49,23l3.07-6.25v7.76Zm16.44,8.06L14.8,29.54h3.87Zm6.21-2.81H5.83V4.3H24.14ZM25.41,15.8V8l3.07,1.5Z"/><path class="cls-1" d="M20.64,23H9.33a.64.64,0,0,0,0,1.27H20.64a.64.64,0,0,0,0-1.27Z"/><path class="cls-1" d="M20.64,19.56H9.33a.64.64,0,0,0,0,1.27H20.64a.64.64,0,0,0,0-1.27Z"/><path class="cls-1" d="M20.64,16.08H9.33a.64.64,0,0,0,0,1.27H20.64a.64.64,0,1,0,0-1.27Z"/><path class="cls-1" d="M20.64,12.6H9.33a.64.64,0,0,0,0,1.27H20.64a.64.64,0,1,0,0-1.27Z"/><path class="cls-1" d="M9.33,9.12a.64.64,0,1,0,0,1.27H20.64a.64.64,0,1,0,0-1.27Z"/></g></g></svg>