<svg xmlns="http://www.w3.org/2000/svg" viewBox="0 0 31.78 29.46"><defs><style>.cls-1{fill:#fbad24;}</style></defs><title>complect-5</title><g id="Слой_2" data-name="Слой 2"><g id="Слой_1-2" data-name="Слой 1"><path class="cls-1" d="M31.65,20.74h0l-2.86-3V15.25a.4.4,0,1,0-.79,0v1.59l-4.68-5V9.65a.4.4,0,0,0-.79,0V11L15.95,4h0L12.44,0,9.21,3.23l4,3.53h0l7,6.57H18.86a.4.4,0,1,0,0,.79h2.21l5,4.68H24.46a.4.4,0,1,0,0,.79h2.43l3,2.86h0a.47.47,0,0,0,.66-.68L19.37,10.52l.36-.36L31,21.4a.47.47,0,0,0,.68-.66Z"/><path class="cls-1" d="M3.36,10a.4.4,0,0,0,.29.66h.09L4,10.6l.9.88a.39.39,0,0,0,.27.68h.09l.25-.06.89.87a.39.39,0,0,0,.26.69h.09L7,13.58l.88.86a.4.4,0,0,0,.24.71h.09l.3-.07.87.86a.4.4,0,0,0,.23.72h.09l.32-.08.87.85a.39.39,0,0,0,.21.73h.09l.35-.08.63.62.23.22a.39.39,0,0,0,.19.74h.09l.37-.09.86.84a.4.4,0,0,0,.17.75h.09l.39-.09.86.84a.4.4,0,0,0,.15.76h.09l.41-.1.19.18.67.66a.39.39,0,0,0,.13.77h.09l.44-.11.55.55.14.14c.25.25.5.51.76.74s.46.41.69.6l.2.17,1.55,1.29,1.22,1,.8.62.28.21a.8.8,0,0,0,1,0,.8.8,0,0,0,.16-1.12l-.84-1.08-1-1.22c-.39-.48-.82-1-1.29-1.55l-.16-.19c-.19-.23-.39-.46-.6-.69l-.2-.22a.4.4,0,0,0-.21-.76l-.44.11,0,0-.81-.82a.39.39,0,0,0-.22-.76l-.42.1-.4-.4-.43-.44a.4.4,0,0,0-.24-.75l-.4.1-.83-.85a.4.4,0,0,0-.26-.74l-.38.09-.84-.85a.4.4,0,0,0-.28-.73l-.36.09h0l-.83-.85a.39.39,0,0,0-.3-.72l-.33.08L12,14.2a.4.4,0,0,0-.31-.71l-.31.08-.85-.87a.4.4,0,0,0-.33-.7l-.29.07L9,11.19a.39.39,0,0,0-.35-.69l-.26.06-.87-.89A.39.39,0,0,0,7.2,9L7,9.07,4.18,6.23l0,0L4,6.09,4,4.58a.42.42,0,0,0-.67-.09l-1.6,1.6L.12,7.69a.42.42,0,0,0,.09.67l1.51,0,.14.16ZM22.24,26.59l.05.06-.06-.05-1.54-1.28-.2-.17c-.22-.18-.44-.37-.66-.57s-.47-.45-.72-.7L19,23.75l-.06-.06.65-.16c.23.23.45.45.65.67s.39.44.57.66l.16.19C21.43,25.61,21.85,26.12,22.24,26.59Zm-4-3.56-.48-.47-.37-.37.69-.17.11.11.72.73Zm-1.52-1.49-.85-.83.73-.18.83.84Zm-1.52-1.49-.85-.83.78-.19.83.84Zm-1.52-1.49L13,17.86l-.13-.13.82-.2.83.84Zm-1.52-1.49-.85-.83L12.2,16l.83.84Zm-1.52-1.49-.85-.83.91-.22.82.84ZM9.15,14.1l-.85-.83,1-.23.82.84ZM7.64,12.61l-.85-.83,1-.24.82.84ZM6.12,11.12l-.85-.83L6.32,10l.82.84ZM5.68,9.38,4.6,9.64,2.82,7.89l.36-.36.36-.36Z"/></g></g></svg>