<?xml version="1.0" encoding="utf-8"?>
<!-- Generator: Adobe Illustrator 23.0.0, SVG Export Plug-In . SVG Version: 6.00 Build 0)  -->
<svg version="1.1" id="Слой_1" xmlns="http://www.w3.org/2000/svg" xmlns:xlink="http://www.w3.org/1999/xlink" x="0px" y="0px"
	 viewBox="0 0 474.6 192.7" style="enable-background:new 0 0 474.6 192.7;" xml:space="preserve">
<style type="text/css">
	.st0{fill:#F9AF00;}
	.st1{enable-background:new    ;}
	.st2{fill:#FFFFFF;}
	.st3{fill:#F9B000;}
</style>
<rect x="3.4" y="20.1" transform="matrix(0.9922 -0.125 0.125 0.9922 -5.9347 21.3169)" class="st0" width="327" height="75.7"/>
<g class="st1">
	<path class="st2" d="M48.7,95.4l2.1-25.1c0.2-2.2,0.2-3.8,0.1-4.8c-0.4-3.2-2.2-4.6-5.3-4.2c-1.7,0.2-3.4,1.1-4.9,2.7
		c-1.5,1.6-2.8,3.8-3.8,6.6c-1,2.8-1.7,5.9-1.9,9.2l-1.4,17.5l-8.6,1.1l3.6-41.3l6.7-0.8l0.2,7.5l0.3,0c1.7-3.1,3.5-5.4,5.4-7
		c2-1.6,4.2-2.5,6.7-2.8c3.2-0.4,5.9,0.2,7.9,1.8c2,1.6,3.2,4.1,3.7,7.5c0.2,1.7,0.2,3.9,0,6.7l-2,24.4L48.7,95.4z"/>
	<path class="st2" d="M103.2,63c0.6,4.9,0.3,9.5-1,13.7c-1.3,4.2-3.3,7.6-6.1,10.1c-2.8,2.5-6.2,4-10.3,4.5
		c-4.7,0.6-8.5-0.3-11.6-2.8c-3.1-2.4-4.9-6-5.5-10.8c-0.6-4.8-0.3-9.4,0.9-13.6c1.2-4.2,3.3-7.7,6.1-10.3c2.8-2.6,6.3-4.2,10.4-4.7
		c4.7-0.6,8.6,0.4,11.6,2.8C100.8,54.5,102.6,58.2,103.2,63z M94.5,63.7c-0.3-2.6-1.2-4.5-2.5-5.9c-1.4-1.3-3.2-1.8-5.4-1.6
		c-2.3,0.3-4.2,1.4-5.7,3.4c-1.6,2-2.7,4.5-3.3,7.6c-0.6,3.1-0.7,6.3-0.3,9.7c0.3,2.7,1.2,4.7,2.6,6c1.4,1.3,3.2,1.8,5.6,1.5
		c2.2-0.3,4-1.3,5.6-3.2c1.5-1.9,2.6-4.3,3.2-7.4C94.9,70.6,95,67.3,94.5,63.7z"/>
	<path class="st2" d="M130.9,85.8c-4.4,0.5-7.9-1.2-10.6-5.2l-0.4,0c0.1,2.4,0.1,4.7-0.1,6.8l-1.4,17.3l-8.5,1.1l5-59.6l6.7-0.8
		l0.1,6.9l0.3,0c3.2-5.5,7-8.6,11.6-9.1c3.5-0.4,6.3,0.5,8.6,2.7c2.3,2.3,3.7,5.6,4.2,10c0.6,4.9,0.3,9.7-0.8,14.2
		c-1.2,4.5-3,8.1-5.7,10.9C137.5,83.8,134.4,85.4,130.9,85.8z M131.4,50.6c-2,0.2-3.8,1.5-5.5,3.6c-1.7,2.2-3,4.9-3.8,8.2
		c-0.8,3.3-1,6.7-0.6,10.1c0.3,2.3,1.1,4.1,2.4,5.2c1.3,1.2,3,1.6,5,1.3s3.9-1.4,5.4-3.6c1.6-2.1,2.7-4.8,3.3-8.2
		c0.6-3.3,0.7-6.7,0.3-10.2C137.3,52.3,135.1,50.1,131.4,50.6z"/>
	<path class="st2" d="M173.6,64.1c-1.5,0.2-2.8,0.8-3.8,1.7c-1,0.9-1.8,2.3-2.4,4.2c-1.4,3.8-2.5,6.4-3.4,7.8
		c-0.9,1.4-1.9,2.5-3.1,3.3c-1.2,0.8-2.7,1.3-4.4,1.5c-1.7,0.2-3.1,0.2-4.3-0.1l-0.9-6.9c0.9,0.2,1.7,0.3,2.4,0.2
		c1.1-0.1,1.9-0.6,2.6-1.3c0.7-0.7,1.3-2.1,2-3.9c0.9-2.4,1.8-4.2,2.8-5.3c0.9-1.1,2-2,3.2-2.5c-4.4-0.9-6.9-3.6-7.4-8
		c-0.5-4.1,0.6-7.5,3.2-10.2c2.6-2.7,6.5-4.4,11.7-5.1l16-2l-3.4,41.2l-8.5,1.1l1.5-15.8L173.6,64.1z M172,45.8
		c-2.3,0.3-4,1.1-5.2,2.4c-1.2,1.3-1.6,3-1.4,5.1c0.2,1.8,1,3.1,2.3,3.8c1.3,0.7,2.9,0.9,4.9,0.7l5.1-0.6l1-12.2L172,45.8z"/>
	<path class="st2" d="M231.1,38c0.8,6.5,0.6,12.7-0.7,18.4c-1.3,5.7-3.5,10.2-6.6,13.5c-3.1,3.3-6.9,5.2-11.4,5.8
		c-4.5,0.6-8.2-0.3-11-2.7c-2.8-2.4-4.5-5.9-5.1-10.7c-0.5-4.3-0.3-8.4,0.8-12.3c1.1-3.8,2.9-7,5.4-9.4c2.5-2.4,5.5-3.9,9-4.3
		c4.6-0.6,8.3,1.2,11.2,5.2l0.2,0l-0.1-1.2l-0.1-1c-0.7-5.6-2-9.7-3.9-12.1s-4.6-3.5-8-3c-2.6,0.3-5,1.2-7.4,2.6l-2.8-6.3
		c1.4-0.8,3.1-1.6,5-2.2c1.9-0.6,3.7-1,5.4-1.2C222.5,15.5,229.1,22.5,231.1,38z M212.2,68.6c3-0.4,5.3-2.3,7.1-5.8
		c1.8-3.5,2.8-8.2,3.1-14c-0.9-2.1-2.1-3.7-3.7-4.8c-1.5-1.1-3.2-1.5-5.1-1.3c-2,0.3-3.8,1.2-5.3,3c-1.5,1.7-2.6,4-3.2,6.7
		c-0.6,2.8-0.7,5.7-0.3,8.9c0.3,2.6,1.1,4.5,2.4,5.7S210.3,68.8,212.2,68.6z"/>
	<path class="st2" d="M274,41.7c0.6,4.9,0.3,9.5-1,13.7c-1.3,4.2-3.3,7.6-6.1,10.1c-2.8,2.5-6.2,4-10.3,4.5
		c-4.7,0.6-8.5-0.3-11.6-2.8c-3.1-2.4-4.9-6-5.5-10.8c-0.6-4.8-0.3-9.4,0.9-13.6c1.2-4.2,3.3-7.7,6.1-10.3c2.8-2.6,6.3-4.2,10.4-4.7
		c4.7-0.6,8.6,0.4,11.6,2.8C271.6,33.2,273.4,36.8,274,41.7z M265.4,42.4c-0.3-2.6-1.2-4.5-2.5-5.9c-1.4-1.3-3.2-1.8-5.4-1.6
		c-2.3,0.3-4.2,1.4-5.7,3.4c-1.6,2-2.7,4.5-3.3,7.6c-0.6,3.1-0.7,6.3-0.3,9.7c0.3,2.7,1.2,4.7,2.6,6c1.4,1.3,3.2,1.8,5.6,1.5
		c2.2-0.3,4-1.3,5.6-3.2c1.5-1.9,2.6-4.3,3.2-7.4C265.7,49.3,265.8,46,265.4,42.4z"/>
	<path class="st2" d="M307.8,22.2l10.1-1.3l-16.2,22.4L316.1,62l-9.8,1.2l-13.7-18.4l-1.7,20.3l-8.6,1.1l3.6-41.3l8.5-1.1l-1.6,19.5
		L307.8,22.2z"/>
</g>
<rect x="62.4" y="91.1" transform="matrix(0.992 -0.1264 0.1264 0.992 -14.1776 34.7715)" class="st3" width="409" height="76"/>
<g class="st1">
	<path class="st2" d="M113,140c0.9,6.5,0.8,12.7-0.4,18.4c-1.2,5.8-3.3,10.3-6.4,13.6c-3,3.3-6.8,5.3-11.3,5.9
		c-4.5,0.6-8.2-0.2-11.1-2.5c-2.9-2.3-4.6-5.9-5.3-10.6c-0.6-4.3-0.4-8.4,0.6-12.3c1-3.9,2.8-7,5.2-9.5c2.5-2.5,5.4-4,8.9-4.4
		c4.6-0.6,8.4,1,11.2,5.1l0.2,0l-0.1-1.2l-0.1-1c-0.8-5.6-2.1-9.6-4.1-12s-4.6-3.4-8-2.9c-2.6,0.4-5,1.3-7.3,2.7l-2.9-6.3
		c1.4-0.9,3.1-1.6,5-2.2c1.9-0.6,3.7-1.1,5.4-1.3C104,117.6,110.8,124.5,113,140z M94.6,170.9c2.9-0.4,5.3-2.4,7-5.9
		c1.7-3.5,2.7-8.2,2.9-14c-0.9-2.1-2.2-3.7-3.7-4.7c-1.6-1.1-3.3-1.5-5.1-1.2c-2,0.3-3.8,1.3-5.2,3c-1.5,1.7-2.5,4-3.1,6.8
		c-0.6,2.8-0.6,5.8-0.2,8.9c0.4,2.6,1.2,4.5,2.5,5.7C91,170.7,92.6,171.1,94.6,170.9z"/>
	<path class="st2" d="M156,143.1c0.7,4.9,0.4,9.5-0.8,13.7c-1.2,4.2-3.2,7.7-6,10.2c-2.8,2.6-6.2,4.1-10.2,4.7
		c-4.6,0.6-8.5-0.2-11.6-2.6c-3.1-2.4-5-6-5.7-10.7c-0.7-4.8-0.4-9.3,0.7-13.6c1.2-4.3,3.2-7.7,6-10.4c2.8-2.7,6.3-4.3,10.3-4.9
		c4.7-0.7,8.6,0.2,11.6,2.7C153.4,134.6,155.3,138.2,156,143.1z M147.3,143.9c-0.4-2.6-1.2-4.5-2.6-5.8s-3.2-1.8-5.4-1.5
		c-2.2,0.3-4.1,1.5-5.7,3.4c-1.5,2-2.6,4.5-3.2,7.6c-0.6,3.1-0.6,6.3-0.1,9.7c0.4,2.7,1.3,4.7,2.7,5.9c1.4,1.3,3.3,1.7,5.6,1.4
		c2.2-0.3,4-1.4,5.5-3.3c1.5-1.9,2.5-4.4,3.1-7.5C147.8,150.8,147.8,147.5,147.3,143.9z"/>
	<path class="st2" d="M198.8,128c0.9,6.5,0.8,12.7-0.4,18.4c-1.2,5.8-3.3,10.3-6.4,13.6c-3,3.3-6.8,5.3-11.3,5.9
		c-4.5,0.6-8.2-0.2-11.1-2.5c-2.9-2.3-4.6-5.9-5.3-10.6c-0.6-4.3-0.4-8.4,0.6-12.3c1-3.9,2.8-7,5.2-9.5c2.5-2.5,5.4-4,8.9-4.4
		c4.6-0.6,8.4,1,11.2,5.1l0.2,0l-0.1-1.2l-0.1-1c-0.8-5.6-2.1-9.6-4.1-12c-2-2.4-4.6-3.4-8-2.9c-2.6,0.4-5,1.3-7.3,2.7l-2.9-6.3
		c1.4-0.9,3.1-1.6,5-2.2s3.7-1.1,5.4-1.3C189.8,105.6,196.6,112.5,198.8,128z M180.4,158.9c3-0.4,5.3-2.4,7-5.9
		c1.7-3.5,2.7-8.2,2.9-14c-0.9-2.1-2.2-3.7-3.7-4.7c-1.6-1.1-3.3-1.5-5.1-1.2c-2,0.3-3.8,1.3-5.2,3c-1.5,1.7-2.5,4-3.1,6.8
		c-0.6,2.8-0.6,5.8-0.2,8.9c0.4,2.6,1.2,4.5,2.5,5.7S178.4,159.2,180.4,158.9z"/>
	<path class="st2" d="M220.7,160.4c-3.4,0.5-6.3-0.4-8.6-2.6c-2.3-2.2-3.8-5.5-4.4-9.9c-0.7-4.9-0.5-9.6,0.6-14.1
		c1.1-4.5,2.9-8.2,5.5-11.1c2.6-2.9,5.7-4.6,9.2-5.1c2.3-0.3,4.4-0.1,6.3,0.8c1.8,0.9,3.4,2.3,4.6,4.3l0.4-0.1l1.5-6l6.5-0.9
		l-3,41.3l-6.6,0.9l-0.1-6.5l-0.2,0C229.2,156.8,225.3,159.7,220.7,160.4z M222.9,153c2-0.3,3.8-1.5,5.4-3.6
		c1.6-2.1,2.9-4.9,3.7-8.2s0.9-6.8,0.4-10.6c-0.3-2.1-1.1-3.8-2.4-4.9c-1.3-1.1-2.9-1.6-4.7-1.3c-2.1,0.3-3.9,1.5-5.4,3.6
		c-1.6,2.1-2.7,4.9-3.3,8.2c-0.6,3.4-0.7,6.8-0.2,10.2c0.3,2.5,1.1,4.2,2.2,5.3C219.7,152.9,221.1,153.3,222.9,153z"/>
	<path class="st2" d="M267.6,153.8c-4.8,0.7-8.6-0.1-11.6-2.3c-3-2.2-4.8-5.7-5.4-10.5c-0.7-5-0.4-9.7,0.8-14.2
		c1.2-4.4,3.3-8,6.1-10.6c2.8-2.6,6.3-4.2,10.5-4.8c4-0.6,7.7-0.3,11.1,0.7l-1.6,7c-3.1-0.9-5.9-1.1-8.3-0.8
		c-2.7,0.4-4.9,1.6-6.7,3.7c-1.7,2.1-2.8,4.8-3.3,8.1l15.2-2.1l-0.5,6.6l-15,2.1l0.1,1.3l0.2,1.4c0.4,2.6,1.3,4.5,2.8,5.8
		c1.5,1.3,3.5,1.8,6,1.5c1.4-0.2,2.8-0.6,4.2-1.2c1.4-0.6,3.1-1.6,5.1-3l1,7.1C275.2,151.9,271.6,153.3,267.6,153.8z"/>
	<path class="st2" d="M307.3,105.9c5.3-0.7,8.8,1.7,10.4,7.2l0.3,0c1.4-3.1,3.2-5.5,5.3-7.2c2.1-1.8,4.4-2.8,6.9-3.2
		c3.2-0.4,5.8,0.1,7.7,1.8s3.1,4.1,3.6,7.5c0.2,1.5,0.3,3.8,0.1,6.7l-1.8,24.4l-8.5,1.2l1.8-25.1c0.1-2.4,0.1-4,0-4.9
		c-0.4-3.1-2.1-4.5-5-4.1c-2.6,0.4-4.8,2.2-6.7,5.5c-1.8,3.3-2.9,7.5-3.3,12.6l-1.2,18l-8.5,1.2l1.8-25.1c0.1-2,0.1-3.6,0-4.7
		c-0.5-3.3-2.1-4.7-4.9-4.3c-2.7,0.4-4.9,2.3-6.7,5.6c-1.8,3.4-2.9,7.7-3.3,13l-1.2,17.5l-8.6,1.2l3-41.3l6.7-0.9l0.3,7.5l0.3,0
		C298.5,109.9,302.4,106.6,307.3,105.9z"/>
	<path class="st2" d="M361.2,116.4c2.6-1,5.3-1.7,8.3-2.1c4.1-0.6,7.3-0.1,9.8,1.5c2.4,1.6,3.9,4.1,4.4,7.5c0.4,2.8,0,5.3-1.1,7.6
		c-1.1,2.3-2.9,4.2-5.4,5.8c-2.5,1.5-5.6,2.6-9.2,3.1c-4.7,0.7-8.3,0.1-10.9-1.6c-2.5-1.7-4.1-4.4-4.6-8.1c-0.3-2.1-0.3-4.4-0.1-6.9
		l1.7-23.1l8.6-1.2L361.2,116.4z M367.9,121.1c-2.2,0.3-4.6,0.9-7.1,1.7c-0.1,1.7-0.2,2.8-0.2,3.5c0,0.6,0,1.4,0.1,2.2
		c0.5,3.8,2.9,5.4,7.3,4.8c2.6-0.4,4.5-1.2,5.8-2.7c1.3-1.4,1.8-3.2,1.5-5.3c-0.3-1.8-1-3-2.2-3.7
		C371.9,121,370.1,120.8,367.9,121.1z"/>
	<path class="st2" d="M408.4,134.2c-4.7,0.7-8.6-0.1-11.6-2.3c-3-2.2-4.8-5.7-5.4-10.4c-0.7-5-0.4-9.7,0.8-14
		c1.2-4.3,3.3-7.9,6.1-10.7c2.9-2.8,6.4-4.4,10.5-5c4-0.6,7.7-0.3,11.1,0.7l-1.6,7c-3.1-0.9-5.9-1.1-8.3-0.8
		c-3.6,0.5-6.4,2.8-8.3,6.8s-2.5,8.8-1.7,14.3c0.4,2.7,1.3,4.7,2.9,5.9c1.6,1.3,3.5,1.7,5.9,1.4c1.8-0.2,3.4-0.7,4.9-1.5
		c1.5-0.8,3-1.6,4.4-2.6l1,7.1C415.9,132.3,412.4,133.6,408.4,134.2z"/>
	<path class="st2" d="M444.4,112.8c-1.5,0.2-2.8,0.8-3.7,1.7c-1,0.9-1.8,2.4-2.4,4.2c-1.3,3.8-2.4,6.4-3.3,7.8
		c-0.8,1.4-1.9,2.5-3.1,3.3s-2.7,1.3-4.4,1.5c-1.7,0.2-3.1,0.2-4.3-0.1l-1-6.9c0.9,0.2,1.7,0.2,2.4,0.1c1.1-0.1,1.9-0.6,2.6-1.4
		c0.7-0.8,1.3-2.1,2-4c0.9-2.4,1.8-4.2,2.7-5.4c0.9-1.1,2-2,3.2-2.6c-4.4-0.8-6.9-3.5-7.5-7.9c-0.6-4.1,0.5-7.5,3.1-10.2
		c2.6-2.8,6.5-4.5,11.6-5.2l16-2.2l-2.9,41.3l-8.5,1.2l1.2-15.8L444.4,112.8z M442.6,94.5c-2.3,0.3-4,1.1-5.1,2.5
		c-1.2,1.3-1.6,3-1.3,5.1c0.3,1.8,1,3.1,2.3,3.7c1.3,0.7,2.9,0.9,4.9,0.6l5.1-0.7l0.8-12.2L442.6,94.5z"/>
</g>
</svg>
