<?xml version="1.0" encoding="utf-8"?>
<!-- Generator: Adobe Illustrator 23.0.2, SVG Export Plug-In . SVG Version: 6.00 Build 0)  -->
<svg version="1.1" id="Слой_1" xmlns="http://www.w3.org/2000/svg" xmlns:xlink="http://www.w3.org/1999/xlink" x="0px" y="0px"
	 viewBox="0 0 596.1 192.6" style="enable-background:new 0 0 596.1 192.6;" xml:space="preserve">
<style type="text/css">
	.st0{fill:#F9AF00;}
	.st1{enable-background:new    ;}
	.st2{fill:#FFFFFF;}
	.st3{fill:#F9B000;}
</style>
<polygon class="st0" points="0,40.8 346.1,0 356.1,75.1 10.1,116 "/>
<g class="st1">
	<path class="st2" d="M57.3,95.3l2.1-25.1c0.2-2.2,0.2-3.8,0.1-4.8c-0.4-3.2-2.2-4.6-5.3-4.2c-1.7,0.2-3.4,1.1-4.9,2.7
		s-2.8,3.8-3.8,6.6c-1,2.8-1.7,5.9-1.9,9.2l-1.4,17.5l-8.6,1.1L37.2,57l6.7-0.8l0.2,7.5h0.3c1.7-3.1,3.5-5.4,5.4-7
		c2-1.6,4.2-2.5,6.7-2.8c3.2-0.4,5.9,0.2,7.9,1.8c2,1.6,3.2,4.1,3.7,7.5c0.2,1.7,0.2,3.9,0,6.7l-2,24.4L57.3,95.3z"/>
	<path class="st2" d="M111.8,63c0.6,4.9,0.3,9.5-1,13.7s-3.3,7.6-6.1,10.1s-6.2,4-10.3,4.5c-4.7,0.6-8.5-0.3-11.6-2.8
		c-3.1-2.4-4.9-6-5.5-10.8s-0.3-9.4,0.9-13.6s3.3-7.7,6.1-10.3c2.8-2.6,6.3-4.2,10.4-4.7c4.7-0.6,8.6,0.4,11.6,2.8
		C109.4,54.5,111.2,58.1,111.8,63z M103.1,63.7c-0.3-2.6-1.2-4.5-2.5-5.9c-1.4-1.3-3.2-1.8-5.4-1.6c-2.3,0.3-4.2,1.4-5.7,3.4
		c-1.6,2-2.7,4.5-3.3,7.6s-0.7,6.3-0.3,9.7c0.3,2.7,1.2,4.7,2.6,6c1.4,1.3,3.2,1.8,5.6,1.5c2.2-0.3,4-1.3,5.6-3.2
		c1.5-1.9,2.6-4.3,3.2-7.4C103.5,70.6,103.6,67.3,103.1,63.7z"/>
	<path class="st2" d="M139.5,85.8c-4.4,0.5-7.9-1.2-10.6-5.2h-0.4c0.1,2.4,0.1,4.7-0.1,6.8l-1.4,17.3l-8.5,1.1l5-59.6l6.7-0.8
		l0.1,6.9h0.3c3.2-5.5,7-8.6,11.6-9.1c3.5-0.4,6.3,0.5,8.6,2.7c2.3,2.3,3.7,5.6,4.2,10c0.6,4.9,0.3,9.7-0.8,14.2
		c-1.2,4.5-3,8.1-5.7,10.9C146,83.8,143,85.4,139.5,85.8z M140,50.5c-2,0.2-3.8,1.5-5.5,3.6c-1.7,2.2-3,4.9-3.8,8.2
		c-0.8,3.3-1,6.7-0.6,10.1c0.3,2.3,1.1,4.1,2.4,5.2c1.3,1.2,3,1.6,5,1.3s3.9-1.4,5.4-3.6c1.6-2.1,2.7-4.8,3.3-8.2
		c0.6-3.3,0.7-6.7,0.3-10.2C145.9,52.3,143.7,50.1,140,50.5z"/>
	<path class="st2" d="M182.1,64.1c-1.5,0.2-2.8,0.8-3.8,1.7c-1,0.9-1.8,2.3-2.4,4.2c-1.4,3.8-2.5,6.4-3.4,7.8s-1.9,2.5-3.1,3.3
		c-1.2,0.8-2.7,1.3-4.4,1.5s-3.1,0.2-4.3-0.1l-0.9-6.9c0.9,0.2,1.7,0.3,2.4,0.2c1.1-0.1,1.9-0.6,2.6-1.3c0.7-0.7,1.3-2.1,2-3.9
		c0.9-2.4,1.8-4.2,2.8-5.3c0.9-1.1,2-2,3.2-2.5c-4.4-0.9-6.9-3.6-7.4-8c-0.5-4.1,0.6-7.5,3.2-10.2c2.6-2.7,6.5-4.4,11.7-5.1l16-2
		l-3.4,41.2l-8.5,1.1l1.5-15.8L182.1,64.1z M180.5,45.8c-2.3,0.3-4,1.1-5.2,2.4s-1.6,3-1.4,5.1c0.2,1.8,1,3.1,2.3,3.8
		c1.3,0.7,2.9,0.9,4.9,0.7l5.1-0.6l1-12.2L180.5,45.8z"/>
	<path class="st2" d="M239.7,37.9c0.8,6.5,0.6,12.7-0.7,18.4c-1.3,5.7-3.5,10.2-6.6,13.5s-6.9,5.2-11.4,5.8c-4.5,0.6-8.2-0.3-11-2.7
		c-2.8-2.4-4.5-5.9-5.1-10.7c-0.5-4.3-0.3-8.4,0.8-12.3c1.1-3.8,2.9-7,5.4-9.4s5.5-3.9,9-4.3c4.6-0.6,8.3,1.2,11.2,5.2h0.2l-0.1-1.2
		l-0.1-1c-0.7-5.6-2-9.7-3.9-12.1s-4.6-3.5-8-3c-2.6,0.3-5,1.2-7.4,2.6l-2.8-6.3c1.4-0.8,3.1-1.6,5-2.2s3.7-1,5.4-1.2
		C231,15.4,237.7,22.5,239.7,37.9z M220.8,68.6c3-0.4,5.3-2.3,7.1-5.8s2.8-8.2,3.1-14c-0.9-2.1-2.1-3.7-3.7-4.8
		c-1.5-1.1-3.2-1.5-5.1-1.3c-2,0.3-3.8,1.2-5.3,3c-1.5,1.7-2.6,4-3.2,6.7c-0.6,2.8-0.7,5.7-0.3,8.9c0.3,2.6,1.1,4.5,2.4,5.7
		S218.8,68.8,220.8,68.6z"/>
	<path class="st2" d="M282.6,41.6c0.6,4.9,0.3,9.5-1,13.7s-3.3,7.6-6.1,10.1s-6.2,4-10.3,4.5c-4.7,0.6-8.5-0.3-11.6-2.8
		c-3.1-2.4-4.9-6-5.5-10.8s-0.3-9.4,0.9-13.6s3.3-7.7,6.1-10.3c2.8-2.6,6.3-4.2,10.4-4.7c4.7-0.6,8.6,0.4,11.6,2.8
		C280.2,33.1,282,36.8,282.6,41.6z M273.9,42.4c-0.3-2.6-1.2-4.5-2.5-5.9c-1.4-1.3-3.2-1.8-5.4-1.6c-2.3,0.3-4.2,1.4-5.7,3.4
		c-1.6,2-2.7,4.5-3.3,7.6s-0.7,6.3-0.3,9.7c0.3,2.7,1.2,4.7,2.6,6c1.4,1.3,3.2,1.8,5.6,1.5c2.2-0.3,4-1.3,5.6-3.2
		c1.5-1.9,2.6-4.3,3.2-7.4C274.3,49.2,274.4,45.9,273.9,42.4z"/>
	<path class="st2" d="M316.3,22.2l10.1-1.3l-16.2,22.4L324.6,62l-9.8,1.2l-13.7-18.4l-1.7,20.3l-8.6,1.1l3.6-41.3l8.5-1.1l-1.6,19.5
		L316.3,22.2z"/>
</g>
<polygon class="st3" points="57,117.2 583,54.5 596.1,133.6 69.5,192.6 "/>
<g class="st1">
	<path class="st2" d="M116,169l2.4-25c0.2-2.2,0.2-3.8,0.1-4.8c-0.4-3.2-2.1-4.6-5.2-4.2c-1.7,0.2-3.4,1.1-4.9,2.7s-2.8,3.7-3.9,6.5
		c-1.1,2.8-1.7,5.8-2,9.2l-1.6,17.5l-8.6,1l4-41.2l6.7-0.8l0.1,7.5h0.3c1.7-3.1,3.5-5.4,5.5-7c2-1.5,4.2-2.5,6.7-2.7
		c3.3-0.4,5.9,0.3,7.9,1.9s3.2,4.2,3.6,7.6c0.2,1.7,0.2,3.9-0.1,6.7l-2.3,24.3L116,169z"/>
	<path class="st2" d="M155.5,165.2c-4.4,0.5-7.9-1.3-10.5-5.3h-0.4c0.1,2.4,0.1,4.7-0.1,6.8l-1.6,17.2l-8.5,1l5.6-59.6l6.7-0.8v6.9
		h0.3c3.2-5.5,7.1-8.5,11.6-9c3.5-0.4,6.3,0.5,8.6,2.8s3.6,5.6,4.1,10.1c0.6,4.9,0.3,9.7-1,14.2c-1.2,4.5-3.1,8.1-5.8,10.9
		C162.1,163.2,159,164.8,155.5,165.2z M156.3,129.9c-2,0.2-3.8,1.4-5.5,3.6s-3,4.9-3.9,8.2c-0.9,3.3-1.1,6.7-0.7,10.1
		c0.3,2.3,1,4.1,2.3,5.2c1.3,1.2,2.9,1.6,5,1.4s3.9-1.4,5.5-3.5s2.7-4.8,3.4-8.1s0.8-6.7,0.4-10.2
		C162.3,131.7,160.1,129.5,156.3,129.9z"/>
	<path class="st2" d="M191.8,119.5l-2.1,22.7c-0.4,3.5-0.5,5.9-0.3,7.2c0.4,3.2,2.1,4.7,5.2,4.3c1.7-0.2,3.4-1.1,5-2.7
		s2.9-3.7,3.9-6.4c1-2.7,1.7-5.8,2.1-9.4l1.6-17.5l8.5-1l-3.9,41.2l-6.7,0.8l-0.1-7.5h-0.3c-1.7,3-3.5,5.3-5.5,6.9s-4.3,2.5-6.8,2.8
		c-3.3,0.4-5.9-0.3-7.8-1.9c-2-1.6-3.2-4.2-3.6-7.6c-0.2-1.5-0.2-3.1-0.1-4.6c0.1-1.5,0.2-3.1,0.4-4.6l2-21.8L191.8,119.5z"/>
	<path class="st2" d="M254.5,153.1l-8.6,1l3.3-34.3c-0.9-0.1-1.8-0.1-2.6,0c-1.7,0.2-3.1,0.8-4.2,1.7c-1.1,0.9-2,2.3-2.7,4.3
		c-0.8,1.9-1.8,5.6-2.9,11.1c-1.4,6.3-2.6,10.6-3.7,12.9c-1,2.3-2.3,4.1-3.9,5.3c-1.6,1.2-3.5,2-5.9,2.3c-1.6,0.2-3,0.1-4.3-0.2
		l-0.8-7.2c0.9,0.3,1.9,0.3,2.8,0.2c1.2-0.1,2.2-0.6,3-1.5s1.5-2.2,2.2-3.9c0.7-1.7,1.5-5,2.6-10c1.2-5.3,2.3-9.1,3.2-11.4
		s2.1-4.2,3.4-5.6c1.3-1.4,2.9-2.5,4.8-3.4c1.9-0.8,4.2-1.4,7-1.7c3.8-0.4,7.4-0.3,10.9,0.3L254.5,153.1z"/>
	<path class="st2" d="M279.5,151c-3.4,0.4-6.3-0.5-8.5-2.8c-2.3-2.2-3.7-5.6-4.2-10c-0.6-4.9-0.2-9.6,0.9-14
		c1.2-4.5,3.1-8.1,5.8-10.9s5.8-4.4,9.3-4.9c2.4-0.3,4.4,0,6.3,1s3.3,2.4,4.5,4.4h0.4l1.6-6l6.5-0.8l-4,41.2l-6.6,0.8v-6.5h-0.2
		C288.1,147.6,284.1,150.4,279.5,151z M281.9,143.7c2-0.2,3.8-1.4,5.5-3.5s3-4.8,3.9-8.1c0.9-3.3,1.1-6.8,0.7-10.5
		c-0.2-2.1-1-3.8-2.3-5s-2.9-1.6-4.7-1.4c-2.1,0.2-3.9,1.4-5.5,3.5s-2.8,4.8-3.5,8.1c-0.7,3.3-0.9,6.7-0.5,10.2
		c0.3,2.5,1,4.3,2.1,5.4C278.7,143.4,280.1,143.9,281.9,143.7z"/>
	<path class="st2" d="M310.4,108.3c4.3-2.6,8.8-4.1,13.4-4.6c4-0.5,7.2,0,9.5,1.5s3.7,3.8,4.1,7.1c0.3,2.8-0.3,5.3-1.8,7.5
		s-4.3,4.3-8.4,6.4c-4.2,1.9-6.9,3.6-8.3,4.9c-1.4,1.4-2,2.8-1.8,4.5c0.2,1.4,0.8,2.4,2,3c1.1,0.6,2.7,0.8,4.7,0.6
		c2.1-0.2,4-0.8,5.9-1.6c1.9-0.9,3.7-1.8,5.4-2.8l0.8,6.9c-2.3,1.4-4.4,2.4-6.4,3s-4.1,1.1-6.4,1.3c-4.2,0.5-7.7-0.1-10.2-1.7
		c-2.6-1.6-4-4.1-4.4-7.5c-0.2-2.1,0-4.1,0.8-5.8c0.8-1.7,2-3.3,3.7-4.7c1.7-1.4,4.9-3.3,9.5-5.6c2.4-1.2,4.1-2.3,5.2-3.5
		c1-1.1,1.5-2.3,1.4-3.6c-0.3-2.5-2.1-3.5-5.4-3.1c-3.1,0.4-6.4,1.6-10,3.9L310.4,108.3z"/>
	<path class="st2" d="M357.5,142c-3.4,0.4-6.3-0.5-8.5-2.8s-3.7-5.6-4.2-10c-0.6-4.9-0.2-9.6,0.9-14c1.2-4.5,3.1-8.1,5.8-10.9
		s5.8-4.4,9.3-4.9c2.4-0.3,4.4,0,6.3,1c1.8,0.9,3.3,2.4,4.5,4.4h0.4l1.6-6l6.5-0.8l-4,41.2l-6.6,0.8v-6.5h-0.2
		C366.1,138.6,362.1,141.5,357.5,142z M359.9,134.7c2-0.2,3.8-1.4,5.5-3.5s3-4.8,3.9-8.1c0.9-3.3,1.1-6.8,0.7-10.5
		c-0.2-2.1-1-3.8-2.3-5s-2.9-1.6-4.7-1.4c-2.1,0.2-3.9,1.4-5.5,3.5s-2.8,4.8-3.5,8.1c-0.7,3.3-0.9,6.7-0.5,10.2
		c0.3,2.5,1,4.3,2.1,5.4S358.1,134.9,359.9,134.7z"/>
	<path class="st2" d="M404.8,136.5c-4.8,0.5-8.7-0.4-11.7-2.8s-4.8-6-5.3-10.8c-0.6-4.8-0.1-9.4,1.3-13.7c1.4-4.4,3.6-7.8,6.5-10.5
		c3-2.6,6.4-4.2,10.4-4.6c3.9-0.4,7,0.1,9.4,1.6s3.7,3.9,4.1,7.1c0.5,4.4-1.1,8.1-4.9,11c-3.8,3-9.4,4.9-16.8,5.7l-1.6,0.2l0.1,1.1
		l0.1,1.1c0.3,2.7,1.2,4.7,2.8,6.1c1.5,1.4,3.7,1.9,6.4,1.6c1.7-0.2,3.5-0.6,5.1-1.3c1.7-0.7,3.6-1.7,5.8-3.1l0.8,6.8
		c-2.2,1.3-4.3,2.3-6.2,3C409.3,135.8,407.2,136.3,404.8,136.5z M406.3,100.8c-2.3,0.3-4.4,1.6-6.2,3.9s-3,5.2-3.5,8.8l1.1-0.1
		c4.6-0.5,8.1-1.6,10.5-3.2s3.5-3.6,3.2-6c-0.1-1.2-0.6-2.2-1.5-2.8C409,100.8,407.8,100.6,406.3,100.8z"/>
	<path class="st2" d="M449.8,89.1c5.3-0.6,8.7,1.9,10.2,7.5h0.3c1.5-3,3.3-5.4,5.5-7.1c2.1-1.7,4.5-2.7,7-3c3.2-0.4,5.8,0.3,7.7,1.9
		c1.9,1.7,3,4.2,3.4,7.5c0.2,1.6,0.2,3.8,0,6.7l-2.4,24.3l-8.5,1l2.4-25c0.2-2.4,0.2-4,0.1-4.9c-0.4-3.1-2-4.5-4.9-4.2
		c-2.6,0.3-4.9,2.1-6.8,5.4c-1.9,3.3-3.1,7.4-3.6,12.5l-1.7,17.9l-8.5,1l2.4-25c0.2-2,0.2-3.6,0.1-4.7c-0.4-3.3-2-4.7-4.8-4.4
		c-2.7,0.3-5,2.1-6.9,5.5c-1.9,3.3-3.1,7.6-3.6,12.9l-1.6,17.5l-8.6,1l4-41.2l6.7-0.8l0.1,7.5h0.3C440.9,92.9,444.9,89.7,449.8,89.1
		z"/>
	<path class="st2" d="M509.8,124.5c-4.8,0.5-8.6-0.3-11.5-2.6c-2.9-2.3-4.6-5.8-5.2-10.6c-0.6-5-0.2-9.7,1.1-14s3.4-7.8,6.4-10.5
		s6.5-4.3,10.6-4.7c4-0.5,7.7-0.1,11.1,1l-1.8,7c-3.1-0.9-5.9-1.3-8.3-1c-3.6,0.4-6.5,2.6-8.5,6.6s-2.7,8.7-2.1,14.2
		c0.3,2.7,1.2,4.7,2.8,6c1.5,1.3,3.5,1.8,5.9,1.5c1.8-0.2,3.4-0.7,4.9-1.4c1.5-0.7,3-1.5,4.5-2.5l0.8,7.1
		C517.4,122.7,513.8,124,509.8,124.5z"/>
	<path class="st2" d="M546.4,103.9c-1.5,0.2-2.8,0.7-3.8,1.7c-1,0.9-1.8,2.3-2.5,4.2c-1.4,3.8-2.6,6.3-3.4,7.7
		c-0.9,1.4-1.9,2.5-3.1,3.2c-1.2,0.8-2.7,1.2-4.5,1.4c-1.7,0.2-3.1,0.1-4.3-0.2L524,115c0.9,0.2,1.7,0.3,2.4,0.2
		c1.1-0.1,1.9-0.6,2.6-1.3c0.7-0.7,1.4-2,2.1-3.9c1-2.4,1.9-4.2,2.8-5.3c0.9-1.1,2-2,3.2-2.5c-4.4-0.9-6.8-3.7-7.3-8.1
		c-0.5-4.1,0.6-7.5,3.3-10.2s6.6-4.4,11.7-4.9l16-1.8l-3.9,41.2l-8.5,1l1.6-15.8L546.4,103.9z M545,85.6c-2.3,0.3-4,1.1-5.2,2.4
		s-1.7,3-1.4,5.1c0.2,1.8,1,3.1,2.2,3.8c1.3,0.7,2.9,1,4.9,0.7l5.1-0.6l1.1-12.1L545,85.6z"/>
</g>
</svg>
