<?xml version="1.0" encoding="utf-8"?>
<!-- Generator: Adobe Illustrator 23.0.2, SVG Export Plug-In . SVG Version: 6.00 Build 0)  -->
<svg width="14px" version="1.1" id="Шар_1" xmlns="http://www.w3.org/2000/svg" xmlns:xlink="http://www.w3.org/1999/xlink" x="0px" y="0px"
	 viewBox="0 0 14 14" style="enable-background:new 0 0 14 14;" xml:space="preserve" height="14px">
<style type="text/css">
	.st0{fill:#FBAD24; height:14px; width: 14px;}
</style>
<g>
	<g transform="translate(0.000000,511.000000) scale(0.100000,-0.100000)">
		<g>
			<path class="st0" d="M65.5,5104.2c-0.5-0.1-2-0.2-3.3-0.4c-18.5-2.1-35.8-13-46.4-29.3c-5-7.8-8.3-16.9-9.8-26.9
				c-0.4-3-0.4-12.2,0-15.2c1.8-12.9,6.8-24.2,14.9-33.8l2.1-2.6l-7.1-7.1c-6.3-6.4-7.1-7.2-7.1-8c0-1.2,1-2.1,2.1-2.1
				c0.8,0,1.6,0.7,8,7.1l7.1,7.1l2.6-2.1c9.6-8.1,20.8-13,33.8-14.9c3-0.4,12.2-0.4,15.3,0c10.1,1.4,19.3,4.8,27.5,10.2
				c15.9,10.6,26.1,26.9,28.7,46c0.5,3.1,0.5,12.3,0,15.3c-1.8,12.9-6.8,24.2-14.9,33.8l-2.1,2.6l7.1,7.1c6.3,6.4,7.1,7.2,7.1,8
				c0,1.2-1,2.1-2.1,2.1c-0.8,0-1.6-0.7-8-7.1l-7.1-7.1l-2.6,2.1c-9.4,8.1-20.8,13-33.4,14.8C75.8,5104.1,67.1,5104.3,65.5,5104.2z
				 M78.6,5099.6c11.6-1.7,22.6-6.8,31.4-14.5l1.1-1l-42.7-42.7l-42.7-42.7l-2,2.4c-5.7,6.8-9.9,15.1-12.1,23.8
				c-1.4,5.5-1.7,8.8-1.7,15c0,4.1,0.1,6.4,0.5,8.6c4.2,27.9,25.8,48.4,53.9,51.3C67.3,5100.3,75.1,5100.1,78.6,5099.6z
				 M117.7,5076.7c9.7-12.7,14.1-29.4,11.7-45.4c-5.2-35.7-39.9-58.5-75.2-49.5c-8.3,2.1-16.6,6.4-23.2,12l-2.4,2l42.7,42.7
				l42.7,42.7l1-1.1C115.6,5079.5,116.8,5077.9,117.7,5076.7z"/>
			<path class="st0" d="M70,4970.7c-3.3,0-6.5,0.1-8.3,0.4c-13.5,2-25.4,7.1-35.4,15.2l-3.9-3.9c-7.6-7.6-8.6-8.6-11.5-8.6
				c-3.9,0-7.1,3.2-7.1,7.1c0,2.8,0.6,3.5,8.3,11.2l4.2,4.2c-8.2,10.1-13.4,22-15.2,35.4c-0.5,3.5-0.5,13.1,0,16.5
				c1.6,10.8,5.2,20.5,10.5,28.9c11.4,17.5,30.1,29.3,50,31.6c0.6,0.1,1.4,0.2,2.1,0.3l1.4,0.2c1.8,0.1,10.9-0.1,13.4-0.4
				c13.4-1.9,25.2-7,35-15.1l3.9,3.9c7.6,7.6,8.6,8.6,11.5,8.6c3.9,0,7.1-3.2,7.1-7.1c0-2.8-0.6-3.5-8.2-11.2l-4.2-4.2
				c8.2-10.1,13.4-22,15.2-35.4c0.6-3.4,0.6-13.2,0-16.8c-2.8-20.4-13.7-37.9-30.9-49.4c-8.8-5.8-18.7-9.5-29.6-11
				C76.6,4970.8,73.3,4970.7,70,4970.7z M36,4996.2c5.7-4.4,12.5-7.8,19.4-9.5c15.6-4,32.1-1.2,45.2,7.5
				c13.1,8.7,21.5,22.2,23.8,37.9c2.2,14.7-1.7,29.8-10.7,41.6l0,0c0,0,0,0,0,0.1L36,4996.2z M69.7,5095.1c-1.9,0-3.6-0.1-4.5-0.2
				c-26.1-2.7-45.9-21.6-49.8-47.1c-0.3-1.9-0.4-3.8-0.4-7.9c0-5.7,0.2-8.6,1.5-13.8c1.8-7.3,5.2-14.2,9.6-20l77.6,77.6
				c-7.5,5.7-16.5,9.5-25.8,10.9C75.9,5094.9,72.5,5095.1,69.7,5095.1z"/>
		</g>
	</g>
</g>
</svg>
