<svg width="27" height="27" viewBox="0 0 27 27" fill="none" xmlns="http://www.w3.org/2000/svg">
<path d="M0.238687 26.7614C0.397768 26.9204 0.606248 27 0.814729 27C1.02321 27 1.23169 26.9204 1.39077 26.7614L13.5 14.6521L25.6094 26.7614C25.7684 26.9205 25.977 27 26.1855 27C26.3939 27 26.6024 26.9205 26.7615 26.7614C27.0796 26.4434 27.0796 25.9275 26.7615 25.6093L14.6521 13.5L26.7615 1.3907C27.0796 1.07254 27.0796 0.556783 26.7615 0.238621C26.4434 -0.0795404 25.9276 -0.0795404 25.6094 0.238621L13.5 12.3479L1.39071 0.238752C1.07254 -0.0794101 0.556784 -0.0794101 0.238622 0.238752C-0.0795406 0.556848 -0.0795406 1.07267 0.238622 1.39083L12.3479 13.5001L0.238687 25.6093C-0.0794754 25.9275 -0.0794754 26.4433 0.238687 26.7614Z" fill="#BDBEBE"/>
</svg>
