<svg width="12" height="12" viewBox="0 0 12 12" fill="none" xmlns="http://www.w3.org/2000/svg">
<path d="M0.106083 11.8939C0.176785 11.9646 0.269443 12 0.362101 12C0.454758 12 0.547416 11.9646 0.618118 11.8939L6 6.51203L11.3819 11.894C11.4526 11.9646 11.5453 12 11.6379 12C11.7306 12 11.8232 11.9646 11.894 11.894C12.0353 11.7526 12.0353 11.5233 11.894 11.3819L6.51203 5.99999L11.894 0.618089C12.0353 0.476684 12.0353 0.247459 11.894 0.106054C11.7526 -0.0353512 11.5233 -0.0353512 11.3819 0.106054L6 5.48796L0.618089 0.106112C0.476684 -0.0352933 0.247459 -0.0352933 0.106054 0.106112C-0.0353513 0.247488 -0.0353513 0.476742 0.106054 0.618147L5.48796 6.00002L0.106083 11.3819C-0.0353223 11.5233 -0.0353223 11.7526 0.106083 11.8939Z" fill="#BEB7D1"/>
</svg>
