<svg width="18" height="20" viewBox="0 0 18 20" fill="none" xmlns="http://www.w3.org/2000/svg">
<path d="M17.8239 14.8054C17.4954 13.6678 16.6874 12.7298 15.6108 12.2366V4.74555C15.6109 4.62568 15.5476 4.51471 15.4444 4.4537L7.98722 0.0471899C7.88078 -0.01573 7.74855 -0.01573 7.64215 0.0471899L0.184985 4.4537C0.177867 4.45777 0.172782 4.46387 0.166003 4.46861C0.159224 4.47336 0.152784 4.47878 0.146004 4.48421C0.116557 4.50738 0.0912621 4.53535 0.0710938 4.56691C0.0710938 4.56928 0.0670263 4.57064 0.0656704 4.57301V4.57539C0.0465614 4.60983 0.0335962 4.64733 0.0273677 4.68623C0.0273677 4.6964 0.024317 4.70589 0.0233002 4.71606C0.0222833 4.72622 0.0185547 4.73538 0.0185547 4.74555V13.5586C0.0185123 13.6784 0.0818135 13.7894 0.184985 13.8504L7.64215 18.2569C7.65109 18.2612 7.66025 18.2651 7.66961 18.2684C7.67885 18.2731 7.68838 18.2771 7.69808 18.2806C7.7727 18.3118 7.85667 18.3118 7.93129 18.2806C7.94112 18.2771 7.95074 18.2731 7.9601 18.2684C7.96891 18.2644 7.9784 18.262 7.98722 18.2569L10.0112 17.0607C10.634 19.2181 12.8877 20.4622 15.0452 19.8394C17.2026 19.2166 18.4467 16.9628 17.8239 14.8054ZM7.81469 0.732572L9.57729 1.7742L6.96389 3.31851C6.80263 3.41381 6.74912 3.6218 6.84441 3.78306C6.9397 3.94432 7.14769 3.99784 7.30895 3.90255L10.244 2.16943L12.0066 3.21106L5.21586 7.22268L3.45326 6.18105L6.29275 4.50319C6.45401 4.4079 6.50752 4.1999 6.41223 4.03864C6.31694 3.87738 6.10894 3.82386 5.94768 3.91916L2.78686 5.78718L1.02392 4.74555L7.81469 0.732572ZM4.8769 7.8101V10.0734L3.12582 9.0385V6.77525L4.8769 7.8101ZM9.98239 14.8835C9.89223 15.2254 9.84719 15.5777 9.84846 15.9313C9.84854 16.0732 9.856 16.2149 9.87083 16.356L8.15365 17.3712V16.2703C8.15365 16.0831 8.00188 15.9313 7.81469 15.9313C7.62749 15.9313 7.47572 16.0831 7.47572 16.2703V17.3712L0.696479 13.3654V5.33975L2.4479 6.3746V9.23171C2.44777 9.3517 2.51103 9.46284 2.61433 9.5239L5.04333 10.9594C5.09562 10.9902 5.15519 11.0064 5.21586 11.0065C5.40305 11.0065 5.55482 10.8547 5.55482 10.6676V8.21042L7.47572 9.3456V14.9144C7.47572 15.1016 7.62749 15.2534 7.81469 15.2534C8.00188 15.2534 8.15365 15.1016 8.15365 14.9144V9.3456L14.297 5.71532C14.4582 5.62003 14.5116 5.41211 14.4163 5.25094C14.321 5.08976 14.1131 5.03633 13.9519 5.13162L7.81469 8.75852L5.8826 7.61656L12.6734 3.60358L14.9329 4.93875V11.9993C12.7694 11.4287 10.553 12.72 9.98239 14.8835ZM13.916 19.3209C12.044 19.3209 10.5264 17.8033 10.5264 15.9313C10.5264 14.0593 12.044 12.5417 13.916 12.5417C15.7881 12.5417 17.3056 14.0593 17.3056 15.9313C17.3036 17.8025 15.7872 19.3188 13.916 19.3209Z" fill="#6F38AB"/>
</svg>
