<svg width="19" height="23" viewBox="0 0 19 23" fill="none" xmlns="http://www.w3.org/2000/svg">
<path d="M1.18372e-09 18.4434C-5.2451e-06 18.524 0.0174284 18.6036 0.0511047 18.6769C0.084781 18.7501 0.133903 18.8152 0.195099 18.8677C0.361279 19.01 4.32341 22.3551 9.5 22.3551C14.6766 22.3551 18.6387 19.01 18.8049 18.8677C18.8661 18.8152 18.9152 18.7501 18.9489 18.6769C18.9826 18.6036 19 18.524 19 18.4434C19 14.1181 16.0941 10.4592 12.1326 9.31477C13.066 8.74139 13.7866 7.87897 14.185 6.85859C14.5834 5.8382 14.6377 4.71565 14.3398 3.66154C14.0419 2.60743 13.408 1.67941 12.5344 1.01852C11.6608 0.357624 10.5954 0 9.5 0C8.4046 0 7.33915 0.357624 6.46558 1.01852C5.59201 1.67941 4.9581 2.60743 4.66017 3.66154C4.36225 4.71565 4.41662 5.8382 4.81501 6.85859C5.2134 7.87897 5.93404 8.74139 6.86738 9.31477C2.90588 10.4592 1.18372e-09 14.1181 1.18372e-09 18.4434Z" fill="white"/>
</svg>
