<svg width="18" height="18" viewBox="0 0 18 18" fill="none" xmlns="http://www.w3.org/2000/svg">
<path d="M9 0C4.0374 0 0 4.0374 0 9C0 13.9626 4.0374 18 9 18C13.9626 18 18 13.9626 18 9C18 4.0374 13.9626 0 9 0ZM9 17.4C4.3683 17.4 0.6 13.6317 0.6 9C0.6 4.3683 4.3683 0.6 9 0.6C13.6317 0.6 17.4 4.3683 17.4 9C17.4 13.6317 13.6317 17.4 9 17.4Z" fill="#6F38AB"/>
<path d="M8.9999 1.80005C8.8343 1.80005 8.6999 1.93415 8.6999 2.10005V9.00005H4.1999C4.0343 9.00005 3.8999 9.13415 3.8999 9.30005C3.8999 9.46595 4.0343 9.60005 4.1999 9.60005H8.9999C9.1655 9.60005 9.2999 9.46595 9.2999 9.30005V2.10005C9.2999 1.93415 9.1655 1.80005 8.9999 1.80005Z" fill="#6F38AB"/>
</svg>
