<svg xmlns="http://www.w3.org/2000/svg" width="28.189" height="27.137" viewBox="0 0 28.189 27.137">
    <defs>
        <style>
            .cls-1{fill:#e14b4b}.cls-2{fill:#d03f3e}.cls-3{fill:#dae5ef}.cls-4{fill:#cbd6e0}
        </style>
    </defs>
    <g id="hat" transform="rotate(-31 -114.814 45.707)">
        <path id="Path_364" d="M73.4 83.536a11.761 11.761 0 0 0-6.118-7.457s-1.928-3.057-7.934-1.182c0 0-1.78 1.3-2.077 2.037 0 0-2.632.49-2.632 3.831a5.466 5.466 0 0 0-.371 2.975l-.408 4.524 1.965 1.671.111-.815s1.891-3.139 2-4.116c0 0 .519-.448.519.652l-.519 1.711 14.423-1.228z" class="cls-1" data-name="Path 364" transform="translate(-51.902)"/>
        <g id="Group_755" data-name="Group 755" transform="translate(5.268 75.144)">
            <path id="Path_365" d="M360.2 96.849a31.846 31.846 0 0 1 1.851-5.986 11.1 11.1 0 0 0-1.406 1.281 30.239 30.239 0 0 0-.445 4.705z" class="cls-2" data-name="Path 365" transform="translate(-360.196 -90.863)"/>
            <path id="Path_366" d="M283.748 119.471a.575.575 0 0 0-.432.181c.142-.064.289-.123.432-.181z" class="cls-2" data-name="Path 366" transform="translate(-278.288 -117.994)"/>
            <path id="Path_367" d="M217.156 131.188c.053-.04.507-.376.511.646.2-.293.369-.626.561-.925a8.877 8.877 0 0 1 2.065-2.069 15.427 15.427 0 0 1 4.654-2.895 5.583 5.583 0 0 0-2.456.621 9.332 9.332 0 0 0-4.191 2.876 5.724 5.724 0 0 1 .934-2.675l1.8-3.257a2.017 2.017 0 0 1 .374-.518 4.981 4.981 0 0 0-1.815 1.169 6.846 6.846 0 0 0-1.295 2.719 75.768 75.768 0 0 0-1.142 4.308z" class="cls-2" data-name="Path 367" transform="translate(-216.382 -121.333)"/>
        </g>
        <g id="Group_756" data-name="Group 756" transform="translate(0 83.352)">
            <path id="Path_368" d="M18.473 255.6c0-.636.005.094.011-.173.021.716.008-3.228-.547-3.644-.4-.438-.759-1.767-1.077-1.258-.271-.248-.46.118-.613-.32-.152-.087-.268-.483-.391-.062-.123-.1-.255.285-.439.168-.184.3-.42.117-.754.367 0 .286-.124-.344-.311-.04-.188.263-.439.054-.694-.115-.255-.294-.515-.46-.719-.182-.153.2-.366.247-.6-.042-.234-.239-.49-.154-.726.115-.237.362-.454.389-.612.155-.158.256-.257-.083-.257.078 0 .012-.06.246-.168-.007-.108-.065-.263.133-.453-.012-.19.3-.415-.054-.66 0-.246-.274-.514-.5-.79.029a.61.61 0 0 0-.842.073.933.933 0 0 0-.817.135c-.259-.065-.5.4-.713.21-.213-.228-.394-.428-.533.3 0-.152-.065.21-.182.048-.117.081-.285-.078-.491.135a1.857 1.857 0 0 0-.715.207c-.266-.314-.555.208-.853.267-.3.168-.605.571-.906.313-.3-.323-.6.158-.875.345-.277.584-.535.132-.759.364-.224.121-.415.04-.556.369a4.688 4.688 0 0 1-.142.455c-.039.066-.082.568-.123.532a9.715 9.715 0 0 0 .014 3.6s.033-.154.1.129c.068.051.17-.114.306.273.137.21.309.089.517.245.208.385.453.216.734.045a2.034 2.034 0 0 1 .955-.326c0-.39.021-.121.062-.023.041.2.1-.2.181-.064.08-.5.178.055.294-.1.116-.136.25.006.4-.125.151.409.318-.164.5-.145.183-.294.383-.527.6-.159.214.04.443-.464.686-.163.243-.268.5.271.769-.162.27.12.552-.239.846-.153.294-.124.6.069.917-.136a1.483 1.483 0 0 0 .982-.113c.337-.044.685-.3 1.041-.082a2.477 2.477 0 0 1 1.093-.044 2.236 2.236 0 0 1 1.141 0 4.389 4.389 0 0 1 1.791.011 8.1 8.1 0 0 0 1.351-.056 2.406 2.406 0 0 1 .973-.1c.268.351.484-.152.656-.125.173-.055.3-.372.4-.131.1-.011.165-.31.21-.118.045-.058.068.045.08-.085.012.169.013.4.013-.033 0 .518.132.119.285-.141.152.039.326.311.41-.529z" class="cls-3" data-name="Path 368" transform="translate(5.537 -249.955)"/>
            <path id="Path_369" d="M413.591 341.409a2.981 2.981 0 0 0 .883 3.637 2.129 2.129 0 0 0 3.1-.768 2.616 2.616 0 0 0-.7-3.4 2.28 2.28 0 0 0-3.283.531z" class="cls-3" data-name="Path 369" transform="translate(-413.291 -335.749)"/>
        </g>
        <g id="Group_757" data-name="Group 757" transform="translate(.383 88.338)">
            <path id="Path_370" d="M413.27 350.845a2.559 2.559 0 0 0 .8.949 2.119 2.119 0 0 0 3.094-.768 2.611 2.611 0 0 0-.7-3.4 1.448 1.448 0 0 0-.15-.091 2.667 2.667 0 0 1-.09 2.46 2.119 2.119 0 0 1-2.954.85z" class="cls-4" data-name="Path 370" transform="translate(-413.27 -347.486)"/>
            <path id="Path_371" d="M440.617 346.69a.178.178 0 0 1 .005-.1l.01.006z" class="cls-4" data-name="Path 371" transform="translate(-437.671 -346.591)"/>
        </g>
    </g>
</svg>
