<svg xmlns="http://www.w3.org/2000/svg" id="Group_754" width="62.935" height="72.706" data-name="Group 754" viewBox="0 0 62.935 72.706">
    <defs>
        <style>
            .cls-1{fill:#b8332d}.cls-1,.cls-10,.cls-11,.cls-12,.cls-13,.cls-14,.cls-2,.cls-3,.cls-4,.cls-6,.cls-8{fill-rule:evenodd}.cls-2,.cls-7{fill:#4d4d4d}.cls-3{fill:#fff}.cls-4{fill:#db4642}.cls-5{fill:#fd9324}.cls-6{fill:#f6c8b3}.cls-8,.cls-9{fill:#f0aaa1}.cls-10{fill:#f9c1b8}.cls-11{fill:#ffb362}.cls-12{fill:#eb953b}.cls-13{fill:#c8e9f4}.cls-14{fill:#b5ddeb}
        </style>
    </defs>
    <g id="Group_738" data-name="Group 738" transform="translate(33.978 39.321)">
        <path id="Path_300" d="M-6250.124 7057.045l8.255-3.886a4.755 4.755 0 0 1 2.382 5.061l-8.188 3.855c-3.85 1.751-6.403-3.17-2.449-5.03z" class="cls-1" data-name="Path 300" transform="translate(6252.108 -7050.64)"/>
        <path id="Path_301" d="M-5411.156 6874.6c1.587-1.31 3.064-1.412 2.505.507.75-.47 2.64-.944 3.2.308 1.11 2.475-1.66 4.2-4.768 4.475-1.817.159-3.712-3.001-.937-5.29z" class="cls-2" data-name="Path 301" transform="translate(5424.342 -6873.636)"/>
        <path id="Path_302" d="M-5543.378 6987.714a12.056 12.056 0 0 0-2.354-4.994c-.277-.306.012-.6.241-.717.686-.35 1.427-.659 1.892-.178a8.68 8.68 0 0 1 2.273 4.86c.059.631-.693 1.019-1.346 1.308-.303.134-.649.053-.706-.279z" class="cls-3" data-name="Path 302" transform="translate(5555.758 -6980.063)"/>
    </g>
    <g id="Group_739" data-name="Group 739" transform="translate(8.306 50.294)">
        <path id="Path_303" d="M-8077.7 8450.774c-.5.286-1.718-.342-2.673.5s-1.553 2.124 1.158 4.582c2.515 2.281 4.251 1.24 5.416-.534s-2.254-5.479-3.901-4.548z" class="cls-2" data-name="Path 303" transform="translate(8081.18 -8439.466)"/>
        <path id="Path_304" d="M-7738.66 7655.391l-11.931 10.043 3.939 4.68 11.932-10.043z" class="cls-1" data-name="Path 304" transform="translate(7755.231 -7655.391)"/>
        <path id="Path_305" d="M-7849.039 8310.54a13.165 13.165 0 0 1-3.885-4.619c-.178-.416-.6-.263-.822-.089a7.452 7.452 0 0 0-.4.335c-.656.527-1.261 1.116-1.02 1.784a9.1 9.1 0 0 0 3.789 4.479c.6.34 1.34-.232 1.942-.761.121-.1.239-.2.353-.3.27-.239.347-.621.043-.829z" class="cls-3" data-name="Path 305" transform="translate(7858.395 -8296.527)"/>
    </g>
    <g id="Group_740" data-name="Group 740" transform="translate(24.116 50.282)">
        <path id="Path_306" d="M-6948.172 8779.426c-.059.577 1 1.435.614 2.65s-1.322 2.275-4.662.78c-3.1-1.385-2.846-3.393-1.688-5.174s5.927-.141 5.736 1.744z" class="cls-2" data-name="Path 306" transform="translate(6954.708 -8761.165)"/>
        <path id="Path_307" d="M-6847.614 7656.265l-4.4 14.963-5.868-1.725 4.4-14.962z" class="cls-1" data-name="Path 307" transform="translate(6859.24 -7654.541)"/>
        <path id="Path_308" d="M-6913.225 8644.54a13.172 13.172 0 0 0 5.794 1.7c.451 0 .482.446.411.718-.044.169-.09.34-.145.5-.218.812-.515 1.6-1.223 1.65a9.091 9.091 0 0 1-5.625-1.669c-.552-.41-.327-1.32-.084-2.085.04-.148.086-.3.131-.442.112-.342.43-.566.741-.372z" class="cls-3" data-name="Path 308" transform="translate(6914.92 -8630.574)"/>
    </g>
    <g id="Group_741" data-name="Group 741" transform="translate(0 37.461)">
        <path id="Path_309" d="M-8251.428 6976.777l-7.58-5.077a4.754 4.754 0 0 0-3.112 4.648l7.52 5.036c3.544 2.307 6.805-2.176 3.172-4.607z" class="cls-1" data-name="Path 309" transform="translate(8267.887 -6968.463)"/>
        <path id="Path_310" d="M-8666.759 6742.385c-1.374-1.533-2.818-1.855-2.554.126-.672-.576-2.468-1.328-3.211-.174-1.468 2.281 1.013 4.4 4.046 5.137 1.773.432 4.121-2.409 1.719-5.089z" class="cls-2" data-name="Path 310" transform="translate(8672.958 -6741.129)"/>
        <path id="Path_311" d="M-8379.078 6892.092a12.044 12.044 0 0 1 3.078-4.592c.319-.261.077-.595-.131-.745-.626-.447-1.312-.864-1.844-.458a8.688 8.688 0 0 0-2.976 4.466c-.152.615.532 1.111 1.135 1.494.278.183.633.154.738-.165z" class="cls-3" data-name="Path 311" transform="translate(8385.073 -6884.102)"/>
    </g>
    <g id="Group_742" data-name="Group 742" transform="translate(13.924 37.449)">
        <path id="Path_312" d="M-7666.474 6765.067c7.93 0 14.4-5.583 14.4-12.427s-6.468-12.428-14.4-12.428-14.4 5.583-14.4 12.428 6.474 12.427 14.4 12.427z" class="cls-4" data-name="Path 312" transform="translate(7680.869 -6740.211)"/>
        <path id="Path_313" d="M-7577.776 7971.649a27.5 27.5 0 0 1-20.852-.061 12.427 12.427 0 0 1-2.822-3.738c7.47 4.747 19.093 4.747 26.563 0a12.446 12.446 0 0 1-2.889 3.799z" class="cls-2" data-name="Path 313" transform="translate(7602.565 -7950.62)"/>
        <path id="Path_314" d="M-6843.657 8147.74h1.42a1.251 1.251 0 0 1 .89.371 1.255 1.255 0 0 1 .371.89v1.784a1.253 1.253 0 0 1-.371.89 1.254 1.254 0 0 1-.89.37h-1.42v-1.082h1.42a.183.183 0 0 0 .128-.051.187.187 0 0 0 .051-.129V8149a.182.182 0 0 0-.051-.127.179.179 0 0 0-.128-.052h-1.42zm-1.422 0h1.422v1.082h-1.422a.182.182 0 0 0-.127.052.181.181 0 0 0-.053.127v1.784a.184.184 0 0 0 .053.129.186.186 0 0 0 .127.051h1.422v1.082h-1.422a1.257 1.257 0 0 1-.89-.37 1.255 1.255 0 0 1-.371-.89V8149a1.257 1.257 0 0 1 .371-.89 1.253 1.253 0 0 1 .89-.37z" class="cls-5" data-name="Path 314" transform="translate(6858.054 -8127.985)"/>
    </g>
    <g id="Group_744" data-name="Group 744" transform="translate(2.997 13.013)">
        <path id="Path_315" d="M-7984.78 5950.38c-8.786 2.4-14.734 8.64-13.287 13.936s9.743 7.641 18.529 5.238 14.733-8.64 13.286-13.935-9.748-7.641-18.528-5.239z" class="cls-3" data-name="Path 315" transform="translate(8004.757 -5936.101)"/>
        <path id="Path_316" d="M-7987.615 6472.722a6.256 6.256 0 0 1 7.837 4.078 6.256 6.256 0 0 1-4.674 7.5 6.258 6.258 0 0 1-7.838-4.078 6.258 6.258 0 0 1 4.675-7.5z" class="cls-3" data-name="Path 316" transform="translate(7999.042 -6451.795)"/>
        <path id="Path_317" d="M-7688.4 5878.671c6.2-1.694 12.415 1.288 13.883 6.661s-2.365 11.1-8.564 12.8-12.414-1.288-13.883-6.66 2.364-11.106 8.564-12.801z" class="cls-6" data-name="Path 317" transform="translate(7707.979 -5865.859)"/>
        <g id="Group_743" data-name="Group 743" transform="translate(11.526 19.855)">
            <path id="Path_318" d="M-7632.986 6616.6c3.665-1 7.345.777 8.217 3.972s-1.389 6.6-5.054 7.6-7.345-.776-8.22-3.973 1.391-6.599 5.057-7.599z" class="cls-3" data-name="Path 318" transform="translate(7638.23 -6613.481)"/>
            <path id="Path_319" d="M-6892.446 6414.178c-3.666 1-5.929 4.4-5.055 7.6s4.553 4.975 8.218 3.972 5.928-4.4 5.054-7.6-4.552-4.975-8.217-3.972z" class="cls-3" data-name="Path 319" transform="translate(6908.083 -6413.898)"/>
        </g>
        <path id="Path_320" d="M-7844.712 6908.911a6.5 6.5 0 0 1 7.974 4.578 6.5 6.5 0 0 1-4.536 8 6.5 6.5 0 0 1-7.975-4.579 6.5 6.5 0 0 1 4.537-7.999z" class="cls-3" data-name="Path 320" transform="translate(7858.043 -6881.881)"/>
        <path id="Path_321" d="M-6521.583 6677.586a6.5 6.5 0 0 0-4.537 8 6.5 6.5 0 0 0 7.975 4.578 6.5 6.5 0 0 0 4.537-8 6.5 6.5 0 0 0-7.975-4.578z" class="cls-3" data-name="Path 321" transform="translate(6553.485 -6653.802)"/>
        <path id="Path_322" d="M-7062.1 7133.231a6.5 6.5 0 0 0-4.537 8 6.5 6.5 0 0 0 7.974 4.577 6.5 6.5 0 0 0 4.537-8 6.5 6.5 0 0 0-7.974-4.577z" class="cls-3" data-name="Path 322" transform="translate(7086.417 -7103.053)"/>
        <path id="Path_323" d="M-7397.963 6397.729a.247.247 0 0 1-.275.215.248.248 0 0 1-.215-.275 1.215 1.215 0 0 1 .3-.624 3.2 3.2 0 0 1 1.287-.838 3.518 3.518 0 0 1 1.608-.23 1.656 1.656 0 0 1 .875.356.246.246 0 0 1 .031.348.248.248 0 0 1-.349.03 1.173 1.173 0 0 0-.619-.243 3 3 0 0 0-1.373.2 2.69 2.69 0 0 0-1.082.693.741.741 0 0 0-.188.368z" class="cls-7" data-name="Path 323" transform="translate(7413.347 -6376.354)"/>
        <path id="Path_324" d="M-7103.047 6364.091a3.169 3.169 0 0 1 3.893 2.222 3.168 3.168 0 0 1-2.221 3.893 3.17 3.17 0 0 1-3.895-2.221 3.17 3.17 0 0 1 2.223-3.894z" class="cls-8" data-name="Path 324" transform="translate(7124.387 -6344.824)"/>
        <path id="Path_325" d="M-6852.823 6062.574c-1.657-.028-3.009.584-3.023 1.369s1.441.013 3.1.041 2.887.847 2.9.063-1.321-1.447-2.977-1.473z" class="cls-3" data-name="Path 325" transform="translate(6878.354 -6047.649)"/>
        <path id="Path_326" d="M-7475.5 6199.841c1.412-.867 2.888-1.027 3.3-.358s-1.233.743-2.646 1.61-2.056 2.2-2.467 1.528.397-1.913 1.813-2.78z" class="cls-3" data-name="Path 326" transform="translate(7491.207 -6182.229)"/>
        <path id="Path_327" d="M-7021.415 6768.5a.247.247 0 0 1-.015-.35.247.247 0 0 1 .349-.015 1.6 1.6 0 0 0 .674.34 4.349 4.349 0 0 0 2.089-.046 3.744 3.744 0 0 0 1.832-.979 1.618 1.618 0 0 0 .386-.669.247.247 0 0 1 .3-.175.248.248 0 0 1 .174.3 2.107 2.107 0 0 1-.5.875 4.246 4.246 0 0 1-2.076 1.123 4.862 4.862 0 0 1-2.339.044 2.112 2.112 0 0 1-.874-.448z" class="cls-9" data-name="Path 327" transform="translate(7041.677 -6741.793)"/>
        <path id="Path_328" d="M-8078.694 5008c-3.088-7.236-8.612-12.381-16.249-5.54s-10.17 10.075-1.407 8.362c8.685-1.7 11.798-1.065 17.656-2.822z" class="cls-4" data-name="Path 328" transform="translate(8106.902 -4999.246)"/>
        <path id="Path_329" d="M-7569.4 5287.337c-.539-1.586 1.169-6.1 4.531-6.857s-3.505.641-4.531 6.857z" class="cls-1" data-name="Path 329" transform="translate(7581.993 -5276.347)"/>
        <path id="Path_330" d="M-8455.949 5403.77a4.739 4.739 0 0 1 5.82 3.32 4.738 4.738 0 0 1-3.32 5.819 4.735 4.735 0 0 1-5.818-3.321 4.736 4.736 0 0 1 3.318-5.818z" class="cls-3" data-name="Path 330" transform="translate(8459.438 -5397.925)"/>
        <path id="Path_331" d="M-7880.666 5444.5c6.94-1.9 13.9 1.44 15.545 7.457a9.988 9.988 0 0 1 .229 4.175c-2.935-3.569-8.282-5.206-13.618-3.747s-9.108 5.588-9.819 10.153a9.953 9.953 0 0 1-1.927-3.71c-1.644-6.012 2.648-12.428 9.59-14.328z" class="cls-3" data-name="Path 331" transform="translate(7898.591 -5437.73)"/>
        <path id="Path_332" d="M-7041.512 6450.425a.86.86 0 0 1 1.057.6.86.86 0 0 1-.6 1.057.86.86 0 0 1-1.057-.6.861.861 0 0 1 .6-1.057z" class="cls-10" data-name="Path 332" transform="translate(7062.04 -6430.026)"/>
        <path id="Path_333" d="M-6751.382 6224.471a.248.248 0 0 1-.046.347.248.248 0 0 1-.346-.045.733.733 0 0 0-.347-.221 2.691 2.691 0 0 0-1.284-.046 3.008 3.008 0 0 0-1.285.523 1.173 1.173 0 0 0-.409.525.247.247 0 0 1-.314.151.248.248 0 0 1-.152-.315 1.663 1.663 0 0 1 .574-.751 3.489 3.489 0 0 1 1.5-.619 3.184 3.184 0 0 1 1.534.066 1.216 1.216 0 0 1 .575.385z" class="cls-7" data-name="Path 333" transform="translate(6779.494 -6206.77)"/>
    </g>
    <g id="Group_747" data-name="Group 747" transform="translate(45.506 27.036)">
        <g id="Group_745" data-name="Group 745" transform="translate(8.334 .08)">
            <path id="Path_334" d="M-4579.964 6194.173a5.4 5.4 0 0 1 2.639-.5c.332.163.123 2.1-.27 2.25a5.278 5.278 0 0 1-2.532-.851c-.323-.306-.183-.633.163-.899z" class="cls-4" data-name="Path 334" transform="translate(4583.911 -6190.971)"/>
            <path id="Path_335" d="M-4571.594 6227.31c.08-.371 1.164-.619 1.189-.3s-.966 0-.99.3.643.279.483.57c-.147.26-.762-.199-.682-.57z" class="cls-1" data-name="Path 335" transform="translate(4575.326 -6223.734)"/>
            <path id="Path_336" d="M-4834.224 6006.458a5.035 5.035 0 0 0-.918-2.459c-.313-.193-1.912.977-1.844 1.383a5.146 5.146 0 0 0 2.053 1.675c.437.11.652-.174.708-.6z" class="cls-4" data-name="Path 336" transform="translate(4836.988 -6003.978)"/>
            <path id="Path_337" d="M-4716.776 6125.609c.285-.258-.055-1.29-.346-1.148s.5.805.249.979-.577-.394-.752-.11c-.158.259.563.537.849.279z" class="cls-1" data-name="Path 337" transform="translate(4719.322 -6122.757)"/>
            <path id="Path_338" d="M-4682.557 6188c.432.282.652.372.392.792s-.207.573-1 .168-.848-.588-.536-.92.454-.497 1.144-.04z" class="cls-1" data-name="Path 338" transform="translate(4686.027 -6185.138)"/>
            <path id="Path_339" d="M-4673.819 6192.581c.389.249.586.33.368.677s-.167.478-.879.117-.766-.517-.5-.788.39-.404 1.011-.006z" class="cls-4" data-name="Path 339" transform="translate(4677.251 -6189.687)"/>
        </g>
        <g id="Group_746" data-name="Group 746">
            <path id="Path_340" d="M-5414.52 6087.67l-10.541-5.95-5.689 10.08 10.54 5.95z" class="cls-11" data-name="Path 340" transform="translate(5430.75 -6080.55)"/>
            <path id="Path_341" d="M-5083.4 6167.47l-10.54-5.949-.335.593 10.541 5.95z" class="cls-12" data-name="Path 341" transform="translate(5098.993 -6159.229)"/>
            <path id="Path_342" d="M-5114.629 6006.986l-12.121-6.842 1.041-1.844 12.121 6.841z" class="cls-11" data-name="Path 342" transform="translate(5131.017 -5998.3)"/>
        </g>
        <path id="Path_343" d="M-5093.812 6216.829l-1.291-.729-6.1 10.8 1.29.729z" class="cls-4" data-name="Path 343" transform="translate(5105.826 -6213.043)"/>
    </g>
    <g id="Group_750" data-name="Group 750" transform="translate(41.967 13.151)">
        <g id="Group_748" data-name="Group 748" transform="translate(3.008)">
            <path id="Path_344" d="M-5171.041 5011.3a5.385 5.385 0 0 1 1.466-2.25c.346-.127 1.6 1.363 1.438 1.751a5.3 5.3 0 0 1-2.367 1.24c-.444.021-.583-.306-.537-.741z" class="cls-4" data-name="Path 344" transform="translate(5175.226 -5009.044)"/>
            <path id="Path_345" d="M-5165.06 5122.484c-.213-.313.358-1.268.6-1.067s-.668.7-.471.919.647-.271.746.046c.096.291-.663.418-.875.102z" class="cls-1" data-name="Path 345" transform="translate(5169.366 -5119.813)"/>
            <path id="Path_346" d="M-5465.757 5121.778a5.028 5.028 0 0 0-2.411-1.037c-.357.092-.617 2.056-.277 2.287a5.155 5.155 0 0 0 2.63-.323c.382-.24.326-.592.058-.927z" class="cls-4" data-name="Path 346" transform="translate(5468.604 -5119.165)"/>
            <path id="Path_347" d="M-5332.965 5179.537c.012-.385-.969-.853-1.069-.545s.926.2.879.5-.683.146-.6.467c.078.291.778-.038.79-.422z" class="cls-1" data-name="Path 347" transform="translate(5335.929 -5176.509)"/>
            <path id="Path_348" d="M-5265.736 5170.8c.5-.115.719-.213.843.266s.27.546-.57.838-1.012.206-1.036-.249-.042-.669.763-.855z" class="cls-1" data-name="Path 348" transform="translate(5269.345 -5168.438)"/>
            <path id="Path_349" d="M-5260.647 5174.9c.449-.109.644-.195.744.2s.229.45-.524.715-.9.195-.915-.185-.023-.551.695-.73z" class="cls-4" data-name="Path 349" transform="translate(5264.255 -5172.486)"/>
        </g>
        <g id="Group_749" data-name="Group 749" transform="translate(0 1.003)">
            <path id="Path_350" d="M-5592.263 5155.95l-11.587 3.5 3.344 11.081 11.587-3.5z" class="cls-13" data-name="Path 350" transform="translate(5604.959 -5154.891)"/>
            <path id="Path_351" d="M-5565.792 5243.67l-11.588 3.5.2.652 11.587-3.5z" class="cls-14" data-name="Path 351" transform="translate(5578.861 -5241.379)"/>
            <path id="Path_352" d="M-5668.963 5082.528l-13.326 4.021-.612-2.028 13.326-4.021z" class="cls-13" data-name="Path 352" transform="translate(5682.9 -5080.5)"/>
        </g>
        <path id="Path_353" d="M-5257.271 5208.5l-1.419.428 3.584 11.877 1.418-.428z" class="cls-4" data-name="Path 353" transform="translate(5264.644 -5205.701)"/>
    </g>
    <g id="Group_753" data-name="Group 753" transform="translate(47.234)">
        <g id="Group_751" data-name="Group 751" transform="translate(4.068)">
            <path id="Path_354" d="M-4717.827 4125.06a5.39 5.39 0 0 1 2.263-1.445c.368.027.9 1.9.588 2.188a5.267 5.267 0 0 1-2.667.152c-.413-.164-.405-.519-.184-.895z" class="cls-4" data-name="Path 354" transform="translate(4722.186 -4122.891)"/>
            <path id="Path_355" d="M-4711.764 4201.271c-.064-.374.85-1.007.991-.723s-.9.358-.809.643.7.02.661.349c-.037.302-.779.106-.843-.269z" class="cls-1" data-name="Path 355" transform="translate(4716.063 -4198.675)"/>
            <path id="Path_356" d="M-5014.818 4074.01a5.037 5.037 0 0 0-1.768-1.939c-.364-.062-1.411 1.619-1.2 1.97a5.151 5.151 0 0 0 2.529.79c.45-.06.544-.405.439-.821z" class="cls-4" data-name="Path 356" transform="translate(5017.811 -4072.069)"/>
            <path id="Path_357" d="M-4871.93 4171.97c.169-.346-.531-1.177-.748-.936s.761.561.6.815-.683-.15-.738.178c-.056.299.716.288.886-.057z" class="cls-1" data-name="Path 357" transform="translate(4874.858 -4169.602)"/>
            <path id="Path_358" d="M-4825.889 4212.619c.506.1.743.1.659.59s.021.609-.866.529-1.005-.229-.841-.653.237-.629 1.048-.466z" class="cls-1" data-name="Path 358" transform="translate(4829.679 -4210.591)"/>
            <path id="Path_359" d="M-4819.05 4216.667c.454.087.667.088.593.492s.022.5-.773.435-.9-.194-.756-.545.211-.52.936-.382z" class="cls-4" data-name="Path 359" transform="translate(4822.817 -4214.59)"/>
        </g>
        <g id="Group_752" data-name="Group 752" transform="translate(0 1.723)">
            <path id="Path_360" d="M-5294.1 4263.724l-12-1.593-1.524 11.474 12 1.594z" class="cls-11" data-name="Path 360" transform="translate(5307.621 -4261.186)"/>
            <path id="Path_361" d="M-5205.413 4354.564l-12-1.593-.09.675 12 1.593z" class="cls-12" data-name="Path 361" transform="translate(5218.766 -4350.752)"/>
            <path id="Path_362" d="M-5261.432 4198.782l-13.8-1.832.279-2.1 13.8 1.832z" class="cls-11" data-name="Path 362" transform="translate(5275.685 -4194.851)"/>
        </g>
        <path id="Path_363" d="M-4929.389 4253.375l-1.469-.194-1.633 12.3 1.468.195z" class="cls-4" data-name="Path 363" transform="translate(4937.756 -4250.639)"/>
    </g>
</svg>
