<svg width="25" height="23" viewBox="0 0 25 23" fill="none" xmlns="http://www.w3.org/2000/svg">
<path d="M10.4208 17.9517C9.14034 17.9517 8.09863 18.9934 8.09863 20.2738C8.09863 21.5542 9.14034 22.5959 10.4208 22.5959C11.7012 22.5959 12.7429 21.5542 12.7429 20.2738C12.7428 18.9934 11.7011 17.9517 10.4208 17.9517Z" fill="white"/>
<path d="M9.39519 20.2737C9.39519 20.8391 9.85525 21.2992 10.4208 21.2992C10.9862 21.2992 11.4463 20.8392 11.4463 20.2737M10.4208 17.9517C9.14034 17.9517 8.09863 18.9934 8.09863 20.2738C8.09863 21.5542 9.14034 22.5959 10.4208 22.5959C11.7012 22.5959 12.7429 21.5542 12.7429 20.2738C12.7428 18.9934 11.7011 17.9517 10.4208 17.9517Z" stroke="white" stroke-width="0.5"/>
<path d="M18.5665 17.9517C17.2861 17.9517 16.2444 18.9934 16.2444 20.2738C16.2444 21.5542 17.2861 22.5959 18.5665 22.5959C19.8469 22.5959 20.8886 21.5542 20.8886 20.2738C20.8886 18.9934 19.8469 17.9517 18.5665 17.9517Z" fill="white"/>
<path d="M17.5409 20.2737C17.5409 20.8391 18.001 21.2992 18.5665 21.2992C19.132 21.2992 19.5921 20.8392 19.5921 20.2737M18.5665 17.9517C17.2861 17.9517 16.2444 18.9934 16.2444 20.2738C16.2444 21.5542 17.2861 22.5959 18.5665 22.5959C19.8469 22.5959 20.8886 21.5542 20.8886 20.2738C20.8886 18.9934 19.8469 17.9517 18.5665 17.9517Z" stroke="white" stroke-width="0.5"/>
<path d="M23.7082 5.67375C23.461 5.37031 23.0946 5.19632 22.7032 5.19632H5.91347L5.50566 3.21662C5.42051 2.80365 5.13884 2.45689 4.75202 2.28893L1.90656 1.05384C1.57807 0.911147 1.1963 1.06188 1.05381 1.39028C0.911169 1.71878 1.06191 2.1006 1.39025 2.24309L4.23575 3.47823L6.85683 15.9199C7.03364 16.7029 7.9361 16.5909 8.26091 16.5909H20.8899C21.5021 16.5909 22.0362 16.1556 22.1597 15.556L23.9731 6.75434C24.052 6.37107 23.9555 5.97713 23.7082 5.67375Z" fill="white"/>
<path d="M7.99383 15.2944L6.42818 7.69461C6.30037 7.07423 6.77421 6.49283 7.40761 6.49283L22.7031 6.49288M23.7082 5.67375C23.461 5.37031 23.0946 5.19632 22.7032 5.19632H5.91347L5.50566 3.21662C5.42051 2.80365 5.13884 2.45689 4.75202 2.28893L1.90656 1.05384C1.57807 0.911147 1.1963 1.06188 1.05381 1.39028C0.911169 1.71878 1.06191 2.1006 1.39025 2.24309L4.23575 3.47823L6.85683 15.9199C7.03364 16.7029 7.9361 16.5909 8.26091 16.5909H20.8899C21.5021 16.5909 22.0362 16.1556 22.1597 15.556L23.9731 6.75434C24.052 6.37107 23.9555 5.97713 23.7082 5.67375Z" stroke="white" stroke-width="0.5"/>
</svg>
