<svg width="20" height="18" viewBox="0 0 20 18" fill="none" xmlns="http://www.w3.org/2000/svg">
<path d="M18.5408 1.7357C17.5543 0.616406 16.1859 0 14.6875 0C12.5802 0 11.246 1.25859 10.4979 2.31445C10.3037 2.58844 10.1386 2.86316 10 3.12168C9.86137 2.86316 9.69629 2.58844 9.50215 2.31445C8.75402 1.25859 7.41984 0 5.3125 0C3.81414 0 2.44566 0.616445 1.45918 1.73574C0.518242 2.80348 0 4.23348 0 5.7623C0 7.42648 0.649727 8.97433 2.04473 10.6334C3.29148 12.1162 5.08512 13.6446 7.16211 15.4145C7.93605 16.0741 8.73641 16.7561 9.58848 17.5016L9.61406 17.524C9.72453 17.6207 9.86227 17.6691 10 17.6691C10.1377 17.6691 10.2755 17.6207 10.3859 17.524L10.4115 17.5016C11.2636 16.7561 12.0639 16.0741 12.838 15.4145C14.9149 13.6447 16.7085 12.1162 17.9553 10.6334C19.3503 8.9743 20 7.42648 20 5.7623C20 4.23348 19.4818 2.80348 18.5408 1.7357Z" fill="white"/>
</svg>
