<svg width="32" height="28" viewBox="0 0 32 28" fill="none" xmlns="http://www.w3.org/2000/svg">
<path d="M11.059 22.6821C9.97123 22.6821 9.08301 23.57 9.08301 24.6625C9.08301 25.755 9.97123 26.6429 11.059 26.6429C12.1467 26.6429 13.0349 25.755 13.035 24.6625L11.059 22.6821ZM11.059 22.6821C12.1466 22.6821 13.0349 23.57 13.035 24.6625L11.059 22.6821Z" stroke="#6F38AB" stroke-width="1.5"/>
<path d="M20.6215 22.6821C19.5337 22.6821 18.6455 23.57 18.6455 24.6625C18.6455 25.755 19.5337 26.6429 20.6215 26.6429C21.7092 26.6429 22.5974 25.755 22.5975 24.6625L20.6215 22.6821ZM20.6215 22.6821C21.7091 22.6821 22.5974 23.57 22.5975 24.6625L20.6215 22.6821Z" stroke="#6F38AB" stroke-width="1.5"/>
<path d="M26.0757 7.96872L26.0757 7.96883C26.2238 8.15079 26.2811 8.38469 26.2338 8.61491L24.1051 18.964L24.1051 18.964C24.0316 19.3211 23.711 19.5819 23.349 19.5819H8.52368C8.47403 19.5819 8.4149 19.5837 8.36479 19.5851C8.35307 19.5855 8.34185 19.5858 8.33135 19.5861C8.26846 19.5878 8.20698 19.589 8.14423 19.5882C8.01576 19.5865 7.90361 19.5763 7.81127 19.5539C7.71966 19.5316 7.67713 19.5045 7.65947 19.4891L7.65918 19.4889C7.65067 19.4815 7.62625 19.4602 7.60799 19.3822L4.53244 4.75956L4.49445 4.57895C4.52141 4.63518 4.54177 4.69503 4.55462 4.75741C4.55463 4.75745 4.55464 4.75749 4.55465 4.75753L5.03336 7.08517L5.15653 7.68408H5.76798H25.4776C25.7113 7.68408 25.9278 7.78692 26.0757 7.96872ZM4.10551 4.20335C4.16502 4.22924 4.22042 4.26232 4.27072 4.30142L4.09753 4.22612L0.757157 2.77383L0.757092 2.7738C0.754673 2.77275 0.754017 2.77205 0.753744 2.77176L0.753711 2.77173C0.753082 2.77106 0.752 2.76964 0.75111 2.76738C0.750221 2.76512 0.749989 2.76321 0.75 2.76205C0.750006 2.76142 0.750019 2.76014 0.751288 2.75721L0.751372 2.75702C0.752572 2.75425 0.753405 2.75346 0.753685 2.7532L0.753715 2.75317C0.75435 2.75256 0.755608 2.75162 0.757507 2.75087C0.759404 2.75012 0.760841 2.74999 0.761481 2.75C0.761486 2.75 0.761494 2.75 0.761504 2.75C0.761672 2.74999 0.762554 2.74996 0.76501 2.75103L0.765197 2.75111L4.10542 4.20331C4.10545 4.20332 4.10548 4.20333 4.10551 4.20335Z" stroke="#6F38AB" stroke-width="1.5"/>
<circle cx="24.5" cy="7.5" r="7.5" fill="#EFEFEF"/>
<path d="M24.5 0C20.3644 0 17 3.36437 17 7.5C17 11.6356 20.3644 15 24.5 15C28.6356 15 32 11.6356 32 7.5C32 3.36437 28.6356 0 24.5 0ZM28.3013 5.91062L24.2387 9.97312C24.1169 10.095 23.9569 10.1562 23.7969 10.1562C23.6369 10.1562 23.4769 10.095 23.355 9.97312L21.3238 7.94187C21.0794 7.6975 21.0794 7.3025 21.3238 7.05813C21.5681 6.81375 21.9631 6.81375 22.2075 7.05813L23.7969 8.6475L27.4175 5.02688C27.6619 4.7825 28.0569 4.7825 28.3013 5.02688C28.5456 5.27125 28.5456 5.66625 28.3013 5.91062V5.91062Z" fill="#6F38AB"/>
</svg>
