<?xml version="1.0" encoding="UTF-8"?>
<!DOCTYPE svg PUBLIC "-//W3C//DTD SVG 1.1//EN" "http://www.w3.org/Graphics/SVG/1.1/DTD/svg11.dtd">
<!-- Creator: CorelDRAW 2017 -->
<svg xmlns="http://www.w3.org/2000/svg" xml:space="preserve" width="100px" height="141px" version="1.1" style="shape-rendering:geometricPrecision; text-rendering:geometricPrecision; image-rendering:optimizeQuality; fill-rule:evenodd; clip-rule:evenodd"
viewBox="0 0 100 141.43"
 xmlns:xlink="http://www.w3.org/1999/xlink">
 <defs>
  <style type="text/css">
   <![CDATA[
    .fil0 {fill:#FECA08}
   ]]>
  </style>
 </defs>
 <g id="Слой_x0020_1">
  <metadata id="CorelCorpID_0Corel-Layer"/>
  <path class="fil0" d="M44.45 69.26c3.18,0.72 5.31,1.28 8.64,0.99 2.52,-0.22 3.83,-0.67 5.98,-1.43 1.75,-0.86 3.12,-1.48 4.72,-2.6 3.71,-2.61 6.96,-7.12 8.08,-11.59 3.76,-14.89 -6.69,-27 -21.99,-27.09 -7.94,-0.05 -14.43,5.88 -18.16,12.28 -1.62,3.61 -2,6.01 -2,9.94 5,-6.55 5.77,-7.31 13.17,-10.86 0,-2.32 1.29,-4.56 3.71,-5.01 9,-0.91 6.5,13.2 -2.56,7.64 -5.43,3.39 -10.28,11.9 -10.45,18.43 -0.01,0.48 0,0.76 0.03,1.29 0.55,1.03 2.29,2.86 3.3,3.62 4.08,-7.92 11.43,-15.6 20.95,-17.74 0,-2.15 1.56,-4.21 3.7,-4.62 2.27,-0.43 4.45,0.69 5.32,2.84 0.43,1.08 0.44,2.34 -0.07,3.56 -1.23,2.92 -4.83,3.53 -7.26,1.71 -0.27,-0.21 -0.38,-0.37 -0.62,-0.53 -6.2,2.04 -14.49,12.88 -14.49,19.17z"/>
 </g>
</svg>
