<svg xmlns="http://www.w3.org/2000/svg" width="221.72" height="72.707" viewBox="0 0 221.72 72.707">
    <defs>
        <style>
            .cls-1,.cls-5{fill:#fff}.cls-2{fill:#fbad25}.cls-3{fill:#b8332d}.cls-10,.cls-12,.cls-13,.cls-14,.cls-15,.cls-16,.cls-3,.cls-4,.cls-5,.cls-6,.cls-8{fill-rule:evenodd}.cls-4,.cls-9{fill:#4d4d4d}.cls-6{fill:#db4642}.cls-7{fill:#fd9324}.cls-8{fill:#f6c8b3}.cls-10,.cls-11{fill:#f0aaa1}.cls-12{fill:#f9c1b8}.cls-13{fill:#ffb362}.cls-14{fill:#eb953b}.cls-15{fill:#c8e9f4}.cls-16{fill:#b5ddeb}.cls-17{fill:#e14b4b}.cls-18{fill:#cbd6e0}.cls-19{fill:#dae5ef}.cls-20{fill:#d03f3e}
        </style>
    </defs>
    <g id="logo-2020-1" transform="rotate(-31 -83.374 54.426)">
        <path id="Path_235" d="M288.1 288.081h4.5a2.427 2.427 0 0 0 .991 1.983 4.91 4.91 0 0 0 2.656.673 4.189 4.189 0 0 0 2.054-.46 1.422 1.422 0 0 0 .779-1.275c0-.779-.921-1.381-2.8-1.771a28.325 28.325 0 0 1-1.806-.389 10.714 10.714 0 0 1-4.71-2.054 4.015 4.015 0 0 1-1.31-3.187 5.307 5.307 0 0 1 1.912-4.178 8.16 8.16 0 0 1 5.17-1.523 8.859 8.859 0 0 1 5.488 1.523 5.924 5.924 0 0 1 2.054 4.32h-2.833a2.084 2.084 0 0 1-1.912-1.133l-.531-.531a3.671 3.671 0 0 0-2.2-.6 4.074 4.074 0 0 0-1.983.39 1.358 1.358 0 0 0-.6 1.2c0 .708 1.133 1.31 3.435 1.771.248.106.5.142.708.212a3.531 3.531 0 0 0 .566.071 12.2 12.2 0 0 1 4.71 1.983 4.109 4.109 0 0 1 1.275 3.187 5.278 5.278 0 0 1-2.125 4.5 10.158 10.158 0 0 1-5.949 1.452c-2.514 0-4.391-.5-5.63-1.523a5.323 5.323 0 0 1-1.912-4.426z" class="cls-1" data-name="Path 235" transform="rotate(31 470.497 -299.01)"/>
        <path id="Path_236" d="M336.7 294.634v-3.506l9.454-10.481h-6.692a2.162 2.162 0 0 1-1.593-.637 2.113 2.113 0 0 1-.673-1.558V277h14.447v3.789l-9.348 9.986h9.667v3.825l-15.262.035z" class="cls-1" data-name="Path 236" transform="rotate(31 487.472 -355.25)"/>
        <path id="Path_237" d="M391.164 257.787h-4.426v-9.561H377V243.8h12.181a2.017 2.017 0 0 1 2.018 2.018v11.969z" class="cls-2" data-name="Path 237" transform="rotate(31 461.826 -412.901)"/>
        <path id="Path_238" d="M265.1 334.187h-12.182a2.017 2.017 0 0 1-2.018-2.018V320.2h4.426v9.561h9.774z" class="cls-2" data-name="Path 238" transform="rotate(31 510.07 -241.382)"/>
        <path id="Path_239" d="M389.181 334.187H377v-4.426h9.773V320.2h4.391v11.969a1.988 1.988 0 0 1-1.983 2.018z" class="cls-2" data-name="Path 239" transform="rotate(31 550.795 -388.229)"/>
        <path id="Path_240" d="M255.326 257.787H250.9v-11.969a2.017 2.017 0 0 1 2.018-2.018H265.1v4.426h-9.773z" class="cls-2" data-name="Path 240" transform="rotate(31 421.102 -266.056)"/>
        <path id="Path_241" d="M440.4 255.727h4.426a2.365 2.365 0 0 0 .991 1.948 4.7 4.7 0 0 0 2.62.637 4.049 4.049 0 0 0 2.018-.46 1.336 1.336 0 0 0 .779-1.239c0-.779-.921-1.346-2.727-1.735a12.772 12.772 0 0 1-1.771-.39 10.86 10.86 0 0 1-4.636-1.988 3.891 3.891 0 0 1-1.31-3.081 5.1 5.1 0 0 1 1.877-4.037 8.223 8.223 0 0 1 5.1-1.487 8.936 8.936 0 0 1 5.418 1.487 5.527 5.527 0 0 1 2.018 4.178h-2.8a2.036 2.036 0 0 1-1.877-1.1l-.531-.531a3.555 3.555 0 0 0-2.16-.567 3.919 3.919 0 0 0-1.948.39 1.3 1.3 0 0 0-.6 1.169c0 .673 1.133 1.275 3.4 1.735.248.071.5.142.673.177a3.534 3.534 0 0 0 .567.071 12.092 12.092 0 0 1 4.639 1.948 4.08 4.08 0 0 1 1.239 3.081 5.188 5.188 0 0 1-2.089 4.391c-1.31.956-3.258 1.416-5.878 1.416q-3.718 0-5.524-1.487a5.09 5.09 0 0 1-1.877-4.32l-.035-.212z" class="cls-1" data-name="Path 241" transform="rotate(31 482.417 -486.7)"/>
        <path id="Path_242" d="M505.056 261.328h-4.5v-10.942a2.677 2.677 0 0 0-.956-2.266 3.562 3.562 0 0 0-2.125-.708 3.384 3.384 0 0 0-2.089.708 2.712 2.712 0 0 0-.921 2.266v10.942H489.9v-10.057c0-2.9.779-4.887 2.3-5.843a10.057 10.057 0 0 1 5.1-1.593 13.588 13.588 0 0 1 2.939.319 6.246 6.246 0 0 1 2.62 1.275 5.733 5.733 0 0 1 2.3-1.2 11.833 11.833 0 0 1 2.762-.425 9.818 9.818 0 0 1 5.276 1.487c1.593.991 2.408 2.974 2.408 5.984v10.056h-2.266a2.282 2.282 0 0 1-1.593-.6 2.082 2.082 0 0 1-.6-1.593v-8.746a2.677 2.677 0 0 0-.956-2.266 3.541 3.541 0 0 0-4.249 0 2.633 2.633 0 0 0-.956 2.266v10.942z" class="cls-1" data-name="Path 242" transform="rotate(31 498.286 -544.376)"/>
        <path id="Path_243" d="M580.673 260.684a8.378 8.378 0 0 1-2.9.885 26.912 26.912 0 0 1-2.691.177 7.041 7.041 0 0 1-4.108-1.239 4.785 4.785 0 0 1-1.77-4.143 4.452 4.452 0 0 1 1.593-3.86 9.432 9.432 0 0 1 4.072-1.558 3.66 3.66 0 0 0 .779-.106c.319-.071.637-.106 1.027-.177 1.912-.248 2.868-.814 2.868-1.664a1.215 1.215 0 0 0-1.027-1.239 7.535 7.535 0 0 0-1.841-.283 4.634 4.634 0 0 0-1.629.248 1.714 1.714 0 0 0-1.027.956h-4.359a4.945 4.945 0 0 1 1.841-3.293 7.542 7.542 0 0 1 5.028-1.487 9.99 9.99 0 0 1 5.489 1.239 4.062 4.062 0 0 1 1.877 3.612v5.843a7.4 7.4 0 0 1-.956 4.037 6.2 6.2 0 0 1-2.266 2.052zm-1.027-7.9a15.125 15.125 0 0 1-2.549.85l-1.487.319a3.8 3.8 0 0 0-1.7.85 2.49 2.49 0 0 0-.46 1.416 2.136 2.136 0 0 0 .6 1.558 2.445 2.445 0 0 0 1.7.531 4 4 0 0 0 2.868-1.027 3.719 3.719 0 0 0 1.027-2.833z" class="cls-1" data-name="Path 243" transform="rotate(31 524.013 -636.691)"/>
        <path id="Path_244" d="M616.6 262.1v-8.286a10.562 10.562 0 0 1 .744-4.214 6.71 6.71 0 0 1 2.054-2.727 7.942 7.942 0 0 1 2.9-1.416 13.627 13.627 0 0 1 3.435-.46h.637v4.568h-1.487a3.792 3.792 0 0 0-2.8.885 3.89 3.89 0 0 0-.921 2.833v8.817z" class="cls-1" data-name="Path 244" transform="rotate(31 540.601 -691.534)"/>
        <path id="Path_245" d="M658.188 252.931a34.975 34.975 0 0 1-4.674-.071c-1.664-.142-2.514-1.169-2.514-3.151V230.8h2.337a2.039 2.039 0 0 1 1.487.637 2.138 2.138 0 0 1 .637 1.558v2.9h2.656v.885a2.162 2.162 0 0 1-.637 1.593 2.107 2.107 0 0 1-1.558.6h-.46v9.527c0 .744.425 1.1 1.31 1.1h1.381l.036 3.329z" class="cls-1" data-name="Path 245" transform="rotate(31 535.175 -736.18)"/>
        <path id="Path_246" d="M441.5 328.5v-3.4l9.313-10.163h-6.586a2.257 2.257 0 0 1-1.558-.6 2 2 0 0 1-.637-1.523V311.4h14.2v3.683l-9.207 9.7h9.525v3.717z" class="cls-1" data-name="Path 246" transform="rotate(31 561.378 -466.183)"/>
        <path id="Path_247" d="M491.55 326.148a6.279 6.279 0 0 1-1.948-3.116 14.164 14.164 0 0 1-.6-4.072 13.041 13.041 0 0 1 .5-3.47 7.327 7.327 0 0 1 1.523-2.9 6.934 6.934 0 0 1 4.355-2.3 9.785 9.785 0 0 1 4.816.425 6.543 6.543 0 0 1 3.647 3.364 10.547 10.547 0 0 1 1.1 4.957 11.615 11.615 0 0 1-.46 3.541 9.764 9.764 0 0 1-1.169 2.514 6.562 6.562 0 0 1-3.966 2.656 8.914 8.914 0 0 1-4.32.106 8.179 8.179 0 0 1-3.478-1.705zm3.151-11.3a5.883 5.883 0 0 0-1.239 4.391 6.839 6.839 0 0 0 1.1 4.072 2.823 2.823 0 0 0 1.381.885 3.161 3.161 0 0 0 1.983.071 3.29 3.29 0 0 0 1.806-1.452 7.009 7.009 0 0 0 .85-3.718 6.481 6.481 0 0 0-.744-3.47 3.277 3.277 0 0 0-1.735-1.487 3.32 3.32 0 0 0-1.948-.035 2.93 2.93 0 0 0-1.455.747z" class="cls-1" data-name="Path 247" transform="rotate(31 575.28 -521.895)"/>
        <path id="Path_248" d="M555.356 327.793h-2.266a2.281 2.281 0 0 1-1.593-.6 2.055 2.055 0 0 1-.638-1.593v-8.746a2.677 2.677 0 0 0-.956-2.266 3.562 3.562 0 0 0-2.125-.708 3.384 3.384 0 0 0-2.089.708 2.712 2.712 0 0 0-.921 2.266v10.942H540.2v-10.06c0-2.9.779-4.887 2.3-5.843a9.951 9.951 0 0 1 5.1-1.593 9.819 9.819 0 0 1 5.276 1.487c1.594.991 2.408 2.974 2.408 5.984v10.021z" class="cls-1" data-name="Path 248" transform="rotate(31 591.972 -581.475)"/>
        <path id="Path_249" d="M601.564 322.516h3.258a6.979 6.979 0 0 1-2.727 4.108 8.367 8.367 0 0 1-5.1 1.487 7.279 7.279 0 0 1-5.807-2.372 9.642 9.642 0 0 1-2.089-6.622 9.5 9.5 0 0 1 2.018-6.445 7.279 7.279 0 0 1 5.807-2.372 7.872 7.872 0 0 1 6.055 2.3 9.765 9.765 0 0 1 2.089 6.622v.708a1.391 1.391 0 0 1-.071.46h-11.26a4.283 4.283 0 0 0 .991 2.974 3.155 3.155 0 0 0 2.55 1.027 3.433 3.433 0 0 0 1.877-.46.735.735 0 0 0 .354-.212l.354-.354c.035-.142.212-.283.5-.531a2.023 2.023 0 0 1 1.201-.318zm-7.826-5.028h6.662a4.227 4.227 0 0 0-.921-2.585 3.154 3.154 0 0 0-2.408-.885 3.3 3.3 0 0 0-2.337.885 3.975 3.975 0 0 0-.995 2.585z" class="cls-1" data-name="Path 249" transform="rotate(31 607.764 -638.422)"/>
        <path id="Path_300" d="M-6250.124 7057.045l8.255-3.886a4.755 4.755 0 0 1 2.382 5.061l-8.188 3.855c-3.85 1.751-6.403-3.17-2.449-5.03z" class="cls-3" data-name="Path 300" transform="rotate(31 9335.189 15179.813)"/>
        <path id="Path_301" d="M-5411.156 6874.6c1.587-1.31 3.064-1.412 2.505.507.75-.47 2.64-.944 3.2.308 1.11 2.475-1.66 4.2-4.768 4.475-1.817.159-3.712-3.001-.937-5.29z" class="cls-4" data-name="Path 301" transform="rotate(31 9429.944 13598.897)"/>
        <path id="Path_302" d="M-5543.378 6987.714a12.056 12.056 0 0 0-2.354-4.994c-.277-.306.012-.6.241-.717.686-.35 1.427-.659 1.892-.178a8.68 8.68 0 0 1 2.273 4.86c.059.631-.693 1.019-1.346 1.308-.303.134-.649.053-.706-.279z" class="cls-5" data-name="Path 302" transform="rotate(31 9556.118 13889.045)"/>
        <path id="Path_303" d="M-8077.7 8450.774c-.5.286-1.718-.342-2.673.5s-1.553 2.124 1.158 4.582c2.515 2.281 4.251 1.24 5.416-.534s-2.254-5.479-3.901-4.548z" class="cls-4" data-name="Path 303" transform="rotate(31 10917.68 19120.164)"/>
        <path id="Path_304" d="M-7738.66 7655.391l-11.931 10.043 3.939 4.68 11.932-10.043z" class="cls-3" data-name="Path 304" transform="rotate(31 9667.011 18140.46)"/>
        <path id="Path_305" d="M-7849.039 8310.54a13.165 13.165 0 0 1-3.885-4.619c-.178-.416-.6-.263-.822-.089a7.452 7.452 0 0 0-.4.335c-.656.527-1.261 1.116-1.02 1.784a9.1 9.1 0 0 0 3.789 4.479c.6.34 1.34-.232 1.942-.761.121-.1.239-.2.353-.3.27-.239.347-.621.043-.829z" class="cls-5" data-name="Path 305" transform="rotate(31 10771.363 18647.027)"/>
        <path id="Path_306" d="M-6948.172 8779.426c-.059.577 1 1.435.614 2.65s-1.322 2.275-4.662.78c-3.1-1.385-2.846-3.393-1.688-5.174s5.927-.141 5.736 1.744z" class="cls-4" data-name="Path 306" transform="rotate(31 12053.036 17278.562)"/>
        <path id="Path_307" d="M-6847.614 7656.265l-4.4 14.963-5.868-1.725 4.4-14.962z" class="cls-3" data-name="Path 307" transform="rotate(31 10105.592 16553.126)"/>
        <path id="Path_308" d="M-6913.225 8644.54a13.172 13.172 0 0 0 5.794 1.7c.451 0 .482.446.411.718-.044.169-.09.34-.145.5-.218.812-.515 1.6-1.223 1.65a9.091 9.091 0 0 1-5.625-1.669c-.552-.41-.327-1.32-.084-2.085.04-.148.086-.3.131-.442.112-.342.43-.566.741-.372z" class="cls-5" data-name="Path 308" transform="rotate(31 11837.483 17141.532)"/>
        <path id="Path_309" d="M-8251.428 6976.777l-7.58-5.077a4.754 4.754 0 0 0-3.112 4.648l7.52 5.036c3.544 2.307 6.805-2.176 3.172-4.607z" class="cls-3" data-name="Path 309" transform="rotate(31 8199.483 18712.725)"/>
        <path id="Path_310" d="M-8666.759 6742.385c-1.374-1.533-2.818-1.855-2.554.126-.672-.576-2.468-1.328-3.211-.174-1.468 2.281 1.013 4.4 4.046 5.137 1.773.432 4.121-2.409 1.719-5.089z" class="cls-4" data-name="Path 310" transform="rotate(31 7587.077 19329.38)"/>
        <path id="Path_311" d="M-8379.078 6892.092a12.044 12.044 0 0 1 3.078-4.592c.319-.261.077-.595-.131-.745-.626-.447-1.312-.864-1.844-.458a8.688 8.688 0 0 0-2.976 4.466c-.152.615.532 1.111 1.135 1.494.278.183.633.154.738-.165z" class="cls-5" data-name="Path 311" transform="rotate(31 7988.79 18881.825)"/>
        <path id="Path_312" d="M-7666.474 6765.067c7.93 0 14.4-5.583 14.4-12.427s-6.468-12.428-14.4-12.428-14.4 5.583-14.4 12.428 6.474 12.427 14.4 12.427z" class="cls-6" data-name="Path 312" transform="rotate(31 8074.527 17565.353)"/>
        <path id="Path_313" d="M-7577.776 7971.649a27.5 27.5 0 0 1-20.852-.061 12.427 12.427 0 0 1-2.822-3.738c7.47 4.747 19.093 4.747 26.563 0a12.446 12.446 0 0 1-2.889 3.799z" class="cls-4" data-name="Path 313" transform="rotate(31 10295.977 18029.38)"/>
        <path id="Path_314" d="M-6843.657 8147.74h1.42a1.251 1.251 0 0 1 .89.371 1.255 1.255 0 0 1 .371.89v1.784a1.253 1.253 0 0 1-.371.89 1.254 1.254 0 0 1-.89.37h-1.42v-1.082h1.42a.183.183 0 0 0 .128-.051.187.187 0 0 0 .051-.129V8149a.182.182 0 0 0-.051-.127.179.179 0 0 0-.128-.052h-1.42zm-1.422 0h1.422v1.082h-1.422a.182.182 0 0 0-.127.052.181.181 0 0 0-.053.127v1.784a.184.184 0 0 0 .053.129.186.186 0 0 0 .127.051h1.422v1.082h-1.422a1.257 1.257 0 0 1-.89-.37 1.255 1.255 0 0 1-.371-.89V8149a1.257 1.257 0 0 1 .371-.89 1.253 1.253 0 0 1 .89-.37z" class="cls-7" data-name="Path 314" transform="rotate(31 10988.01 16775.752)"/>
        <path id="Path_318" d="M-7632.986 6616.6c3.665-1 7.345.777 8.217 3.972s-1.389 6.6-5.054 7.6-7.345-.776-8.22-3.973 1.391-6.599 5.057-7.599z" class="cls-5" data-name="Path 318" transform="rotate(31 7875.317 17428.48)"/>
        <path id="Path_319" d="M-6892.446 6414.178c-3.666 1-5.929 4.4-5.055 7.6s4.553 4.975 8.218 3.972 5.928-4.4 5.054-7.6-4.552-4.975-8.217-3.972z" class="cls-5" data-name="Path 319" transform="rotate(31 7880.554 16012.275)"/>
        <path id="Path_315" d="M-7984.78 5950.38c-8.786 2.4-14.734 8.64-13.287 13.936s9.743 7.641 18.529 5.238 14.733-8.64 13.286-13.935-9.748-7.641-18.528-5.239z" class="cls-5" data-name="Path 315" transform="rotate(31 6512.336 17739.763)"/>
        <path id="Path_316" d="M-7987.615 6472.722a6.256 6.256 0 0 1 7.837 4.078 6.256 6.256 0 0 1-4.674 7.5 6.258 6.258 0 0 1-7.838-4.078 6.258 6.258 0 0 1 4.675-7.5z" class="cls-5" data-name="Path 316" transform="rotate(31 7444.963 17987.307)"/>
        <path id="Path_317" d="M-7688.4 5878.671c6.2-1.694 12.415 1.288 13.883 6.661s-2.365 11.1-8.564 12.8-12.414-1.288-13.883-6.66 2.364-11.106 8.564-12.801z" class="cls-8" data-name="Path 317" transform="rotate(31 6534.086 17169.57)"/>
        <path id="Path_320" d="M-7844.712 6908.911a6.5 6.5 0 0 1 7.974 4.578 6.5 6.5 0 0 1-4.536 8 6.5 6.5 0 0 1-7.975-4.579 6.5 6.5 0 0 1 4.537-7.999z" class="cls-5" data-name="Path 320" transform="rotate(31 8290.882 17948.139)"/>
        <path id="Path_321" d="M-6521.583 6677.586a6.5 6.5 0 0 0-4.537 8 6.5 6.5 0 0 0 7.975 4.578 6.5 6.5 0 0 0 4.537-8 6.5 6.5 0 0 0-7.975-4.578z" class="cls-5" data-name="Path 321" transform="rotate(31 8531.947 15482.055)"/>
        <path id="Path_322" d="M-7062.1 7133.231a6.5 6.5 0 0 0-4.537 8 6.5 6.5 0 0 0 7.974 4.577 6.5 6.5 0 0 0 4.537-8 6.5 6.5 0 0 0-7.974-4.577z" class="cls-5" data-name="Path 322" transform="rotate(31 9075.455 16667.527)"/>
        <path id="Path_323" d="M-7397.963 6397.729a.247.247 0 0 1-.275.215.248.248 0 0 1-.215-.275 1.215 1.215 0 0 1 .3-.624 3.2 3.2 0 0 1 1.287-.838 3.518 3.518 0 0 1 1.608-.23 1.656 1.656 0 0 1 .875.356.246.246 0 0 1 .031.348.248.248 0 0 1-.349.03 1.173 1.173 0 0 0-.619-.243 3 3 0 0 0-1.373.2 2.69 2.69 0 0 0-1.082.693.741.741 0 0 0-.188.368z" class="cls-9" data-name="Path 323" transform="rotate(31 7601.794 16893.614)"/>
        <path id="Path_324" d="M-7103.047 6364.091a3.169 3.169 0 0 1 3.893 2.222 3.168 3.168 0 0 1-2.221 3.893 3.17 3.17 0 0 1-3.895-2.221 3.17 3.17 0 0 1 2.223-3.894z" class="cls-10" data-name="Path 324" transform="rotate(31 7689.427 16356.87)"/>
        <path id="Path_325" d="M-6852.823 6062.574c-1.657-.028-3.009.584-3.023 1.369s1.441.013 3.1.041 2.887.847 2.9.063-1.321-1.447-2.977-1.473z" class="cls-5" data-name="Path 325" transform="rotate(31 7276.655 15764.7)"/>
        <path id="Path_326" d="M-7475.5 6199.841c1.412-.867 2.888-1.027 3.3-.358s-1.233.743-2.646 1.61-2.056 2.2-2.467 1.528.397-1.913 1.813-2.78z" class="cls-5" data-name="Path 326" transform="rotate(31 7212.869 16936.927)"/>
        <path id="Path_327" d="M-7021.415 6768.5a.247.247 0 0 1-.015-.35.247.247 0 0 1 .349-.015 1.6 1.6 0 0 0 .674.34 4.349 4.349 0 0 0 2.089-.046 3.744 3.744 0 0 0 1.832-.979 1.618 1.618 0 0 0 .386-.669.247.247 0 0 1 .3-.175.248.248 0 0 1 .174.3 2.107 2.107 0 0 1-.5.875 4.246 4.246 0 0 1-2.076 1.123 4.862 4.862 0 0 1-2.339.044 2.112 2.112 0 0 1-.874-.448z" class="cls-11" data-name="Path 327" transform="rotate(31 8446.495 16406.234)"/>
        <path id="Path_328" d="M-8078.694 5008c-3.088-7.236-8.612-12.381-16.249-5.54s-10.17 10.075-1.407 8.362c8.685-1.7 11.798-1.065 17.656-2.822z" class="cls-6" data-name="Path 328" transform="rotate(31 4772.17 17455.498)"/>
        <path id="Path_329" d="M-7569.4 5287.337c-.539-1.586 1.169-6.1 4.531-6.857s-3.505.641-4.531 6.857z" class="cls-3" data-name="Path 329" transform="rotate(31 5534.22 16647.667)"/>
        <path id="Path_330" d="M-8455.949 5403.77a4.739 4.739 0 0 1 5.82 3.32 4.738 4.738 0 0 1-3.32 5.819 4.735 4.735 0 0 1-5.818-3.321 4.736 4.736 0 0 1 3.318-5.818z" class="cls-5" data-name="Path 330" transform="rotate(31 5314.698 18290.439)"/>
        <path id="Path_331" d="M-7880.666 5444.5c6.94-1.9 13.9 1.44 15.545 7.457a9.988 9.988 0 0 1 .229 4.175c-2.935-3.569-8.282-5.206-13.618-3.747s-9.108 5.588-9.819 10.153a9.953 9.953 0 0 1-1.927-3.71c-1.644-6.012 2.648-12.428 9.59-14.328z" class="cls-5" data-name="Path 331" transform="rotate(31 5666.887 17299.166)"/>
        <path id="Path_332" d="M-7041.512 6450.425a.86.86 0 0 1 1.057.6.86.86 0 0 1-.6 1.057.86.86 0 0 1-1.057-.6.861.861 0 0 1 .6-1.057z" class="cls-12" data-name="Path 332" transform="rotate(31 7874.216 16287.061)"/>
        <path id="Path_333" d="M-6751.382 6224.471a.248.248 0 0 1-.046.347.248.248 0 0 1-.346-.045.733.733 0 0 0-.347-.221 2.691 2.691 0 0 0-1.284-.046 3.008 3.008 0 0 0-1.285.523 1.173 1.173 0 0 0-.409.525.247.247 0 0 1-.314.151.248.248 0 0 1-.152-.315 1.663 1.663 0 0 1 .574-.751 3.489 3.489 0 0 1 1.5-.619 3.184 3.184 0 0 1 1.534.066 1.216 1.216 0 0 1 .575.385z" class="cls-9" data-name="Path 333" transform="rotate(31 7612.97 15666.02)"/>
        <path id="Path_334" d="M-4579.964 6194.173a5.4 5.4 0 0 1 2.639-.5c.332.163.123 2.1-.27 2.25a5.278 5.278 0 0 1-2.532-.851c-.323-.306-.183-.633.163-.899z" class="cls-6" data-name="Path 334" transform="rotate(31 8631.432 11784.228)"/>
        <path id="Path_335" d="M-4571.594 6227.31c.08-.371 1.164-.619 1.189-.3s-.966 0-.99.3.643.279.483.57c-.147.26-.762-.199-.682-.57z" class="cls-3" data-name="Path 335" transform="rotate(31 8694.794 11785.13)"/>
        <path id="Path_336" d="M-4834.224 6006.458a5.035 5.035 0 0 0-.918-2.459c-.313-.193-1.912.977-1.844 1.383a5.146 5.146 0 0 0 2.053 1.675c.437.11.652-.174.708-.6z" class="cls-6" data-name="Path 336" transform="rotate(31 8167.754 12147.016)"/>
        <path id="Path_337" d="M-4716.776 6125.609c.285-.258-.055-1.29-.346-1.148s.5.805.249.979-.577-.394-.752-.11c-.158.259.563.537.849.279z" class="cls-3" data-name="Path 337" transform="rotate(31 8440.738 11994.26)"/>
        <path id="Path_338" d="M-4682.557 6188c.432.282.652.372.392.792s-.207.573-1 .168-.848-.588-.536-.92.454-.497 1.144-.04z" class="cls-3" data-name="Path 338" transform="rotate(31 8569.857 11965.423)"/>
        <path id="Path_339" d="M-4673.819 6192.581c.389.249.586.33.368.677s-.167.478-.879.117-.766-.517-.5-.788.39-.404 1.011-.006z" class="cls-6" data-name="Path 339" transform="rotate(31 8582.445 11951.872)"/>
        <path id="Path_340" d="M-5414.52 6087.67l-10.541-5.95-5.689 10.08 10.54 5.95z" class="cls-13" data-name="Path 340" transform="rotate(31 8013.239 13240.834)"/>
        <path id="Path_341" d="M-5083.4 6167.47l-10.54-5.949-.335.593 10.541 5.95z" class="cls-14" data-name="Path 341" transform="rotate(31 8320.972 12682.035)"/>
        <path id="Path_342" d="M-5114.629 6006.986l-12.121-6.842 1.041-1.844 12.121 6.841z" class="cls-13" data-name="Path 342" transform="rotate(31 8014.813 12659.308)"/>
        <path id="Path_343" d="M-5093.812 6216.829l-1.291-.729-6.1 10.8 1.29.729z" class="cls-6" data-name="Path 343" transform="rotate(31 8414.58 12721.261)"/>
        <path id="Path_344" d="M-5171.041 5011.3a5.385 5.385 0 0 1 1.466-2.25c.346-.127 1.6 1.363 1.438 1.751a5.3 5.3 0 0 1-2.367 1.24c-.444.021-.583-.306-.537-.741z" class="cls-6" data-name="Path 344" transform="rotate(31 6234.44 12250.37)"/>
        <path id="Path_345" d="M-5165.06 5122.484c-.213-.313.358-1.268.6-1.067s-.668.7-.471.919.647-.271.746.046c.096.291-.663.418-.875.102z" class="cls-3" data-name="Path 345" transform="rotate(31 6437.078 12295.19)"/>
        <path id="Path_346" d="M-5465.757 5121.778a5.028 5.028 0 0 0-2.411-1.037c-.357.092-.617 2.056-.277 2.287a5.155 5.155 0 0 0 2.63-.323c.382-.24.326-.592.058-.927z" class="cls-6" data-name="Path 346" transform="rotate(31 6286.291 12834.374)"/>
        <path id="Path_347" d="M-5332.965 5179.537c.012-.385-.969-.853-1.069-.545s.926.2.879.5-.683.146-.6.467c.078.291.778-.038.79-.422z" class="cls-3" data-name="Path 347" transform="rotate(31 6456.015 12623.841)"/>
        <path id="Path_348" d="M-5265.736 5170.8c.5-.115.719-.213.843.266s.27.546-.57.838-1.012.206-1.036-.249-.042-.669.763-.855z" class="cls-3" data-name="Path 348" transform="rotate(31 6474.755 12499.758)"/>
        <path id="Path_349" d="M-5260.647 5174.9c.449-.109.644-.195.744.2s.229.45-.524.715-.9.195-.915-.185-.023-.551.695-.73z" class="cls-6" data-name="Path 349" transform="rotate(31 6484.6 12492.605)"/>
        <path id="Path_350" d="M-5592.263 5155.95l-11.587 3.5 3.344 11.081 11.587-3.5z" class="cls-15" data-name="Path 350" transform="rotate(31 6282.22 13092.153)"/>
        <path id="Path_351" d="M-5565.792 5243.67l-11.588 3.5.2.652 11.587-3.5z" class="cls-16" data-name="Path 351" transform="rotate(31 6451.203 13088.343)"/>
        <path id="Path_352" d="M-5668.963 5082.528l-13.326 4.021-.612-2.028 13.326-4.021z" class="cls-15" data-name="Path 352" transform="rotate(31 6109.128 13195.482)"/>
        <path id="Path_353" d="M-5257.271 5208.5l-1.419.428 3.584 11.877 1.418-.428z" class="cls-6" data-name="Path 353" transform="rotate(31 6545.794 12504.492)"/>
        <path id="Path_354" d="M-4717.827 4125.06a5.39 5.39 0 0 1 2.263-1.445c.368.027.9 1.9.588 2.188a5.267 5.267 0 0 1-2.667.152c-.413-.164-.405-.519-.184-.895z" class="cls-6" data-name="Path 354" transform="rotate(31 4883.823 11008.47)"/>
        <path id="Path_355" d="M-4711.764 4201.271c-.064-.374.85-1.007.991-.723s-.9.358-.809.643.7.02.661.349c-.037.302-.779.106-.843-.269z" class="cls-3" data-name="Path 355" transform="rotate(31 5023.516 11035.325)"/>
        <path id="Path_356" d="M-5014.818 4074.01a5.037 5.037 0 0 0-1.768-1.939c-.364-.062-1.411 1.619-1.2 1.97a5.151 5.151 0 0 0 2.529.79c.45-.06.544-.405.439-.821z" class="cls-6" data-name="Path 356" transform="rotate(31 4644.38 11516.057)"/>
        <path id="Path_357" d="M-4871.93 4171.97c.169-.346-.531-1.177-.748-.936s.761.561.6.815-.683-.15-.738.178c-.056.299.716.288.886-.057z" class="cls-3" data-name="Path 357" transform="rotate(31 4891.702 11307.086)"/>
        <path id="Path_358" d="M-4825.889 4212.619c.506.1.743.1.659.59s.021.609-.866.529-1.005-.229-.841-.653.237-.629 1.048-.466z" class="cls-3" data-name="Path 358" transform="rotate(31 4988.193 11246.126)"/>
        <path id="Path_359" d="M-4819.05 4216.667c.454.087.667.088.593.492s.022.5-.773.435-.9-.194-.756-.545.211-.52.936-.382z" class="cls-6" data-name="Path 359" transform="rotate(31 4998.834 11235.754)"/>
        <path id="Path_360" d="M-5294.1 4263.724l-12-1.593-1.524 11.474 12 1.594z" class="cls-13" data-name="Path 360" transform="rotate(31 4839.37 12124.93)"/>
        <path id="Path_361" d="M-5205.413 4354.564l-12-1.593-.09.675 12 1.593z" class="cls-14" data-name="Path 361" transform="rotate(31 5045.279 12009.51)"/>
        <path id="Path_362" d="M-5261.432 4198.782l-13.8-1.832.279-2.1 13.8 1.832z" class="cls-13" data-name="Path 362" transform="rotate(31 4735.737 12034.182)"/>
        <path id="Path_363" d="M-4929.389 4253.375l-1.469-.194-1.633 12.3 1.468.195z" class="cls-6" data-name="Path 363" transform="rotate(31 5008.392 11453.671)"/>
        <path id="Path_364" d="M73.4 83.536a11.761 11.761 0 0 0-6.118-7.457s-1.928-3.057-7.934-1.182c0 0-1.78 1.3-2.077 2.037 0 0-2.632.49-2.632 3.831a5.466 5.466 0 0 0-.371 2.975l-.408 4.524 1.965 1.671.111-.815s1.891-3.139 2-4.116c0 0 .519-.448.519.652l-.519 1.711 14.423-1.228z" class="cls-17" data-name="Path 364" transform="translate(-51.902)"/>
        <path id="Path_370" d="M413.27 350.845a2.559 2.559 0 0 0 .8.949 2.119 2.119 0 0 0 3.094-.768 2.611 2.611 0 0 0-.7-3.4 1.448 1.448 0 0 0-.15-.091 2.667 2.667 0 0 1-.09 2.46 2.119 2.119 0 0 1-2.954.85z" class="cls-18" data-name="Path 370" transform="translate(-412.887 -259.149)"/>
        <path id="Path_371" d="M440.617 346.69a.178.178 0 0 1 .005-.1l.01.006z" class="cls-18" data-name="Path 371" transform="translate(-437.288 -258.253)"/>
        <path id="Path_368" d="M18.473 255.6c0-.636.005.094.011-.173.021.716.008-3.228-.547-3.644-.4-.438-.759-1.767-1.077-1.258-.271-.248-.46.118-.613-.32-.152-.087-.268-.483-.391-.062-.123-.1-.255.285-.439.168-.184.3-.42.117-.754.367 0 .286-.124-.344-.311-.04-.188.263-.439.054-.694-.115-.255-.294-.515-.46-.719-.182-.153.2-.366.247-.6-.042-.234-.239-.49-.154-.726.115-.237.362-.454.389-.612.155-.158.256-.257-.083-.257.078 0 .012-.06.246-.168-.007-.108-.065-.263.133-.453-.012-.19.3-.415-.054-.66 0-.246-.274-.514-.5-.79.029a.61.61 0 0 0-.842.073.933.933 0 0 0-.817.135c-.259-.065-.5.4-.713.21-.213-.228-.394-.428-.533.3 0-.152-.065.21-.182.048-.117.081-.285-.078-.491.135a1.857 1.857 0 0 0-.715.207c-.266-.314-.555.208-.853.267-.3.168-.605.571-.906.313-.3-.323-.6.158-.875.345-.277.584-.535.132-.759.364-.224.121-.415.04-.556.369a4.688 4.688 0 0 1-.142.455c-.039.066-.082.568-.123.532a9.715 9.715 0 0 0 .014 3.6s.033-.154.1.129c.068.051.17-.114.306.273.137.21.309.089.517.245.208.385.453.216.734.045a2.034 2.034 0 0 1 .955-.326c0-.39.021-.121.062-.023.041.2.1-.2.181-.064.08-.5.178.055.294-.1.116-.136.25.006.4-.125.151.409.318-.164.5-.145.183-.294.383-.527.6-.159.214.04.443-.464.686-.163.243-.268.5.271.769-.162.27.12.552-.239.846-.153.294-.124.6.069.917-.136a1.483 1.483 0 0 0 .982-.113c.337-.044.685-.3 1.041-.082a2.477 2.477 0 0 1 1.093-.044 2.236 2.236 0 0 1 1.141 0 4.389 4.389 0 0 1 1.791.011 8.1 8.1 0 0 0 1.351-.056 2.406 2.406 0 0 1 .973-.1c.268.351.484-.152.656-.125.173-.055.3-.372.4-.131.1-.011.165-.31.21-.118.045-.058.068.045.08-.085.012.169.013.4.013-.033 0 .518.132.119.285-.141.152.039.326.311.41-.529z" class="cls-19" data-name="Path 368" transform="translate(5.538 -166.603)"/>
        <path id="Path_369" d="M413.591 341.409a2.981 2.981 0 0 0 .883 3.637 2.129 2.129 0 0 0 3.1-.768 2.616 2.616 0 0 0-.7-3.4 2.28 2.28 0 0 0-3.283.531z" class="cls-19" data-name="Path 369" transform="translate(-413.29 -252.397)"/>
        <path id="Path_365" d="M360.2 96.849a31.846 31.846 0 0 1 1.851-5.986 11.1 11.1 0 0 0-1.406 1.281 30.239 30.239 0 0 0-.445 4.705z" class="cls-20" data-name="Path 365" transform="translate(-354.928 -15.719)"/>
        <path id="Path_366" d="M283.748 119.471a.575.575 0 0 0-.432.181c.142-.064.289-.123.432-.181z" class="cls-20" data-name="Path 366" transform="translate(-273.02 -42.85)"/>
        <path id="Path_367" d="M217.156 131.188c.053-.04.507-.376.511.646.2-.293.369-.626.561-.925a8.877 8.877 0 0 1 2.065-2.069 15.427 15.427 0 0 1 4.654-2.895 5.583 5.583 0 0 0-2.456.621 9.332 9.332 0 0 0-4.191 2.876 5.724 5.724 0 0 1 .934-2.675l1.8-3.257a2.017 2.017 0 0 1 .374-.518 4.981 4.981 0 0 0-1.815 1.169 6.846 6.846 0 0 0-1.295 2.719 75.768 75.768 0 0 0-1.142 4.308z" class="cls-20" data-name="Path 367" transform="translate(-211.114 -46.19)"/>
    </g>
</svg>
