<svg id="Слой_1" data-name="Слой 1" xmlns="http://www.w3.org/2000/svg" viewBox="0 0 221.72 34.33733"><defs><style>.cls-1{fill:#fff;}.cls-2{fill:#f51312;}.cls-3{fill:#dd0a0a;}.cls-4{fill:#d8d3e5;}</style></defs><title>logo-2021</title><path class="cls-1" d="M19.61954,25.21477c0-1.39021-1.24267-1.59723-4.67389-1.68619C11.92814,23.44,5.36079,23.233,5.36079,17.46422v-.38458c0-3.4018,2.18912-6.41927,9.70319-6.41927h1.06485a31.18163,31.18163,0,0,1,7.72109.97619v4.881A36.8682,36.8682,0,0,0,15.271,15.42319c-4.28958,0-4.58527.97618-4.58527,1.65645,0,1.42019,1.30159,1.62722,4.64448,1.71588,2.81043.05918,9.61421.26621,9.61421,6.09407V25.274c0,3.37228-2.1891,6.38982-9.73264,6.38982H14.147a42.95413,42.95413,0,0,1-8.87483-.94651V25.74742A47.54339,47.54339,0,0,0,15.064,26.9307C19.29409,26.9307,19.61954,25.95444,19.61954,25.21477Z"/><path class="cls-1" d="M39.676,27.01947l-5.56146-7.78032V31.0723H28.7896V11.25185h5.32489l6.9222,10.14694,6.92248-10.14694h5.325V31.0723h-5.325V19.23915L42.3977,27.01947Z"/><path class="cls-1" d="M56.38955,31.0723V29.889l8.81568-18.63693h5.32489L79.3458,29.889V31.0723H74.5533l-1.71566-3.84581H62.86851L61.18233,31.0723Zm14.49522-8.283-3.01746-6.77436-3.01745,6.77436Z"/><path class="cls-1" d="M97.71585,31.0723,93.7517,24.85976a39.09331,39.09331,0,0,1-5.97579-.29562V31.0723h-5.3247V11.25186a99.25961,99.25961,0,0,1,10.82723-.59161h.82836c6.62613,0,8.46076,2.9288,8.46076,6.50816v1.18321c0,2.48477-.82863,4.64449-3.37273,5.73881l3.66835,5.79814v1.18319H97.71585ZM87.77573,15.6598v4.2007a37.56551,37.56551,0,0,0,4.6447.26615c4.73329,0,4.82152-.82831,4.82152-2.69179,0-1.06509-.02911-2.04151-3.90457-2.04151C91.97665,15.39359,89.72834,15.48249,87.77573,15.6598Z"/><path class="cls-1" d="M113.21606,31.0723V15.98518h-7.69144V11.25185h20.73669v4.73333h-7.72055V31.0723Z"/><path class="cls-1" d="M140.37258,15.98518H129.101V11.25185h18.37087v4.14149L135.90562,26.33892H147.7675V31.0723H128.80541V26.93079Z"/><path class="cls-1" d="M193.3249,23.97246V11.25185h5.32471V31.0723H193.3249L182.9411,18.35186V31.0723h-5.32471V11.25185h5.32471Z"/><path class="cls-1" d="M221.753,15.98518H208.11564v2.95828h10.67942v4.73338H208.11564v2.66208H221.753V31.0723H202.79094V11.25185H221.753Z"/><path class="cls-2" d="M14.56449,7.947s-1.438-3.22952-2.0474-4.28979S9.34854.2571,8.55635.26933,6.899,1.62207,6.20432,1.6708a8.62337,8.62337,0,0,1-2.2689-.56789,4.809,4.809,0,0,0-.96063.0073,3.29386,3.29386,0,0,0-2.82,2.8633,8.47129,8.47129,0,0,0,.414,4.87176,23.02064,23.02064,0,0,0,1.78848,2.903s-.3747-4.55968,1.78848-5.37522,1.21681,4.165.36281,5.53261S5.58539,13.124,5.58539,13.124l-1.238-.8187,5.35284.44085L16.73375,8.244V7.42954Z"/><path class="cls-1" d="M1.49415,10.52344A1.92208,1.92208,0,0,0,.577,13.23822a1.83113,1.83113,0,0,0,2.32833.33644,2.04278,2.04278,0,0,0,.55891-2.46009C3.054,9.98,1.49415,10.52344,1.49415,10.52344Z"/><path class="cls-3" d="M8.59293.64711C9.38512.63488,11.90774,2.597,12.51709,3.65722S14.56449,7.947,14.56449,7.947l2.16926-.51747v-.3008S14.57609,3.08892,13.1261,1.93965,10.49375,0,8.88154,0,7.00811,1.43461,6.10594,1.43461c-.68976,0-1.4507-.29149-2.17052-.3317a8.62337,8.62337,0,0,0,2.2689.56789C6.899,1.62207,7.80081.65928,8.59293.64711Z"/><path class="cls-1" d="M6.79888,15.16538a23.18368,23.18368,0,0,0,7.89666-1.67127c2.65305-1.02364,3.38425-2.06815,3.5101-2.50682s-.669-.62677-.669-.62677a6.17127,6.17127,0,0,0,.66856-2.0055c-.01526-.4867-.6143-.93727-.94063-1.1479a3.18556,3.18556,0,0,0-2.79879.566c-1.778,1.20974-3.33335,3.74229-5.27941,4.04817s-3.43738-.30707-4.12152-.11491-1.23212.634-.99744,1.13448A9.51555,9.51555,0,0,0,4.82718,14.057a1.58577,1.58577,0,0,0-.10012,1.04314A17.79362,17.79362,0,0,0,6.79888,15.16538Z"/><path class="cls-4" d="M6.70827,16.31879a22.47206,22.47206,0,0,0,3.36539-.454,23.8614,23.8614,0,0,0,2.56675-.59344,16.36812,16.36812,0,0,0,6.11728-3.3785c.55925-.56564.88014-1.33224.28318-1.71394a4.521,4.521,0,0,0-.79592-.4465,1.45476,1.45476,0,0,0,.15078-1.743,2.24721,2.24721,0,0,0-1.1312-.78226c.32633.21063.92537.6612.94063,1.1479a6.17127,6.17127,0,0,1-.66856,2.0055s.79481.188.669.62677-.857,1.48318-3.5101,2.50682a23.18368,23.18368,0,0,1-7.89666,1.67127,17.79362,17.79362,0,0,1-2.07182-.06528c.00439.01327.00191.02661.00695.03979A1.96874,1.96874,0,0,0,6.70827,16.31879Z"/><g id="snowflake"><path class="cls-1" d="M173.65228,26.82584l-2.19418-1.292,2.01166-1.05091a.53573.53573,0,0,0,.22561-.71341.51337.51337,0,0,0-.69933-.23l-2.60954,1.36328-1.22734-.72272,3.91916-2.04732a.52319.52319,0,0,0,.25763-.30893.53614.53614,0,0,0-.032-.40432.51331.51331,0,0,0-.69933-.23011l-4.51705,2.35967-2.49868-1.47133a3.642,3.642,0,0,0,0-2.63116l2.49868-1.47134,4.517,2.35967a.50712.50712,0,0,0,.23655.05843.51652.51652,0,0,0,.46286-.28854.53614.53614,0,0,0,.032-.40432.52322.52322,0,0,0-.25763-.30893l-3.91916-2.04732,1.22734-.72272L172.996,17.9848a.507.507,0,0,0,.23655.05845.51686.51686,0,0,0,.46286-.2884.53574.53574,0,0,0-.22561-.71341l-2.01166-1.05091,2.19418-1.292a.52529.52529,0,0,0,.2421-.32182.53565.53565,0,0,0-.05193-.40209.51953.51953,0,0,0-.45038-.26515.51192.51192,0,0,0-.25941.07119l-2.19414,1.292.11345-2.30239a.53216.53216,0,0,0-.1335-.382.51248.51248,0,0,0-.35881-.1739.52174.52174,0,0,0-.54554.50273l-.14724,2.98662-1.22733.72269.221-4.48546a.53245.53245,0,0,0-.13351-.382.51289.51289,0,0,0-.35919-.17389.52291.52291,0,0,0-.54516.50273l-.25481,5.16967L165.068,18.52943a3.50605,3.50605,0,0,0-2.2331-1.31737V14.27039l4.26223-2.80994a.5271.5271,0,0,0,.226-.33377.53559.53559,0,0,0-.07166-.39906.51591.51591,0,0,0-.43688-.24237.51028.51028,0,0,0-.28158.085l-3.69812,2.438V11.56293l2.46237-1.62325a.537.537,0,0,0,.15434-.73283.51592.51592,0,0,0-.43688-.24237.51065.51065,0,0,0-.28159.085l-1.89824,1.25134V7.717a.51973.51973,0,1,0-1.03925,0v2.58388L159.89742,9.0495a.51278.51278,0,0,0-.71847.15735.537.537,0,0,0,.15434.73283l2.46238,1.62325v1.44533l-3.69813-2.438a.51272.51272,0,0,0-.71845.15733.53555.53555,0,0,0-.07167.39906.52714.52714,0,0,0,.226.33377l4.26224,2.80994v2.94167a3.506,3.506,0,0,0-2.2331,1.31737l-2.49989-1.47205-.25482-5.16967a.52434.52434,0,0,0-.545-.50273.513.513,0,0,0-.35934.17389.53248.53248,0,0,0-.1335.382l.221,4.48546-1.22733-.72269-.14724-2.98662a.52177.52177,0,0,0-.51441-.50368l-.03067.00095a.51259.51259,0,0,0-.35927.1739.53213.53213,0,0,0-.13351.382l.11346,2.30239-2.19414-1.292a.51215.51215,0,0,0-.25942-.07119.51975.51975,0,0,0-.45038.26515.53565.53565,0,0,0-.05192.40209.52527.52527,0,0,0,.24209.32182l2.19418,1.292-2.01164,1.05091a.53582.53582,0,0,0-.22563.71341.51688.51688,0,0,0,.46287.2884.50649.50649,0,0,0,.23647-.05845l2.60953-1.36328,1.22734.72272-3.91916,2.04732a.52326.52326,0,0,0-.25763.30893.53618.53618,0,0,0,.032.40432.51653.51653,0,0,0,.46287.28854.50659.50659,0,0,0,.23647-.05843l4.517-2.35967,2.49868,1.47134a3.64189,3.64189,0,0,0,0,2.63116L156.543,23.54908l-4.517-2.35967a.50507.50507,0,0,0-.23663-.05843.5165.5165,0,0,0-.46279.28854.53618.53618,0,0,0-.032.40432.52323.52323,0,0,0,.25763.30893l3.91916,2.04732-1.22734.72272-2.60945-1.36328a.50688.50688,0,0,0-.23663-.05844.51676.51676,0,0,0-.46279.28839.53574.53574,0,0,0,.22563.71341l2.01164,1.05091-2.19418,1.292a.52524.52524,0,0,0-.24209.32182.53565.53565,0,0,0,.05192.40209.5196.5196,0,0,0,.45045.26514.51125.51125,0,0,0,.25935-.07119l2.19414-1.292-.11346,2.3024a.53216.53216,0,0,0,.13351.382.51254.51254,0,0,0,.359.17389l.02678.00064a.52368.52368,0,0,0,.51854-.50337l.14724-2.98661,1.22733-.7227-.221,4.48546a.53247.53247,0,0,0,.1335.382.51288.51288,0,0,0,.35912.1739l.0267.00064a.52368.52368,0,0,0,.51853-.50337l.25482-5.16968,2.49989-1.472a3.506,3.506,0,0,0,2.2331,1.31736V27.254l-4.26224,2.80994a.537.537,0,0,0-.15434.73282.5131.5131,0,0,0,.71845.15733l3.69813-2.438V29.9614l-2.46238,1.62326a.52711.52711,0,0,0-.226.33376.53562.53562,0,0,0,.07165.39906.51316.51316,0,0,0,.71847.15735l1.89825-1.25133v2.58387a.51973.51973,0,1,0,1.03925,0V31.2235l1.89824,1.25133a.51049.51049,0,0,0,.28159.08487.51592.51592,0,0,0,.43688-.24222.53568.53568,0,0,0,.07166-.39906.52709.52709,0,0,0-.226-.33376l-2.46237-1.62326V28.51607l3.69812,2.438a.51032.51032,0,0,0,.28158.08489.51591.51591,0,0,0,.43688-.24222.537.537,0,0,0-.15435-.73282L162.83492,27.254V24.31227a3.506,3.506,0,0,0,2.2331-1.31736l2.49989,1.472.25481,5.16968a.52369.52369,0,0,0,.51854.50337l.02647-.00064a.51291.51291,0,0,0,.35934-.1739.53243.53243,0,0,0,.13351-.382l-.221-4.48546,1.22733.7227.14724,2.98661a.52367.52367,0,0,0,.51853.50337l.02654-.00064a.51266.51266,0,0,0,.35928-.17389.53219.53219,0,0,0,.1335-.382l-.11345-2.3024,2.19414,1.292a.51181.51181,0,0,0,.25934.07119.51957.51957,0,0,0,.45045-.26514.53566.53566,0,0,0,.05193-.40209A.52526.52526,0,0,0,173.65228,26.82584Zm-8.85675-6.06367a2.48072,2.48072,0,1,1-2.48024-2.52958A2.5081,2.5081,0,0,1,164.79553,20.76217Z"/><ellipse class="cls-1" cx="162.31529" cy="20.76217" rx="1.5399" ry="1.57062"/></g></svg>