<svg width="238" height="24" viewBox="0 0 238 24" fill="none" xmlns="http://www.w3.org/2000/svg">
<path d="M15.7736 16.0014C15.7736 14.473 14.4074 14.2454 10.6351 14.1476C7.31764 14.0502 0.0974709 13.8226 0.0974709 7.48042V7.05761C0.0974709 3.31765 2.5042 0.000244141 10.7652 0.000244141H11.9359C14.8956 0.000244141 17.7575 0.390386 20.4245 1.07347V6.4396C17.2699 5.69171 14.1801 5.2365 10.9928 5.2365C6.27682 5.2365 5.95174 6.30972 5.95174 7.05761C5.95174 8.61898 7.38271 8.84658 11.0579 8.94405C14.1477 9.00912 21.6278 9.23673 21.6278 15.6439V16.0665C21.6278 19.774 19.2211 23.0915 10.9277 23.0915H9.75703C6.34215 23.0915 3.08981 22.7013 0 22.0509V16.587C3.51235 17.3676 7.44778 17.8879 10.7652 17.8879C15.4158 17.8879 15.7736 16.8146 15.7736 16.0014Z" fill="white"/>
<path d="M37.8237 17.9853L31.7094 9.43166V22.441H25.8551V0.650391H31.7094L39.3197 11.806L46.9303 0.650391H52.7845V22.441H46.9303V9.43166L40.816 17.9853H37.8237Z" fill="white"/>
<path d="M56.1987 22.441V21.1402L65.8907 0.650635H71.745L81.4369 21.1402V22.441H76.168L74.2818 18.2129H63.3217L61.4679 22.441H56.1987ZM72.1348 13.3347L68.8174 5.88689L65.5 13.3347H72.1348Z" fill="white"/>
<path d="M101.633 22.4411L97.2748 15.611C94.9656 15.611 92.7865 15.611 90.7051 15.286V22.4411H84.8511V0.650418C88.5586 0.227872 92.8191 0 96.7546 0H97.6652C104.95 0 106.967 3.21994 106.967 7.1551V8.45593C106.967 11.1877 106.056 13.5621 103.259 14.7652L107.292 21.1397V22.4405H101.633V22.4411ZM90.7048 5.49653V10.1148C92.7214 10.3748 94.7053 10.4074 95.8112 10.4074C101.015 10.4074 101.112 9.49676 101.112 7.44804C101.112 6.27708 101.08 5.20359 96.8194 5.20359C95.3233 5.20386 92.8515 5.30159 90.7048 5.49653Z" fill="white"/>
<path d="M118.674 22.441V5.85424H110.218V0.650391H133.016V5.85424H124.528V22.441H118.674Z" fill="white"/>
<path d="M148.53 5.85424H136.138V0.650391H156.335V5.20356L143.619 17.2372H156.66V22.441H135.813V17.8879L148.53 5.85424Z" fill="white"/>
<path d="M159.88 10.7004C159.88 4.81343 162.514 0.000244141 171.979 0.000244141H173.149C182.614 0.000244141 185.248 4.81343 185.248 10.7004V12.3916C185.248 18.2783 182.614 23.0915 173.149 23.0915H171.979C162.514 23.0915 159.88 18.2783 159.88 12.3916V10.7004ZM172.564 17.8879C179.394 17.8879 179.394 14.8634 179.394 11.546C179.394 8.26097 179.394 5.2365 172.564 5.2365C165.734 5.2365 165.734 8.26097 165.734 11.546C165.734 14.8634 165.734 17.8879 172.564 17.8879Z" fill="white"/>
<path d="M206.746 14.6355V0.650391H212.6V22.441H206.746L195.33 8.45617V22.441H189.476V0.650391H195.33L206.746 14.6355Z" fill="white"/>
<path d="M238 5.85424H223.007V9.10659H234.748V14.3104H223.007V17.2372H238V22.441H217.153V0.650391H238V5.85424Z" fill="white"/>
</svg>
