<svg width="35" height="22" viewBox="0 0 35 22" fill="none" xmlns="http://www.w3.org/2000/svg">
<g opacity="0.8">
<path d="M33.5594 16.5132C33.5594 16.3332 33.6988 16.1892 33.8729 16.1892C34.0645 16.1892 34.2039 16.3332 34.2039 16.5132C34.2039 16.7111 34.0645 16.8551 33.8729 16.8551C33.7075 16.8551 33.5594 16.7111 33.5594 16.5132ZM33.8817 16.7831C34.021 16.7831 34.1429 16.6572 34.1429 16.5132C34.1429 16.3692 34.021 16.2612 33.8817 16.2612C33.7597 16.2612 33.6378 16.3692 33.6378 16.5132C33.6378 16.6572 33.7597 16.7831 33.8817 16.7831ZM33.8468 16.6751H33.7772V16.3692H33.8991C33.9165 16.3692 33.9513 16.3692 33.9687 16.3872C34.0036 16.4052 34.0036 16.4232 34.0036 16.4592C34.0036 16.4952 33.9862 16.5312 33.9513 16.5312L34.021 16.6751H33.9339L33.8991 16.5492H33.8468V16.6751V16.4952H33.9165C33.9339 16.4952 33.9339 16.4772 33.9339 16.4592C33.9339 16.4412 33.9339 16.4412 33.9165 16.4232H33.8468V16.6751Z" fill="#E9B040"/>
<path fill-rule="evenodd" clip-rule="evenodd" d="M21.04 8.40924C21.1065 8.77002 21.1715 9.12328 21.2048 9.48477C21.2095 9.5349 21.2139 9.5852 21.218 9.63571C21.0315 10.1033 20.9292 10.6524 20.9292 11.2576C20.9292 11.6724 20.9905 12.0416 21.1063 12.3571C21.0776 12.5309 21.0456 12.7025 21.0135 12.8684C21.0093 12.8865 21.0052 12.9047 21.001 12.9228C20.9181 13.2834 20.8338 13.6505 20.7179 13.9932H15.0753C15.2057 14.3712 15.3622 14.7401 15.5187 15.1001H20.3006C20.1267 15.487 19.9267 15.865 19.7007 16.225H16.1013C16.3447 16.6209 16.5968 16.9899 16.875 17.3498H18.9356C18.6226 17.7458 18.2835 18.1147 17.9184 18.4567C16.11 20.1665 13.719 21.2014 11.0847 21.2014C5.47687 21.2014 0.903687 16.4589 0.903687 10.6186C0.903687 4.76034 5.47687 0.0089086 11.0673 0.0269064C13.7016 0.0269064 16.0926 1.07978 17.901 2.77158C17.5271 3.11353 17.188 3.49149 16.8664 3.89644H18.9269C19.2138 4.2474 19.4659 4.61635 19.7007 5.00331H16.1013C15.8839 5.36326 15.6926 5.74122 15.5187 6.12817H20.3006C20.4658 6.49713 20.6049 6.86608 20.7266 7.25304H15.084C14.9797 7.61299 14.8754 7.98195 14.8058 8.3599H21.0309C21.0339 8.37637 21.037 8.39281 21.04 8.40924ZM20.9813 9.07987H21.0857L21.1204 9.08887C20.9379 9.43983 20.7987 9.81778 20.6944 10.3487H20.6249C20.1032 10.3487 19.9902 10.8077 19.5902 13.4803H18.4861L19.1729 9.11587H20.1728L20.0684 9.79078C20.3988 9.25985 20.6162 9.07987 20.9813 9.07987ZM13.9303 13.5703C14.1737 13.5703 14.4259 13.5343 14.7215 13.4263L14.8606 12.4545C14.791 12.4905 14.6867 12.4905 14.565 12.4905C14.3041 12.4905 14.1998 12.4005 14.1998 12.1845C14.1998 12.1305 14.1998 12.0765 14.2172 12.0045L14.5128 10.1867H15.0779L15.217 9.11587H14.6519L14.7736 8.45895H13.6868L13.2087 11.4466L13.1565 11.7885L13.0869 12.2295C13.0695 12.3555 13.0522 12.4995 13.0522 12.6074C13.0522 13.2464 13.3652 13.5703 13.9303 13.5703ZM11.3133 11.7076C10.7308 11.4196 10.4874 11.0416 10.4874 10.4927C10.47 9.6918 10.9047 9.02588 12.1393 9.01688C12.3827 9.01688 12.8261 9.05287 13.1043 9.10687L12.9478 10.1057C12.6696 10.0698 12.3653 10.0518 12.1567 10.0518C11.8002 10.0518 11.6089 10.1597 11.6089 10.3937C11.6089 10.6007 11.6611 10.6547 12.1393 10.8707C12.687 11.1406 12.9131 11.4826 12.9131 12.0855C12.9131 13.0844 12.3653 13.5433 11.209 13.5433C11.0699 13.5433 10.8525 13.5433 10.6091 13.5073C10.47 13.5073 10.383 13.4893 10.3135 13.4713L10.1222 13.4353L10.07 13.4173L10.2265 12.4185C10.5743 12.5265 10.8786 12.5804 11.209 12.5804C11.6524 12.5804 11.8437 12.4545 11.8437 12.1845C11.8437 11.9955 11.7741 11.9235 11.3133 11.7076ZM16.9559 13.5703C17.3558 13.5703 17.7123 13.5163 18.0948 13.3904L18.2687 12.3015C17.8862 12.4995 17.5297 12.5714 17.1298 12.5714C16.4951 12.5714 16.1647 12.3195 16.1647 11.8065C16.1647 11.7705 16.1647 11.7346 16.1821 11.6806H18.3644C18.4687 11.2306 18.5035 10.9156 18.5035 10.5917C18.5035 9.6288 17.9209 9.00788 17.008 9.00788C15.9039 9.00788 15.0953 10.1147 15.0953 11.6086C15.0953 12.8954 15.7213 13.5703 16.9559 13.5703ZM16.9472 10.0068C17.2863 10.0068 17.4775 10.2137 17.4775 10.5737V10.7897H16.243C16.3473 10.2767 16.5994 10.0068 16.9472 10.0068ZM5.20124 13.4803H6.28802L7.14006 8.11699H5.4186L4.36659 11.4466L4.31443 8.11699H2.73207L1.87134 13.4803H2.89726L3.56672 9.38583L3.65366 13.4803H4.41006L5.83592 9.34984L5.20124 13.4803ZM8.87605 11.527C8.9145 11.5317 8.95479 11.5366 9.00933 11.5366C8.99194 12.1845 8.67895 12.6254 8.21815 12.6344C7.97471 12.6344 7.8356 12.4635 7.8356 12.1935C7.8356 11.7525 8.1486 11.5186 8.76589 11.5186C8.80738 11.5186 8.84095 11.5227 8.87605 11.527ZM8.905 13.4803H9.81789L9.84398 13.3724L9.86137 13.2104L9.87875 12.9944L9.91353 12.7244L10.157 11.1766C10.2265 10.6817 10.2439 10.5197 10.2439 10.3037C10.2439 9.46682 9.73095 9.02588 8.78328 9.02588C8.37465 9.02588 8.00949 9.07987 7.46175 9.24185L7.31395 10.2317L7.41828 10.2137L7.57477 10.1597C7.81821 10.0877 8.17468 10.0518 8.48767 10.0518C9.00063 10.0518 9.19191 10.1597 9.19191 10.4477C9.19191 10.5197 9.19191 10.5737 9.15713 10.7177C9.1291 10.7149 9.10168 10.7121 9.07491 10.7094C8.92732 10.6946 8.79937 10.6817 8.69633 10.6817C7.47044 10.6817 6.76621 11.3026 6.76621 12.3735C6.76621 13.0754 7.16614 13.5523 7.76605 13.5523C8.27032 13.5523 8.64417 13.3814 8.92239 13.0214L8.905 13.4803Z" fill="#E3CCEC"/>
<path d="M33.5594 13.0756C33.5594 12.8776 33.6988 12.7336 33.8729 12.7336C34.0645 12.7336 34.2039 12.8776 34.2039 13.0756C34.2039 13.2556 34.0645 13.4176 33.8729 13.4176C33.7075 13.4176 33.5594 13.2556 33.5594 13.0756ZM33.8817 13.3276C34.021 13.3276 34.1429 13.2196 34.1429 13.0756C34.1429 12.9316 34.021 12.8236 33.8817 12.8236C33.7597 12.8236 33.6378 12.9316 33.6378 13.0756C33.6378 13.2196 33.7597 13.3276 33.8817 13.3276ZM33.8468 13.2196H33.7772V12.9226H33.9687C34.0036 12.9406 34.0036 12.9766 34.0036 13.0126C34.0036 13.0306 33.9862 13.0666 33.9513 13.0846L34.021 13.2106H33.9339L33.8991 13.1026H33.8468V13.2196V13.0576H33.8817C33.8991 13.0576 33.9165 13.0576 33.9165 13.0396C33.9339 13.0396 33.9339 13.0216 33.9339 13.0036C33.9339 13.0036 33.9339 12.9856 33.9165 12.9856C33.9165 12.9676 33.8991 12.9856 33.8817 12.9856H33.8468V13.2196Z" fill="white"/>
<path fill-rule="evenodd" clip-rule="evenodd" d="M24.7347 21.2014C22.1177 21.2014 19.7094 20.1666 17.9184 18.4568C16.3755 17.0148 15.2616 15.0785 14.7993 12.8857L14.8752 12.3556C14.8313 12.3783 14.7737 12.3867 14.7066 12.3898C14.6118 11.8082 14.5624 11.2105 14.5624 10.6007C14.5624 10.4288 14.5663 10.2578 14.5742 10.0879H15.0925L15.2316 9.01699H14.6762C15.0341 6.54929 16.2148 4.35172 17.9184 2.74467C19.7094 1.03488 22.1177 0 24.7347 0C30.3599 0 34.9156 4.75143 34.9156 10.6097C34.9156 16.45 30.3599 21.2014 24.7347 21.2014ZM24.4562 9.34095L24.6475 8.18009C24.551 8.1468 24.514 8.1289 24.4059 8.07657C24.3971 8.07232 24.3878 8.06784 24.378 8.0631L23.9346 7.95512C23.7868 7.91912 23.6129 7.90112 23.4216 7.90112C21.961 7.90112 20.9438 9.25096 20.9438 11.1587C20.9438 12.5986 21.6828 13.4895 22.8739 13.4895C23.1695 13.4895 23.4303 13.4355 23.839 13.3275L24.0302 12.1126C23.6825 12.2926 23.3608 12.3826 23.0999 12.3826C22.4479 12.3826 22.0653 11.8876 22.0653 11.0687C22.0653 9.88988 22.6478 9.05298 23.4738 9.05298C23.7868 9.05298 24.0737 9.14297 24.4562 9.34095ZM20.9959 8.98099H21.1003L21.135 8.98999C20.9525 9.34095 20.8133 9.7189 20.709 10.2498H20.6395C20.1178 10.2498 20.0048 10.7088 19.6048 13.3815H18.5007L19.1875 9.01699H20.1874L20.083 9.69191C20.4134 9.16097 20.6308 8.98099 20.9959 8.98099ZM32.0376 13.3815H33.0723L33.9069 8.01811H32.8201L32.5767 9.54792C32.2811 9.14297 31.9681 8.945 31.5247 8.945C30.5596 8.945 29.7337 10.1778 29.7337 11.6357C29.7337 12.7245 30.264 13.4355 31.0726 13.4355C31.4725 13.4355 31.7942 13.2825 32.0898 12.9585L32.0376 13.3815ZM32.3159 10.8888C32.3159 11.7437 31.9681 12.3646 31.4551 12.3646C31.0639 12.3646 30.8726 12.0676 30.8726 11.4917C30.8726 10.6368 31.2378 10.0339 31.7333 10.0339C32.1246 10.0339 32.3159 10.3218 32.3159 10.8888ZM16.9705 13.4715C17.3704 13.4715 17.7269 13.4175 18.1094 13.2915L18.2833 12.2026C17.9008 12.4006 17.5443 12.4726 17.1444 12.4726C16.5097 12.4726 16.1793 12.2206 16.1793 11.7077C16.1793 11.6717 16.1793 11.6357 16.1967 11.5817H18.379C18.4833 11.1317 18.5181 10.8168 18.5181 10.4928C18.5181 9.52993 17.9355 8.909 17.0226 8.909C15.9185 8.909 15.1099 10.0159 15.1099 11.5097C15.1099 12.7965 15.7359 13.4715 16.9705 13.4715ZM16.9618 9.90788C17.3009 9.90788 17.4921 10.1149 17.4921 10.4748V10.6908H16.2576C16.3619 10.1778 16.614 9.90788 16.9618 9.90788ZM26.2735 11.4268C26.3138 11.4319 26.3605 11.4377 26.4298 11.4377C26.4125 12.0856 26.0734 12.5266 25.6474 12.5356C25.3952 12.5356 25.2387 12.3646 25.2387 12.0946C25.2387 11.6537 25.5517 11.4197 26.1864 11.4197C26.2163 11.4197 26.2431 11.423 26.2735 11.4268ZM26.3255 13.3815H27.2384L27.2558 13.2825L27.2732 13.1205L27.308 12.9045L27.3427 12.6346L27.5688 11.0867C27.6557 10.5918 27.6557 10.4298 27.6557 10.2138C27.6557 9.37694 27.1602 8.936 26.2125 8.936C25.8039 8.936 25.4387 8.98999 24.891 9.15197L24.7345 10.1329L24.8388 10.1149L24.9779 10.0609C25.2213 9.98887 25.5952 9.95288 25.9082 9.95288C26.4211 9.95288 26.6124 10.0609 26.6124 10.3488C26.6124 10.4076 26.6008 10.4544 26.5776 10.5479C26.5724 10.569 26.5666 10.5924 26.5603 10.6188C26.5499 10.6177 26.5396 10.6165 26.5293 10.6154C26.3756 10.5986 26.2309 10.5828 26.1168 10.5828C24.891 10.5828 24.1867 11.2037 24.1867 12.2746C24.1867 12.9765 24.5867 13.4535 25.1866 13.4535C25.6908 13.4535 26.0647 13.2825 26.3429 12.9225L26.3255 13.3815ZM30.0814 8.98099H30.1858L30.2205 8.98999C30.038 9.34095 29.8989 9.7189 29.7945 10.2498H29.725C29.2033 10.2498 29.099 10.7088 28.6903 13.3815H27.6036L28.273 9.01699H29.2729L29.1685 9.69191C29.4989 9.16097 29.7163 8.98099 30.0814 8.98099Z" fill="#D3C6D8"/>
</g>
</svg>
