<svg width="85" height="10" viewBox="0 0 85 10" fill="none" xmlns="http://www.w3.org/2000/svg">
<path d="M3.972 9.072C3.324 9.072 2.744 8.9 2.232 8.556C1.728 8.212 1.332 7.72 1.044 7.08C0.764 6.432 0.624 5.672 0.624 4.8C0.624 3.928 0.764 3.172 1.044 2.532C1.332 1.884 1.728 1.388 2.232 1.044C2.744 0.7 3.324 0.528 3.972 0.528C4.62 0.528 5.196 0.7 5.7 1.044C6.212 1.388 6.612 1.884 6.9 2.532C7.188 3.172 7.332 3.928 7.332 4.8C7.332 5.672 7.188 6.432 6.9 7.08C6.612 7.72 6.212 8.212 5.7 8.556C5.196 8.9 4.62 9.072 3.972 9.072ZM3.972 8.28C4.46 8.28 4.888 8.144 5.256 7.872C5.632 7.6 5.924 7.204 6.132 6.684C6.34 6.164 6.444 5.536 6.444 4.8C6.444 4.064 6.34 3.436 6.132 2.916C5.924 2.396 5.632 2 5.256 1.728C4.888 1.456 4.46 1.32 3.972 1.32C3.484 1.32 3.052 1.456 2.676 1.728C2.308 2 2.02 2.396 1.812 2.916C1.604 3.436 1.5 4.064 1.5 4.8C1.5 5.536 1.604 6.164 1.812 6.684C2.02 7.204 2.308 7.6 2.676 7.872C3.052 8.144 3.484 8.28 3.972 8.28ZM15.7093 6.792H14.0293V9H13.1653V6.792H8.42531V6.168L12.8773 0.599999H13.8373L9.54131 6.024H13.1893V4.08H14.0293V6.024H15.7093V6.792ZM23.6429 6.792H21.9629V9H21.0989V6.792H16.3589V6.168L20.8109 0.599999H21.7709L17.4749 6.024H21.1229V4.08H21.9629V6.024H23.6429V6.792ZM34.7171 6.792H33.0371V9H32.1731V6.792H27.4331V6.168L31.8851 0.599999H32.8451L28.5491 6.024H32.1971V4.08H33.0371V6.024H34.7171V6.792ZM38.033 0.528C39.145 0.528 39.997 0.896 40.589 1.632C41.181 2.36 41.477 3.392 41.477 4.728C41.477 5.664 41.317 6.456 40.997 7.104C40.677 7.752 40.229 8.244 39.653 8.58C39.077 8.908 38.405 9.072 37.637 9.072C36.805 9.072 36.141 8.92 35.645 8.616L35.993 7.92C36.393 8.184 36.937 8.316 37.625 8.316C38.553 8.316 39.281 8.024 39.809 7.44C40.337 6.848 40.601 5.992 40.601 4.872C40.601 4.664 40.589 4.436 40.565 4.188C40.357 4.644 40.025 5 39.569 5.256C39.113 5.504 38.589 5.628 37.997 5.628C37.445 5.628 36.953 5.524 36.521 5.316C36.097 5.108 35.765 4.816 35.525 4.44C35.285 4.056 35.165 3.612 35.165 3.108C35.165 2.596 35.289 2.144 35.537 1.752C35.785 1.36 36.125 1.06 36.557 0.852C36.997 0.636 37.489 0.528 38.033 0.528ZM38.129 4.896C38.553 4.896 38.925 4.816 39.245 4.656C39.573 4.496 39.829 4.276 40.013 3.996C40.197 3.716 40.289 3.404 40.289 3.06C40.289 2.74 40.201 2.444 40.025 2.172C39.857 1.9 39.605 1.68 39.269 1.512C38.933 1.344 38.533 1.26 38.069 1.26C37.461 1.26 36.965 1.428 36.581 1.764C36.205 2.092 36.017 2.532 36.017 3.084C36.017 3.636 36.205 4.076 36.581 4.404C36.965 4.732 37.481 4.896 38.129 4.896ZM45.3455 0.528C46.4575 0.528 47.3095 0.896 47.9015 1.632C48.4935 2.36 48.7895 3.392 48.7895 4.728C48.7895 5.664 48.6295 6.456 48.3095 7.104C47.9895 7.752 47.5415 8.244 46.9655 8.58C46.3895 8.908 45.7175 9.072 44.9495 9.072C44.1175 9.072 43.4535 8.92 42.9575 8.616L43.3055 7.92C43.7055 8.184 44.2495 8.316 44.9375 8.316C45.8655 8.316 46.5935 8.024 47.1215 7.44C47.6495 6.848 47.9135 5.992 47.9135 4.872C47.9135 4.664 47.9015 4.436 47.8775 4.188C47.6695 4.644 47.3375 5 46.8815 5.256C46.4255 5.504 45.9015 5.628 45.3095 5.628C44.7575 5.628 44.2655 5.524 43.8335 5.316C43.4095 5.108 43.0775 4.816 42.8375 4.44C42.5975 4.056 42.4775 3.612 42.4775 3.108C42.4775 2.596 42.6015 2.144 42.8495 1.752C43.0975 1.36 43.4375 1.06 43.8695 0.852C44.3095 0.636 44.8015 0.528 45.3455 0.528ZM45.4415 4.896C45.8655 4.896 46.2375 4.816 46.5575 4.656C46.8855 4.496 47.1415 4.276 47.3255 3.996C47.5095 3.716 47.6015 3.404 47.6015 3.06C47.6015 2.74 47.5135 2.444 47.3375 2.172C47.1695 1.9 46.9175 1.68 46.5815 1.512C46.2455 1.344 45.8455 1.26 45.3815 1.26C44.7735 1.26 44.2775 1.428 43.8935 1.764C43.5175 2.092 43.3295 2.532 43.3295 3.084C43.3295 3.636 43.5175 4.076 43.8935 4.404C44.2775 4.732 44.7935 4.896 45.4415 4.896ZM59.1106 0.599999V1.212L55.5946 9H54.6586L58.1146 1.368H53.7946V2.94H52.9426V0.599999H59.1106ZM63.4946 3.972C64.0466 3.972 64.5346 4.076 64.9586 4.284C65.3906 4.492 65.7266 4.788 65.9666 5.172C66.2066 5.548 66.3266 5.988 66.3266 6.492C66.3266 7.004 66.2026 7.456 65.9546 7.848C65.7066 8.24 65.3626 8.544 64.9226 8.76C64.4906 8.968 64.0026 9.072 63.4586 9.072C62.3466 9.072 61.4946 8.708 60.9026 7.98C60.3106 7.244 60.0146 6.208 60.0146 4.872C60.0146 3.936 60.1746 3.144 60.4946 2.496C60.8146 1.848 61.2626 1.36 61.8386 1.032C62.4146 0.696 63.0866 0.528 63.8546 0.528C64.6866 0.528 65.3506 0.68 65.8466 0.983999L65.4986 1.68C65.0986 1.416 64.5546 1.284 63.8666 1.284C62.9386 1.284 62.2106 1.58 61.6826 2.172C61.1546 2.756 60.8906 3.608 60.8906 4.728C60.8906 4.928 60.9026 5.156 60.9266 5.412C61.1346 4.956 61.4666 4.604 61.9226 4.356C62.3786 4.1 62.9026 3.972 63.4946 3.972ZM63.4226 8.34C64.0306 8.34 64.5226 8.176 64.8986 7.848C65.2826 7.512 65.4746 7.068 65.4746 6.516C65.4746 5.964 65.2826 5.524 64.8986 5.196C64.5226 4.868 64.0106 4.704 63.3626 4.704C62.9386 4.704 62.5626 4.784 62.2346 4.944C61.9146 5.104 61.6626 5.324 61.4786 5.604C61.2946 5.884 61.2026 6.196 61.2026 6.54C61.2026 6.86 61.2866 7.156 61.4546 7.428C61.6306 7.7 61.8866 7.92 62.2226 8.088C62.5586 8.256 62.9586 8.34 63.4226 8.34ZM73.9478 3.972C74.4998 3.972 74.9878 4.076 75.4118 4.284C75.8438 4.492 76.1798 4.788 76.4198 5.172C76.6598 5.548 76.7798 5.988 76.7798 6.492C76.7798 7.004 76.6558 7.456 76.4078 7.848C76.1598 8.24 75.8158 8.544 75.3758 8.76C74.9438 8.968 74.4558 9.072 73.9118 9.072C72.7998 9.072 71.9478 8.708 71.3558 7.98C70.7638 7.244 70.4678 6.208 70.4678 4.872C70.4678 3.936 70.6278 3.144 70.9478 2.496C71.2678 1.848 71.7158 1.36 72.2918 1.032C72.8678 0.696 73.5398 0.528 74.3078 0.528C75.1398 0.528 75.8038 0.68 76.2998 0.983999L75.9518 1.68C75.5518 1.416 75.0078 1.284 74.3198 1.284C73.3918 1.284 72.6638 1.58 72.1358 2.172C71.6078 2.756 71.3438 3.608 71.3438 4.728C71.3438 4.928 71.3558 5.156 71.3798 5.412C71.5878 4.956 71.9198 4.604 72.3758 4.356C72.8318 4.1 73.3558 3.972 73.9478 3.972ZM73.8758 8.34C74.4838 8.34 74.9758 8.176 75.3518 7.848C75.7358 7.512 75.9278 7.068 75.9278 6.516C75.9278 5.964 75.7358 5.524 75.3518 5.196C74.9758 4.868 74.4638 4.704 73.8158 4.704C73.3918 4.704 73.0158 4.784 72.6878 4.944C72.3678 5.104 72.1158 5.324 71.9318 5.604C71.7478 5.884 71.6558 6.196 71.6558 6.54C71.6558 6.86 71.7398 7.156 71.9078 7.428C72.0838 7.7 72.3398 7.92 72.6758 8.088C73.0118 8.256 73.4118 8.34 73.8758 8.34ZM82.5923 4.596C83.1203 4.772 83.5243 5.036 83.8043 5.388C84.0923 5.74 84.2363 6.164 84.2363 6.66C84.2363 7.148 84.1043 7.576 83.8403 7.944C83.5763 8.304 83.1963 8.584 82.7003 8.784C82.2123 8.976 81.6363 9.072 80.9723 9.072C79.9643 9.072 79.1723 8.856 78.5963 8.424C78.0203 7.992 77.7323 7.404 77.7323 6.66C77.7323 6.156 77.8683 5.732 78.1403 5.388C78.4203 5.036 78.8243 4.772 79.3523 4.596C78.9203 4.428 78.5923 4.188 78.3683 3.876C78.1443 3.556 78.0323 3.18 78.0323 2.748C78.0323 2.068 78.2963 1.528 78.8243 1.128C79.3603 0.728 80.0763 0.528 80.9723 0.528C81.5643 0.528 82.0803 0.62 82.5203 0.804C82.9683 0.98 83.3163 1.236 83.5643 1.572C83.8123 1.908 83.9362 2.3 83.9362 2.748C83.9362 3.18 83.8203 3.556 83.5883 3.876C83.3563 4.188 83.0243 4.428 82.5923 4.596ZM78.8963 2.772C78.8963 3.236 79.0803 3.604 79.4483 3.876C79.8163 4.148 80.3243 4.284 80.9723 4.284C81.6203 4.284 82.1283 4.148 82.4963 3.876C82.8723 3.604 83.0603 3.24 83.0603 2.784C83.0603 2.312 82.8683 1.94 82.4843 1.668C82.1083 1.396 81.6043 1.26 80.9723 1.26C80.3323 1.26 79.8243 1.396 79.4483 1.668C79.0803 1.94 78.8963 2.308 78.8963 2.772ZM80.9723 8.34C81.7163 8.34 82.2963 8.188 82.7123 7.884C83.1363 7.58 83.3483 7.168 83.3483 6.648C83.3483 6.128 83.1363 5.72 82.7123 5.424C82.2963 5.12 81.7163 4.968 80.9723 4.968C80.2363 4.968 79.6563 5.12 79.2323 5.424C78.8163 5.72 78.6083 6.128 78.6083 6.648C78.6083 7.176 78.8163 7.592 79.2323 7.896C79.6483 8.192 80.2283 8.34 80.9723 8.34Z" fill="#C9BFD2"/>
</svg>
