<svg xmlns="http://www.w3.org/2000/svg" id="phone-volume_icon-icons.com_56474" width="23.724" height="25.387" viewBox="0 0 23.724 25.387">
    <defs>
        <style>
            .cls-1{fill:#fbad25}.cls-2{fill:#fff}
        </style>
    </defs>
    <path id="Path_184" d="M10.689 12.693H9.163a3.114 3.114 0 0 1 3.05-3.173v1.587a1.559 1.559 0 0 0-1.524 1.586zm-6.1 0a7.784 7.784 0 0 1 7.625-7.933v1.587a6.235 6.235 0 0 0-6.1 6.347zM12.214 0v1.587A10.911 10.911 0 0 0 1.537 12.693H.012A12.455 12.455 0 0 1 12.214 0z" class="cls-1" data-name="Path 184" transform="translate(-.012)"/>
    <path id="Path_219" d="M3.158 24.036l1.618 1.683a2.942 2.942 0 0 0 1.16.488 18.734 18.734 0 0 0 13.674-5.816A20.3 20.3 0 0 0 25.2 6.12a3.211 3.211 0 0 0-.474-1.156L23.109 3.28a2.636 2.636 0 0 0-2.526-.62l-.341.119a3.269 3.269 0 0 0-1.848 2.031l-.815 3.11a3.125 3.125 0 0 0 .669 2.659l1.081 1.121a11.712 11.712 0 0 1-8.071 8.4l-1.081-1.125a2.847 2.847 0 0 0-2.559-.7l-2.989.849a3.248 3.248 0 0 0-1.953 1.921l-.113.355a2.906 2.906 0 0 0 .595 2.636z" class="cls-2" data-name="Path 219" transform="translate(-1.478 -.821)"/>
</svg>
