<svg width="80" height="10" viewBox="0 0 80 10" fill="none" xmlns="http://www.w3.org/2000/svg">
<path d="M3.972 9.072C3.324 9.072 2.744 8.9 2.232 8.556C1.728 8.212 1.332 7.72 1.044 7.08C0.764 6.432 0.624 5.672 0.624 4.8C0.624 3.928 0.764 3.172 1.044 2.532C1.332 1.884 1.728 1.388 2.232 1.044C2.744 0.7 3.324 0.528 3.972 0.528C4.62 0.528 5.196 0.7 5.7 1.044C6.212 1.388 6.612 1.884 6.9 2.532C7.188 3.172 7.332 3.928 7.332 4.8C7.332 5.672 7.188 6.432 6.9 7.08C6.612 7.72 6.212 8.212 5.7 8.556C5.196 8.9 4.62 9.072 3.972 9.072ZM3.972 8.28C4.46 8.28 4.888 8.144 5.256 7.872C5.632 7.6 5.924 7.204 6.132 6.684C6.34 6.164 6.444 5.536 6.444 4.8C6.444 4.064 6.34 3.436 6.132 2.916C5.924 2.396 5.632 2 5.256 1.728C4.888 1.456 4.46 1.32 3.972 1.32C3.484 1.32 3.052 1.456 2.676 1.728C2.308 2 2.02 2.396 1.812 2.916C1.604 3.436 1.5 4.064 1.5 4.8C1.5 5.536 1.604 6.164 1.812 6.684C2.02 7.204 2.308 7.6 2.676 7.872C3.052 8.144 3.484 8.28 3.972 8.28ZM11.1853 0.528C12.2973 0.528 13.1493 0.896 13.7413 1.632C14.3333 2.36 14.6293 3.392 14.6293 4.728C14.6293 5.664 14.4693 6.456 14.1493 7.104C13.8293 7.752 13.3813 8.244 12.8053 8.58C12.2293 8.908 11.5573 9.072 10.7893 9.072C9.95731 9.072 9.29331 8.92 8.79731 8.616L9.14531 7.92C9.54531 8.184 10.0893 8.316 10.7773 8.316C11.7053 8.316 12.4333 8.024 12.9613 7.44C13.4893 6.848 13.7533 5.992 13.7533 4.872C13.7533 4.664 13.7413 4.436 13.7173 4.188C13.5093 4.644 13.1773 5 12.7213 5.256C12.2653 5.504 11.7413 5.628 11.1493 5.628C10.5973 5.628 10.1053 5.524 9.67331 5.316C9.24931 5.108 8.91731 4.816 8.67731 4.44C8.43731 4.056 8.31731 3.612 8.31731 3.108C8.31731 2.596 8.44131 2.144 8.68931 1.752C8.93731 1.36 9.27731 1.06 9.70931 0.852C10.1493 0.636 10.6413 0.528 11.1853 0.528ZM11.2813 4.896C11.7053 4.896 12.0773 4.816 12.3973 4.656C12.7253 4.496 12.9813 4.276 13.1653 3.996C13.3493 3.716 13.4413 3.404 13.4413 3.06C13.4413 2.74 13.3533 2.444 13.1773 2.172C13.0093 1.9 12.7573 1.68 12.4213 1.512C12.0853 1.344 11.6853 1.26 11.2213 1.26C10.6133 1.26 10.1173 1.428 9.73331 1.764C9.35731 2.092 9.16931 2.532 9.16931 3.084C9.16931 3.636 9.35731 4.076 9.73331 4.404C10.1173 4.732 10.6333 4.896 11.2813 4.896ZM18.6206 4.2C19.5006 4.248 20.1686 4.488 20.6246 4.92C21.0886 5.344 21.3206 5.9 21.3206 6.588C21.3206 7.068 21.2046 7.496 20.9726 7.872C20.7406 8.24 20.3966 8.532 19.9406 8.748C19.4846 8.964 18.9286 9.072 18.2726 9.072C17.6646 9.072 17.0886 8.976 16.5446 8.784C16.0086 8.584 15.5766 8.32 15.2486 7.992L15.6686 7.308C15.9486 7.596 16.3206 7.832 16.7846 8.016C17.2486 8.192 17.7446 8.28 18.2726 8.28C18.9606 8.28 19.4926 8.132 19.8686 7.836C20.2446 7.532 20.4326 7.116 20.4326 6.588C20.4326 6.068 20.2446 5.66 19.8686 5.364C19.4926 5.068 18.9246 4.92 18.1646 4.92H17.5646V4.284L19.8926 1.368H15.5966V0.599999H20.9966V1.212L18.6206 4.2ZM29.0267 9.072C28.3787 9.072 27.7987 8.9 27.2867 8.556C26.7827 8.212 26.3867 7.72 26.0987 7.08C25.8187 6.432 25.6787 5.672 25.6787 4.8C25.6787 3.928 25.8187 3.172 26.0987 2.532C26.3867 1.884 26.7827 1.388 27.2867 1.044C27.7987 0.7 28.3787 0.528 29.0267 0.528C29.6747 0.528 30.2507 0.7 30.7547 1.044C31.2667 1.388 31.6667 1.884 31.9547 2.532C32.2427 3.172 32.3867 3.928 32.3867 4.8C32.3867 5.672 32.2427 6.432 31.9547 7.08C31.6667 7.72 31.2667 8.212 30.7547 8.556C30.2507 8.9 29.6747 9.072 29.0267 9.072ZM29.0267 8.28C29.5147 8.28 29.9427 8.144 30.3107 7.872C30.6867 7.6 30.9787 7.204 31.1867 6.684C31.3947 6.164 31.4987 5.536 31.4987 4.8C31.4987 4.064 31.3947 3.436 31.1867 2.916C30.9787 2.396 30.6867 2 30.3107 1.728C29.9427 1.456 29.5147 1.32 29.0267 1.32C28.5387 1.32 28.1067 1.456 27.7307 1.728C27.3627 2 27.0747 2.396 26.8667 2.916C26.6587 3.436 26.5547 4.064 26.5547 4.8C26.5547 5.536 26.6587 6.164 26.8667 6.684C27.0747 7.204 27.3627 7.6 27.7307 7.872C28.1067 8.144 28.5387 8.28 29.0267 8.28ZM39.3366 8.232V9H33.4446V8.388L36.9366 4.968C37.3766 4.536 37.6726 4.164 37.8246 3.852C37.9846 3.532 38.0646 3.212 38.0646 2.892C38.0646 2.396 37.8926 2.012 37.5486 1.74C37.2126 1.46 36.7286 1.32 36.0966 1.32C35.1126 1.32 34.3486 1.632 33.8046 2.256L33.1926 1.728C33.5206 1.344 33.9366 1.048 34.4406 0.84C34.9526 0.632 35.5286 0.528 36.1686 0.528C37.0246 0.528 37.7006 0.732 38.1966 1.14C38.7006 1.54 38.9526 2.092 38.9526 2.796C38.9526 3.228 38.8566 3.644 38.6646 4.044C38.4726 4.444 38.1086 4.904 37.5726 5.424L34.7166 8.232H39.3366ZM46.9095 9.072C46.2615 9.072 45.6815 8.9 45.1695 8.556C44.6655 8.212 44.2695 7.72 43.9815 7.08C43.7015 6.432 43.5615 5.672 43.5615 4.8C43.5615 3.928 43.7015 3.172 43.9815 2.532C44.2695 1.884 44.6655 1.388 45.1695 1.044C45.6815 0.7 46.2615 0.528 46.9095 0.528C47.5575 0.528 48.1335 0.7 48.6375 1.044C49.1495 1.388 49.5495 1.884 49.8375 2.532C50.1255 3.172 50.2695 3.928 50.2695 4.8C50.2695 5.672 50.1255 6.432 49.8375 7.08C49.5495 7.72 49.1495 8.212 48.6375 8.556C48.1335 8.9 47.5575 9.072 46.9095 9.072ZM46.9095 8.28C47.3975 8.28 47.8255 8.144 48.1935 7.872C48.5695 7.6 48.8615 7.204 49.0695 6.684C49.2775 6.164 49.3815 5.536 49.3815 4.8C49.3815 4.064 49.2775 3.436 49.0695 2.916C48.8615 2.396 48.5695 2 48.1935 1.728C47.8255 1.456 47.3975 1.32 46.9095 1.32C46.4215 1.32 45.9895 1.456 45.6135 1.728C45.2455 2 44.9575 2.396 44.7495 2.916C44.5415 3.436 44.4375 4.064 44.4375 4.8C44.4375 5.536 44.5415 6.164 44.7495 6.684C44.9575 7.204 45.2455 7.6 45.6135 7.872C45.9895 8.144 46.4215 8.28 46.9095 8.28ZM58.6468 6.792H56.9668V9H56.1028V6.792H51.3628V6.168L55.8148 0.599999H56.7748L52.4788 6.024H56.1268V4.08H56.9668V6.024H58.6468V6.792ZM65.929 9.072C65.281 9.072 64.701 8.9 64.189 8.556C63.685 8.212 63.289 7.72 63.001 7.08C62.721 6.432 62.581 5.672 62.581 4.8C62.581 3.928 62.721 3.172 63.001 2.532C63.289 1.884 63.685 1.388 64.189 1.044C64.701 0.7 65.281 0.528 65.929 0.528C66.577 0.528 67.153 0.7 67.657 1.044C68.169 1.388 68.569 1.884 68.857 2.532C69.145 3.172 69.289 3.928 69.289 4.8C69.289 5.672 69.145 6.432 68.857 7.08C68.569 7.72 68.169 8.212 67.657 8.556C67.153 8.9 66.577 9.072 65.929 9.072ZM65.929 8.28C66.417 8.28 66.845 8.144 67.213 7.872C67.589 7.6 67.881 7.204 68.089 6.684C68.297 6.164 68.401 5.536 68.401 4.8C68.401 4.064 68.297 3.436 68.089 2.916C67.881 2.396 67.589 2 67.213 1.728C66.845 1.456 66.417 1.32 65.929 1.32C65.441 1.32 65.009 1.456 64.633 1.728C64.265 2 63.977 2.396 63.769 2.916C63.561 3.436 63.457 4.064 63.457 4.8C63.457 5.536 63.561 6.164 63.769 6.684C63.977 7.204 64.265 7.6 64.633 7.872C65.009 8.144 65.441 8.28 65.929 8.28ZM76.2389 8.232V9H70.3469V8.388L73.8389 4.968C74.2789 4.536 74.5749 4.164 74.7269 3.852C74.8869 3.532 74.9669 3.212 74.9669 2.892C74.9669 2.396 74.7949 2.012 74.4509 1.74C74.1149 1.46 73.6309 1.32 72.9989 1.32C72.0149 1.32 71.2509 1.632 70.7069 2.256L70.0949 1.728C70.4229 1.344 70.8389 1.048 71.3429 0.84C71.8549 0.632 72.4309 0.528 73.0709 0.528C73.9269 0.528 74.6029 0.732 75.0989 1.14C75.6029 1.54 75.8549 2.092 75.8549 2.796C75.8549 3.228 75.7589 3.644 75.5669 4.044C75.3749 4.444 75.0109 4.904 74.4749 5.424L71.6189 8.232H76.2389ZM79.6512 0.599999V9H78.7872V1.368H76.8072V0.599999H79.6512Z" fill="#C9BFD2"/>
</svg>
