<svg width="24" height="24" viewBox="0 0 24 24" fill="none" xmlns="http://www.w3.org/2000/svg">
<path d="M21.7361 7.62447L20.7418 0.663939C20.6601 0.0932814 19.9587 -0.14386 19.5485 0.266391L18.1003 1.71455C16.2381 0.591189 14.1239 0 11.95 0C5.41239 0 0.163629 5.11689 0.000222413 11.649C-0.00868388 12.006 0.250864 12.3123 0.603788 12.3631L3.41353 12.7647C3.83241 12.8259 4.22208 12.497 4.21627 12.0589C4.15801 7.7478 7.63999 4.21876 11.95 4.21876C12.9937 4.21876 14.025 4.43092 14.9781 4.83671L13.5822 6.23265C13.1745 6.64033 13.4059 7.34388 13.9797 7.42605L20.9403 8.42032C21.3989 8.48946 21.8019 8.0906 21.7361 7.62447Z" fill="#E0E0E0"/>
<path d="M23.3964 11.6911L20.5887 11.2901C20.226 11.2442 19.7861 11.555 19.7861 12.0468C19.7861 16.3116 16.3164 19.7812 12.0516 19.7812C11.0135 19.7812 9.98689 19.5711 9.03729 19.1694L10.3886 17.8181C10.7963 17.4104 10.5649 16.7069 9.99106 16.6247L3.03051 15.6297C2.57334 15.5644 2.16848 15.9565 2.23467 16.4256L3.22889 23.3862C3.31073 23.9574 4.01152 24.193 4.42229 23.7837L5.90546 22.3012C7.75872 23.4143 9.87153 24 12.0516 24C18.5576 24 23.8057 18.9085 24 12.4087C24.0103 12.051 23.7508 11.742 23.3964 11.6911Z" fill="#E0E0E0"/>
</svg>
