<?xml version="1.0" encoding="utf-8"?>
<!-- Generator: Adobe Illustrator 16.0.0, SVG Export Plug-In . SVG Version: 6.00 Build 0)  -->
<!DOCTYPE svg PUBLIC "-//W3C//DTD SVG 1.1//EN" "http://www.w3.org/Graphics/SVG/1.1/DTD/svg11.dtd">
<svg version="1.1" id="Слой_1" xmlns="http://www.w3.org/2000/svg" xlink:href="data:image/png" x="0px" y="0px"
	 width="400px" height="400px" viewBox="0 0 400 400" enable-background="new 0 0 400 400" xml:space="preserve">
<path fill="#FFFFFF" stroke="#CCCCCC" stroke-width="30" stroke-miterlimit="10" d="M369,351.4c0,8.945-4.654,18.6-13.6,18.6H47.6
	c-8.947,0-18.6-9.654-18.6-18.6V43.6C29,34.653,38.653,30,47.6,30h307.8c8.945,0,13.6,4.653,13.6,13.6V351.4z"/>
<g>
	<path fill="#CCCCCC" d="M131.042,318.987c-12.804,12.825-33.581,12.825-46.364,0l-13.542-13.521
		c-12.825-12.805-12.825-33.582,0-46.386L256.697,73.53c12.805-12.814,33.582-12.814,46.386,0l13.521,13.531
		c12.825,12.814,12.825,33.571,0,46.385L131.042,318.987z"/>
	<path fill="#CCCCCC" d="M316.604,259.081c12.825,12.804,12.825,33.581,0,46.386l-13.521,13.521
		c-12.804,12.825-33.581,12.825-46.386,0L71.136,133.447c-12.825-12.814-12.825-33.571,0-46.385L84.678,73.53
		c12.783-12.814,33.56-12.814,46.364,0L316.604,259.081z"/>
</g>
</svg>
