<svg xmlns="http://www.w3.org/2000/svg" width="115" viewBox="0 0 148.863 46">
    <defs>
        <style>
            .cls-1{fill:#fff}.cls-2{fill:#fbad25}
        </style>
    </defs>
    <g id="SZ_Logo" transform="translate(-250.9 -230.8)">
        <g id="Group_694" data-name="Group 694" transform="translate(250.9 235.403)">
            <g id="Group_692" data-name="Group 692" transform="translate(13.172 11.367)">
                <g id="Group_691" data-name="Group 691">
                    <path id="Path_235" d="M288.1 288.081h4.5a2.427 2.427 0 0 0 .991 1.983 4.91 4.91 0 0 0 2.656.673 4.189 4.189 0 0 0 2.054-.46 1.422 1.422 0 0 0 .779-1.275c0-.779-.921-1.381-2.8-1.771a28.325 28.325 0 0 1-1.806-.389 10.714 10.714 0 0 1-4.71-2.054 4.015 4.015 0 0 1-1.31-3.187 5.307 5.307 0 0 1 1.912-4.178 8.16 8.16 0 0 1 5.17-1.523 8.859 8.859 0 0 1 5.488 1.523 5.924 5.924 0 0 1 2.054 4.32h-2.833a2.084 2.084 0 0 1-1.912-1.133l-.531-.531a3.671 3.671 0 0 0-2.2-.6 4.074 4.074 0 0 0-1.983.39 1.358 1.358 0 0 0-.6 1.2c0 .708 1.133 1.31 3.435 1.771.248.106.5.142.708.212a3.531 3.531 0 0 0 .566.071 12.2 12.2 0 0 1 4.71 1.983 4.109 4.109 0 0 1 1.275 3.187 5.278 5.278 0 0 1-2.125 4.5 10.158 10.158 0 0 1-5.949 1.452c-2.514 0-4.391-.5-5.63-1.523a5.323 5.323 0 0 1-1.912-4.426z" class="cls-1" data-name="Path 235" transform="translate(-288.1 -275.9)"/>
                    <path id="Path_236" d="M336.7 294.634v-3.506l9.454-10.481h-6.692a2.162 2.162 0 0 1-1.593-.637 2.113 2.113 0 0 1-.673-1.558V277h14.447v3.789l-9.348 9.986h9.667v3.825l-15.262.035z" class="cls-1" data-name="Path 236" transform="translate(-319.491 -276.611)"/>
                </g>
            </g>
            <g id="Group_693" data-name="Group 693">
                <path id="Path_237" d="M391.164 257.787h-4.426v-9.561H377V243.8h12.181a2.017 2.017 0 0 1 2.018 2.018v11.969z" class="cls-2" data-name="Path 237" transform="translate(-332.348 -243.8)"/>
                <path id="Path_238" d="M265.1 334.187h-12.182a2.017 2.017 0 0 1-2.018-2.018V320.2h4.426v9.561h9.774z" class="cls-2" data-name="Path 238" transform="translate(-250.9 -293.147)"/>
                <path id="Path_239" d="M389.181 334.187H377v-4.426h9.773V320.2h4.391v11.969a1.988 1.988 0 0 1-1.983 2.018z" class="cls-2" data-name="Path 239" transform="translate(-332.348 -293.147)"/>
                <path id="Path_240" d="M255.326 257.787H250.9v-11.969a2.017 2.017 0 0 1 2.018-2.018H265.1v4.426h-9.773z" class="cls-2" data-name="Path 240" transform="translate(-250.9 -243.8)"/>
            </g>
        </g>
        <g id="Group_695" data-name="Group 695" transform="translate(318.002 230.8)">
            <path id="Path_241" d="M440.4 255.727h4.426a2.365 2.365 0 0 0 .991 1.948 4.7 4.7 0 0 0 2.62.637 4.049 4.049 0 0 0 2.018-.46 1.336 1.336 0 0 0 .779-1.239c0-.779-.921-1.346-2.727-1.735a12.772 12.772 0 0 1-1.771-.39 10.86 10.86 0 0 1-4.636-1.988 3.891 3.891 0 0 1-1.31-3.081 5.1 5.1 0 0 1 1.877-4.037 8.223 8.223 0 0 1 5.1-1.487 8.936 8.936 0 0 1 5.418 1.487 5.527 5.527 0 0 1 2.018 4.178h-2.8a2.036 2.036 0 0 1-1.877-1.1l-.531-.531a3.555 3.555 0 0 0-2.16-.567 3.919 3.919 0 0 0-1.948.39 1.3 1.3 0 0 0-.6 1.169c0 .673 1.133 1.275 3.4 1.735.248.071.5.142.673.177a3.534 3.534 0 0 0 .567.071 12.092 12.092 0 0 1 4.639 1.948 4.08 4.08 0 0 1 1.239 3.081 5.188 5.188 0 0 1-2.089 4.391c-1.31.956-3.258 1.416-5.878 1.416q-3.718 0-5.524-1.487a5.09 5.09 0 0 1-1.877-4.32l-.035-.212z" class="cls-1" data-name="Path 241" transform="translate(-440.4 -239.261)"/>
            <path id="Path_242" d="M505.056 261.328h-4.5v-10.942a2.677 2.677 0 0 0-.956-2.266 3.562 3.562 0 0 0-2.125-.708 3.384 3.384 0 0 0-2.089.708 2.712 2.712 0 0 0-.921 2.266v10.942H489.9v-10.057c0-2.9.779-4.887 2.3-5.843a10.057 10.057 0 0 1 5.1-1.593 13.588 13.588 0 0 1 2.939.319 6.246 6.246 0 0 1 2.62 1.275 5.733 5.733 0 0 1 2.3-1.2 11.833 11.833 0 0 1 2.762-.425 9.818 9.818 0 0 1 5.276 1.487c1.593.991 2.408 2.974 2.408 5.984v10.056h-2.266a2.282 2.282 0 0 1-1.593-.6 2.082 2.082 0 0 1-.6-1.593v-8.746a2.677 2.677 0 0 0-.956-2.266 3.541 3.541 0 0 0-4.249 0 2.633 2.633 0 0 0-.956 2.266v10.942z" class="cls-1" data-name="Path 242" transform="translate(-472.372 -239.197)"/>
            <path id="Path_243" d="M580.673 260.684a8.378 8.378 0 0 1-2.9.885 26.912 26.912 0 0 1-2.691.177 7.041 7.041 0 0 1-4.108-1.239 4.785 4.785 0 0 1-1.77-4.143 4.452 4.452 0 0 1 1.593-3.86 9.432 9.432 0 0 1 4.072-1.558 3.66 3.66 0 0 0 .779-.106c.319-.071.637-.106 1.027-.177 1.912-.248 2.868-.814 2.868-1.664a1.215 1.215 0 0 0-1.027-1.239 7.535 7.535 0 0 0-1.841-.283 4.634 4.634 0 0 0-1.629.248 1.714 1.714 0 0 0-1.027.956h-4.359a4.945 4.945 0 0 1 1.841-3.293 7.542 7.542 0 0 1 5.028-1.487 9.99 9.99 0 0 1 5.489 1.239 4.062 4.062 0 0 1 1.877 3.612v5.843a7.4 7.4 0 0 1-.956 4.037 6.2 6.2 0 0 1-2.266 2.052zm-1.027-7.9a15.125 15.125 0 0 1-2.549.85l-1.487.319a3.8 3.8 0 0 0-1.7.85 2.49 2.49 0 0 0-.46 1.416 2.136 2.136 0 0 0 .6 1.558 2.445 2.445 0 0 0 1.7.531 4 4 0 0 0 2.868-1.027 3.719 3.719 0 0 0 1.027-2.833z" class="cls-1" data-name="Path 243" transform="translate(-523.592 -239.261)"/>
            <path id="Path_244" d="M616.6 262.1v-8.286a10.562 10.562 0 0 1 .744-4.214 6.71 6.71 0 0 1 2.054-2.727 7.942 7.942 0 0 1 2.9-1.416 13.627 13.627 0 0 1 3.435-.46h.637v4.568h-1.487a3.792 3.792 0 0 0-2.8.885 3.89 3.89 0 0 0-.921 2.833v8.817z" class="cls-1" data-name="Path 244" transform="translate(-554.208 -239.972)"/>
            <path id="Path_245" d="M658.188 252.931a34.975 34.975 0 0 1-4.674-.071c-1.664-.142-2.514-1.169-2.514-3.151V230.8h2.337a2.039 2.039 0 0 1 1.487.637 2.138 2.138 0 0 1 .637 1.558v2.9h2.656v.885a2.162 2.162 0 0 1-.637 1.593 2.107 2.107 0 0 1-1.558.6h-.46v9.527c0 .744.425 1.1 1.31 1.1h1.381l.036 3.329z" class="cls-1" data-name="Path 245" transform="translate(-576.427 -230.8)"/>
            <path id="Path_246" d="M441.5 328.5v-3.4l9.313-10.163h-6.586a2.257 2.257 0 0 1-1.558-.6 2 2 0 0 1-.637-1.523V311.4h14.2v3.683l-9.207 9.7h9.525v3.717z" class="cls-1" data-name="Path 246" transform="translate(-441.111 -282.86)"/>
            <path id="Path_247" d="M491.55 326.148a6.279 6.279 0 0 1-1.948-3.116 14.164 14.164 0 0 1-.6-4.072 13.041 13.041 0 0 1 .5-3.47 7.327 7.327 0 0 1 1.523-2.9 6.934 6.934 0 0 1 4.355-2.3 9.785 9.785 0 0 1 4.816.425 6.543 6.543 0 0 1 3.647 3.364 10.547 10.547 0 0 1 1.1 4.957 11.615 11.615 0 0 1-.46 3.541 9.764 9.764 0 0 1-1.169 2.514 6.562 6.562 0 0 1-3.966 2.656 8.914 8.914 0 0 1-4.32.106 8.179 8.179 0 0 1-3.478-1.705zm3.151-11.3a5.883 5.883 0 0 0-1.239 4.391 6.839 6.839 0 0 0 1.1 4.072 2.823 2.823 0 0 0 1.381.885 3.161 3.161 0 0 0 1.983.071 3.29 3.29 0 0 0 1.806-1.452 7.009 7.009 0 0 0 .85-3.718 6.481 6.481 0 0 0-.744-3.47 3.277 3.277 0 0 0-1.735-1.487 3.32 3.32 0 0 0-1.948-.035 2.93 2.93 0 0 0-1.455.747z" class="cls-1" data-name="Path 247" transform="translate(-471.791 -282.063)"/>
            <path id="Path_248" d="M555.356 327.793h-2.266a2.281 2.281 0 0 1-1.593-.6 2.055 2.055 0 0 1-.638-1.593v-8.746a2.677 2.677 0 0 0-.956-2.266 3.562 3.562 0 0 0-2.125-.708 3.384 3.384 0 0 0-2.089.708 2.712 2.712 0 0 0-.921 2.266v10.942H540.2v-10.06c0-2.9.779-4.887 2.3-5.843a9.951 9.951 0 0 1 5.1-1.593 9.819 9.819 0 0 1 5.276 1.487c1.594.991 2.408 2.974 2.408 5.984v10.021z" class="cls-1" data-name="Path 248" transform="translate(-504.861 -282.149)"/>
            <path id="Path_249" d="M601.564 322.516h3.258a6.979 6.979 0 0 1-2.727 4.108 8.367 8.367 0 0 1-5.1 1.487 7.279 7.279 0 0 1-5.807-2.372 9.642 9.642 0 0 1-2.089-6.622 9.5 9.5 0 0 1 2.018-6.445 7.279 7.279 0 0 1 5.807-2.372 7.872 7.872 0 0 1 6.055 2.3 9.765 9.765 0 0 1 2.089 6.622v.708a1.391 1.391 0 0 1-.071.46h-11.26a4.283 4.283 0 0 0 .991 2.974 3.155 3.155 0 0 0 2.55 1.027 3.433 3.433 0 0 0 1.877-.46.735.735 0 0 0 .354-.212l.354-.354c.035-.142.212-.283.5-.531a2.023 2.023 0 0 1 1.201-.318zm-7.826-5.028h6.662a4.227 4.227 0 0 0-.921-2.585 3.154 3.154 0 0 0-2.408-.885 3.3 3.3 0 0 0-2.337.885 3.975 3.975 0 0 0-.995 2.585z" class="cls-1" data-name="Path 249" transform="translate(-536.446 -282.149)"/>
        </g>
    </g>
</svg>
