<?xml version="1.0" encoding="utf-8"?>
<!-- Generator: Adobe Illustrator 23.0.0, SVG Export Plug-In . SVG Version: 6.00 Build 0)  -->
<svg version="1.1" id="Layer_1" xmlns="http://www.w3.org/2000/svg" xmlns:xlink="http://www.w3.org/1999/xlink" x="0px" y="0px"
	 viewBox="0 0 831.8 255" style="enable-background:new 0 0 831.8 255;" xml:space="preserve">
<style type="text/css">
	.st0{fill:#F9AF00;}
	.st1{fill:#FFFFFF;}
</style>
<g>
	<g>
		<g>
			<g>
				<path class="st0" d="M73.6,157.3h25.1c0.2,4.9,2.2,8.7,5.5,11.1c3.8,2.4,8.7,3.8,14.8,3.8c4.4,0,8.3-0.8,11.5-2.6
					c3-1.8,4.4-4.2,4.4-7.1c0-4.4-5.1-7.7-15.6-9.9c-4.4-0.8-7.7-1.6-10.1-2.2c-13.1-3.2-21.8-7.1-26.3-11.5
					c-4.9-4.4-7.3-10.3-7.3-17.8c0-9.3,3.6-17.2,10.7-23.3c7.3-5.7,17-8.5,28.9-8.5c12.9,0,23.1,2.8,30.7,8.5
					c7.1,6.1,10.9,14.2,11.5,24.1h-15.8c-4.7,0-8.3-2.2-10.7-6.3c-1-1-2-2-3-3c-3-2.2-7.1-3.4-12.3-3.4c-4.9,0-8.7,0.8-11.1,2.2
					c-2.2,1.4-3.4,3.8-3.4,6.7c0,4,6.3,7.3,19.2,9.9c1.4,0.6,2.8,0.8,4,1.2c1.2,0.2,2.2,0.4,3.2,0.4c12.7,3.2,21.4,6.9,26.3,11.1
					c4.7,4.4,7.1,10.3,7.1,17.8c0,10.9-4,19.2-11.9,25.1c-7.3,5.3-18.6,8.1-33.2,8.1c-14,0-24.5-2.8-31.5-8.5
					c-7.1-5.7-10.7-13.9-10.7-24.7C73.6,158.5,73.6,157.3,73.6,157.3z"/>
				<path class="st0" d="M169.8,189.9v-19.6l52.8-58.6h-37.4c-3.6,0-6.5-1.2-8.9-3.6s-3.8-5.1-3.8-8.7v-8.1h80.7v21.2L201,168.4h54
					v21.4L169.8,189.9L169.8,189.9z"/>
			</g>
		</g>
		<g>
			<path class="st1" d="M328.6,103.9h-24.7V50.5h-54.4V25.7h68.1c6.1,0,11.3,4.9,11.3,11.3v66.9H328.6z"/>
			<path class="st1" d="M79.3,255h-68C5.1,255,0,250.1,0,243.8v-66.9h24.7v53.4h54.6V255z"/>
			<path class="st1" d="M317.6,255h-68.1v-24.7h54.6v-53.4h24.5v66.9C328.6,250.1,323.7,255,317.6,255z"/>
			<path class="st1" d="M24.7,103.9H0V37c0-6.1,4.9-11.3,11.3-11.3h68.1v24.7H24.7V103.9z"/>
		</g>
	</g>
	<g>
		<path class="st1" d="M374.9,92h24.7c0.2,4.7,2,8.3,5.5,10.9c3.6,2.4,8.5,3.6,14.6,3.6c4.4,0,8.1-0.8,11.3-2.6c3-1.6,4.4-4,4.4-6.9
			c0-4.4-5.1-7.5-15.2-9.7c-4.4-0.8-7.7-1.4-9.9-2.2c-12.9-3.2-21.6-6.9-25.9-11.1c-4.9-4.4-7.3-10.1-7.3-17.2
			c0-9.1,3.6-16.6,10.5-22.6c7.3-5.5,16.8-8.3,28.5-8.3c12.7,0,22.8,2.8,30.3,8.3c7.1,5.9,10.9,13.9,11.3,23.3H442
			c-4.6,0-8.1-2-10.5-6.1c-1-1-2-2-3-3c-3-2.2-6.9-3.2-12.1-3.2c-4.9,0-8.5,0.8-10.9,2.2c-2.2,1.4-3.4,3.6-3.4,6.5
			c0,3.8,6.3,7.1,19,9.7c1.4,0.4,2.8,0.8,3.8,1c1.2,0.2,2.2,0.4,3.2,0.4c12.5,3.2,21,6.7,25.9,10.9c4.6,4.4,6.9,10.1,6.9,17.2
			c0,10.5-4,18.8-11.7,24.5c-7.3,5.3-18.2,7.9-32.8,7.9c-13.9,0-24.1-2.8-30.9-8.3c-7.1-5.5-10.5-13.5-10.5-24.1L374.9,92L374.9,92z
			"/>
		<path class="st1" d="M557.6,123.7h-25.1V67.5v-4.9c0-5.7-1.8-9.9-5.3-12.7c-3.6-2.6-7.5-4-11.9-4c-4.4,0-8.3,1.4-11.7,4
			c-3.4,2.6-5.1,6.9-5.1,12.7v61.1H473V67.5c0-16.2,4.4-27.3,12.9-32.6c8.7-5.5,18.2-8.5,28.5-8.9c5.5,0,11.1,0.6,16.4,1.8
			c5.3,1.2,10.3,3.6,14.6,7.1c3.6-3.2,7.9-5.3,12.9-6.7s10.1-2.2,15.4-2.4c10.7,0,20.6,2.8,29.5,8.3s13.5,16.6,13.5,33.4v56.2H604
			c-3.6,0-6.5-1.2-8.9-3.4c-2.4-2.4-3.4-5.1-3.4-8.9V62.5c0-5.7-1.8-9.9-5.3-12.7c-3.6-2.6-7.5-4-11.9-4s-8.3,1.4-11.9,4
			c-3.6,2.6-5.3,6.9-5.3,12.7v4.9v56.2L557.6,123.7L557.6,123.7z"/>
		<path class="st1" d="M693.9,119.7c-5.1,2.6-10.5,4.4-16.2,4.9s-10.7,1-15,1c-8.7,0-16.4-2.4-23-6.9c-6.5-4.7-9.9-12.5-9.9-23.1
			c0-10.1,3-17.2,8.9-21.6c5.9-4.4,13.5-7.1,22.8-8.7c1.2,0,2.6-0.2,4.4-0.6c1.8-0.4,3.6-0.6,5.7-1c10.7-1.4,16-4.6,16-9.3
			c0-3.6-2-5.9-5.7-6.9c-3.8-1-7.3-1.6-10.3-1.6c-3.4,0-6.5,0.4-9.1,1.4c-2.8,1-4.6,2.8-5.7,5.3h-24.3c1-7.5,4.4-13.5,10.3-18.4
			c6.5-5.5,15.8-8.3,28.1-8.3c13.7,0,23.7,2.4,30.7,6.9c7.1,4.7,10.5,11.5,10.5,20.2v32.6c0,9.5-1.8,17-5.3,22.6
			C703,113.4,698.6,117.3,693.9,119.7z M688.2,75.6c-3.4,1.6-8.1,3.2-14.2,4.7l-8.3,1.8c-4.4,1.2-7.5,2.8-9.5,4.7
			c-1.8,2.6-2.6,5.3-2.6,7.9c0,3.6,1.2,6.5,3.4,8.7c2.2,2,5.3,3,9.5,3c6.7,0,12.1-2,16-5.7c4-3.8,5.7-9.1,5.7-15.8L688.2,75.6
			L688.2,75.6z"/>
		<path class="st1" d="M723.6,123.7V77.4c0-9.3,1.4-17.2,4.2-23.5s6.5-11.5,11.5-15.2c4.6-3.6,10.1-6.3,16.2-7.9
			c6.1-1.6,12.5-2.6,19.2-2.6c0.4,0,1.2,0,1.8,0c0.8,0,1.4,0,1.8,0v25.5H770c-7.1,0-12.3,1.6-15.6,4.9c-3.4,3.4-5.1,8.7-5.1,15.8
			v49.3H723.6z"/>
		<path class="st1" d="M831.8,123.7c-7.9,0.4-16.6,0.4-26.1-0.4c-9.3-0.8-14-6.5-14-17.6V0h13.1c3.2,0,5.9,1.2,8.3,3.6
			s3.6,5.3,3.6,8.7v16.2h14.8v4.9c0,3.6-1.2,6.5-3.6,8.9s-5.3,3.4-8.7,3.4h-2.6v53.2c0,4.2,2.4,6.1,7.3,6.1h7.7L831.8,123.7
			L831.8,123.7z"/>
		<path class="st0" d="M377.1,255v-19l52-56.8h-36.8c-3.4,0-6.3-1.2-8.7-3.4c-2.4-2.2-3.6-5.1-3.6-8.5v-7.9h79.3V180L408,234.3h53.2
			V255H377.1L377.1,255z"/>
		<path class="st0" d="M485.3,246.3c-5.1-4.4-8.7-10.1-10.9-17.4c-2.2-7.3-3.4-14.8-3.4-22.8c0-6.5,1-12.9,2.8-19.4
			s4.7-11.9,8.5-16.2c6.3-7.1,14.4-11.5,24.3-12.9c9.9-1.4,19-0.6,26.9,2.4c9.3,3.6,16,9.9,20.4,18.8c4.2,7.9,6.1,17.2,6.1,27.7
			c0,7.7-0.8,14.2-2.6,19.8c-1.8,5.5-4,10.3-6.5,14c-5.7,7.9-13.3,12.9-22.2,14.8c-7.9,2.2-16,2.4-24.1,0.6
			C496.8,253.9,490.3,250.7,485.3,246.3z M503,183.2c-5.1,5.5-7.3,13.7-6.9,24.5c0.4,10.9,2.6,18.6,6.1,22.8c1.4,2,4,3.6,7.7,4.9
			c3.6,1.4,7.3,1.4,11.1,0.4s7.1-3.8,10.1-8.1c3-4.4,4.6-11.3,4.7-20.8c0-8.7-1.4-15-4.2-19.4s-5.9-7.1-9.7-8.3
			c-3.6-1.2-7.3-1.2-10.9-0.2C507.3,180.1,504.5,181.4,503,183.2z"/>
		<path class="st0" d="M657.1,255h-12.7c-3.6,0-6.5-1.2-8.9-3.4s-3.6-5.1-3.6-8.9v-48.9c0-5.7-1.8-9.9-5.3-12.7
			c-3.6-2.6-7.5-4-11.9-4s-8.3,1.4-11.7,4s-5.1,6.9-5.1,12.7V255h-25.5v-56.2c0-16.2,4.4-27.3,12.9-32.6c8.5-5.5,18.2-8.5,28.5-8.9
			c10.7,0,20.6,2.8,29.5,8.3s13.5,16.6,13.5,33.4v56L657.1,255L657.1,255z"/>
		<path class="st0" d="M738.8,225.6H757c-2.8,10.1-7.7,17.8-15.2,23c-7.5,5.5-17,8.3-28.5,8.3c-13.9,0-24.7-4.4-32.4-13.3
			c-7.7-8.7-11.7-21-11.7-37c0-15.4,3.8-27.3,11.3-36c7.7-8.9,18.6-13.3,32.4-13.3c14.6,0,25.9,4.4,33.8,12.9
			c7.7,8.9,11.7,21.2,11.7,37c0,1,0,1.8,0,2.6s0,1.2,0,1.4c0,1.2-0.2,2-0.4,2.6h-62.9c0.2,7.5,2,12.9,5.5,16.6
			c3.2,3.8,7.9,5.7,14.2,5.7c4.2,0,7.7-0.8,10.5-2.6c0.8-0.2,1.4-0.6,2-1.2c0.6-0.6,1.2-1.2,2-2c0.2-0.8,1.2-1.6,2.8-3
			C733.7,226.2,736,225.6,738.8,225.6z M695.1,197.5h37.2c-0.6-6.5-2.2-11.3-5.1-14.4c-3.2-3.4-7.7-4.9-13.5-4.9
			c-5.3,0-9.7,1.8-13.1,4.9C697.3,186.6,695.5,191.3,695.1,197.5z"/>
	</g>
</g>
</svg>
