<svg id="Layer_1" data-name="Layer 1" xmlns="http://www.w3.org/2000/svg" viewBox="0 0 336.02 124.81"><defs><style>.cls-1{fill:#fbad24;}.cls-2,.cls-3{fill:#fff;}.cls-2{stroke:#231f20;stroke-miterlimit:10;}</style></defs><title>logo_SZ_inversia_2</title><path class="cls-1" d="M287.19,312.78H299.9a6.89,6.89,0,0,0,2.81,5.61,13.3,13.3,0,0,0,7.48,1.87A12.09,12.09,0,0,0,316,319a4,4,0,0,0,2.25-3.56q0-3.36-7.86-5a36,36,0,0,1-5.05-1.12q-9.92-2.43-13.28-5.8a11.5,11.5,0,0,1-3.74-9,14.92,14.92,0,0,1,5.42-11.78q5.62-4.3,14.59-4.3,9.72,0,15.52,4.3a16.45,16.45,0,0,1,5.8,12.16h-8a5.94,5.94,0,0,1-5.42-3.18l-1.5-1.5a10.06,10.06,0,0,0-6.17-1.68,11.15,11.15,0,0,0-5.61,1.12,3.78,3.78,0,0,0-1.68,3.37q0,3,9.73,5a18.5,18.5,0,0,0,2,.56,7.28,7.28,0,0,0,1.59.19q9.54,2.43,13.28,5.61a11.78,11.78,0,0,1,3.55,9q0,8.23-6,12.72-5.62,4.11-16.83,4.11-10.66,0-15.9-4.3-5.42-4.3-5.42-12.53Z" transform="translate(-249.52 -237.91)"/><path class="cls-1" d="M335.78,329.24v-9.91l26.74-29.55H343.64a6.27,6.27,0,0,1-4.49-1.78,5.81,5.81,0,0,1-1.87-4.39v-4.12H378v10.66L351.67,318.4H379v10.85Z" transform="translate(-249.52 -237.91)"/><polygon class="cls-2" points="166.62 47.85 154.15 47.85 154.15 20.87 126.55 20.87 126.55 8.41 166.62 8.41 166.62 47.85"/><polygon class="cls-2" points="40.57 124.31 0.5 124.31 0.5 84.87 12.96 84.87 12.96 111.85 40.57 111.85 40.57 124.31"/><polygon class="cls-2" points="166.62 124.31 126.55 124.31 126.55 111.85 154.15 111.85 154.15 84.87 166.62 84.87 166.62 124.31"/><polygon class="cls-2" points="12.96 47.85 0.5 47.85 0.5 8.41 40.57 8.41 40.57 20.87 12.96 20.87 12.96 47.85"/><path class="cls-3" d="M443.44,267.83h7.94a4.29,4.29,0,0,0,1.75,3.5,8.32,8.32,0,0,0,4.67,1.17,7.56,7.56,0,0,0,3.62-.82,2.49,2.49,0,0,0,1.4-2.22q0-2.1-4.91-3.15a22.4,22.4,0,0,1-3.15-.7q-6.2-1.52-8.3-3.62a7.16,7.16,0,0,1-2.34-5.61,9.28,9.28,0,0,1,3.39-7.36,14.56,14.56,0,0,1,9.11-2.69q6.07,0,9.7,2.69a10.3,10.3,0,0,1,3.62,7.59h-5a3.71,3.71,0,0,1-3.39-2l-.93-.93a6.3,6.3,0,0,0-3.86-1.05,6.92,6.92,0,0,0-3.5.7,2.36,2.36,0,0,0-1.05,2.1q0,1.87,6.08,3.15a12,12,0,0,0,1.23.35,4.65,4.65,0,0,0,1,.12q6,1.52,8.3,3.51a7.38,7.38,0,0,1,2.22,5.61,9.35,9.35,0,0,1-3.74,7.95q-3.51,2.57-10.52,2.57-6.66,0-9.93-2.69t-3.39-7.83Z" transform="translate(-249.52 -237.91)"/><path class="cls-3" d="M500.91,278.11h-8.06V258.24a4.8,4.8,0,0,0-1.69-4.09,6.12,6.12,0,0,0-3.8-1.29,5.87,5.87,0,0,0-3.74,1.29,4.89,4.89,0,0,0-1.64,4.09v19.86H473.8V259.88q0-7.95,4.15-10.63a18.13,18.13,0,0,1,9.17-2.92,23.63,23.63,0,0,1,5.26.58,11,11,0,0,1,4.67,2.34,10.29,10.29,0,0,1,4.15-2.16,23.13,23.13,0,0,1,5-.76,17.59,17.59,0,0,1,9.46,2.69Q520,251.7,520,259.88v18.23h-4.09a3.8,3.8,0,0,1-4-4V258.24a4.8,4.8,0,0,0-1.69-4.09,6.25,6.25,0,0,0-7.6,0,4.8,4.8,0,0,0-1.69,4.09v19.86Z" transform="translate(-249.52 -237.91)"/><path class="cls-3" d="M543.53,276.82a14.37,14.37,0,0,1-5.2,1.58,46.86,46.86,0,0,1-4.85.29,12.24,12.24,0,0,1-7.36-2.28q-3.15-2.28-3.15-7.54c0-3.27.95-5.61,2.86-7a16.47,16.47,0,0,1,7.3-2.8,7,7,0,0,0,1.4-.17,18.67,18.67,0,0,1,1.87-.29q5.14-.7,5.14-3a2.22,2.22,0,0,0-1.81-2.28,12.11,12.11,0,0,0-3.33-.53,8.54,8.54,0,0,0-2.92.47,3.16,3.16,0,0,0-1.87,1.75h-7.83a9,9,0,0,1,3.27-6q3.16-2.69,9-2.69,6.54,0,9.82,2.22a7.51,7.51,0,0,1,3.39,6.54v10.63a13.46,13.46,0,0,1-1.69,7.3A10.38,10.38,0,0,1,543.53,276.82Zm-1.87-14.37a22.33,22.33,0,0,1-4.56,1.52l-2.69.58a6.89,6.89,0,0,0-3,1.52,4.74,4.74,0,0,0-.82,2.57,3.8,3.8,0,0,0,1.05,2.8,4.42,4.42,0,0,0,3,.93,6.47,6.47,0,0,0,7-7Z" transform="translate(-249.52 -237.91)"/><path class="cls-3" d="M551.92,278.11V263a19.19,19.19,0,0,1,1.34-7.65,12.59,12.59,0,0,1,3.68-5,14.41,14.41,0,0,1,5.2-2.57,23.12,23.12,0,0,1,6.13-.82h1.17v8.3h-2.69a6.82,6.82,0,0,0-5,1.64c-1.1,1.09-1.64,2.8-1.64,5.14v16Z" transform="translate(-249.52 -237.91)"/><path class="cls-3" d="M585.55,278.11a60.36,60.36,0,0,1-8.36-.12q-4.5-.35-4.5-5.73V237.91h4.21a3.7,3.7,0,0,1,2.69,1.17,3.81,3.81,0,0,1,1.17,2.8v5.26h4.79v1.64a3.77,3.77,0,0,1-1.17,2.86,3.93,3.93,0,0,1-2.8,1.11h-.82V270c0,1.33.78,2,2.34,2h2.46Z" transform="translate(-249.52 -237.91)"/><path class="cls-1" d="M444.14,320.79v-6.19l16.71-18.46h-11.8a3.9,3.9,0,0,1-2.8-1.11,3.62,3.62,0,0,1-1.17-2.75v-2.57h25.47v6.66L454.08,314h17.06v6.78Z" transform="translate(-249.52 -237.91)"/><path class="cls-1" d="M477.77,318a11.57,11.57,0,0,1-3.51-5.67,26.13,26.13,0,0,1-1.05-7.42,23.44,23.44,0,0,1,.88-6.31,13,13,0,0,1,2.75-5.26,12.15,12.15,0,0,1,7.83-4.15,18,18,0,0,1,8.65.76,11.92,11.92,0,0,1,6.54,6.08,19.42,19.42,0,0,1,2,9,22.12,22.12,0,0,1-.82,6.43,16.57,16.57,0,0,1-2.1,4.56,11.66,11.66,0,0,1-7.13,4.79A15.89,15.89,0,0,1,484,321,13.59,13.59,0,0,1,477.77,318Zm5.61-20.56q-2.45,2.69-2.22,8t2,7.42a5.24,5.24,0,0,0,2.45,1.58,5.55,5.55,0,0,0,3.56.12,6,6,0,0,0,3.21-2.63q1.4-2.1,1.52-6.78,0-4.21-1.34-6.31a6.1,6.1,0,0,0-3.1-2.69,5.69,5.69,0,0,0-3.51-.06A6.11,6.11,0,0,0,483.38,297.42Z" transform="translate(-249.52 -237.91)"/><path class="cls-1" d="M531.73,320.79h-4.09a3.8,3.8,0,0,1-4-4V300.92a4.81,4.81,0,0,0-1.69-4.09,6.13,6.13,0,0,0-3.8-1.29,5.88,5.88,0,0,0-3.74,1.29,4.86,4.86,0,0,0-1.64,4.09v19.86h-8.18V302.56q0-7.94,4.15-10.63a18.14,18.14,0,0,1,9.17-2.92,17.61,17.61,0,0,1,9.46,2.69q4.32,2.69,4.32,10.87Z" transform="translate(-249.52 -237.91)"/><path class="cls-1" d="M556.12,311.21H562a12.79,12.79,0,0,1-4.91,7.48,14.89,14.89,0,0,1-9.11,2.69q-6.66,0-10.4-4.32t-3.74-12q0-7.48,3.62-11.68t10.4-4.32q7,0,10.87,4.21t3.74,12v1.29a2.07,2.07,0,0,1-.12.82H542.1a8,8,0,0,0,1.75,5.38,5.51,5.51,0,0,0,4.56,1.87,6.59,6.59,0,0,0,3.39-.82,1.62,1.62,0,0,0,.64-.41l.64-.64a2.48,2.48,0,0,1,.88-.94A3.49,3.49,0,0,1,556.12,311.21Zm-14-9.11H554a7.6,7.6,0,0,0-1.64-4.67,5.61,5.61,0,0,0-4.32-1.64,5.69,5.69,0,0,0-4.21,1.64A6.67,6.67,0,0,0,542.1,302.09Z" transform="translate(-249.52 -237.91)"/><path class="cls-3" d="M446.28,335.87l-.59-.67v-1.26h5.26a2.21,2.21,0,0,1,2.37,2.22v1.18a1.4,1.4,0,0,1-.79,1.27,2.49,2.49,0,0,1-.77.28v.15a3,3,0,0,1,.84.28,1.41,1.41,0,0,1,.86,1.27v1.48a2.21,2.21,0,0,1-2.37,2.22h-5.48v-1.93h4.67a.51.51,0,0,0,.52-.52v-1.26a.51.51,0,0,0-.52-.52h-2.74v-1.93h2.59a.51.51,0,0,0,.52-.52v-1.26a.51.51,0,0,0-.52-.52Z" transform="translate(-249.52 -237.91)"/><path class="cls-3" d="M456.2,333.94h7.4v1.26l-.59.67h-4.15v2h3a2.21,2.21,0,0,1,2.37,2.22v2a2.22,2.22,0,0,1-2.37,2.22H456.2Zm4.81,8.44a.51.51,0,0,0,.52-.52v-1.55a.51.51,0,0,0-.52-.52h-2.15v2.59Z" transform="translate(-249.52 -237.91)"/><path class="cls-3" d="M474.41,335.2l-.59.67h-4.15v2.22h3.41V340h-3.41v2.37h4.74v1.93H467V333.94h7.4Z" transform="translate(-249.52 -237.91)"/><path class="cls-3" d="M476.86,344.31V333.94h5.63a2.22,2.22,0,0,1,2.37,2.22v2.74a2.21,2.21,0,0,1-2.37,2.22h-3v3.18Zm2.67-8.44v3.33h2.15a.51.51,0,0,0,.52-.52v-2.29a.51.51,0,0,0-.52-.52Z" transform="translate(-249.52 -237.91)"/><path class="cls-3" d="M487.44,344.31V333.94h2.67v10.37Z" transform="translate(-249.52 -237.91)"/><path class="cls-3" d="M493.22,333.94h7.18v1.26l-.59.67h-3.92v8.44h-2.67Z" transform="translate(-249.52 -237.91)"/><path class="cls-3" d="M507.06,342.09H504l-.52,2.22h-2.67v-1l3-9.33h3.55l3,9.33v1h-2.67Zm-1.48-5.78h-.15l-1,3.85h2.07Z" transform="translate(-249.52 -237.91)"/><path class="cls-3" d="M511,333.94h8.44v1.26l-.59.67h-2.29v8.44h-2.67v-8.44H511Z" transform="translate(-249.52 -237.91)"/><path class="cls-3" d="M529.72,344.31h-2.67V340.9l.44-3.11h-.15l-3.18,6.52h-2.59V333.94h2.67v3.41l-.44,3.11h.15l3.18-6.52h2.59Z" transform="translate(-249.52 -237.91)"/><path class="cls-3" d="M446,360.3a.68.68,0,0,0,.59-.59l.74-8h7.26v10.37h-2.67v-8.44h-2.22l-.52,6.07c-.13,1.64-1,2.52-3.18,2.52h-.67V360.3Z" transform="translate(-249.52 -237.91)"/><path class="cls-3" d="M465.09,353l-.59.67h-4.15v2.22h3.41v1.92h-3.41v2.37h4.74v1.93h-7.4V351.71h7.4Z" transform="translate(-249.52 -237.91)"/><path class="cls-3" d="M467.53,351.71h7.18V353l-.59.67h-3.92v8.44h-2.67Z" transform="translate(-249.52 -237.91)"/><path class="cls-3" d="M476.78,362.08V351.71h2.67v4.22h1.26l1.63-4.22H485v1l-2.07,4.07,2.29,4.22v1h-2.67l-1.85-4.22h-1.26v4.22Z" transform="translate(-249.52 -237.91)"/><path class="cls-3" d="M489.59,362.22a2.21,2.21,0,0,1-2.37-2.22v-6.22a2.21,2.21,0,0,1,2.37-2.22h3.55a2.22,2.22,0,0,1,2.37,2.22V360a2.21,2.21,0,0,1-2.37,2.22Zm2.74-1.93a.51.51,0,0,0,.52-.52V354a.51.51,0,0,0-.52-.52h-1.93a.5.5,0,0,0-.52.52v5.78a.5.5,0,0,0,.52.52Z" transform="translate(-249.52 -237.91)"/></svg>