<svg width="16" height="16" viewBox="0 0 100 100" fill="none" xmlns="http://www.w3.org/2000/svg">
<g clip-path="url(#clip0)">
<circle cx="48.5" cy="48.5001" r="48.5" fill="white"/>
<path fill-rule="evenodd" clip-rule="evenodd" d="M33.2973 94.5852C40.4802 96.2286 45.2755 97.4812 52.8181 96.8198C58.5025 96.3288 61.4796 95.3167 66.3348 93.5832C70.2809 91.6392 73.3879 90.2363 77.0043 87.691C85.3861 81.7889 92.7189 71.5478 95.2663 61.417C102.5 27.8579 82 0.000593348 45.5652 0.000593348C27.6029 -0.0996129 11.3806 12.5056 4.51556 27.8579C0.859155 36.0347 0 41.4559 0 50.3743C11.2789 35.5337 13.0372 33.8001 29.7607 25.7436C29.7607 20.4928 32.6779 15.4223 38.1525 14.3902C58.4925 12.326 52.848 44.3218 32.3682 31.7159C20.0803 39.4017 9.12103 58.6914 8.74141 73.5018C8.71144 74.5841 8.74141 75.2154 8.80135 76.4178C10.0601 78.7527 13.9862 82.9112 16.254 84.6247C25.4849 66.6778 42.0886 49.2519 63.6075 44.402C63.6075 39.5319 67.134 34.8724 71.9693 33.9505C77.1142 32.9684 82.0294 35.5137 83.9974 40.3937C84.9765 42.8187 84.9965 45.6846 83.8376 48.4603C81.0703 55.0739 72.9183 56.4568 67.4337 52.3183C66.8143 51.8573 66.5746 51.4865 66.0251 51.1158C52.0289 55.7453 33.2973 80.3259 33.2973 94.5852Z" fill="#FECA08"/>
</g>
<defs>
<clipPath id="clip0">
<rect width="100" height="100" fill="white"/>
</clipPath>
</defs>
</svg>
