<svg width="16" height="16" viewBox="0 0 16 16" fill="none" xmlns="http://www.w3.org/2000/svg">
<path d="M7.94754 16C12.3223 16 15.8687 12.4614 15.8687 8.09638C15.8687 3.73132 12.3223 0.192749 7.94754 0.192749C3.5728 0.192749 0.0263672 3.73132 0.0263672 8.09638C0.0263672 12.4614 3.5728 16 7.94754 16Z" fill="#0C4EA3"/>
<path d="M2.6648 13.9483C2.22274 13.5629 1.85106 13.1322 1.50963 12.6731C1.44079 12.5805 1.45036 12.4802 1.45577 12.3809C1.57138 10.2496 2.29667 8.35756 3.6846 6.72737C4.12312 6.21236 4.62291 5.76341 5.16376 5.35791C5.27659 5.27335 5.34065 5.26566 5.45394 5.371C6.0164 5.89356 6.81578 5.9949 7.47872 5.64514C8.16003 5.28584 8.51072 4.58309 8.41148 3.77669C8.32905 3.10752 7.75007 2.49564 7.04175 2.32916C5.9457 2.0715 4.91818 2.89606 4.87759 4.07531C4.87358 4.1902 4.84271 4.2381 4.74207 4.27583C2.72531 5.03125 1.15493 6.32062 0.0692244 8.18815C0.0590372 8.20555 0.0417521 8.2188 0.00501637 8.25868C-0.0243105 7.35757 0.0730863 6.49897 0.346443 5.67393C1.30265 2.78671 3.25535 0.909951 6.21412 0.214904C10.6056 -0.816807 14.8549 1.97585 15.8048 6.243C16.7851 10.6468 13.9766 14.9572 9.5597 15.8367C8.2633 16.0949 6.97894 16.0232 5.70816 15.6605C5.55242 15.616 5.50148 15.5638 5.53883 15.39C6.19452 12.3302 7.79206 9.98052 10.6503 8.57225C10.8177 8.48985 10.931 8.47785 11.091 8.62708C11.6498 9.14825 12.4694 9.22048 13.1394 8.84208C13.8037 8.46706 14.1422 7.72442 14.0047 6.94374C13.8825 6.24993 13.2638 5.66377 12.5334 5.54996C11.5121 5.39087 10.5736 6.11749 10.4918 7.13888C10.4819 7.26224 10.4392 7.30921 10.3248 7.34587C7.77107 8.16412 5.64827 9.60503 4.00628 11.7353C3.53674 12.3444 3.13542 12.9968 2.79539 13.6869C2.75417 13.7707 2.71188 13.8539 2.6648 13.9483Z" fill="#FEC012"/>
</svg>
