<svg width="16" height="16" viewBox="0 0 16 16" fill="none" xmlns="http://www.w3.org/2000/svg">
<path d="M8 16C12.4183 16 16 12.4183 16 8C16 3.58172 12.4183 0 8 0C3.58172 0 0 3.58172 0 8C0 12.4183 3.58172 16 8 16Z" fill="#109CFE"/>
<path d="M7.22084 4.42301C7.22084 3.97577 7.21585 3.52837 7.22224 3.08113C7.2291 2.59991 7.56036 2.24136 7.99248 2.23388C8.42569 2.2264 8.77676 2.57668 8.78253 3.06087C8.79359 3.97764 8.79359 4.89488 8.78268 5.81166C8.77675 6.30177 8.4391 6.63755 7.9956 6.63381C7.55008 6.63022 7.22988 6.29054 7.2224 5.7984C7.21523 5.3401 7.22084 4.88147 7.22084 4.42301Z" fill="#FAFCFE"/>
<path d="M2.82366 6.04663C3.15072 6.10244 3.51253 6.25334 3.88307 6.374C4.49867 6.57463 5.11739 6.76621 5.72754 6.98258C6.14002 7.12881 6.33207 7.53536 6.20767 7.92461C6.07189 8.3494 5.65941 8.57903 5.22542 8.44262C4.32034 8.15813 3.41822 7.8632 2.51874 7.5614C2.15895 7.44074 1.93728 7.06318 1.99356 6.72007C2.05529 6.34266 2.38796 6.05115 2.82366 6.04663Z" fill="#FAFCFE"/>
<path d="M11.2473 13.7663C10.9665 13.771 10.7514 13.6481 10.5904 13.4258C10.0466 12.6752 9.49931 11.9273 8.96368 11.1709C8.68853 10.7823 8.7579 10.3438 9.11301 10.0733C9.45456 9.81313 9.93096 9.87595 10.2105 10.2509C10.7707 11.0025 11.3171 11.7648 11.8619 12.5281C12.0439 12.7828 12.0786 13.062 11.9237 13.3493C11.7781 13.6191 11.5523 13.7568 11.2473 13.7663Z" fill="#FAFCFE"/>
<path d="M9.76318 7.64643C9.77675 7.3716 9.9264 7.10129 10.2555 6.98859C11.1846 6.67011 12.1176 6.36192 13.0554 6.06994C13.4289 5.95365 13.8294 6.19496 13.9675 6.56925C14.1028 6.9359 13.9433 7.38906 13.5648 7.52203C12.607 7.85859 11.641 8.17411 10.6681 8.46406C10.226 8.59563 9.77176 8.18985 9.76318 7.64643Z" fill="#FAFCFE"/>
<path d="M4.769 13.7654C4.17428 13.766 3.76633 13.1226 4.09509 12.6305C4.65255 11.796 5.25225 10.9889 5.85772 10.1881C6.10371 9.86256 6.56701 9.83372 6.88237 10.0655C7.2169 10.3112 7.32493 10.7638 7.08471 11.1061C6.52071 11.9103 5.93706 12.701 5.35436 13.4918C5.21437 13.6817 5.00813 13.7682 4.769 13.7654Z" fill="#FAFCFE"/>
</svg>
