<svg width="16" height="16" viewBox="0 0 16 16" fill="none" xmlns="http://www.w3.org/2000/svg">
<circle cx="8" cy="8" r="8" fill="white"/>
<path fill-rule="evenodd" clip-rule="evenodd" d="M16 8.00023C16 12.4189 12.4184 16 8.00023 16C3.58159 16 0 12.4189 0 8.00023C0 3.58159 3.58159 0 8.00023 0C12.4184 0 16 3.58159 16 8.00023ZM3.53436 7.96563C3.53436 10.4314 5.53395 12.431 8.00023 12.431C10.467 12.431 12.4666 10.4319 12.4666 7.96563C12.4666 5.50168 10.4717 3.50443 8.00912 3.49928C8.69326 1.2439 10.3029 0.328746 10.3029 0.328746C6.97051 0.328746 4.09458 3.09478 3.53436 6.59547C3.48338 6.92468 3.53436 7.96563 3.53436 7.96563Z" fill="#E43B42"/>
</svg>
