<svg width="14" height="14" viewBox="0 0 14 14" fill="none" xmlns="http://www.w3.org/2000/svg">
<circle cx="7" cy="7" r="7" fill="#F5F5F5"/>
<path d="M3.87054 10.359C5.28742 11.262 6.56663 11.9086 6.99686 12.6667C7.42708 11.9086 8.70635 11.262 10.1232 10.359C11.6548 9.3835 11.9531 8.20736 11.4254 7.16499C11.0181 6.35674 9.93966 5.85507 9.07347 6.35117C9.05053 6.36232 8.99316 6.36789 8.97022 6.301C8.95874 6.27313 8.95301 6.25084 8.95301 6.22297C8.94727 6.19509 8.91285 6.18395 8.88991 6.20624C8.63177 6.46265 8.38511 6.88071 8.26464 7.20959C8.25317 7.24303 8.28185 7.27648 8.31627 7.27648C8.6203 7.24303 8.98169 7.18729 9.26851 7.17614C9.30293 7.17614 9.32014 7.1427 9.30293 7.11483C9.27998 7.08696 9.26277 7.04794 9.2513 7.02007C9.22835 6.95875 9.26851 6.93088 9.29145 6.91973C9.67005 6.74693 10.3011 6.91973 10.4731 7.46042C10.6911 8.15719 10.0544 8.7592 9.25703 9.18841C8.17286 9.76812 7.91473 9.48384 7.83442 8.77592C7.83442 8.77592 7.46729 4.14939 7.45582 3.99331C7.43861 3.80379 7.45008 3.70903 7.59349 3.67001C7.71395 3.63657 8.72929 3.43032 8.95301 3.37458C8.99316 3.36343 9.01611 3.34671 9.02184 3.29097C9.02758 3.21851 9.03905 3.12375 9.04479 3.09588C9.05053 3.03456 9.01611 3.02341 8.95301 3.02341H7.62217C7.40993 3.02341 7.37551 2.9621 7.36977 2.88406C7.36404 2.79487 7.35256 2.68339 7.34683 2.6165C7.34109 2.48829 7.41566 2.46042 7.45008 2.43813C7.66806 2.29877 7.80573 2.05909 7.80573 1.78595C7.80573 1.35117 7.44429 1 6.99686 1C6.55516 1 6.19376 1.35117 6.19376 1.78595C6.19376 2.05909 6.33144 2.29877 6.54942 2.43813C6.58384 2.46042 6.65841 2.48829 6.65267 2.6165C6.64694 2.68339 6.63546 2.79487 6.62973 2.88406C6.62399 2.9621 6.58957 3.02341 6.37733 3.02341H5.04649C4.98339 3.02341 4.94897 3.03456 4.95471 3.09588C4.96045 3.12375 4.97192 3.21851 4.97766 3.29097C4.98339 3.34671 5.00634 3.36343 5.04649 3.37458C5.27021 3.43032 6.28555 3.63657 6.40601 3.67001C6.54942 3.70903 6.56089 3.80379 6.54368 3.99331C6.53221 4.14939 6.16508 8.77592 6.16508 8.77592C6.08477 9.48384 5.82664 9.76812 4.74247 9.18841C3.94511 8.7592 3.30837 8.15719 3.52636 7.46042C3.69845 6.91973 4.32945 6.74693 4.70805 6.91973C4.73099 6.93088 4.77115 6.95875 4.7482 7.02007C4.73673 7.04794 4.71952 7.08696 4.69657 7.11483C4.67937 7.1427 4.69657 7.17614 4.73099 7.17614C5.01781 7.18729 5.3792 7.24303 5.68323 7.27648C5.71765 7.27648 5.74633 7.24303 5.73486 7.20959C5.61439 6.88071 5.36773 6.46265 5.10959 6.20624C5.08665 6.18395 5.05223 6.19509 5.04649 6.22297C5.04649 6.25084 5.04076 6.27313 5.02928 6.301C5.00634 6.36789 4.94897 6.36232 4.92603 6.35117C4.05984 5.85507 2.9814 6.35674 2.57412 7.16499C2.04637 8.20178 2.34467 9.37793 3.87054 10.359Z" fill="#FBAD25"/>
</svg>
