<svg width="39" height="13" viewBox="0 0 39 13" fill="none" xmlns="http://www.w3.org/2000/svg">
<g opacity="0.8">
<path d="M16.7732 12.476H13.6875L15.6161 0.208691H18.7018L16.7732 12.476ZM11.0927 0.217765L8.14718 8.65609L7.79653 6.8414L6.76211 1.32473C6.76211 1.32473 6.63938 0.217765 5.29814 0.217765H0.441613L0.380249 0.426454C0.380249 0.426454 1.87052 0.744025 3.60624 1.83284L6.28873 12.4851H9.50596L14.4151 0.217765H11.0927ZM35.3577 12.476H38.1893L35.7172 0.208691H33.2363C32.0879 0.208691 31.8162 1.12511 31.8162 1.12511L27.2139 12.476H30.4311L31.071 10.6523H34.9983L35.3577 12.476ZM31.9652 8.1389L33.587 3.54773L34.4986 8.1389H31.9652ZM27.4593 3.16664L27.8976 0.535337C27.8976 0.535337 26.5389 0 25.1187 0C23.5846 0 19.9554 0.689585 19.9554 4.05584C19.9554 7.22248 24.2246 7.26785 24.2246 8.92829C24.2246 10.5887 20.3937 10.2984 19.1313 9.24586L18.6755 12.0042C18.6755 12.0042 20.0518 12.6938 22.1557 12.6938C24.2596 12.6938 27.433 11.5687 27.433 8.49276C27.433 5.30798 23.1288 5.00856 23.1288 3.62032C23.1288 2.23207 26.1356 2.41354 27.4593 3.16664Z" fill="#D3C6D8"/>
</g>
</svg>
