<?xml version="1.0" encoding="utf-8"?>
<!-- Generator: Adobe Illustrator 24.0.0, SVG Export Plug-In . SVG Version: 6.00 Build 0)  -->
<svg version="1.1" id="Слой_1" xmlns="http://www.w3.org/2000/svg" xmlns:xlink="http://www.w3.org/1999/xlink" x="0px" y="0px"
	 viewBox="0 0 300 300" style="enable-background:new 0 0 300 300;" xml:space="preserve">
<style type="text/css">
	.st0{fill:none;}
	.st1{fill:url(#SVGID_1_);}
	.st2{fill:url(#SVGID_2_);}
	.st3{fill:url(#SVGID_3_);}
	.st4{fill:url(#SVGID_4_);}
	.st5{fill:url(#SVGID_5_);}
	.st6{fill:url(#SVGID_6_);}
	.st7{fill:url(#SVGID_7_);}
	.st8{fill:url(#SVGID_8_);}
	.st9{fill:url(#SVGID_9_);}
	.st10{opacity:0.24;fill:url(#SVGID_10_);enable-background:new    ;}
	.st11{opacity:0.24;fill:url(#SVGID_11_);enable-background:new    ;}
	.st12{opacity:0.24;fill:url(#SVGID_12_);enable-background:new    ;}
	.st13{opacity:0.24;fill:url(#SVGID_13_);enable-background:new    ;}
	.st14{opacity:0.24;fill:url(#SVGID_14_);enable-background:new    ;}
	.st15{opacity:0.64;}
</style>
<rect x="64.2" y="98.8" class="st0" width="172.1" height="172.1"/>
<radialGradient id="SVGID_1_" cx="50.3153" cy="250.5294" r="1.2875" gradientTransform="matrix(86.3286 41.8834 41.8834 -86.3286 -14703.4229 19673.6621)" gradientUnits="userSpaceOnUse">
	<stop  offset="8.204800e-07" style="stop-color:#FFFF00"/>
	<stop  offset="0.1682" style="stop-color:#FEF308"/>
	<stop  offset="0.4708" style="stop-color:#FBD31D"/>
	<stop  offset="0.7171" style="stop-color:#F9B531"/>
	<stop  offset="0.9974" style="stop-color:#FF7900"/>
</radialGradient>
<path class="st1" d="M150,271.2c47.6,0,86.3-38.6,86.3-86.3S197.7,98.7,150,98.7c-47.6,0-86.3,38.6-86.3,86.3S102.4,271.2,150,271.2
	z"/>
<radialGradient id="SVGID_2_" cx="50.2376" cy="250.2612" r="1.2874" gradientTransform="matrix(41.639 0 0 -21.3027 -1941.6415 5553.2344)" gradientUnits="userSpaceOnUse">
	<stop  offset="3.662100e-04" style="stop-color:#333333"/>
	<stop  offset="1" style="stop-color:#1A1A1A"/>
</radialGradient>
<path class="st2" d="M150.2,196.2c0.9,0,1.8,0,2.7,0c8.1-0.2,16.1-1,24.2-1.3c6.5-0.3,17.1-1.8,22.4,2.5c7.6,6.2,2.5,18.7-1.4,25.4
	c-3.4,5.8-8.3,11.3-13.9,15.6c-3.1,2.4-15.9,11.7-34,11.3c-18.1,0.4-30.8-8.9-34-11.3c-5.6-4.3-10.5-9.8-13.9-15.6
	c-3.9-6.7-9-19.2-1.4-25.4c5.3-4.3,15.8-2.8,22.4-2.5c8.1,0.4,16.1,1.1,24.2,1.3C148.4,196.2,149.3,196.2,150.2,196.2z"/>
<rect x="69.1" y="116.6" class="st0" width="97.5" height="98.2"/>
<rect x="133.9" y="116.6" class="st0" width="97.5" height="98.2"/>
<linearGradient id="SVGID_3_" gradientUnits="userSpaceOnUse" x1="150.1995" y1="81.7664" x2="150.1995" y2="106.6281" gradientTransform="matrix(1 0 0 -1 0 301)">
	<stop  offset="1.092200e-06" style="stop-color:#FFFFFF"/>
	<stop  offset="0.3153" style="stop-color:#F3F3F3"/>
	<stop  offset="0.8833" style="stop-color:#D3D3D3"/>
	<stop  offset="1" style="stop-color:#CCCCCC"/>
</linearGradient>
<path class="st3" d="M150.2,219.2c7.1-0.2,13.9-1.1,19.2-2.2c6-1.2,12.2-3,16.2-7.1c4.1-4.2,5-9.8,4.7-15.5
	c-4.6-0.3-9.6,0.2-13.3,0.4c-8.1,0.4-16.1,1.1-24.2,1.3c-0.9,0-1.8,0-2.7,0c-0.9,0-1.8,0-2.7,0c-8.1-0.2-16.1-1-24.2-1.3
	c-3.7-0.2-8.7-0.7-13.3-0.4c-0.3,5.7,0.6,11.3,4.7,15.5c4,4.1,10.2,5.9,16.2,7.1C136.3,218.1,143.1,219,150.2,219.2z"/>
<linearGradient id="SVGID_4_" gradientUnits="userSpaceOnUse" x1="150.2065" y1="51.3599" x2="150.2065" y2="68.614" gradientTransform="matrix(1 0 0 -1 0 301)">
	<stop  offset="0" style="stop-color:#C91C24"/>
	<stop  offset="0.3207" style="stop-color:#D51C24"/>
	<stop  offset="0.7711" style="stop-color:#ED1C24"/>
</linearGradient>
<path class="st4" d="M150.2,249.6c15.9,0.4,27.6-6.8,32.4-10.1c-5.1-4.8-12.2-7.5-19.3-7.1c-4.7,0.3-9.2,2-13.1,4.7
	c-3.8-2.7-8.4-4.4-13.1-4.7c-7-0.4-14.2,2.3-19.3,7.1C122.6,242.9,134.3,250,150.2,249.6z"/>
<radialGradient id="SVGID_5_" cx="50.7547" cy="250.1041" r="1.2875" gradientTransform="matrix(-47.288 12.9019 12.9019 47.288 -704.42 -12351.6973)" gradientUnits="userSpaceOnUse">
	<stop  offset="0" style="stop-color:#FC94BE"/>
	<stop  offset="1" style="stop-color:#F43162"/>
</radialGradient>
<path class="st5" d="M77.7,131.5c11.7-3.2,23.9,3.7,27.1,15.5c-3.2-11.7,3.7-23.9,15.5-27.1c11.7-3.2,24.4,3.6,27.1,15.5
	c7,30.8-31.2,53.2-31.2,53.2s-44.2,0.1-53.8-30C58.5,147,65.9,134.7,77.7,131.5z"/>
<radialGradient id="SVGID_6_" cx="50.3249" cy="250.7793" r="1.2875" gradientTransform="matrix(47.4061 12.4606 12.4606 -47.4061 -5333.0142 11391.5244)" gradientUnits="userSpaceOnUse">
	<stop  offset="0" style="stop-color:#FC94BE"/>
	<stop  offset="1" style="stop-color:#F43162"/>
</radialGradient>
<path class="st6" d="M222.2,131.1c-11.8-3.1-23.8,3.9-26.9,15.7c3.1-11.8-3.9-23.8-15.7-26.9c-11.8-3.1-24.3,3.8-26.9,15.7
	c-6.7,30.9,31.7,52.9,31.7,52.9s44.2-0.3,53.6-30.5C241.5,146.4,234,134.2,222.2,131.1z"/>
<radialGradient id="SVGID_7_" cx="50.0748" cy="251.3201" r="1.2875" gradientTransform="matrix(34.9235 9.1795 9.1795 -34.9235 -3889.4431 8370.7793)" gradientUnits="userSpaceOnUse">
	<stop  offset="0" style="stop-color:#FC94BE"/>
	<stop  offset="1" style="stop-color:#F43162"/>
</radialGradient>
<path class="st7" d="M199.2,54.2c-8.7-2.3-17.5,2.9-19.8,11.6c2.3-8.7-2.9-17.5-11.6-19.8c-8.7-2.3-17.9,2.8-19.8,11.6
	c-4.9,22.8,23.3,38.9,23.3,38.9s32.5-0.2,39.5-22.4C213.5,65.5,207.9,56.5,199.2,54.2z"/>
<radialGradient id="SVGID_8_" cx="48.7409" cy="252.101" r="1.2875" gradientTransform="matrix(13.6397 3.5852 3.5852 -13.6397 -1451.2402 3336.9927)" gradientUnits="userSpaceOnUse">
	<stop  offset="0" style="stop-color:#FC94BE"/>
	<stop  offset="1" style="stop-color:#F43162"/>
</radialGradient>
<path class="st8" d="M130.2,73.4c-3.4-0.9-6.9,1.1-7.7,4.5c0.9-3.4-1.1-6.9-4.5-7.7c-3.4-0.9-7,1.1-7.7,4.5
	c-1.9,8.9,9.1,15.2,9.1,15.2s12.7-0.1,15.4-8.8C135.8,77.8,133.6,74.3,130.2,73.4z"/>
<radialGradient id="SVGID_9_" cx="50.5513" cy="248.8554" r="1.2875" gradientTransform="matrix(-22.663 8.5424 8.5424 22.663 -849.1638 -6037.4028)" gradientUnits="userSpaceOnUse">
	<stop  offset="0" style="stop-color:#FC94BE"/>
	<stop  offset="1" style="stop-color:#F43162"/>
</radialGradient>
<path class="st9" d="M109.1,37c5.6-2.1,11.9,0.7,14,6.3c-2.1-5.6,0.7-11.9,6.3-14c5.6-2.1,12.2,0.6,14,6.3
	c4.9,14.8-12.9,27.6-12.9,27.6s-21.7,2.1-27.9-12.2C100.4,45.5,103.5,39.1,109.1,37z"/>
<radialGradient id="SVGID_10_" cx="48.9553" cy="251.8634" r="1.2876" gradientTransform="matrix(10.0156 0 0 -10.0156 -360.4756 2660.6099)" gradientUnits="userSpaceOnUse">
	<stop  offset="0" style="stop-color:#FFFFFF"/>
	<stop  offset="1" style="stop-color:#FFFFFF;stop-opacity:0"/>
</radialGradient>
<path class="st10" d="M129.8,150.9c7.1,0,12.9-5.8,12.9-12.9c0-7.1-5.8-12.9-12.9-12.9c-7.1,0-12.9,5.8-12.9,12.9
	C116.9,145.2,122.7,150.9,129.8,150.9z"/>
<radialGradient id="SVGID_11_" cx="49.8675" cy="251.8634" r="1.2876" gradientTransform="matrix(10.0156 0 0 -10.0156 -328.6898 2660.6099)" gradientUnits="userSpaceOnUse">
	<stop  offset="0" style="stop-color:#FFFFFF"/>
	<stop  offset="1" style="stop-color:#FFFFFF;stop-opacity:0"/>
</radialGradient>
<path class="st11" d="M170.8,150.9c7.1,0,12.9-5.8,12.9-12.9c0-7.1-5.8-12.9-12.9-12.9c-7.1,0-12.9,5.8-12.9,12.9
	C157.9,145.2,163.6,150.9,170.8,150.9z"/>
<radialGradient id="SVGID_12_" cx="49.5931" cy="253.991" r="1.2876" gradientTransform="matrix(8.8334 0 0 -8.8334 -274.8042 2304.6936)" gradientUnits="userSpaceOnUse">
	<stop  offset="0" style="stop-color:#FFFFFF"/>
	<stop  offset="1" style="stop-color:#FFFFFF;stop-opacity:0"/>
</radialGradient>
<path class="st12" d="M163.3,72.5c6.3,0,11.4-5.1,11.4-11.4c0-6.3-5.1-11.4-11.4-11.4s-11.4,5.1-11.4,11.4
	C151.9,67.4,157,72.5,163.3,72.5z"/>
<radialGradient id="SVGID_13_" cx="48.1808" cy="256.1451" r="1.2878" gradientTransform="matrix(6.3024 0 0 -6.3024 -169.9789 1654.1852)" gradientUnits="userSpaceOnUse">
	<stop  offset="0" style="stop-color:#FFFFFF"/>
	<stop  offset="1" style="stop-color:#FFFFFF;stop-opacity:0"/>
</radialGradient>
<path class="st13" d="M133.7,48c4.5,0,8.1-3.6,8.1-8.1s-3.6-8.1-8.1-8.1c-4.5,0-8.1,3.6-8.1,8.1S129.2,48,133.7,48z"/>
<radialGradient id="SVGID_14_" cx="45.2046" cy="258.3253" r="1.2867" gradientTransform="matrix(3.5105 0 0 -3.5105 -42.8121 983.0258)" gradientUnits="userSpaceOnUse">
	<stop  offset="0" style="stop-color:#FFFFFF"/>
	<stop  offset="1" style="stop-color:#FFFFFF;stop-opacity:0"/>
</radialGradient>
<path class="st14" d="M115.9,80.7c2.5,0,4.5-2,4.5-4.5c0-2.5-2-4.5-4.5-4.5c-2.5,0-4.5,2-4.5,4.5C111.4,78.7,113.4,80.7,115.9,80.7z
	"/>
<g class="st15">
	<rect x="158.1" y="134.4" class="st0" width="98.9" height="76.8"/>
</g>
<g class="st15">
	<rect x="42.8" y="134.4" class="st0" width="98.9" height="76.8"/>
</g>
</svg>
