<?xml version="1.0" encoding="utf-8"?>
<!-- Generator: Adobe Illustrator 24.0.0, SVG Export Plug-In . SVG Version: 6.00 Build 0)  -->
<svg version="1.1" id="Слой_1" xmlns="http://www.w3.org/2000/svg" xmlns:xlink="http://www.w3.org/1999/xlink" x="0px" y="0px"
	 viewBox="0 0 300 300" style="enable-background:new 0 0 300 300;" xml:space="preserve">
<style type="text/css">
	.st0{fill:#994AE7;}
	.st1{fill:#EBF6FC;}
</style>
<path class="st0" d="M69.4,205.4c-2.3,0.1-4.4-1-6.4-3.2c-2.8-3-4.5-8-5.4-15c-0.8-7.1-0.3-13,1.5-17.8c1.8-4.7,4.4-7.7,7.6-8.9
	l-2.5,0.1l7.7-3c0.8-0.3,1.6-0.5,2.3-0.5c6.8-0.2,13.5-0.4,20.3-0.5c-0.8,0-1.5,0.2-2.3,0.5l-7.6,2.9l2.4-0.1
	c-3.3,1.3-5.8,4.2-7.7,9c-1.9,4.7-2.4,10.6-1.5,17.8c0.8,7,2.6,12,5.4,15c2,2.2,4.1,3.2,6.4,3.2C82.9,205.1,76.2,205.3,69.4,205.4"
	/>
<path class="st1" d="M79.8,201.9l-7.7,3c-3.3,1.3-6.3,0.4-9-2.6c-2.8-3-4.5-8-5.4-15c-0.8-7.1-0.3-13,1.5-17.8
	c1.9-4.7,4.4-7.7,7.7-9l7.7-3c3.2-1.2,6.2-0.1,9.1,3.4c2.8,3.5,4.6,8.4,5.4,14.7c1,8.5,0.6,14.6-1.1,18.4
	C86.2,197.9,83.5,200.5,79.8,201.9L79.8,201.9z M53.6,240.4c7,9.2,14.9,12.2,23.6,8.8l7.7-3c8.8-3.4,15.3-11.9,19.7-25.5
	c4.3-13.6,5.3-31,2.8-52.2c-2.5-21.3-7.3-36.8-14.4-46.3c-7.1-9.5-15-12.6-23.7-9.2l-7.7,3c-8.7,3.3-15.2,11.9-19.5,25.8
	c-4.4,13.8-5.3,31.4-2.8,52.6C41.8,215.8,46.5,231.2,53.6,240.4"/>
<path class="st0" d="M70.9,250.6c2.1-0.1,4.2-0.5,6.4-1.3l7.7-3c8.8-3.4,15.3-11.9,19.7-25.5c4.3-13.6,5.3-31,2.8-52.2
	c-2.5-21.3-7.3-36.8-14.4-46.3c-5.3-7.2-11.2-10.7-17.4-10.5l20.3-0.5c6.3-0.2,12.1,3.3,17.4,10.5c7.1,9.5,11.9,24.9,14.4,46.3
	c2.5,21.2,1.6,38.6-2.8,52.2c-4.3,13.6-10.9,22.1-19.7,25.5l-7.7,3c-2.2,0.8-4.3,1.3-6.4,1.3C84.4,250.2,77.6,250.4,70.9,250.6"/>
<path class="st1" d="M71.1,300.4l14.9,29l111.6-217.7l-15.8-27.5L71.1,300.4z"/>
<path class="st0" d="M86,329.4l22.7-0.6l111.6-217.7l-22.7,0.6L86,329.4z"/>
<path class="st0" d="M197.6,111.7l22.7-0.6l-15.8-27.5l-22.7,0.6L197.6,111.7z"/>
<path class="st0" d="M190.2,272.7c-2.5,0.1-4.9-1.1-7.1-3.6c-3.1-3.4-5.1-9-6-16.8c-0.9-8-0.4-14.6,1.7-19.9c2.1-5.2,4.9-8.6,8.5-10
	l-2.7,0.1l8.6-3.3c0.9-0.3,1.7-0.5,2.6-0.5c7.6-0.2,15.1-0.4,22.7-0.6c-0.9,0-1.7,0.2-2.6,0.5l-8.5,3.3l2.7-0.1
	c-3.7,1.4-6.5,4.7-8.6,10c-2.1,5.3-2.6,11.9-1.7,19.9c0.9,7.8,2.9,13.4,6,16.8c2.2,2.4,4.6,3.6,7.1,3.6
	C205.3,272.3,197.7,272.5,190.2,272.7"/>
<path class="st0" d="M191.8,323.1c2.3-0.1,4.7-0.6,7.1-1.5l8.7-3.3c9.8-3.8,17.2-13.3,22-28.5c4.8-15.2,5.9-34.7,3.1-58.4
	c-2.8-23.9-8.2-41.1-16.1-51.8c-6-8-12.5-12-19.5-11.8l22.7-0.6c7-0.2,13.5,3.7,19.5,11.8c7.9,10.6,13.3,27.9,16.1,51.8
	c2.8,23.7,1.8,43.2-3.1,58.4c-4.8,15.2-12.2,24.7-22,28.5l-8.7,3.3c-2.4,0.9-4.8,1.4-7.1,1.5C206.9,322.7,199.3,322.9,191.8,323.1z"
	/>
<path class="st1" d="M201.7,268.7l-8.6,3.3c-3.7,1.4-7,0.4-10.1-2.9c-3.1-3.4-5.1-9-6-16.8c-0.9-8-0.4-14.6,1.7-19.9
	c2.1-5.3,4.9-8.6,8.6-10l8.6-3.3c3.6-1.4,7-0.1,10.1,3.8c3.2,3.9,5.2,9.4,6,16.4c1.1,9.5,0.7,16.4-1.2,20.6
	C209,264.2,205.9,267.1,201.7,268.7L201.7,268.7z M172.5,311.8c7.9,10.3,16.7,13.6,26.4,9.8l8.7-3.3c9.8-3.8,17.2-13.3,22-28.5
	c4.8-15.2,5.9-34.7,3.1-58.4c-2.8-23.9-8.2-41.1-16.1-51.8c-7.9-10.6-16.7-14.1-26.5-10.3l-8.7,3.3c-9.7,3.7-17,13.3-21.9,28.8
	c-4.9,15.5-5.9,35.1-3.2,58.8C159.3,284.3,164.6,301.5,172.5,311.8z"/>
</svg>
