<?xml version="1.0" encoding="utf-8"?>
<!-- Generator: Adobe Illustrator 24.0.0, SVG Export Plug-In . SVG Version: 6.00 Build 0)  -->
<svg version="1.1" id="Слой_1" xmlns="http://www.w3.org/2000/svg" xmlns:xlink="http://www.w3.org/1999/xlink" x="0px" y="0px"
	 viewBox="0 0 300 300" style="enable-background:new 0 0 300 300;" xml:space="preserve">
<style type="text/css">
	.st0{fill:#A07944;}
	.st1{fill:#C19A60;}
	.st2{fill:#3A352E;}
	.st3{fill:#3BCBFE;}
	.st4{fill:#05ACD3;}
	.st5{fill:#FF4800;}
	.st6{fill:#FFD097;}
	.st7{fill:#FEBE77;}
	.st8{fill:#FEB771;}
	.st9{fill:#FFFFFF;}
	.st10{fill:#6D3500;}
	.st11{fill:#E53B00;}
	.st12{fill:#E9B793;}
	.st13{fill:#C37E4B;}
	.st14{fill:#B25C0F;}
	.st15{fill:#E79033;}
	.st16{fill:#AD2500;}
	.st17{fill:#FF6C45;}
	.st18{fill:#357787;}
	.st19{fill:#C1C2C2;}
	.st20{fill:#564E44;}
	.st21{fill:#316674;}
	.st22{fill:#3D1E00;}
</style>
<path class="st0" d="M146.3,243.4l-24.7-14.3c3.2-5.5,10.1-7.4,15.6-4.2l14.8,8.6L146.3,243.4z"/>
<path class="st1" d="M141.6,240.7c3.2-5.5,7.8-8.8,10.4-7.3l-5.7,10L141.6,240.7"/>
<path class="st1" d="M121.6,229.1c2.2-3.9,6.4-6,10.6-5.7c2.3,3.5,2.6,8.2,0.4,12.1L121.6,229.1"/>
<path class="st2" d="M122.6,227.7l24.5,14.3l-0.8,1.5l-24.5-14.3L122.6,227.7z"/>
<path class="st3" d="M169.9,169.7L138,225.4l15.4,9l31.9-55.6L169.9,169.7z"/>
<path class="st4" d="M177.6,174.2l-31.9,55.6l7.8,4.5l31.9-55.6L177.6,174.2"/>
<path class="st0" d="M196.8,261.9h28.5c0-6.4-5.1-11.5-11.4-11.5h-17.1V261.9z"/>
<path class="st1" d="M202.2,261.9c0-6.4-2.4-11.5-5.4-11.5v11.5H202.2z"/>
<path class="st1" d="M225.3,261.9c0-4.5-2.6-8.4-6.3-10.3c-3.8,1.9-6.3,5.8-6.3,10.3H225.3z"/>
<path class="st2" d="M225.1,260.2h-28.3v1.7h28.3V260.2z"/>
<path class="st3" d="M195.1,186.2v64.2h17.8v-64.2H195.1z"/>
<path class="st4" d="M195.1,186.2v64.2h8.8v-64.2H195.1z"/>
<path class="st5" d="M215.5,182.2l27.1-47.3l-39.8-23.2l-27.1,47.3L215.5,182.2"/>
<path class="st3" d="M221.7,171.1c-4.2-2.5-5.7-7.9-3.2-12.2l16.4-28.6l-4.5-2.6l-3.2,5.6c-2.4,4.3-7.9,5.7-12.1,3.3
	c-4.2-2.5-5.7-7.9-3.2-12.2l3.2-5.6l-4.5-2.6l-16.4,28.6c-2.4,4.3-7.9,5.7-12.1,3.3l-13.2,23.1l39.8,23.2L221.7,171.1
	C221.8,171.2,221.7,171.1,221.7,171.1"/>
<path class="st6" d="M250.2,114.7c-1.3,2.3-0.5,5.2,1.7,6.5c2.3,1.3,5.1,0.5,6.4-1.7c1.3-2.3,0.5-5.2-1.7-6.5
	C254.4,111.7,251.5,112.4,250.2,114.7"/>
<path class="st7" d="M209.6,91.1c-1.3,2.3-0.5,5.2,1.7,6.5c2.2,1.3,5.1,0.5,6.4-1.7c1.3-2.3,0.5-5.2-1.7-6.5
	C213.8,88,210.9,88.8,209.6,91.1"/>
<path class="st8" d="M216,116.8c-2.6,4.5-1,10.3,3.4,12.9c4.5,2.6,10.2,1.1,12.8-3.5l2-3.5c2.6-4.5,1.1-10.3-3.4-12.9
	c-4.5-2.6-10.2-1.1-12.8,3.5L216,116.8"/>
<path class="st6" d="M214.9,91c-6.5,11.4-2.6,25.9,8.6,32.4c11.3,6.6,25.7,2.7,32.2-8.7l6.2-10.8c6.5-11.4,2.6-25.9-8.6-32.4
	c-11.3-6.6-25.7-2.7-32.2,8.7L214.9,91"/>
<path class="st7" d="M225.8,119.5L225.8,119.5l-2.3,4c-11.2-6.6-15.1-21.1-8.6-32.4l6.2-10.8c5.2-9,15.3-13.3,24.9-11.4
	c2.4,0.6,4.8,1.6,7.1,3l-23.8,41.5l-4.1-0.1l3.1,1.8l-1.9,3.3l0,0c-1.5-0.8-3.3-0.4-4.2,1.1C223.5,118.8,224.7,118.9,225.8,119.5"/>
<path class="st9" d="M241.9,108.9c-0.9,1.6-0.4,3.7,1.2,4.7c1.6,0.9,3.7,0.4,4.7-1.3c0.9-1.6,0.4-3.7-1.2-4.7
	C245,106.7,242.9,107.2,241.9,108.9"/>
<path class="st9" d="M221,96.7c-0.9,1.6-0.4,3.7,1.2,4.7c1.6,0.9,3.7,0.4,4.7-1.3c0.9-1.6,0.4-3.7-1.2-4.7
	C224,94.5,221.9,95.1,221,96.7z"/>
<path d="M241.9,108.9c-0.7,1.2-0.4,2.6,0.6,3.2c1,0.6,2.4,0.1,3-1.1c0.7-1.2,0.4-2.6-0.6-3.2C244,107.2,242.6,107.7,241.9,108.9z"/>
<path d="M221,96.7c-0.7,1.2-0.4,2.6,0.6,3.2c1,0.6,2.4,0.1,3-1.1c0.7-1.2,0.4-2.6-0.6-3.2C223,95,221.7,95.5,221,96.7z"/>
<path class="st10" d="M263.2,107.6c6.1-13.6,2.1-29.3-9.8-36.3c-4.6-2.7-9.8-3.7-14.9-3.2c-0.4,0.6-0.8,1.2-1.2,1.9
	c-7.4,12.9-4,28.8,7.6,35.6C250.5,109,257.1,109.5,263.2,107.6"/>
<path class="st10" d="M231.8,79.7c6-1.9,10.9-6,14.4-11c-10.1-2.1-19.3,0.5-26.3,9.6C223.7,80.5,227.1,81.2,231.8,79.7z"/>
<path class="st6" d="M229.4,113.2l1.1-2l0,0L229.4,113.2z"/>
<path class="st6" d="M232.3,105.6l1.1,0.7l-2.8,5l-1.1-0.7c-1.4-0.8-1.8-2.6-1-3.9C229.2,105.3,230.9,104.8,232.3,105.6"/>
<path class="st9" d="M231.5,116.7c-1,1.7-3.2,2.3-4.9,1.3c-1.7-1-2.3-3.2-1.3-4.9L231.5,116.7"/>
<path class="st10" d="M224.6,90.6l6.2,3.6l0.8-1.5l-6.2-3.6L224.6,90.6z"/>
<path class="st10" d="M251.8,114.5l7.3,0.2l4-7.1l-5.6-3.2L251.8,114.5"/>
<path class="st10" d="M214,88.5l3.5,6.8l8.5-14.8l-6.1-2.2L214,88.5z"/>
<path class="st11" d="M233.5,135.6c4.8-3.1,11.1-1.8,14.3,3c2.2,3.4,0.4,11,0.4,11c-5,23.8-28.2,39-51.8,34l3.9-18.9
	c12.9,2.7,25-4.6,28.3-17.8C229.7,142.9,229.7,138.1,233.5,135.6"/>
<path class="st5" d="M198.3,174.3l2-9.5c12.9,2.7,25-4.6,28.3-17.8c1-4.1,1.1-8.9,4.8-11.4c2.2-1.5,5.6-2.3,8.9-1.2
	c0,0-1.4,6.1-2.1,9.3C236.1,164,218.4,178.5,198.3,174.3z"/>
<path class="st6" d="M200.2,182.1c-4.7,3-10.9,1.6-13.9-3.1c-3-4.7-1.6-11,3.1-14c4.7-3,10.9-1.6,13.9,3.1
	C206.3,172.8,204.9,179.1,200.2,182.1z"/>
<path class="st7" d="M200.9,165.5c3,4.7,1.6,11-3.1,14c-3.6,2.3-8.2,2-11.5-0.4c3,4.7,9.2,6,13.9,3c4.7-3,6.1-9.3,3.1-14
	C202.6,167,201.8,166.1,200.9,165.5C200.9,165.4,200.9,165.5,200.9,165.5z"/>
<path class="st11" d="M204.9,113.4c4,4,4,10.6,0,14.7c-2.9,2.9-10.6,2.7-10.6,2.7c-24.1,0-43.7-19.8-43.7-44l19.1,0
	c0,13.3,9.6,23.7,23.1,24.3C197.1,111.2,201.8,110.2,204.9,113.4"/>
<path class="st5" d="M160.2,86.7l9.6,0c0,13.3,9.6,23.7,23.1,24.3c4.2,0.2,8.9-0.8,12.1,2.4c1.9,1.9,3.4,5,3,8.5
	c0,0-6.2-0.1-9.5-0.1C178,121.8,160.2,107.4,160.2,86.7"/>
<path class="st6" d="M167.4,90.2c3.9-4,3.8-10.4-0.1-14.4c-4-3.9-10.4-3.9-14.3,0.1c-3.9,4-3.8,10.4,0.1,14.4
	C157.1,94.3,163.5,94.2,167.4,90.2"/>
<path class="st7" d="M151.1,87.4c4,3.9,10.4,3.9,14.3-0.1c3-3.1,3.7-7.7,1.9-11.4c3.9,3.9,4,10.3,0.1,14.3c-3.9,4-10.3,4.1-14.3,0.1
	C152.2,89.5,151.5,88.5,151.1,87.4C151.1,87.4,151.1,87.4,151.1,87.4"/>
<path class="st12" d="M173.2,52.8l-14.8,1.4l29.2-15.1l14.8-1.4L173.2,52.8z"/>
<path class="st13" d="M173.2,52.8l-14.8,1.4l9.9,26.7l14.8-1.4L173.2,52.8"/>
<path class="st12" d="M173.2,52.8l29.1-15.1l9.9,26.7l-29.1,15.1L173.2,52.8"/>
<path class="st14" d="M182.7,71.7l4-2.2l1.9,5l-4,2.2L182.7,71.7"/>
<path class="st14" d="M192.2,38.7l-28.8,15l4.3-0.4l29.7-15.1L192.2,38.7"/>
<path class="st14" d="M169.6,61.3l1.7,1.7l-3.5-9.7l-4.3,0.4l3.3,9.3l0.5-1.7l1.7,1.7L169.6,61.3"/>
<path class="st13" d="M213,165.4l21.7-0.7l-1.5-44.6l-21.7,0.7L213,165.4"/>
<path class="st12" d="M213,165.4l-67.2,2.3l-1.5-44.6l67.2-2.3L213,165.4"/>
<path class="st14" d="M165,163l-15.1,0.4l-0.5-11.8l15.1-0.4L165,163z"/>
<path class="st14" d="M225.7,120.3l-6.6,0.2l0.6,17l1.6-2.8l1.7,2.7l1.6-2.8l1.7,2.7L225.7,120.3"/>
<path class="st15" d="M197.6,108.4l19,2.3l-40.7,10.9l-19-2.3L197.6,108.4z"/>
<path class="st13" d="M197.6,108.4l19,2.3l-5.1-36.2l-19-2.3L197.6,108.4"/>
<path class="st12" d="M197.6,108.4L157,119.3l-5.1-36.2l40.5-10.9L197.6,108.4"/>
<path class="st14" d="M164.6,114.1l-5.6,1.6l-1-6.8l5.6-1.6L164.6,114.1z"/>
<path class="st14" d="M201.9,86l1-2l1.8,2.5l1-2l1.8,2.5l-2.2-13.3l-5.6-0.7L201.9,86"/>
<path class="st5" d="M270.1,69.5l-25.8-15c-3-1.7-6.8-0.7-8.5,2.3L229,68.9l36.5,21.2l6.9-12.1C274.1,75,273.1,71.2,270.1,69.5"/>
<path class="st11" d="M220.4,63.6c-2.1,3.6-0.8,8.2,2.7,10.3l25.1,14.6c3.6,2.1,8.2,0.8,10.3-2.8L220.4,63.6z"/>
<path class="st16" d="M234.8,72l-14.4-8.4c-2.1,3.6-0.8,8.2,2.7,10.3l14.4,8.4C239.6,78.7,238.4,74.1,234.8,72"/>
<path class="st11" d="M261.4,87.8c-1,1.7-3.1,2.3-4.8,1.3c-1.7-1-2.2-3.1-1.3-4.8c1-1.7,3.1-2.3,4.8-1.3
	C261.8,84,262.4,86.2,261.4,87.8z"/>
<path class="st11" d="M266.3,84.3c-0.5,1-1.8,1.3-2.7,0.7c-0.9-0.5-1.3-1.8-0.7-2.7l3.6-6.2c0.5-1,1.8-1.3,2.7-0.7
	c0.9,0.5,1.3,1.8,0.7,2.7L266.3,84.3z"/>
<path class="st17" d="M241.7,61.7c-0.9-0.5-1.3-1.8-0.7-2.7c0.5-1,1.8-1.3,2.7-0.7l6.2,3.6c0.9,0.6,1.3,1.8,0.7,2.7
	c-0.5,1-1.8,1.3-2.7,0.7L241.7,61.7z"/>
<path class="st18" d="M60.4,186.2v64.2h17.8v-64.2H60.4z"/>
<path class="st6" d="M67,175.3c4,3.9,10.4,3.8,14.3-0.2c3.9-4,3.8-10.5-0.2-14.4c-4-3.9-10.4-3.8-14.3,0.2
	C62.9,164.9,63,171.4,67,175.3"/>
<path class="st7" d="M69.7,158.9c-3.9,4-3.8,10.4,0.2,14.4c3.1,3,7.6,3.7,11.3,1.9c-3.9,4-10.2,4-14.2,0.1c-4-3.9-4.1-10.3-0.2-14.4
	C67.7,160,68.7,159.3,69.7,158.9C69.8,158.8,69.7,158.8,69.7,158.9z"/>
<path class="st7" d="M43.9,123c-4-4-10.6-4-14.6,0c-2.9,2.9-2.6,10.6-2.6,10.6c0.1,24.3,19.7,44,43.8,43.9l0-19.3
	c-13.2,0-23.6-9.6-24.1-23.2C46.1,130.9,47,126.2,43.9,123z"/>
<path class="st19" d="M28.7,149.4l19.1-6.4c-0.8-2.3-1.2-4.7-1.3-7.3c-0.2-4.4,0.8-9.3-2.5-12.6c-4.2-4.2-11-4.2-15.1,0
	c-3,3-2.7,11-2.7,11C26.1,139.5,27,144.6,28.7,149.4"/>
<path class="st9" d="M29.2,150.8l-0.9-2.8l19.1-6.4l0.9,2.8L29.2,150.8"/>
<path class="st2" d="M40.3,261.9h28.5c0-6.4-5.1-11.5-11.4-11.5H40.3V261.9z"/>
<path class="st20" d="M50.4,261.9c0-6.4-7.1-11.5-10.1-11.5v11.5H50.4z"/>
<path class="st2" d="M68.6,260.2H40.3v1.7h28.3V260.2z"/>
<path class="st18" d="M56.4,186.2v64.2H38.6v-64.2H56.4z"/>
<path class="st21" d="M69.3,192.7H47.5v-4.4h21.8V192.7"/>
<path class="st21" d="M56.4,186.2v64.2h-8.8v-64.2H56.4z"/>
<path class="st2" d="M62.1,261.9h28.5c0-6.4-5.1-11.5-11.4-11.5H62.1V261.9z"/>
<path class="st20" d="M71.6,261.9c0-6.4-6.5-11.5-9.5-11.5v11.5H71.6z"/>
<path class="st2" d="M90.5,260.2H62.1v1.7h28.3V260.2z"/>
<path class="st21" d="M60.4,186.2v64.2h8.8v-64.2H60.4z"/>
<path class="st6" d="M87.3,98.2H86v5.6h1.3c1.5,0,2.8-1.3,2.8-2.8C90.1,99.5,88.8,98.2,87.3,98.2"/>
<path class="st6" d="M87.6,96.8c0,12.9-10.4,23.3-23.1,23.3c-12.8,0-23.1-10.4-23.1-23.3V84.5c0-12.9,10.4-23.3,23.1-23.3
	c12.8,0,23.1,10.4,23.1,23.3V96.8z"/>
<path class="st9" d="M86.8,98.2c0,1.9-1.5,3.4-3.4,3.4c-1.9,0-3.4-1.5-3.4-3.4c0-1.9,1.5-3.4,3.4-3.4C85.2,94.8,86.8,96.3,86.8,98.2
	z"/>
<path d="M86.8,98.2c0,1.4-0.9,2.5-2.1,2.5c-1.2,0-2.1-1.1-2.1-2.5c0-1.4,0.9-2.5,2.1-2.5C85.8,95.8,86.8,96.9,86.8,98.2"/>
<path class="st6" d="M69,122.2c0,5.7-4.6,10.3-10.2,10.3c-5.6,0-10.2-4.6-10.2-10.3v-5.4c0-5.7,4.6-10.3,10.2-10.3
	c5.6,0,10.2,4.6,10.2,10.3V122.2z"/>
<path class="st22" d="M48.4,65.3c-6,4.2-10,11.2-10,19.2v12.3c0,9.7,5.9,18.1,14.4,21.6c6-4.2,14.1-11.2,14.1-19.2V86.9
	C66.9,77.2,56.9,68.8,48.4,65.3"/>
<path class="st9" d="M83.6,108.7c0,2-1.6,3.5-3.5,3.5c-1.9,0-3.5-1.6-3.5-3.5H83.6z"/>
<path class="st22" d="M87.2,89.5h-7.1v-1.6h7.1V89.5z"/>
<path class="st6" d="M62.8,101.1c0,2.6,2.1,4.7,4.6,4.7v-9.3C64.8,96.4,62.8,98.5,62.8,101.1z"/>
<path class="st22" d="M70.3,81.7c-4.1-4.1-6.4-9.4-6.8-14.8C73,69.7,80.3,78,81.8,88.1C77.6,87.2,73.6,85,70.3,81.7z"/>
<path class="st22" d="M61.3,81.7c3.3,3.3,7.3,5.4,11.5,6.4c-1.4-9.1-7.4-16.7-15.6-20.2c-0.8,0.4-1.7,0.8-2.5,1.2
	C55.6,73.8,57.8,78.2,61.3,81.7z"/>
<path class="st22" d="M44.1,75.9c1.1,2.1,2.5,4,4.2,5.8c3.3,3.3,7.3,5.4,11.5,6.4c-1.1-7.1-5-13.3-10.5-17.3
	C47.4,72.3,45.6,74,44.1,75.9"/>
<path class="st22" d="M83.8,68.6c-4.8-5.2-11.6-8.5-19.2-8.5c-6.4,0-12.3,2.4-16.9,6.3v4.1h36V68.6"/>
<path class="st22" d="M78.9,81.7c3.3,3.3,7.3,5.4,11.5,6.4c0,0,0.3-9.2-2.5-14.1C83.3,65.8,75,60.1,64.2,60.1
	c-14.1,0-25.6,10.4-25.6,23.3v3.8c3,0.7,5.7,0.8,8,0.5v-8.4l29.5-0.9C76.9,79.5,77.8,80.6,78.9,81.7z"/>
<path class="st19" d="M80.2,188.2H36.5V120h43.7V188.2"/>
<path class="st6" d="M111.5,175.3c4,3.9,10.4,3.8,14.3-0.2c3.9-4,3.8-10.5-0.2-14.4c-4-3.9-10.4-3.8-14.3,0.2
	C107.4,165,107.5,171.4,111.5,175.3"/>
<path class="st7" d="M114.2,158.9c-3.9,4-3.8,10.4,0.2,14.4c3.1,3,7.6,3.7,11.3,1.9c-3.9,4-10.2,4-14.2,0.1
	c-4-3.9-4.1-10.3-0.2-14.4C112.2,160.1,113.2,159.4,114.2,158.9C114.2,158.9,114.2,158.9,114.2,158.9"/>
<path class="st7" d="M114.9,158.3c-10.5,0-19.3-6.1-22.7-15.6H72.1c4.2,19.9,21.8,34.9,42.9,34.9L114.9,158.3"/>
<path class="st6" d="M114.9,158.3c-10.5,0-19.3-6.1-22.7-15.6H82.1c4.7,14.5,16.9,25.3,32.8,25.3L114.9,158.3"/>
<path class="st19" d="M73.4,149.4L93,143c-0.8-2.3-1.2-4.7-1.3-7.3c-0.2-4.4,0.8-9.3-2.5-12.6c-4.2-4.2-11.5-4.2-15.7,0
	c-3,3-2.7,11-2.7,11C70.8,139.5,71.7,144.6,73.4,149.4"/>
<path class="st9" d="M43.7,120c2.5,1.7,8.1,2.9,14.6,2.9c6.5,0,12.1-1.2,14.6-2.9H43.7"/>
<path class="st9" d="M74.4,150.8l-0.9-2.8l19.1-6.4l0.9,2.8L74.4,150.8"/>
</svg>
