<svg width="108" height="13" viewBox="0 0 108 13" fill="none" xmlns="http://www.w3.org/2000/svg">
<path d="M8.35156 6.27344C8.35156 8.2474 8.03906 9.72135 7.41406 10.6953C6.79427 11.6693 5.84375 12.1562 4.5625 12.1562C3.33333 12.1562 2.39844 11.6589 1.75781 10.6641C1.11719 9.66406 0.796875 8.20052 0.796875 6.27344C0.796875 4.28385 1.10677 2.80729 1.72656 1.84375C2.34635 0.880208 3.29167 0.398438 4.5625 0.398438C5.80208 0.398438 6.74219 0.901042 7.38281 1.90625C8.02865 2.91146 8.35156 4.36719 8.35156 6.27344ZM2.10938 6.27344C2.10938 7.9349 2.30469 9.14583 2.69531 9.90625C3.08594 10.6615 3.70833 11.0391 4.5625 11.0391C5.42708 11.0391 6.05208 10.6562 6.4375 9.89062C6.82812 9.11979 7.02344 7.91406 7.02344 6.27344C7.02344 4.63281 6.82812 3.43229 6.4375 2.67188C6.05208 1.90625 5.42708 1.52344 4.5625 1.52344C3.70833 1.52344 3.08594 1.90104 2.69531 2.65625C2.30469 3.40625 2.10938 4.61198 2.10938 6.27344ZM18.3044 9.375H16.6091V12H15.3669V9.375H9.81219V8.24219L15.2341 0.515625H16.6091V8.19531H18.3044V9.375ZM15.3669 8.19531V4.39844C15.3669 3.65365 15.3929 2.8125 15.445 1.875H15.3825C15.1325 2.375 14.8981 2.78906 14.6794 3.11719L11.1091 8.19531H15.3669ZM27.7806 9.375H26.0853V12H24.8431V9.375H19.2884V8.24219L24.7103 0.515625H26.0853V8.19531H27.7806V9.375ZM24.8431 8.19531V4.39844C24.8431 3.65365 24.8692 2.8125 24.9212 1.875H24.8587C24.6087 2.375 24.3744 2.78906 24.1556 3.11719L20.5853 8.19531H24.8431ZM41.7331 9.375H40.0378V12H38.7956V9.375H33.2409V8.24219L38.6628 0.515625H40.0378V8.19531H41.7331V9.375ZM38.7956 8.19531V4.39844C38.7956 3.65365 38.8217 2.8125 38.8737 1.875H38.8112C38.5612 2.375 38.3269 2.78906 38.1081 3.11719L34.5378 8.19531H38.7956ZM51.2094 9.375H49.5141V12H48.2719V9.375H42.7172V8.24219L48.1391 0.515625H49.5141V8.19531H51.2094V9.375ZM48.2719 8.19531V4.39844C48.2719 3.65365 48.2979 2.8125 48.35 1.875H48.2875C48.0375 2.375 47.8031 2.78906 47.5844 3.11719L44.0141 8.19531H48.2719ZM60.1466 5.45312C60.1466 9.92188 58.4174 12.1562 54.9591 12.1562C54.3549 12.1562 53.8757 12.1042 53.5216 12V10.8828C53.9382 11.0182 54.4122 11.0859 54.9434 11.0859C56.1934 11.0859 57.1361 10.7005 57.7716 9.92969C58.4122 9.15365 58.7611 7.96615 58.8184 6.36719H58.7247C58.4382 6.79948 58.058 7.13021 57.5841 7.35938C57.1101 7.58333 56.5762 7.69531 55.9825 7.69531C54.9721 7.69531 54.17 7.39323 53.5762 6.78906C52.9825 6.1849 52.6856 5.34115 52.6856 4.25781C52.6856 3.07031 53.0164 2.13281 53.6778 1.44531C54.3445 0.757812 55.2195 0.414062 56.3028 0.414062C57.0789 0.414062 57.7559 0.614583 58.3341 1.01562C58.9174 1.41146 59.3653 1.99219 59.6778 2.75781C59.9903 3.51823 60.1466 4.41667 60.1466 5.45312ZM56.3028 1.52344C55.558 1.52344 54.9825 1.76302 54.5762 2.24219C54.17 2.72135 53.9669 3.38802 53.9669 4.24219C53.9669 4.99219 54.1544 5.58333 54.5294 6.01562C54.9044 6.44271 55.4747 6.65625 56.2403 6.65625C56.7143 6.65625 57.1492 6.5599 57.545 6.36719C57.946 6.17448 58.2611 5.91146 58.4903 5.57812C58.7195 5.24479 58.8341 4.89583 58.8341 4.53125C58.8341 3.98438 58.7273 3.47917 58.5137 3.01562C58.3002 2.55208 58.0007 2.1875 57.6153 1.92188C57.2351 1.65625 56.7976 1.52344 56.3028 1.52344ZM68.0366 12L72.7709 1.77344H66.5444V0.578125H74.1459V1.61719L69.4741 12H68.0366ZM76.2003 7.11719C76.2003 4.8724 76.6352 3.19531 77.505 2.08594C78.38 0.971354 79.6717 0.414062 81.38 0.414062C81.9685 0.414062 82.4321 0.463542 82.7706 0.5625V1.67969C82.3696 1.54948 81.9112 1.48438 81.3956 1.48438C80.1717 1.48438 79.2368 1.86719 78.5909 2.63281C77.9451 3.39323 77.5909 4.59115 77.5284 6.22656H77.6222C78.1951 5.33073 79.1014 4.88281 80.3409 4.88281C81.367 4.88281 82.1743 5.19271 82.7628 5.8125C83.3566 6.43229 83.6534 7.27344 83.6534 8.33594C83.6534 9.52344 83.3279 10.4583 82.6769 11.1406C82.031 11.8177 81.156 12.1562 80.0519 12.1562C78.8696 12.1562 77.9321 11.7135 77.2394 10.8281C76.5467 9.9375 76.2003 8.70052 76.2003 7.11719ZM80.0362 11.0547C80.7758 11.0547 81.3487 10.8229 81.755 10.3594C82.1665 9.89062 82.3722 9.21615 82.3722 8.33594C82.3722 7.58073 82.1821 6.98698 81.8019 6.55469C81.4217 6.1224 80.854 5.90625 80.0987 5.90625C79.63 5.90625 79.2003 6.0026 78.8097 6.19531C78.4191 6.38802 78.1066 6.65365 77.8722 6.99219C77.643 7.33073 77.5284 7.68229 77.5284 8.04688C77.5284 8.58333 77.6326 9.08333 77.8409 9.54688C78.0493 10.0104 78.3435 10.3776 78.7237 10.6484C79.1092 10.9193 79.5467 11.0547 80.0362 11.0547ZM90.1528 7.11719C90.1528 4.8724 90.5877 3.19531 91.4575 2.08594C92.3325 0.971354 93.6242 0.414062 95.3325 0.414062C95.921 0.414062 96.3846 0.463542 96.7231 0.5625V1.67969C96.3221 1.54948 95.8637 1.48438 95.3481 1.48438C94.1242 1.48438 93.1893 1.86719 92.5434 2.63281C91.8976 3.39323 91.5434 4.59115 91.4809 6.22656H91.5747C92.1476 5.33073 93.0539 4.88281 94.2934 4.88281C95.3195 4.88281 96.1268 5.19271 96.7153 5.8125C97.3091 6.43229 97.6059 7.27344 97.6059 8.33594C97.6059 9.52344 97.2804 10.4583 96.6294 11.1406C95.9835 11.8177 95.1085 12.1562 94.0044 12.1562C92.8221 12.1562 91.8846 11.7135 91.1919 10.8281C90.4992 9.9375 90.1528 8.70052 90.1528 7.11719ZM93.9887 11.0547C94.7283 11.0547 95.3012 10.8229 95.7075 10.3594C96.119 9.89062 96.3247 9.21615 96.3247 8.33594C96.3247 7.58073 96.1346 6.98698 95.7544 6.55469C95.3742 6.1224 94.8065 5.90625 94.0512 5.90625C93.5825 5.90625 93.1528 6.0026 92.7622 6.19531C92.3716 6.38802 92.0591 6.65365 91.8247 6.99219C91.5955 7.33073 91.4809 7.68229 91.4809 8.04688C91.4809 8.58333 91.5851 9.08333 91.7934 9.54688C92.0018 10.0104 92.296 10.3776 92.6762 10.6484C93.0617 10.9193 93.4992 11.0547 93.9887 11.0547ZM103.277 0.414062C104.319 0.414062 105.145 0.65625 105.754 1.14062C106.363 1.625 106.668 2.29427 106.668 3.14844C106.668 3.71094 106.494 4.22396 106.145 4.6875C105.796 5.15104 105.238 5.57292 104.473 5.95312C105.4 6.39583 106.059 6.86198 106.449 7.35156C106.84 7.83594 107.035 8.39844 107.035 9.03906C107.035 9.98698 106.705 10.7448 106.043 11.3125C105.382 11.875 104.475 12.1562 103.324 12.1562C102.106 12.1562 101.168 11.8906 100.512 11.3594C99.8556 10.8229 99.5275 10.0651 99.5275 9.08594C99.5275 7.77865 100.324 6.76042 101.918 6.03125C101.199 5.625 100.684 5.1875 100.371 4.71875C100.059 4.24479 99.9025 3.71615 99.9025 3.13281C99.9025 2.30469 100.207 1.64583 100.817 1.15625C101.431 0.661458 102.251 0.414062 103.277 0.414062ZM100.809 9.11719C100.809 9.74219 101.025 10.2292 101.457 10.5781C101.895 10.9271 102.507 11.1016 103.293 11.1016C104.069 11.1016 104.673 10.9193 105.106 10.5547C105.538 10.1901 105.754 9.6901 105.754 9.05469C105.754 8.54948 105.551 8.10156 105.145 7.71094C104.738 7.3151 104.03 6.93229 103.02 6.5625C102.244 6.89583 101.681 7.26562 101.332 7.67188C100.983 8.07292 100.809 8.55469 100.809 9.11719ZM103.262 1.46875C102.611 1.46875 102.1 1.625 101.731 1.9375C101.361 2.25 101.176 2.66667 101.176 3.1875C101.176 3.66667 101.33 4.07812 101.637 4.42188C101.944 4.76562 102.512 5.10938 103.34 5.45312C104.085 5.14062 104.611 4.80469 104.918 4.44531C105.231 4.08594 105.387 3.66667 105.387 3.1875C105.387 2.66146 105.197 2.24479 104.817 1.9375C104.442 1.625 103.923 1.46875 103.262 1.46875Z" fill="#163955"/>
</svg>
