<svg width="105" height="13" viewBox="0 0 105 13" fill="none" xmlns="http://www.w3.org/2000/svg">
<path d="M8.35156 6.27344C8.35156 8.2474 8.03906 9.72135 7.41406 10.6953C6.79427 11.6693 5.84375 12.1562 4.5625 12.1562C3.33333 12.1562 2.39844 11.6589 1.75781 10.6641C1.11719 9.66406 0.796875 8.20052 0.796875 6.27344C0.796875 4.28385 1.10677 2.80729 1.72656 1.84375C2.34635 0.880208 3.29167 0.398438 4.5625 0.398438C5.80208 0.398438 6.74219 0.901042 7.38281 1.90625C8.02865 2.91146 8.35156 4.36719 8.35156 6.27344ZM2.10938 6.27344C2.10938 7.9349 2.30469 9.14583 2.69531 9.90625C3.08594 10.6615 3.70833 11.0391 4.5625 11.0391C5.42708 11.0391 6.05208 10.6562 6.4375 9.89062C6.82812 9.11979 7.02344 7.91406 7.02344 6.27344C7.02344 4.63281 6.82812 3.43229 6.4375 2.67188C6.05208 1.90625 5.42708 1.52344 4.5625 1.52344C3.70833 1.52344 3.08594 1.90104 2.69531 2.65625C2.30469 3.40625 2.10938 4.61198 2.10938 6.27344ZM17.7653 5.45312C17.7653 9.92188 16.0361 12.1562 12.5778 12.1562C11.9736 12.1562 11.4945 12.1042 11.1403 12V10.8828C11.557 11.0182 12.0309 11.0859 12.5622 11.0859C13.8122 11.0859 14.7549 10.7005 15.3903 9.92969C16.0309 9.15365 16.3799 7.96615 16.4372 6.36719H16.3434C16.057 6.79948 15.6768 7.13021 15.2028 7.35938C14.7289 7.58333 14.195 7.69531 13.6012 7.69531C12.5908 7.69531 11.7887 7.39323 11.195 6.78906C10.6012 6.1849 10.3044 5.34115 10.3044 4.25781C10.3044 3.07031 10.6351 2.13281 11.2966 1.44531C11.9632 0.757812 12.8382 0.414062 13.9216 0.414062C14.6976 0.414062 15.3747 0.614583 15.9528 1.01562C16.5361 1.41146 16.9841 1.99219 17.2966 2.75781C17.6091 3.51823 17.7653 4.41667 17.7653 5.45312ZM13.9216 1.52344C13.1768 1.52344 12.6012 1.76302 12.195 2.24219C11.7887 2.72135 11.5856 3.38802 11.5856 4.24219C11.5856 4.99219 11.7731 5.58333 12.1481 6.01562C12.5231 6.44271 13.0934 6.65625 13.8591 6.65625C14.333 6.65625 14.7679 6.5599 15.1637 6.36719C15.5648 6.17448 15.8799 5.91146 16.1091 5.57812C16.3382 5.24479 16.4528 4.89583 16.4528 4.53125C16.4528 3.98438 16.346 3.47917 16.1325 3.01562C15.919 2.55208 15.6195 2.1875 15.2341 1.92188C14.8539 1.65625 14.4164 1.52344 13.9216 1.52344ZM26.8119 3.26562C26.8119 3.99479 26.6061 4.59115 26.1947 5.05469C25.7884 5.51823 25.2103 5.82812 24.4603 5.98438V6.04688C25.377 6.16146 26.0567 6.45312 26.4994 6.92188C26.9421 7.39062 27.1634 8.00521 27.1634 8.76562C27.1634 9.85417 26.7858 10.6927 26.0306 11.2812C25.2754 11.8646 24.2025 12.1562 22.8119 12.1562C22.2077 12.1562 21.653 12.1094 21.1478 12.0156C20.6478 11.9271 20.1608 11.7682 19.6869 11.5391V10.3047C20.1817 10.5495 20.7077 10.737 21.265 10.8672C21.8275 10.9922 22.3587 11.0547 22.8587 11.0547C24.8327 11.0547 25.8197 10.2812 25.8197 8.73438C25.8197 7.34896 24.7311 6.65625 22.5541 6.65625H21.4291V5.53906H22.5697C23.4603 5.53906 24.166 5.34375 24.6869 4.95312C25.2077 4.55729 25.4681 4.01042 25.4681 3.3125C25.4681 2.75521 25.2754 2.31771 24.89 2C24.5098 1.68229 23.9916 1.52344 23.3353 1.52344C22.8353 1.52344 22.364 1.59115 21.9212 1.72656C21.4785 1.86198 20.9733 2.11198 20.4056 2.47656L19.7494 1.60156C20.2181 1.23177 20.7572 0.942708 21.3666 0.734375C21.9811 0.520833 22.627 0.414062 23.3041 0.414062C24.4134 0.414062 25.2754 0.669271 25.89 1.17969C26.5046 1.6849 26.8119 2.38021 26.8119 3.26562ZM41.2566 6.27344C41.2566 8.2474 40.9441 9.72135 40.3191 10.6953C39.6993 11.6693 38.7487 12.1562 37.4675 12.1562C36.2383 12.1562 35.3034 11.6589 34.6628 10.6641C34.0222 9.66406 33.7019 8.20052 33.7019 6.27344C33.7019 4.28385 34.0118 2.80729 34.6316 1.84375C35.2514 0.880208 36.1967 0.398438 37.4675 0.398438C38.7071 0.398438 39.6472 0.901042 40.2878 1.90625C40.9336 2.91146 41.2566 4.36719 41.2566 6.27344ZM35.0144 6.27344C35.0144 7.9349 35.2097 9.14583 35.6003 9.90625C35.9909 10.6615 36.6133 11.0391 37.4675 11.0391C38.3321 11.0391 38.9571 10.6562 39.3425 9.89062C39.7331 9.11979 39.9284 7.91406 39.9284 6.27344C39.9284 4.63281 39.7331 3.43229 39.3425 2.67188C38.9571 1.90625 38.3321 1.52344 37.4675 1.52344C36.6133 1.52344 35.9909 1.90104 35.6003 2.65625C35.2097 3.40625 35.0144 4.61198 35.0144 6.27344ZM50.6703 12H43.1625V10.8828L46.1703 7.85938C47.087 6.93229 47.6911 6.27083 47.9828 5.875C48.2745 5.47917 48.4932 5.09375 48.6391 4.71875C48.7849 4.34375 48.8578 3.9401 48.8578 3.50781C48.8578 2.89844 48.6729 2.41667 48.3031 2.0625C47.9333 1.70312 47.4203 1.52344 46.7641 1.52344C46.2901 1.52344 45.8396 1.60156 45.4125 1.75781C44.9906 1.91406 44.5193 2.19792 43.9984 2.60938L43.3109 1.72656C44.363 0.851562 45.5089 0.414062 46.7484 0.414062C47.8214 0.414062 48.6625 0.690104 49.2719 1.24219C49.8812 1.78906 50.1859 2.52604 50.1859 3.45312C50.1859 4.17708 49.9828 4.89323 49.5766 5.60156C49.1703 6.3099 48.4099 7.20573 47.2953 8.28906L44.7953 10.7344V10.7969H50.6703V12ZM64.6853 6.27344C64.6853 8.2474 64.3728 9.72135 63.7478 10.6953C63.128 11.6693 62.1775 12.1562 60.8963 12.1562C59.6671 12.1562 58.7322 11.6589 58.0916 10.6641C57.4509 9.66406 57.1306 8.20052 57.1306 6.27344C57.1306 4.28385 57.4405 2.80729 58.0603 1.84375C58.6801 0.880208 59.6254 0.398438 60.8963 0.398438C62.1358 0.398438 63.0759 0.901042 63.7166 1.90625C64.3624 2.91146 64.6853 4.36719 64.6853 6.27344ZM58.4431 6.27344C58.4431 7.9349 58.6384 9.14583 59.0291 9.90625C59.4197 10.6615 60.0421 11.0391 60.8963 11.0391C61.7608 11.0391 62.3858 10.6562 62.7713 9.89062C63.1619 9.11979 63.3572 7.91406 63.3572 6.27344C63.3572 4.63281 63.1619 3.43229 62.7713 2.67188C62.3858 1.90625 61.7608 1.52344 60.8963 1.52344C60.0421 1.52344 59.4197 1.90104 59.0291 2.65625C58.6384 3.40625 58.4431 4.61198 58.4431 6.27344ZM74.6381 9.375H72.9428V12H71.7006V9.375H66.1459V8.24219L71.5678 0.515625H72.9428V8.19531H74.6381V9.375ZM71.7006 8.19531V4.39844C71.7006 3.65365 71.7267 2.8125 71.7787 1.875H71.7162C71.4662 2.375 71.2319 2.78906 71.0131 3.11719L67.4428 8.19531H71.7006ZM88.1141 6.27344C88.1141 8.2474 87.8016 9.72135 87.1766 10.6953C86.5568 11.6693 85.6062 12.1562 84.325 12.1562C83.0958 12.1562 82.1609 11.6589 81.5203 10.6641C80.8797 9.66406 80.5594 8.20052 80.5594 6.27344C80.5594 4.28385 80.8693 2.80729 81.4891 1.84375C82.1089 0.880208 83.0542 0.398438 84.325 0.398438C85.5646 0.398438 86.5047 0.901042 87.1453 1.90625C87.7911 2.91146 88.1141 4.36719 88.1141 6.27344ZM81.8719 6.27344C81.8719 7.9349 82.0672 9.14583 82.4578 9.90625C82.8484 10.6615 83.4708 11.0391 84.325 11.0391C85.1896 11.0391 85.8146 10.6562 86.2 9.89062C86.5906 9.11979 86.7859 7.91406 86.7859 6.27344C86.7859 4.63281 86.5906 3.43229 86.2 2.67188C85.8146 1.90625 85.1896 1.52344 84.325 1.52344C83.4708 1.52344 82.8484 1.90104 82.4578 2.65625C82.0672 3.40625 81.8719 4.61198 81.8719 6.27344ZM97.5278 12H90.02V10.8828L93.0278 7.85938C93.9445 6.93229 94.5486 6.27083 94.8403 5.875C95.132 5.47917 95.3507 5.09375 95.4966 4.71875C95.6424 4.34375 95.7153 3.9401 95.7153 3.50781C95.7153 2.89844 95.5304 2.41667 95.1606 2.0625C94.7908 1.70312 94.2778 1.52344 93.6216 1.52344C93.1476 1.52344 92.6971 1.60156 92.27 1.75781C91.8481 1.91406 91.3768 2.19792 90.8559 2.60938L90.1684 1.72656C91.2205 0.851562 92.3664 0.414062 93.6059 0.414062C94.6789 0.414062 95.52 0.690104 96.1294 1.24219C96.7387 1.78906 97.0434 2.52604 97.0434 3.45312C97.0434 4.17708 96.8403 4.89323 96.4341 5.60156C96.0278 6.3099 95.2674 7.20573 94.1528 8.28906L91.6528 10.7344V10.7969H97.5278V12ZM104.301 12H103.035V3.85938C103.035 3.18229 103.056 2.54167 103.098 1.9375C102.988 2.04688 102.866 2.16146 102.731 2.28125C102.595 2.40104 101.975 2.90885 100.871 3.80469L100.184 2.91406L103.207 0.578125H104.301V12Z" fill="#163955"/>
</svg>
