<svg width="87" height="11" viewBox="0 0 87 11" fill="none" xmlns="http://www.w3.org/2000/svg">
<path d="M4.303 10.078C3.601 10.078 2.97267 9.89167 2.418 9.519C1.872 9.14633 1.443 8.61333 1.131 7.92C0.827667 7.218 0.676 6.39467 0.676 5.45C0.676 4.50533 0.827667 3.68633 1.131 2.993C1.443 2.291 1.872 1.75367 2.418 1.381C2.97267 1.00833 3.601 0.822 4.303 0.822C5.005 0.822 5.629 1.00833 6.175 1.381C6.72967 1.75367 7.163 2.291 7.475 2.993C7.787 3.68633 7.943 4.50533 7.943 5.45C7.943 6.39467 7.787 7.218 7.475 7.92C7.163 8.61333 6.72967 9.14633 6.175 9.519C5.629 9.89167 5.005 10.078 4.303 10.078ZM4.303 9.22C4.83167 9.22 5.29533 9.07267 5.694 8.778C6.10133 8.48333 6.41767 8.05433 6.643 7.491C6.86833 6.92767 6.981 6.24733 6.981 5.45C6.981 4.65267 6.86833 3.97233 6.643 3.409C6.41767 2.84567 6.10133 2.41667 5.694 2.122C5.29533 1.82733 4.83167 1.68 4.303 1.68C3.77433 1.68 3.30633 1.82733 2.899 2.122C2.50033 2.41667 2.18833 2.84567 1.963 3.409C1.73767 3.97233 1.625 4.65267 1.625 5.45C1.625 6.24733 1.73767 6.92767 1.963 7.491C2.18833 8.05433 2.50033 8.48333 2.899 8.778C3.30633 9.07267 3.77433 9.22 4.303 9.22ZM12.1174 0.822C13.3221 0.822 14.2451 1.22067 14.8864 2.018C15.5278 2.80667 15.8484 3.92467 15.8484 5.372C15.8484 6.386 15.6751 7.244 15.3284 7.946C14.9818 8.648 14.4964 9.181 13.8724 9.545C13.2484 9.90033 12.5204 10.078 11.6884 10.078C10.7871 10.078 10.0678 9.91333 9.53042 9.584L9.90742 8.83C10.3408 9.116 10.9301 9.259 11.6754 9.259C12.6808 9.259 13.4694 8.94267 14.0414 8.31C14.6134 7.66867 14.8994 6.74133 14.8994 5.528C14.8994 5.30267 14.8864 5.05567 14.8604 4.787C14.6351 5.281 14.2754 5.66667 13.7814 5.944C13.2874 6.21267 12.7198 6.347 12.0784 6.347C11.4804 6.347 10.9474 6.23433 10.4794 6.009C10.0201 5.78367 9.66042 5.46733 9.40042 5.06C9.14042 4.644 9.01042 4.163 9.01042 3.617C9.01042 3.06233 9.14476 2.57267 9.41342 2.148C9.68209 1.72333 10.0504 1.39833 10.5184 1.173C10.9951 0.939 11.5281 0.822 12.1174 0.822ZM12.2214 5.554C12.6808 5.554 13.0838 5.46733 13.4304 5.294C13.7858 5.12067 14.0631 4.88233 14.2624 4.579C14.4618 4.27567 14.5614 3.93767 14.5614 3.565C14.5614 3.21833 14.4661 2.89767 14.2754 2.603C14.0934 2.30833 13.8204 2.07 13.4564 1.888C13.0924 1.706 12.6591 1.615 12.1564 1.615C11.4978 1.615 10.9604 1.797 10.5444 2.161C10.1371 2.51633 9.93342 2.993 9.93342 3.591C9.93342 4.189 10.1371 4.66567 10.5444 5.021C10.9604 5.37633 11.5194 5.554 12.2214 5.554ZM20.1723 4.8C21.1257 4.852 21.8493 5.112 22.3433 5.58C22.846 6.03933 23.0973 6.64167 23.0973 7.387C23.0973 7.907 22.9717 8.37067 22.7203 8.778C22.469 9.17667 22.0963 9.493 21.6023 9.727C21.1083 9.961 20.506 10.078 19.7953 10.078C19.1367 10.078 18.5127 9.974 17.9233 9.766C17.3427 9.54933 16.8747 9.26333 16.5193 8.908L16.9743 8.167C17.2777 8.479 17.6807 8.73467 18.1833 8.934C18.686 9.12467 19.2233 9.22 19.7953 9.22C20.5407 9.22 21.117 9.05967 21.5243 8.739C21.9317 8.40967 22.1353 7.959 22.1353 7.387C22.1353 6.82367 21.9317 6.38167 21.5243 6.061C21.117 5.74033 20.5017 5.58 19.6783 5.58H19.0283V4.891L21.5503 1.732H16.8963V0.899999H22.7463V1.563L20.1723 4.8ZM31.4456 10.078C30.7436 10.078 30.1152 9.89167 29.5606 9.519C29.0146 9.14633 28.5856 8.61333 28.2736 7.92C27.9702 7.218 27.8186 6.39467 27.8186 5.45C27.8186 4.50533 27.9702 3.68633 28.2736 2.993C28.5856 2.291 29.0146 1.75367 29.5606 1.381C30.1152 1.00833 30.7436 0.822 31.4456 0.822C32.1476 0.822 32.7716 1.00833 33.3176 1.381C33.8722 1.75367 34.3056 2.291 34.6176 2.993C34.9296 3.68633 35.0856 4.50533 35.0856 5.45C35.0856 6.39467 34.9296 7.218 34.6176 7.92C34.3056 8.61333 33.8722 9.14633 33.3176 9.519C32.7716 9.89167 32.1476 10.078 31.4456 10.078ZM31.4456 9.22C31.9742 9.22 32.4379 9.07267 32.8366 8.778C33.2439 8.48333 33.5602 8.05433 33.7856 7.491C34.0109 6.92767 34.1236 6.24733 34.1236 5.45C34.1236 4.65267 34.0109 3.97233 33.7856 3.409C33.5602 2.84567 33.2439 2.41667 32.8366 2.122C32.4379 1.82733 31.9742 1.68 31.4456 1.68C30.9169 1.68 30.4489 1.82733 30.0416 2.122C29.6429 2.41667 29.3309 2.84567 29.1056 3.409C28.8802 3.97233 28.7676 4.65267 28.7676 5.45C28.7676 6.24733 28.8802 6.92767 29.1056 7.491C29.3309 8.05433 29.6429 8.48333 30.0416 8.778C30.4489 9.07267 30.9169 9.22 31.4456 9.22ZM42.6146 9.168V10H36.2316V9.337L40.0146 5.632C40.4913 5.164 40.8119 4.761 40.9766 4.423C41.1499 4.07633 41.2366 3.72967 41.2366 3.383C41.2366 2.84567 41.0503 2.42967 40.6776 2.135C40.3136 1.83167 39.7893 1.68 39.1046 1.68C38.0386 1.68 37.2109 2.018 36.6216 2.694L35.9586 2.122C36.3139 1.706 36.7646 1.38533 37.3106 1.16C37.8653 0.934666 38.4893 0.822 39.1826 0.822C40.1099 0.822 40.8423 1.043 41.3796 1.485C41.9256 1.91833 42.1986 2.51633 42.1986 3.279C42.1986 3.747 42.0946 4.19767 41.8866 4.631C41.6786 5.06433 41.2843 5.56267 40.7036 6.126L37.6096 9.168H42.6146ZM50.8186 10.078C50.1166 10.078 49.4883 9.89167 48.9336 9.519C48.3876 9.14633 47.9586 8.61333 47.6466 7.92C47.3433 7.218 47.1916 6.39467 47.1916 5.45C47.1916 4.50533 47.3433 3.68633 47.6466 2.993C47.9586 2.291 48.3876 1.75367 48.9336 1.381C49.4883 1.00833 50.1166 0.822 50.8186 0.822C51.5206 0.822 52.1446 1.00833 52.6906 1.381C53.2453 1.75367 53.6786 2.291 53.9906 2.993C54.3026 3.68633 54.4586 4.50533 54.4586 5.45C54.4586 6.39467 54.3026 7.218 53.9906 7.92C53.6786 8.61333 53.2453 9.14633 52.6906 9.519C52.1446 9.89167 51.5206 10.078 50.8186 10.078ZM50.8186 9.22C51.3473 9.22 51.811 9.07267 52.2096 8.778C52.617 8.48333 52.9333 8.05433 53.1586 7.491C53.384 6.92767 53.4966 6.24733 53.4966 5.45C53.4966 4.65267 53.384 3.97233 53.1586 3.409C52.9333 2.84567 52.617 2.41667 52.2096 2.122C51.811 1.82733 51.3473 1.68 50.8186 1.68C50.29 1.68 49.822 1.82733 49.4146 2.122C49.016 2.41667 48.704 2.84567 48.4786 3.409C48.2533 3.97233 48.1406 4.65267 48.1406 5.45C48.1406 6.24733 48.2533 6.92767 48.4786 7.491C48.704 8.05433 49.016 8.48333 49.4146 8.778C49.822 9.07267 50.29 9.22 50.8186 9.22ZM63.534 7.608H61.714V10H60.778V7.608H55.643V6.932L60.466 0.899999H61.506L56.852 6.776H60.804V4.67H61.714V6.776H63.534V7.608ZM71.4231 10.078C70.7211 10.078 70.0928 9.89167 69.5381 9.519C68.9921 9.14633 68.5631 8.61333 68.2511 7.92C67.9478 7.218 67.7961 6.39467 67.7961 5.45C67.7961 4.50533 67.9478 3.68633 68.2511 2.993C68.5631 2.291 68.9921 1.75367 69.5381 1.381C70.0928 1.00833 70.7211 0.822 71.4231 0.822C72.1251 0.822 72.7491 1.00833 73.2951 1.381C73.8498 1.75367 74.2831 2.291 74.5951 2.993C74.9071 3.68633 75.0631 4.50533 75.0631 5.45C75.0631 6.39467 74.9071 7.218 74.5951 7.92C74.2831 8.61333 73.8498 9.14633 73.2951 9.519C72.7491 9.89167 72.1251 10.078 71.4231 10.078ZM71.4231 9.22C71.9518 9.22 72.4155 9.07267 72.8141 8.778C73.2215 8.48333 73.5378 8.05433 73.7631 7.491C73.9885 6.92767 74.1011 6.24733 74.1011 5.45C74.1011 4.65267 73.9885 3.97233 73.7631 3.409C73.5378 2.84567 73.2215 2.41667 72.8141 2.122C72.4155 1.82733 71.9518 1.68 71.4231 1.68C70.8945 1.68 70.4265 1.82733 70.0191 2.122C69.6205 2.41667 69.3085 2.84567 69.0831 3.409C68.8578 3.97233 68.7451 4.65267 68.7451 5.45C68.7451 6.24733 68.8578 6.92767 69.0831 7.491C69.3085 8.05433 69.6205 8.48333 70.0191 8.778C70.4265 9.07267 70.8945 9.22 71.4231 9.22ZM82.5921 9.168V10H76.2091V9.337L79.9921 5.632C80.4688 5.164 80.7895 4.761 80.9541 4.423C81.1275 4.07633 81.2141 3.72967 81.2141 3.383C81.2141 2.84567 81.0278 2.42967 80.6551 2.135C80.2911 1.83167 79.7668 1.68 79.0821 1.68C78.0161 1.68 77.1885 2.018 76.5991 2.694L75.9361 2.122C76.2915 1.706 76.7421 1.38533 77.2881 1.16C77.8428 0.934666 78.4668 0.822 79.1601 0.822C80.0875 0.822 80.8198 1.043 81.3571 1.485C81.9031 1.91833 82.1761 2.51633 82.1761 3.279C82.1761 3.747 82.0721 4.19767 81.8641 4.631C81.6561 5.06433 81.2618 5.56267 80.6811 6.126L77.5871 9.168H82.5921ZM86.2888 0.899999V10H85.3528V1.732H83.2078V0.899999H86.2888Z" fill="#313131"/>
</svg>
