<svg width="10" height="10" viewBox="0 0 10 10" fill="none" xmlns="http://www.w3.org/2000/svg">
<g clip-path="url(#clip0)">
<path d="M9.73759 7.71557L7.71356 6.36577C7.4567 6.19586 7.11239 6.25177 6.9225 6.49425L6.33292 7.2523C6.25715 7.35221 6.11942 7.38119 6.0098 7.3203L5.89765 7.25847C5.52587 7.05583 5.06328 6.80354 4.13126 5.87118C3.19923 4.93882 2.94643 4.47588 2.74379 4.10478L2.68229 3.99263C2.62056 3.88304 2.64899 3.74472 2.74894 3.66834L3.50648 3.07894C3.74887 2.88902 3.80486 2.54482 3.63514 2.28788L2.28534 0.263849C2.1114 0.00220808 1.76243 -0.0763349 1.49315 0.0855355L0.646773 0.593956C0.380836 0.7503 0.185728 1.0035 0.102361 1.30051C-0.202418 2.41101 0.0268647 4.32756 2.85012 7.15114C5.09596 9.39681 6.76788 10.0007 7.91704 10.0007C8.18151 10.0019 8.44495 9.96745 8.70026 9.89841C8.99733 9.81514 9.25057 9.62002 9.40682 9.354L9.91575 8.50813C10.0779 8.2388 9.99935 7.88961 9.73759 7.71557Z" fill="#9F97B8"/>
</g>
<defs>
<clipPath id="clip0">
<rect width="10" height="10" fill="white"/>
</clipPath>
</defs>
</svg>
