<svg width="16" height="16" viewBox="0 0 16 16" fill="none" xmlns="http://www.w3.org/2000/svg">
<path d="M15.4838 12.9648C16.1721 13.658 16.1721 14.7856 15.4838 15.4795C14.8009 16.1668 13.6815 16.1781 12.9874 15.4795L8.05912 10.5135L3.01265 15.4801C2.32441 16.1733 1.205 16.1733 0.516176 15.4801C-0.172059 14.7868 -0.172059 13.6592 0.516176 12.9654L5.44559 8L0.516176 3.03463C-0.172059 2.34078 -0.172059 1.2132 0.516176 0.519943C1.205 -0.173314 2.32441 -0.173314 3.01265 0.519943L8.05912 5.4865L12.9874 0.519943C13.6744 -0.172129 14.7938 -0.174499 15.4838 0.519943C16.1721 1.2132 16.1721 2.34078 15.4838 3.03463L10.5544 8L15.4838 12.9648Z" fill="#163955"/>
</svg>
