<svg width="92" height="11" viewBox="0 0 92 11" fill="none" xmlns="http://www.w3.org/2000/svg">
<path d="M4.303 10.078C3.601 10.078 2.97267 9.89167 2.418 9.519C1.872 9.14633 1.443 8.61333 1.131 7.92C0.827667 7.218 0.676 6.39467 0.676 5.45C0.676 4.50533 0.827667 3.68633 1.131 2.993C1.443 2.291 1.872 1.75367 2.418 1.381C2.97267 1.00833 3.601 0.822 4.303 0.822C5.005 0.822 5.629 1.00833 6.175 1.381C6.72967 1.75367 7.163 2.291 7.475 2.993C7.787 3.68633 7.943 4.50533 7.943 5.45C7.943 6.39467 7.787 7.218 7.475 7.92C7.163 8.61333 6.72967 9.14633 6.175 9.519C5.629 9.89167 5.005 10.078 4.303 10.078ZM4.303 9.22C4.83167 9.22 5.29533 9.07267 5.694 8.778C6.10133 8.48333 6.41767 8.05433 6.643 7.491C6.86833 6.92767 6.981 6.24733 6.981 5.45C6.981 4.65267 6.86833 3.97233 6.643 3.409C6.41767 2.84567 6.10133 2.41667 5.694 2.122C5.29533 1.82733 4.83167 1.68 4.303 1.68C3.77433 1.68 3.30633 1.82733 2.899 2.122C2.50033 2.41667 2.18833 2.84567 1.963 3.409C1.73767 3.97233 1.625 4.65267 1.625 5.45C1.625 6.24733 1.73767 6.92767 1.963 7.491C2.18833 8.05433 2.50033 8.48333 2.899 8.778C3.30633 9.07267 3.77433 9.22 4.303 9.22ZM17.0184 7.608H15.1984V10H14.2624V7.608H9.12742V6.932L13.9504 0.899999H14.9904L10.3364 6.776H14.2884V4.67H15.1984V6.776H17.0184V7.608ZM25.6131 7.608H23.7931V10H22.8571V7.608H17.7221V6.932L22.5451 0.899999H23.5851L18.9311 6.776H22.8831V4.67H23.7931V6.776H25.6131V7.608ZM37.6102 7.608H35.7902V10H34.8542V7.608H29.7192V6.932L34.5422 0.899999H35.5822L30.9282 6.776H34.8802V4.67H35.7902V6.776H37.6102V7.608ZM41.2024 0.822C42.407 0.822 43.33 1.22067 43.9714 2.018C44.6127 2.80667 44.9334 3.92467 44.9334 5.372C44.9334 6.386 44.76 7.244 44.4134 7.946C44.0667 8.648 43.5814 9.181 42.9574 9.545C42.3334 9.90033 41.6054 10.078 40.7734 10.078C39.872 10.078 39.1527 9.91333 38.6154 9.584L38.9924 8.83C39.4257 9.116 40.015 9.259 40.7604 9.259C41.7657 9.259 42.5544 8.94267 43.1264 8.31C43.6984 7.66867 43.9844 6.74133 43.9844 5.528C43.9844 5.30267 43.9714 5.05567 43.9454 4.787C43.72 5.281 43.3604 5.66667 42.8664 5.944C42.3724 6.21267 41.8047 6.347 41.1634 6.347C40.5654 6.347 40.0324 6.23433 39.5644 6.009C39.105 5.78367 38.7454 5.46733 38.4854 5.06C38.2254 4.644 38.0954 4.163 38.0954 3.617C38.0954 3.06233 38.2297 2.57267 38.4984 2.148C38.767 1.72333 39.1354 1.39833 39.6034 1.173C40.08 0.939 40.613 0.822 41.2024 0.822ZM41.3064 5.554C41.7657 5.554 42.1687 5.46733 42.5154 5.294C42.8707 5.12067 43.148 4.88233 43.3474 4.579C43.5467 4.27567 43.6464 3.93767 43.6464 3.565C43.6464 3.21833 43.551 2.89767 43.3604 2.603C43.1784 2.30833 42.9054 2.07 42.5414 1.888C42.1774 1.706 41.744 1.615 41.2414 1.615C40.5827 1.615 40.0454 1.797 39.6294 2.161C39.222 2.51633 39.0184 2.993 39.0184 3.591C39.0184 4.189 39.222 4.66567 39.6294 5.021C40.0454 5.37633 40.6044 5.554 41.3064 5.554ZM49.1243 0.822C50.3289 0.822 51.2519 1.22067 51.8933 2.018C52.5346 2.80667 52.8553 3.92467 52.8553 5.372C52.8553 6.386 52.6819 7.244 52.3353 7.946C51.9886 8.648 51.5033 9.181 50.8793 9.545C50.2553 9.90033 49.5273 10.078 48.6953 10.078C47.7939 10.078 47.0746 9.91333 46.5373 9.584L46.9143 8.83C47.3476 9.116 47.9369 9.259 48.6823 9.259C49.6876 9.259 50.4763 8.94267 51.0483 8.31C51.6203 7.66867 51.9063 6.74133 51.9063 5.528C51.9063 5.30267 51.8933 5.05567 51.8673 4.787C51.6419 5.281 51.2823 5.66667 50.7883 5.944C50.2943 6.21267 49.7266 6.347 49.0853 6.347C48.4873 6.347 47.9543 6.23433 47.4863 6.009C47.0269 5.78367 46.6673 5.46733 46.4073 5.06C46.1473 4.644 46.0173 4.163 46.0173 3.617C46.0173 3.06233 46.1516 2.57267 46.4203 2.148C46.6889 1.72333 47.0573 1.39833 47.5253 1.173C48.0019 0.939 48.5349 0.822 49.1243 0.822ZM49.2283 5.554C49.6876 5.554 50.0906 5.46733 50.4373 5.294C50.7926 5.12067 51.0699 4.88233 51.2693 4.579C51.4686 4.27567 51.5683 3.93767 51.5683 3.565C51.5683 3.21833 51.4729 2.89767 51.2823 2.603C51.1003 2.30833 50.8273 2.07 50.4633 1.888C50.0993 1.706 49.6659 1.615 49.1633 1.615C48.5046 1.615 47.9673 1.797 47.5513 2.161C47.1439 2.51633 46.9403 2.993 46.9403 3.591C46.9403 4.189 47.1439 4.66567 47.5513 5.021C47.9673 5.37633 48.5263 5.554 49.2283 5.554ZM64.0365 0.899999V1.563L60.2275 10H59.2135L62.9575 1.732H58.2775V3.435H57.3545V0.899999H64.0365ZM68.7858 4.553C69.3838 4.553 69.9125 4.66567 70.3718 4.891C70.8398 5.11633 71.2038 5.437 71.4638 5.853C71.7238 6.26033 71.8538 6.737 71.8538 7.283C71.8538 7.83767 71.7195 8.32733 71.4508 8.752C71.1822 9.17667 70.8095 9.506 70.3328 9.74C69.8648 9.96533 69.3362 10.078 68.7468 10.078C67.5422 10.078 66.6192 9.68367 65.9778 8.895C65.3365 8.09767 65.0158 6.97533 65.0158 5.528C65.0158 4.514 65.1892 3.656 65.5358 2.954C65.8825 2.252 66.3678 1.72333 66.9918 1.368C67.6158 1.004 68.3438 0.822 69.1758 0.822C70.0772 0.822 70.7965 0.986666 71.3338 1.316L70.9568 2.07C70.5235 1.784 69.9342 1.641 69.1888 1.641C68.1835 1.641 67.3948 1.96167 66.8228 2.603C66.2508 3.23567 65.9648 4.15867 65.9648 5.372C65.9648 5.58867 65.9778 5.83567 66.0038 6.113C66.2292 5.619 66.5888 5.23767 67.0828 4.969C67.5768 4.69167 68.1445 4.553 68.7858 4.553ZM68.7078 9.285C69.3665 9.285 69.8995 9.10733 70.3068 8.752C70.7228 8.388 70.9308 7.907 70.9308 7.309C70.9308 6.711 70.7228 6.23433 70.3068 5.879C69.8995 5.52367 69.3448 5.346 68.6428 5.346C68.1835 5.346 67.7762 5.43267 67.4208 5.606C67.0742 5.77933 66.8012 6.01767 66.6018 6.321C66.4025 6.62433 66.3028 6.96233 66.3028 7.335C66.3028 7.68167 66.3938 8.00233 66.5758 8.297C66.7665 8.59167 67.0438 8.83 67.4078 9.012C67.7718 9.194 68.2052 9.285 68.7078 9.285ZM80.1101 4.553C80.7081 4.553 81.2367 4.66567 81.6961 4.891C82.1641 5.11633 82.5281 5.437 82.7881 5.853C83.0481 6.26033 83.1781 6.737 83.1781 7.283C83.1781 7.83767 83.0437 8.32733 82.7751 8.752C82.5064 9.17667 82.1337 9.506 81.6571 9.74C81.1891 9.96533 80.6604 10.078 80.0711 10.078C78.8664 10.078 77.9434 9.68367 77.3021 8.895C76.6607 8.09767 76.3401 6.97533 76.3401 5.528C76.3401 4.514 76.5134 3.656 76.8601 2.954C77.2067 2.252 77.6921 1.72333 78.3161 1.368C78.9401 1.004 79.6681 0.822 80.5001 0.822C81.4014 0.822 82.1207 0.986666 82.6581 1.316L82.2811 2.07C81.8477 1.784 81.2584 1.641 80.5131 1.641C79.5077 1.641 78.7191 1.96167 78.1471 2.603C77.5751 3.23567 77.2891 4.15867 77.2891 5.372C77.2891 5.58867 77.3021 5.83567 77.3281 6.113C77.5534 5.619 77.9131 5.23767 78.4071 4.969C78.9011 4.69167 79.4687 4.553 80.1101 4.553ZM80.0321 9.285C80.6907 9.285 81.2237 9.10733 81.6311 8.752C82.0471 8.388 82.2551 7.907 82.2551 7.309C82.2551 6.711 82.0471 6.23433 81.6311 5.879C81.2237 5.52367 80.6691 5.346 79.9671 5.346C79.5077 5.346 79.1004 5.43267 78.7451 5.606C78.3984 5.77933 78.1254 6.01767 77.9261 6.321C77.7267 6.62433 77.6271 6.96233 77.6271 7.335C77.6271 7.68167 77.7181 8.00233 77.9001 8.297C78.0907 8.59167 78.3681 8.83 78.7321 9.012C79.0961 9.194 79.5294 9.285 80.0321 9.285ZM89.4749 5.229C90.0469 5.41967 90.4846 5.70567 90.7879 6.087C91.0999 6.46833 91.2559 6.92767 91.2559 7.465C91.2559 7.99367 91.1129 8.45733 90.8269 8.856C90.5409 9.246 90.1293 9.54933 89.5919 9.766C89.0633 9.974 88.4393 10.078 87.7199 10.078C86.6279 10.078 85.7699 9.844 85.1459 9.376C84.5219 8.908 84.2099 8.271 84.2099 7.465C84.2099 6.919 84.3573 6.45967 84.6519 6.087C84.9553 5.70567 85.3929 5.41967 85.9649 5.229C85.4969 5.047 85.1416 4.787 84.8989 4.449C84.6563 4.10233 84.5349 3.695 84.5349 3.227C84.5349 2.49033 84.8209 1.90533 85.3929 1.472C85.9736 1.03867 86.7493 0.822 87.7199 0.822C88.3613 0.822 88.9203 0.921666 89.3969 1.121C89.8823 1.31167 90.2593 1.589 90.5279 1.953C90.7966 2.317 90.9309 2.74167 90.9309 3.227C90.9309 3.695 90.8053 4.10233 90.5539 4.449C90.3026 4.787 89.9429 5.047 89.4749 5.229ZM85.4709 3.253C85.4709 3.75567 85.6703 4.15433 86.0689 4.449C86.4676 4.74367 87.0179 4.891 87.7199 4.891C88.4219 4.891 88.9723 4.74367 89.3709 4.449C89.7783 4.15433 89.9819 3.76 89.9819 3.266C89.9819 2.75467 89.7739 2.35167 89.3579 2.057C88.9506 1.76233 88.4046 1.615 87.7199 1.615C87.0266 1.615 86.4763 1.76233 86.0689 2.057C85.6703 2.35167 85.4709 2.75033 85.4709 3.253ZM87.7199 9.285C88.5259 9.285 89.1543 9.12033 89.6049 8.791C90.0643 8.46167 90.2939 8.01533 90.2939 7.452C90.2939 6.88867 90.0643 6.44667 89.6049 6.126C89.1543 5.79667 88.5259 5.632 87.7199 5.632C86.9226 5.632 86.2943 5.79667 85.8349 6.126C85.3843 6.44667 85.1589 6.88867 85.1589 7.452C85.1589 8.024 85.3843 8.47467 85.8349 8.804C86.2856 9.12467 86.9139 9.285 87.7199 9.285Z" fill="#C9BFD2"/>
</svg>
