<svg width="40" height="40" viewBox="0 0 40 40" fill="none" xmlns="http://www.w3.org/2000/svg">
<path d="M0 4C0 1.79086 1.79086 0 4 0H36C38.2091 0 40 1.79086 40 4V36C40 38.2091 38.2091 40 36 40H4C1.79086 40 0 38.2091 0 36V4Z" fill="#D9D9D9"/>
<path d="M31.3889 32.5H8.61111C7.99778 32.5 7.5 32.0022 7.5 31.3889V8.61111C7.5 7.99778 7.99778 7.5 8.61111 7.5H31.3889C32.0022 7.5 32.5 7.99778 32.5 8.61111V31.3889C32.5 32.0022 32.0022 32.5 31.3889 32.5Z" fill="white"/>
<path d="M21.9443 25.2773H29.1666V29.1662H21.9443V25.2773Z" fill="#6F38AB"/>
<path d="M24.7218 19.1667L20.6407 16.2856C20.2562 16.0144 19.7429 16.0144 19.3596 16.2856L15.2773 19.1667V7.5H24.7218V19.1667Z" fill="#6F38AB"/>
<path d="M31.3892 33.3327H8.61144C7.53921 33.3327 6.66699 32.4605 6.66699 31.3882V8.61046C6.66699 7.53824 7.53921 6.66602 8.61144 6.66602H31.3892C32.4614 6.66602 33.3337 7.53824 33.3337 8.61046V31.3882C33.3337 32.4605 32.4614 33.3327 31.3892 33.3327ZM8.61144 8.33268C8.4581 8.33268 8.33366 8.45713 8.33366 8.61046V31.3882C8.33366 31.5416 8.4581 31.666 8.61144 31.666H31.3892C31.5425 31.666 31.667 31.5416 31.667 31.3882V8.61046C31.667 8.45713 31.5425 8.33268 31.3892 8.33268H8.61144Z" fill="#292929"/>
<path d="M29.1669 29.997H21.9447C21.4847 29.997 21.1113 29.6236 21.1113 29.1636V25.2747C21.1113 24.8147 21.4847 24.4414 21.9447 24.4414H29.1669C29.6269 24.4414 30.0002 24.8147 30.0002 25.2747V29.1636C30.0002 29.6236 29.6269 29.997 29.1669 29.997ZM22.778 28.3303H28.3335V26.1081H22.778V28.3303Z" fill="#292929"/>
<path d="M24.7231 19.9993C24.5542 19.9993 24.3853 19.9482 24.242 19.8471L20.1609 16.966C20.0653 16.8971 19.9364 16.8971 19.8409 16.966L15.7598 19.8471C15.5053 20.026 15.1731 20.0482 14.8953 19.906C14.6186 19.7627 14.4453 19.4771 14.4453 19.166V7.49935C14.4453 7.03935 14.8186 6.66602 15.2786 6.66602H24.7231C25.1831 6.66602 25.5564 7.03935 25.5564 7.49935V19.166C25.5564 19.4771 25.3831 19.7627 25.1064 19.906C24.9853 19.9682 24.8542 19.9993 24.7231 19.9993ZM16.112 8.33268V17.5582L18.8798 15.6049C19.5509 15.1316 20.452 15.1316 21.1231 15.6049L23.8909 17.5582V8.33268H16.112Z" fill="#292929"/>
</svg>
