<svg width="32" height="32" viewBox="0 0 32 32" fill="none" xmlns="http://www.w3.org/2000/svg">
<path opacity="0.48" d="M17.6297 18.0361C17.8547 18.0361 18.0371 18.2185 18.0371 18.4435V21.7027C18.0371 21.9277 18.2195 22.1101 18.4445 22.1101H19.9054C20.2683 22.1101 20.4501 22.549 20.1935 22.8056L16.2881 26.7109C16.129 26.8701 15.8711 26.8701 15.712 26.7109L11.8067 22.8056C11.55 22.549 11.7318 22.1101 12.0947 22.1101H13.5556C13.7806 22.1101 13.963 21.9277 13.963 21.7027V18.4435C13.963 18.2185 14.1454 18.0361 14.3704 18.0361H17.6297ZM22.8064 11.8058L26.7117 15.7111C26.8708 15.8702 26.8708 16.1281 26.7117 16.2872L22.8064 20.1926C22.5498 20.4492 22.1109 20.2674 22.1109 19.9045V12.0939C22.1109 11.7309 22.5498 11.5492 22.8064 11.8058ZM9.19359 11.8058C9.45024 11.5492 9.88908 11.7309 9.88908 12.0939V19.9045C9.88908 20.2674 9.45024 20.4492 9.19359 20.1926L5.28827 16.2872C5.12917 16.1281 5.12917 15.8702 5.28827 15.7111L9.19359 11.8058ZM16.2881 5.2873L20.1935 9.19262C20.4501 9.44927 20.2683 9.8881 19.9054 9.8881H18.4445C18.2195 9.8881 18.0371 10.0705 18.0371 10.2955V13.5548C18.0371 13.7798 17.8547 13.9622 17.6297 13.9622H14.3704C14.1454 13.9622 13.963 13.7798 13.963 13.5548V10.2955C13.963 10.0705 13.7806 9.8881 13.5556 9.8881H12.0947C11.7318 9.8881 11.55 9.44927 11.8067 9.19262L15.712 5.2873C15.8711 5.12819 16.129 5.12819 16.2881 5.2873Z" fill="#666666"/>
</svg>
