<svg width="40" height="40" viewBox="0 0 40 40" fill="none" xmlns="http://www.w3.org/2000/svg">
<path d="M0 4C0 1.79086 1.79086 0 4 0H36C38.2091 0 40 1.79086 40 4V36C40 38.2091 38.2091 40 36 40H4C1.79086 40 0 38.2091 0 36V4Z" fill="#D9D9D9"/>
<path d="M21.9443 29.166C21.9443 29.166 22.2165 31.1271 23.5887 32.4994H23.611H16.3887C17.7776 31.1105 18.0331 29.166 18.0331 29.166H21.9443Z" fill="#6F38AB"/>
<path d="M31.3891 11.9453C32.0002 11.9453 32.5002 12.4453 32.5002 13.0564V25.2788H7.5V13.0564C7.5 12.4453 8 11.9453 8.61112 11.9453H31.3891Z" fill="white"/>
<path d="M8.61112 29.1663H31.3891C32.0025 29.1663 32.5002 28.6685 32.5002 28.0552V25.2773H7.5V28.0552C7.5 28.6685 7.99778 29.1663 8.61112 29.1663Z" fill="#6F38AB"/>
<path d="M4.16699 10.5556H18.056V9.16668C18.056 8.24667 17.3093 7.5 16.3893 7.5H5.83368C4.91367 7.5 4.16699 8.24667 4.16699 9.16668V10.5556Z" fill="#6F38AB"/>
<path d="M5.83368 18.6103H16.3893C17.3093 18.6103 18.056 17.8636 18.056 16.9436V10.5547H4.16699V16.9436C4.16699 17.8636 4.91367 18.6103 5.83368 18.6103Z" fill="white"/>
<path d="M16.3897 19.4439H5.83401C4.45511 19.4439 3.33398 18.3228 3.33398 16.9439V9.16604C3.33398 7.78714 4.45511 6.66602 5.83401 6.66602H16.3897C17.7686 6.66602 18.8897 7.78714 18.8897 9.16604V16.9439C18.8897 18.3228 17.7686 19.4439 16.3897 19.4439ZM5.83401 8.3327C5.374 8.3327 5.00067 8.70604 5.00067 9.16604V16.9439C5.00067 17.4039 5.374 17.7772 5.83401 17.7772H16.3897C16.8497 17.7772 17.223 17.4039 17.223 16.9439V9.16604C17.223 8.70604 16.8497 8.3327 16.3897 8.3327H5.83401Z" fill="#292929"/>
<path d="M4.16699 9.98047H18.056V11.6472H4.16699V9.98047Z" fill="#292929"/>
<path d="M31.3895 30.0004H8.61146C7.53922 30.0004 6.66699 29.1282 6.66699 28.0559V18.3327L8.33366 18.3314L8.33367 28.0559C8.33367 28.2071 8.46034 28.3337 8.61146 28.3337H31.3895C31.5406 28.3337 31.6672 28.2071 31.6672 28.0559V13.0558C31.6672 12.9047 31.5406 12.778 31.3895 12.778H18.3337V11.1113H31.3895C32.4617 11.1113 33.3339 11.9836 33.3339 13.0558V28.0559C33.3339 29.1282 32.4617 30.0004 31.3895 30.0004Z" fill="#292929"/>
<path d="M7.5 24.4453H32.5002V26.112H7.5V24.4453Z" fill="#292929"/>
<path d="M23.6114 33.3322H16.3891C16.0524 33.3322 15.748 33.1289 15.6191 32.8178C15.4902 32.5066 15.5613 32.1477 15.8002 31.91C16.9569 30.7533 17.2058 29.0744 17.208 29.0577L18.8602 29.2744C18.8513 29.3399 18.6969 30.4588 18.0336 31.6655H21.948C21.2914 30.4644 21.128 29.3455 21.1191 29.2799L22.7692 29.0488C22.7714 29.0655 23.0147 30.6688 24.0847 31.8144C24.3025 31.9644 24.4447 32.2144 24.4447 32.4989C24.4447 32.9589 24.0714 33.3322 23.6114 33.3322V33.3322Z" fill="#292929"/>
</svg>
