<svg width="40" height="40" viewBox="0 0 40 40" fill="none" xmlns="http://www.w3.org/2000/svg">
<rect width="40" height="40" rx="4" fill="#D9D9D9"/>
<rect x="8.5" y="8.5" width="23" height="23" rx="3.5" fill="#6F38AB" stroke="#292929"/>
<path d="M15.4278 24C14.7623 24 14.1168 23.919 13.4914 23.7569C12.874 23.5875 12.3769 23.3702 12 23.105L12.6615 21.7569C13.0223 22 13.4513 22.1952 13.9485 22.3425C14.4456 22.4899 14.9427 22.5635 15.4399 22.5635C15.9931 22.5635 16.4021 22.4899 16.6667 22.3425C16.9313 22.1878 17.0636 21.9853 17.0636 21.7348C17.0636 21.5506 16.9834 21.3996 16.823 21.2818C16.6707 21.1565 16.4702 21.0571 16.2216 20.9834C15.9811 20.9098 15.6523 20.8287 15.2354 20.7403C14.5939 20.6004 14.0687 20.4604 13.6598 20.3204C13.2509 20.1805 12.8981 19.9558 12.6014 19.6464C12.3127 19.337 12.1684 18.9245 12.1684 18.4088C12.1684 17.9595 12.3007 17.5543 12.5653 17.1934C12.8299 16.825 13.2268 16.5341 13.756 16.3204C14.2932 16.1068 14.9467 16 15.7165 16C16.2537 16 16.7789 16.0589 17.2921 16.1768C17.8053 16.2947 18.2543 16.4641 18.6392 16.6851L18.0378 18.0442C17.26 17.639 16.4822 17.4365 15.7045 17.4365C15.1592 17.4365 14.7543 17.5175 14.4897 17.6796C14.2331 17.8416 14.1048 18.0552 14.1048 18.3204C14.1048 18.5856 14.2531 18.7845 14.5498 18.9171C14.8545 19.0424 15.3156 19.1676 15.933 19.2928C16.5745 19.4328 17.0997 19.5727 17.5086 19.7127C17.9175 19.8527 18.2663 20.0737 18.555 20.3757C18.8517 20.6777 19 21.0866 19 21.6022C19 22.0442 18.8637 22.4494 18.5911 22.8177C18.3265 23.1786 17.9255 23.4659 17.3883 23.6796C16.8511 23.8932 16.1976 24 15.4278 24Z" fill="white"/>
<path d="M28 22.4914V24H21V22.8L25.3922 17.5086H21.0915V16H27.8284V17.2L23.4477 22.4914H28Z" fill="white"/>
</svg>
