<svg width="24" height="24" viewBox="0 0 24 24" fill="none" xmlns="http://www.w3.org/2000/svg">
<rect opacity="0.48" width="24" height="24" rx="4" fill="#666666"/>
<path d="M9.92694 13.7746C9.92694 13.1752 9.45691 13.086 8.15902 13.0477C7.01765 13.0094 4.53354 12.9202 4.53354 10.4332V10.2674C4.53354 8.80087 5.36157 7.5 8.20379 7.5H8.60657C9.62485 7.5 10.6095 7.65299 11.5271 7.92085V10.0251C10.4417 9.73181 9.37869 9.55331 8.2821 9.55331C6.65956 9.55331 6.54771 9.97415 6.54771 10.2674C6.54771 10.8797 7.04004 10.9689 8.30449 11.0072C9.36754 11.0327 11.9411 11.1219 11.9411 13.6344V13.8001C11.9411 15.254 11.1131 16.5548 8.25971 16.5548H7.85693C6.68203 16.5548 5.56306 16.4018 4.5 16.1468V14.0042C5.70843 14.3103 7.06243 14.5143 8.20379 14.5143C9.80386 14.5143 9.92694 14.0935 9.92694 13.7746Z" fill="white" stroke="white" stroke-width="0.3"/>
<path d="M17.4767 9.7906H13.2134V7.75H20.1622V9.53545L15.7871 14.2542H20.2741V16.2948H13.1016V14.5094L17.4767 9.7906Z" fill="white" stroke="white" stroke-width="0.3"/>
</svg>
