<svg width="40" height="40" viewBox="0 0 40 40" fill="none" xmlns="http://www.w3.org/2000/svg">
<path d="M0 4C0 1.79086 1.79086 0 4 0H36C38.2091 0 40 1.79086 40 4V36C40 38.2091 38.2091 40 36 40H4C1.79086 40 0 38.2091 0 36V4Z" fill="white"/>
<path d="M25.8179 31.5625C25.8179 32.9437 24.6939 34.0625 23.3062 34.0625H10.1201C8.73236 34.0625 7.6084 32.9437 7.6084 31.5625V8.4375C7.6084 7.05625 8.73236 5.9375 10.1201 5.9375H23.3062C24.6939 5.9375 25.8179 7.05625 25.8179 8.4375V31.5625Z" fill="white"/>
<path d="M10.1201 5.9375H10.748C11.7879 5.9375 12.6318 6.7775 12.6318 7.8125C12.6318 8.5025 13.1944 9.0625 13.8876 9.0625H19.5388C20.232 9.0625 20.7946 8.5025 20.7946 7.8125C20.7946 6.7775 21.6386 5.9375 22.6784 5.9375H23.3063H10.1201Z" fill="white"/>
<path d="M19.5388 10H13.8876C12.6757 10 11.6899 9.01875 11.6899 7.8125C11.6899 7.29625 11.2679 6.875 10.748 6.875H10.1201V5H10.748C12.3065 5 13.5736 6.2625 13.5736 7.8125C13.5736 7.985 13.7143 8.125 13.8876 8.125H19.5388C19.7121 8.125 19.8528 7.985 19.8528 7.8125C19.8528 6.2625 21.1199 5 22.6784 5H23.3063V6.875H22.6784C22.1585 6.875 21.7365 7.29625 21.7365 7.8125C21.7365 9.01875 20.7507 10 19.5388 10Z" fill="#292929"/>
<path d="M23.3067 35H10.1205C8.21543 35 6.66699 33.4587 6.66699 31.5625V8.4375C6.66699 6.54125 8.21543 5 10.1205 5H23.3067C25.2118 5 26.7602 6.54125 26.7602 8.4375V10.3125H24.8765V8.4375C24.8765 7.57625 24.172 6.875 23.3067 6.875H10.1205C9.25525 6.875 8.55073 7.57625 8.55073 8.4375V31.5625C8.55073 32.4237 9.25525 33.125 10.1205 33.125H23.3067C24.172 33.125 24.8765 32.4237 24.8765 31.5625V29.6875H26.7602V31.5625C26.7602 33.4587 25.2118 35 23.3067 35Z" fill="#292929"/>
<path d="M30.556 27.2328C31.6721 27.2328 32.5762 26.333 32.5762 25.222V22.4571H32.0711C30.6762 22.4571 29.5459 21.332 29.5459 19.9436C29.5459 18.5551 30.6762 17.43 32.0711 17.43H32.5762V14.6651C32.5762 13.5541 31.6721 12.6543 30.556 12.6543H13.8893C12.7731 12.6543 11.8691 13.5541 11.8691 14.6651V17.43H12.3741C13.7691 17.43 14.8994 18.5551 14.8994 19.9436C14.8994 21.332 13.7691 22.4571 12.3741 22.4571H11.8691V25.222C11.8691 26.333 12.7731 27.2328 13.8893 27.2328H30.556Z" fill="white"/>
<path d="M24.2431 27.987H30.5562C32.0885 27.987 33.334 26.7474 33.334 25.2221V22.4573C33.334 22.041 32.9946 21.7032 32.5764 21.7032H32.0714C31.0966 21.7032 30.3037 20.9139 30.3037 19.9437C30.3037 18.9735 31.0966 18.1842 32.0714 18.1842H32.5764C32.9946 18.1842 33.334 17.8464 33.334 17.4302V14.6653C33.334 13.1401 32.0885 11.9004 30.5562 11.9004H13.8895C12.3572 11.9004 11.1117 13.1401 11.1117 14.6653V17.4302C11.1117 17.8464 11.4511 18.1842 11.8693 18.1842H12.3744C12.7592 18.1842 13.1228 18.3049 13.4289 18.5321L14.036 18.9835L14.943 17.776L14.336 17.3246C13.834 16.9506 13.2471 16.7324 12.6269 16.6862V14.6653C12.6269 13.9726 13.1936 13.4085 13.8895 13.4085H30.5562C31.2522 13.4085 31.8188 13.9726 31.8188 14.6653V16.6852C30.1259 16.8139 28.7885 18.2265 28.7885 19.9437C28.7885 21.661 30.1259 23.0726 31.8188 23.2023V25.2221C31.8188 25.9149 31.2522 26.4789 30.5562 26.4789H24.2431V27.987Z" fill="#292929"/>
<path d="M25.7588 11.9004H24.2436V15.4193H25.7588V11.9004Z" fill="#292929"/>
<path d="M25.7588 17.4297H24.2436V22.4568H25.7588V17.4297Z" fill="#292929"/>
<path d="M25.7588 24.4688H24.2436V27.9877H25.7588V24.4688Z" fill="#292929"/>
<path d="M16.7867 31.2394C13.784 31.2394 11.3498 28.8165 11.3498 25.8277C11.3498 22.8389 13.784 20.416 16.7867 20.416C19.7894 20.416 22.2236 22.8389 22.2236 25.8277C22.2236 28.8165 19.7894 31.2394 16.7867 31.2394Z" fill="#6F38AB"/>
<path d="M16.7865 31.946C20.1754 31.946 22.9326 29.2016 22.9326 25.8285C22.9326 22.4554 20.1754 19.7109 16.7865 19.7109C13.3977 19.7109 10.6405 22.4554 10.6405 25.8285C10.6405 29.2016 13.3977 31.946 16.7865 31.946ZM16.7865 21.1227C19.3934 21.1227 21.5143 23.2337 21.5143 25.8285C21.5143 28.4233 19.3934 30.5343 16.7865 30.5343C14.1797 30.5343 12.0588 28.4233 12.0588 25.8285C12.0588 23.2337 14.1797 21.1227 16.7865 21.1227Z" fill="#292929"/>
<path d="M16.2779 28.417C16.0907 28.417 15.9092 28.3427 15.7768 28.21L14.1221 26.5629L15.1253 25.5644L16.242 26.6749L18.8167 23.7188L19.888 24.643L16.815 28.1723C16.6864 28.3201 16.5011 28.4086 16.3044 28.4152C16.2949 28.417 16.2864 28.417 16.2779 28.417Z" fill="#292929"/>
<path d="M4 1H36V-1H4V1ZM39 4V36H41V4H39ZM36 39H4V41H36V39ZM1 36V4H-1V36H1ZM4 39C2.34315 39 1 37.6569 1 36H-1C-1 38.7614 1.23858 41 4 41V39ZM39 36C39 37.6569 37.6569 39 36 39V41C38.7614 41 41 38.7614 41 36H39ZM36 1C37.6569 1 39 2.34315 39 4H41C41 1.23858 38.7614 -1 36 -1V1ZM4 -1C1.23858 -1 -1 1.23858 -1 4H1C1 2.34315 2.34315 1 4 1V-1Z" fill="#6F38AB" fill-opacity="0.48"/>
</svg>
