<svg width="62" height="62" viewBox="0 0 62 62" fill="none" xmlns="http://www.w3.org/2000/svg">
<path d="M30.9999 0C48.1217 0 62 13.8802 62 31.0001C62 48.1219 48.1217 62 30.9999 62C13.8781 62 0 48.1217 0 31.0001C0 13.8802 13.8783 0 30.9999 0Z" fill="#E4E4E4"/>
<g clip-path="url(#clip0)">
<path d="M21.6513 34.5031L20.4823 38.8671L16.2097 38.9575C14.9328 36.5891 14.2085 33.8794 14.2085 30.9999C14.2085 28.2155 14.8857 25.5897 16.086 23.2776H16.0869L19.8908 23.975L21.5571 27.756C21.2083 28.7727 21.0182 29.8642 21.0182 30.9999C21.0184 32.2325 21.2416 33.4135 21.6513 34.5031Z" fill="#FBBB00"/>
<path d="M47.4982 27.863C47.6911 28.8788 47.7916 29.9278 47.7916 30.9999C47.7916 32.2021 47.6652 33.3748 47.4245 34.5059C46.607 38.3551 44.4712 41.7162 41.5124 44.0947L41.5114 44.0938L36.7203 43.8493L36.0422 39.6163C38.0055 38.4649 39.5399 36.663 40.3481 34.5059H31.3691V27.863H40.4791H47.4982Z" fill="#518EF8"/>
<path d="M41.5114 44.0938L41.5123 44.0947C38.6347 46.4077 34.9792 47.7916 31 47.7916C24.6053 47.7916 19.0456 44.2174 16.2095 38.9576L21.6511 34.5032C23.0691 38.2877 26.7199 40.9818 31 40.9818C32.8396 40.9818 34.5632 40.4845 36.0421 39.6163L41.5114 44.0938Z" fill="#28B446"/>
<path d="M41.7182 18.074L36.2784 22.5275C34.7478 21.5707 32.9385 21.0181 31.0001 21.0181C26.6232 21.0181 22.9041 23.8357 21.5571 27.756L16.0869 23.2776H16.0859C18.8806 17.8895 24.5104 14.2083 31.0001 14.2083C35.0744 14.2083 38.81 15.6596 41.7182 18.074Z" fill="#F14336"/>
</g>
<defs>
<clipPath id="clip0">
<rect width="33.5833" height="33.5833" fill="white" transform="translate(14.2085 14.2083)"/>
</clipPath>
</defs>
</svg>
