<svg width="100" height="11" viewBox="0 0 100 11" fill="none" xmlns="http://www.w3.org/2000/svg">
<path d="M4.676 10.112C3.90133 10.112 3.21067 9.916 2.604 9.524C2.00667 9.12267 1.53533 8.544 1.19 7.788C0.844667 7.032 0.672 6.136 0.672 5.1C0.672 4.064 0.844667 3.168 1.19 2.412C1.53533 1.656 2.00667 1.082 2.604 0.69C3.21067 0.288667 3.90133 0.0879999 4.676 0.0879999C5.44133 0.0879999 6.12267 0.288667 6.72 0.69C7.32667 1.082 7.80267 1.656 8.148 2.412C8.49333 3.168 8.666 4.064 8.666 5.1C8.666 6.136 8.49333 7.032 8.148 7.788C7.80267 8.544 7.32667 9.12267 6.72 9.524C6.12267 9.916 5.44133 10.112 4.676 10.112ZM4.676 8.866C5.46 8.866 6.08533 8.544 6.552 7.9C7.028 7.256 7.266 6.32267 7.266 5.1C7.266 3.87733 7.028 2.944 6.552 2.3C6.08533 1.656 5.46 1.334 4.676 1.334C3.88267 1.334 3.248 1.656 2.772 2.3C2.30533 2.944 2.072 3.87733 2.072 5.1C2.072 6.32267 2.30533 7.256 2.772 7.9C3.248 8.544 3.88267 8.866 4.676 8.866ZM18.5359 7.592H16.6739V10H15.3159V7.592H9.86989V6.612L14.8819 0.199999H16.3939L11.5919 6.388H15.3579V4.26H16.6739V6.388H18.5359V7.592ZM27.9011 7.592H26.0391V10H24.6811V7.592H19.2351V6.612L24.2471 0.199999H25.7591L20.9571 6.388H24.7231V4.26H26.0391V6.388H27.9011V7.592ZM41.0261 7.592H39.1641V10H37.8061V7.592H32.3601V6.612L37.3721 0.199999H38.8841L34.0821 6.388H37.8481V4.26H39.1641V6.388H41.0261V7.592ZM44.9477 0.0879999C46.2637 0.0879999 47.2763 0.512666 47.9857 1.362C48.7043 2.21133 49.0637 3.41533 49.0637 4.974C49.0637 6.066 48.8677 6.99933 48.4757 7.774C48.093 8.53933 47.5517 9.12267 46.8517 9.524C46.161 9.916 45.3537 10.112 44.4297 10.112C43.9537 10.112 43.5057 10.0653 43.0857 9.972C42.6657 9.86933 42.3017 9.72467 41.9937 9.538L42.5257 8.446C43.0017 8.754 43.6317 8.908 44.4157 8.908C45.433 8.908 46.2263 8.59533 46.7957 7.97C47.3743 7.33533 47.6637 6.416 47.6637 5.212V4.862C47.3837 5.282 46.9963 5.604 46.5017 5.828C46.007 6.04267 45.4517 6.15 44.8357 6.15C44.1917 6.15 43.613 6.02867 43.0997 5.786C42.5957 5.54333 42.199 5.198 41.9097 4.75C41.6297 4.29267 41.4897 3.77 41.4897 3.182C41.4897 2.566 41.639 2.02467 41.9377 1.558C42.2457 1.09133 42.661 0.731999 43.1837 0.48C43.7063 0.218667 44.2943 0.0879999 44.9477 0.0879999ZM45.0737 5.016C45.5123 5.016 45.9043 4.932 46.2497 4.764C46.595 4.596 46.861 4.36733 47.0477 4.078C47.2437 3.78867 47.3417 3.46667 47.3417 3.112C47.3417 2.76667 47.2483 2.454 47.0617 2.174C46.8843 1.88467 46.6183 1.656 46.2637 1.488C45.9183 1.31067 45.4983 1.222 45.0037 1.222C44.3597 1.222 43.837 1.39467 43.4357 1.74C43.0437 2.08533 42.8477 2.54733 42.8477 3.126C42.8477 3.70467 43.0483 4.16667 43.4497 4.512C43.851 4.848 44.3923 5.016 45.0737 5.016ZM53.5883 0.0879999C54.9043 0.0879999 55.9169 0.512666 56.6263 1.362C57.3449 2.21133 57.7043 3.41533 57.7043 4.974C57.7043 6.066 57.5083 6.99933 57.1163 7.774C56.7336 8.53933 56.1923 9.12267 55.4923 9.524C54.8016 9.916 53.9943 10.112 53.0703 10.112C52.5943 10.112 52.1463 10.0653 51.7263 9.972C51.3063 9.86933 50.9423 9.72467 50.6343 9.538L51.1663 8.446C51.6423 8.754 52.2723 8.908 53.0563 8.908C54.0736 8.908 54.8669 8.59533 55.4363 7.97C56.0149 7.33533 56.3043 6.416 56.3043 5.212V4.862C56.0243 5.282 55.6369 5.604 55.1423 5.828C54.6476 6.04267 54.0923 6.15 53.4763 6.15C52.8323 6.15 52.2536 6.02867 51.7403 5.786C51.2363 5.54333 50.8396 5.198 50.5503 4.75C50.2703 4.29267 50.1303 3.77 50.1303 3.182C50.1303 2.566 50.2796 2.02467 50.5783 1.558C50.8863 1.09133 51.3016 0.731999 51.8243 0.48C52.3469 0.218667 52.9349 0.0879999 53.5883 0.0879999ZM53.7143 5.016C54.1529 5.016 54.5449 4.932 54.8903 4.764C55.2356 4.596 55.5016 4.36733 55.6883 4.078C55.8843 3.78867 55.9823 3.46667 55.9823 3.112C55.9823 2.76667 55.8889 2.454 55.7023 2.174C55.5249 1.88467 55.2589 1.656 54.9043 1.488C54.5589 1.31067 54.1389 1.222 53.6443 1.222C53.0003 1.222 52.4776 1.39467 52.0763 1.74C51.6843 2.08533 51.4883 2.54733 51.4883 3.126C51.4883 3.70467 51.6889 4.16667 52.0903 4.512C52.4916 4.848 53.0329 5.016 53.7143 5.016ZM69.9507 0.199999V1.152L65.9887 10H64.5047L68.3827 1.418H63.9027V3.168H62.5587V0.199999H69.9507ZM75.1324 4.05C75.7764 4.05 76.3504 4.17133 76.8544 4.414C77.3678 4.65667 77.7691 5.00667 78.0584 5.464C78.3478 5.912 78.4924 6.43 78.4924 7.018C78.4924 7.634 78.3384 8.17533 78.0304 8.642C77.7318 9.10867 77.3164 9.47267 76.7844 9.734C76.2618 9.986 75.6738 10.112 75.0204 10.112C73.7044 10.112 72.6871 9.68733 71.9684 8.838C71.2591 7.98867 70.9044 6.78467 70.9044 5.226C70.9044 4.134 71.0958 3.20533 71.4784 2.44C71.8704 1.66533 72.4118 1.082 73.1024 0.69C73.8024 0.288667 74.6144 0.0879999 75.5384 0.0879999C76.0144 0.0879999 76.4624 0.139333 76.8824 0.242C77.3024 0.335333 77.6664 0.475333 77.9744 0.661999L77.4424 1.754C76.9758 1.446 76.3504 1.292 75.5664 1.292C74.5491 1.292 73.7511 1.60933 73.1724 2.244C72.5938 2.86933 72.3044 3.784 72.3044 4.988C72.3044 5.13733 72.3091 5.254 72.3184 5.338C72.5984 4.918 72.9811 4.60067 73.4664 4.386C73.9611 4.162 74.5164 4.05 75.1324 4.05ZM74.9644 8.978C75.6084 8.978 76.1311 8.80533 76.5324 8.46C76.9338 8.11467 77.1344 7.65267 77.1344 7.074C77.1344 6.49533 76.9291 6.038 76.5184 5.702C76.1171 5.35667 75.5758 5.184 74.8944 5.184C74.4558 5.184 74.0638 5.268 73.7184 5.436C73.3824 5.604 73.1164 5.83267 72.9204 6.122C72.7338 6.41133 72.6404 6.73333 72.6404 7.088C72.6404 7.43333 72.7291 7.75067 72.9064 8.04C73.0931 8.32 73.3591 8.54867 73.7044 8.726C74.0591 8.894 74.4791 8.978 74.9644 8.978ZM87.5328 4.05C88.1768 4.05 88.7508 4.17133 89.2548 4.414C89.7681 4.65667 90.1695 5.00667 90.4588 5.464C90.7481 5.912 90.8928 6.43 90.8928 7.018C90.8928 7.634 90.7388 8.17533 90.4308 8.642C90.1321 9.10867 89.7168 9.47267 89.1848 9.734C88.6621 9.986 88.0741 10.112 87.4208 10.112C86.1048 10.112 85.0875 9.68733 84.3688 8.838C83.6595 7.98867 83.3048 6.78467 83.3048 5.226C83.3048 4.134 83.4961 3.20533 83.8788 2.44C84.2708 1.66533 84.8121 1.082 85.5028 0.69C86.2028 0.288667 87.0148 0.0879999 87.9388 0.0879999C88.4148 0.0879999 88.8628 0.139333 89.2828 0.242C89.7028 0.335333 90.0668 0.475333 90.3748 0.661999L89.8428 1.754C89.3761 1.446 88.7508 1.292 87.9668 1.292C86.9495 1.292 86.1515 1.60933 85.5728 2.244C84.9941 2.86933 84.7048 3.784 84.7048 4.988C84.7048 5.13733 84.7095 5.254 84.7188 5.338C84.9988 4.918 85.3815 4.60067 85.8668 4.386C86.3615 4.162 86.9168 4.05 87.5328 4.05ZM87.3648 8.978C88.0088 8.978 88.5315 8.80533 88.9328 8.46C89.3341 8.11467 89.5348 7.65267 89.5348 7.074C89.5348 6.49533 89.3295 6.038 88.9188 5.702C88.5175 5.35667 87.9761 5.184 87.2948 5.184C86.8561 5.184 86.4641 5.268 86.1188 5.436C85.7828 5.604 85.5168 5.83267 85.3208 6.122C85.1341 6.41133 85.0408 6.73333 85.0408 7.088C85.0408 7.43333 85.1295 7.75067 85.3068 8.04C85.4935 8.32 85.7595 8.54867 86.1048 8.726C86.4595 8.894 86.8795 8.978 87.3648 8.978ZM97.9374 4.862C98.4974 5.07667 98.9268 5.38467 99.2254 5.786C99.5241 6.18733 99.6734 6.668 99.6734 7.228C99.6734 7.816 99.5148 8.32933 99.1974 8.768C98.8801 9.19733 98.4274 9.52867 97.8394 9.762C97.2514 9.99533 96.5608 10.112 95.7674 10.112C94.9834 10.112 94.2974 9.99533 93.7094 9.762C93.1308 9.52867 92.6828 9.19733 92.3654 8.768C92.0481 8.32933 91.8894 7.816 91.8894 7.228C91.8894 6.668 92.0341 6.18733 92.3234 5.786C92.6221 5.38467 93.0514 5.07667 93.6114 4.862C93.1634 4.64733 92.8228 4.36267 92.5894 4.008C92.3561 3.65333 92.2394 3.23333 92.2394 2.748C92.2394 2.20667 92.3841 1.73533 92.6734 1.334C92.9721 0.932666 93.3874 0.624666 93.9194 0.409999C94.4514 0.195333 95.0674 0.0879999 95.7674 0.0879999C96.4768 0.0879999 97.0974 0.195333 97.6294 0.409999C98.1708 0.624666 98.5861 0.932666 98.8754 1.334C99.1741 1.73533 99.3234 2.20667 99.3234 2.748C99.3234 3.224 99.2021 3.644 98.9594 4.008C98.7261 4.36267 98.3854 4.64733 97.9374 4.862ZM95.7674 1.222C95.1048 1.222 94.5821 1.36667 94.1994 1.656C93.8168 1.936 93.6254 2.31867 93.6254 2.804C93.6254 3.28933 93.8121 3.672 94.1854 3.952C94.5681 4.232 95.0954 4.372 95.7674 4.372C96.4488 4.372 96.9808 4.232 97.3634 3.952C97.7554 3.672 97.9514 3.28933 97.9514 2.804C97.9514 2.31867 97.7508 1.936 97.3494 1.656C96.9574 1.36667 96.4301 1.222 95.7674 1.222ZM95.7674 8.978C96.5421 8.978 97.1534 8.81933 97.6014 8.502C98.0494 8.17533 98.2734 7.73667 98.2734 7.186C98.2734 6.64467 98.0494 6.22 97.6014 5.912C97.1534 5.59467 96.5421 5.436 95.7674 5.436C94.9928 5.436 94.3861 5.59467 93.9474 5.912C93.5088 6.22 93.2894 6.64467 93.2894 7.186C93.2894 7.73667 93.5088 8.17533 93.9474 8.502C94.3861 8.81933 94.9928 8.978 95.7674 8.978Z" fill="#666666"/>
</svg>
