<svg width="95" height="11" viewBox="0 0 95 11" fill="none" xmlns="http://www.w3.org/2000/svg">
<path d="M4.676 10.112C3.90133 10.112 3.21067 9.916 2.604 9.524C2.00667 9.12267 1.53533 8.544 1.19 7.788C0.844667 7.032 0.672 6.136 0.672 5.1C0.672 4.064 0.844667 3.168 1.19 2.412C1.53533 1.656 2.00667 1.082 2.604 0.69C3.21067 0.288667 3.90133 0.0879999 4.676 0.0879999C5.44133 0.0879999 6.12267 0.288667 6.72 0.69C7.32667 1.082 7.80267 1.656 8.148 2.412C8.49333 3.168 8.666 4.064 8.666 5.1C8.666 6.136 8.49333 7.032 8.148 7.788C7.80267 8.544 7.32667 9.12267 6.72 9.524C6.12267 9.916 5.44133 10.112 4.676 10.112ZM4.676 8.866C5.46 8.866 6.08533 8.544 6.552 7.9C7.028 7.256 7.266 6.32267 7.266 5.1C7.266 3.87733 7.028 2.944 6.552 2.3C6.08533 1.656 5.46 1.334 4.676 1.334C3.88267 1.334 3.248 1.656 2.772 2.3C2.30533 2.944 2.072 3.87733 2.072 5.1C2.072 6.32267 2.30533 7.256 2.772 7.9C3.248 8.544 3.88267 8.866 4.676 8.866ZM13.1879 0.0879999C14.5039 0.0879999 15.5166 0.512666 16.2259 1.362C16.9446 2.21133 17.3039 3.41533 17.3039 4.974C17.3039 6.066 17.1079 6.99933 16.7159 7.774C16.3332 8.53933 15.7919 9.12267 15.0919 9.524C14.4012 9.916 13.5939 10.112 12.6699 10.112C12.1939 10.112 11.7459 10.0653 11.3259 9.972C10.9059 9.86933 10.5419 9.72467 10.2339 9.538L10.7659 8.446C11.2419 8.754 11.8719 8.908 12.6559 8.908C13.6732 8.908 14.4666 8.59533 15.0359 7.97C15.6146 7.33533 15.9039 6.416 15.9039 5.212V4.862C15.6239 5.282 15.2366 5.604 14.7419 5.828C14.2472 6.04267 13.6919 6.15 13.0759 6.15C12.4319 6.15 11.8532 6.02867 11.3399 5.786C10.8359 5.54333 10.4392 5.198 10.1499 4.75C9.86989 4.29267 9.72989 3.77 9.72989 3.182C9.72989 2.566 9.87922 2.02467 10.1779 1.558C10.4859 1.09133 10.9012 0.731999 11.4239 0.48C11.9466 0.218667 12.5346 0.0879999 13.1879 0.0879999ZM13.3139 5.016C13.7526 5.016 14.1446 4.932 14.4899 4.764C14.8352 4.596 15.1012 4.36733 15.2879 4.078C15.4839 3.78867 15.5819 3.46667 15.5819 3.112C15.5819 2.76667 15.4886 2.454 15.3019 2.174C15.1246 1.88467 14.8586 1.656 14.5039 1.488C14.1586 1.31067 13.7386 1.222 13.2439 1.222C12.5999 1.222 12.0772 1.39467 11.6759 1.74C11.2839 2.08533 11.0879 2.54733 11.0879 3.126C11.0879 3.70467 11.2886 4.16667 11.6899 4.512C12.0912 4.848 12.6326 5.016 13.3139 5.016ZM22.2658 4.316C23.2271 4.40933 23.9598 4.708 24.4638 5.212C24.9678 5.70667 25.2198 6.34133 25.2198 7.116C25.2198 7.676 25.0798 8.18467 24.7998 8.642C24.5198 9.09 24.0998 9.44933 23.5398 9.72C22.9891 9.98133 22.3125 10.112 21.5098 10.112C20.8098 10.112 20.1378 10.0093 19.4938 9.804C18.8498 9.58933 18.3225 9.29533 17.9118 8.922L18.5558 7.816C18.8918 8.13333 19.3211 8.39 19.8438 8.586C20.3665 8.77267 20.9218 8.866 21.5098 8.866C22.2378 8.866 22.8025 8.712 23.2038 8.404C23.6145 8.096 23.8198 7.67133 23.8198 7.13C23.8198 6.58867 23.6191 6.16867 23.2178 5.87C22.8165 5.57133 22.2098 5.422 21.3978 5.422H20.6138V4.442L23.0778 1.418H18.3598V0.199999H24.8278V1.152L22.2658 4.316ZM34.2893 10.112C33.5146 10.112 32.8239 9.916 32.2173 9.524C31.6199 9.12267 31.1486 8.544 30.8033 7.788C30.4579 7.032 30.2853 6.136 30.2853 5.1C30.2853 4.064 30.4579 3.168 30.8033 2.412C31.1486 1.656 31.6199 1.082 32.2173 0.69C32.8239 0.288667 33.5146 0.0879999 34.2893 0.0879999C35.0546 0.0879999 35.7359 0.288667 36.3333 0.69C36.9399 1.082 37.4159 1.656 37.7613 2.412C38.1066 3.168 38.2793 4.064 38.2793 5.1C38.2793 6.136 38.1066 7.032 37.7613 7.788C37.4159 8.544 36.9399 9.12267 36.3333 9.524C35.7359 9.916 35.0546 10.112 34.2893 10.112ZM34.2893 8.866C35.0733 8.866 35.6986 8.544 36.1653 7.9C36.6413 7.256 36.8793 6.32267 36.8793 5.1C36.8793 3.87733 36.6413 2.944 36.1653 2.3C35.6986 1.656 35.0733 1.334 34.2893 1.334C33.4959 1.334 32.8613 1.656 32.3853 2.3C31.9186 2.944 31.6853 3.87733 31.6853 5.1C31.6853 6.32267 31.9186 7.256 32.3853 7.9C32.8613 8.544 33.4959 8.866 34.2893 8.866ZM46.4702 8.782V10H39.4282V9.048L43.4182 5.198C43.9035 4.73133 44.2302 4.33 44.3982 3.994C44.5662 3.64867 44.6502 3.30333 44.6502 2.958C44.6502 2.44467 44.4682 2.048 44.1042 1.768C43.7495 1.47867 43.2362 1.334 42.5642 1.334C41.4815 1.334 40.6462 1.68867 40.0582 2.398L39.1062 1.572C39.4888 1.10533 39.9882 0.741333 40.6042 0.48C41.2295 0.218667 41.9248 0.0879999 42.6902 0.0879999C43.7168 0.0879999 44.5335 0.335333 45.1402 0.83C45.7468 1.31533 46.0502 1.978 46.0502 2.818C46.0502 3.34067 45.9382 3.83533 45.7142 4.302C45.4902 4.76867 45.0655 5.30067 44.4402 5.898L41.4442 8.782H46.4702ZM55.385 10.112C54.6103 10.112 53.9197 9.916 53.313 9.524C52.7157 9.12267 52.2443 8.544 51.899 7.788C51.5537 7.032 51.381 6.136 51.381 5.1C51.381 4.064 51.5537 3.168 51.899 2.412C52.2443 1.656 52.7157 1.082 53.313 0.69C53.9197 0.288667 54.6103 0.0879999 55.385 0.0879999C56.1503 0.0879999 56.8317 0.288667 57.429 0.69C58.0357 1.082 58.5117 1.656 58.857 2.412C59.2023 3.168 59.375 4.064 59.375 5.1C59.375 6.136 59.2023 7.032 58.857 7.788C58.5117 8.544 58.0357 9.12267 57.429 9.524C56.8317 9.916 56.1503 10.112 55.385 10.112ZM55.385 8.866C56.169 8.866 56.7943 8.544 57.261 7.9C57.737 7.256 57.975 6.32267 57.975 5.1C57.975 3.87733 57.737 2.944 57.261 2.3C56.7943 1.656 56.169 1.334 55.385 1.334C54.5917 1.334 53.957 1.656 53.481 2.3C53.0143 2.944 52.781 3.87733 52.781 5.1C52.781 6.32267 53.0143 7.256 53.481 7.9C53.957 8.544 54.5917 8.866 55.385 8.866ZM69.2449 7.592H67.3829V10H66.0249V7.592H60.5789V6.612L65.5909 0.199999H67.1029L62.3009 6.388H66.0669V4.26H67.3829V6.388H69.2449V7.592ZM77.8479 10.112C77.0732 10.112 76.3825 9.916 75.7759 9.524C75.1785 9.12267 74.7072 8.544 74.3619 7.788C74.0165 7.032 73.8439 6.136 73.8439 5.1C73.8439 4.064 74.0165 3.168 74.3619 2.412C74.7072 1.656 75.1785 1.082 75.7759 0.69C76.3825 0.288667 77.0732 0.0879999 77.8479 0.0879999C78.6132 0.0879999 79.2945 0.288667 79.8919 0.69C80.4985 1.082 80.9745 1.656 81.3199 2.412C81.6652 3.168 81.8379 4.064 81.8379 5.1C81.8379 6.136 81.6652 7.032 81.3199 7.788C80.9745 8.544 80.4985 9.12267 79.8919 9.524C79.2945 9.916 78.6132 10.112 77.8479 10.112ZM77.8479 8.866C78.6319 8.866 79.2572 8.544 79.7239 7.9C80.1999 7.256 80.4379 6.32267 80.4379 5.1C80.4379 3.87733 80.1999 2.944 79.7239 2.3C79.2572 1.656 78.6319 1.334 77.8479 1.334C77.0545 1.334 76.4199 1.656 75.9439 2.3C75.4772 2.944 75.2439 3.87733 75.2439 5.1C75.2439 6.32267 75.4772 7.256 75.9439 7.9C76.4199 8.544 77.0545 8.866 77.8479 8.866ZM90.0288 8.782V10H82.9868V9.048L86.9768 5.198C87.4621 4.73133 87.7888 4.33 87.9568 3.994C88.1248 3.64867 88.2088 3.30333 88.2088 2.958C88.2088 2.44467 88.0268 2.048 87.6628 1.768C87.3081 1.47867 86.7948 1.334 86.1228 1.334C85.0401 1.334 84.2048 1.68867 83.6168 2.398L82.6648 1.572C83.0474 1.10533 83.5468 0.741333 84.1628 0.48C84.7881 0.218667 85.4834 0.0879999 86.2488 0.0879999C87.2754 0.0879999 88.0921 0.335333 88.6988 0.83C89.3054 1.31533 89.6088 1.978 89.6088 2.818C89.6088 3.34067 89.4968 3.83533 89.2728 4.302C89.0488 4.76867 88.6241 5.30067 87.9988 5.898L85.0028 8.782H90.0288ZM94.2178 0.199999V10H92.8318V1.418H90.6198V0.199999H94.2178Z" fill="#666666"/>
</svg>
