<svg width="24" height="24" viewBox="0 0 24 24" fill="none" xmlns="http://www.w3.org/2000/svg">
<g clip-path="url(#clip0)">
<path d="M18.4766 6H5.49759C4.67177 6 4 6.67285 4 7.50001V16.5C4 17.3272 4.67177 18 5.49759 18H18.4766C19.3024 18 19.9742 17.3272 19.9742 16.5V7.50001C19.9742 6.67285 19.3024 6 18.4766 6ZM18.4766 7C18.5444 7 18.6089 7.01409 18.6679 7.03871L11.9871 12.8384L5.30622 7.03871C5.36521 7.01412 5.42973 7 5.49756 7H18.4766ZM18.4766 17H5.49759C5.22216 17 4.99838 16.7759 4.99838 16.5V8.09521L11.66 13.8779C11.7541 13.9595 11.8706 14 11.9871 14C12.1036 14 12.2201 13.9595 12.3142 13.8779L18.9758 8.09521V16.5C18.9758 16.7759 18.752 17 18.4766 17Z" fill="#6F38AB" stroke="#6F38AB" stroke-width="0.2"/>
</g>
<defs>
<clipPath id="clip0">
<rect width="15.9742" height="16" fill="white" transform="translate(4 4)"/>
</clipPath>
</defs>
</svg>
