<svg width="24" height="24" viewBox="0 0 24 24" fill="none" xmlns="http://www.w3.org/2000/svg">
<path d="M19.5801 16.3445L16.3417 14.1848C15.9307 13.913 15.3798 14.0024 15.076 14.3904L14.1327 15.6033C14.0114 15.7631 13.7911 15.8095 13.6157 15.7121L13.4362 15.6132C12.8414 15.2889 12.1013 14.8853 10.61 13.3935C9.11876 11.9017 8.71429 11.161 8.39006 10.5673L8.29167 10.3878C8.1929 10.2125 8.23839 9.99116 8.39831 9.86896L9.61038 8.92591C9.99819 8.62205 10.0878 8.07132 9.81622 7.66022L7.65654 4.42177C7.37824 4.00314 6.81988 3.87747 6.38904 4.13647L5.03484 4.94994C4.60934 5.20009 4.29716 5.60522 4.16378 6.08043C3.67613 7.85723 4.04298 10.9237 8.56019 15.4414C12.1535 19.0345 14.8286 20.0008 16.6673 20.0008C17.0904 20.0026 17.5119 19.9475 17.9204 19.8371C18.3957 19.7038 18.8009 19.3916 19.0509 18.966L19.8652 17.6126C20.1246 17.1817 19.999 16.623 19.5801 16.3445Z" fill="#6F38AB"/>
<path d="M19.7778 12H21.5C21.5 6.47778 17.5222 2.5 12 2.5V4.22222C16.3 4.22222 19.7778 7.7 19.7778 12ZM15.3333 12H17C17 8.93333 15.0667 7 12 7V8.66667C13.8444 8.66667 15.3333 10.1556 15.3333 12Z" fill="#BEB7D1"/>
</svg>
