<svg width="24" height="24" viewBox="0 0 24 24" fill="none" xmlns="http://www.w3.org/2000/svg">
<path d="M21.3432 8.27145C21.062 8.02708 20.7149 7.86907 20.3443 7.81675L15.7774 7.16078L13.7351 3.06762C13.5756 2.74721 13.3286 2.47738 13.022 2.28869C12.7155 2.10001 12.3616 2 12.0005 2C11.6395 2 11.2856 2.10001 10.9791 2.28869C10.6725 2.47738 10.4255 2.74721 10.266 3.06762L8.2237 7.16078L3.65681 7.81675C3.2995 7.86784 2.96379 8.01686 2.6877 8.24694C2.4116 8.47702 2.20615 8.77897 2.0946 9.11859C1.98306 9.45821 1.96987 9.82194 2.05654 10.1686C2.14321 10.5152 2.32628 10.831 2.585 11.08L5.88917 14.2663L5.1096 18.7619C5.04791 19.114 5.0872 19.4761 5.22301 19.8071C5.35883 20.1382 5.58572 20.425 5.87797 20.635C6.17021 20.845 6.5161 20.9698 6.8764 20.9952C7.2367 21.0206 7.59699 20.9456 7.91639 20.7787L12.001 18.6551L16.0855 20.7787C16.405 20.9449 16.7651 21.0194 17.1251 20.9937C17.4851 20.968 17.8307 20.8431 18.1227 20.6333C18.4148 20.4235 18.6416 20.137 18.7776 19.8063C18.9136 19.4756 18.9534 19.1138 18.8923 18.7619L18.1119 14.2638L21.4161 11.0775C21.6069 10.8933 21.7572 10.6721 21.8576 10.4277C21.9579 10.1834 22.0062 9.92118 21.9994 9.65752C21.9925 9.39387 21.9307 9.13445 21.8178 8.89551C21.7049 8.65658 21.5434 8.44328 21.3432 8.26897V8.27145ZM20.4222 10.0704L16.773 13.5888C16.7139 13.6457 16.6697 13.716 16.6441 13.7937C16.6186 13.8713 16.6126 13.9539 16.6265 14.0344L17.4881 19.0038C17.5048 19.0965 17.4948 19.1921 17.4592 19.2795C17.4237 19.3669 17.3639 19.4426 17.2869 19.498C17.2098 19.5533 17.1186 19.5862 17.0236 19.5927C16.9285 19.5992 16.8336 19.5791 16.7496 19.5347L12.2379 17.1883C12.1649 17.1503 12.0835 17.1304 12.001 17.1304C11.9184 17.1304 11.8371 17.1503 11.764 17.1883L7.25321 19.5339C7.16919 19.5782 7.07424 19.5983 6.97922 19.5918C6.8842 19.5853 6.79295 19.5525 6.7159 19.4971C6.63885 19.4417 6.57912 19.366 6.54353 19.2786C6.50795 19.1912 6.49794 19.0957 6.51467 19.003L7.3763 14.0335C7.39022 13.9531 7.38415 13.8705 7.35862 13.7928C7.3331 13.7152 7.28887 13.6449 7.22977 13.5879L3.58061 10.0704C3.5126 10.0048 3.46449 9.9217 3.44174 9.83048C3.41898 9.73926 3.42248 9.64356 3.45184 9.5542C3.4812 9.46485 3.53524 9.3854 3.60787 9.32484C3.68049 9.26427 3.76879 9.22502 3.86279 9.2115L8.90613 8.48679C8.98788 8.47505 9.06551 8.4438 9.13233 8.39575C9.19914 8.3477 9.25313 8.28429 9.28964 8.21099L11.5463 3.68797C11.5884 3.6038 11.6534 3.53295 11.734 3.48341C11.8147 3.43387 11.9077 3.40762 12.0026 3.40762C12.0976 3.40762 12.1906 3.43387 12.2712 3.48341C12.3519 3.53295 12.4169 3.6038 12.459 3.68797L14.7148 8.20851C14.7513 8.2818 14.8053 8.34521 14.8721 8.39326C14.9389 8.44131 15.0166 8.47256 15.0983 8.48431L20.1417 9.20902C20.236 9.22244 20.3247 9.2618 20.3976 9.32263C20.4704 9.38346 20.5246 9.4633 20.5538 9.55307C20.583 9.64284 20.5862 9.73893 20.5629 9.83039C20.5397 9.92185 20.4909 10.005 20.4222 10.0704Z" fill="#6F38AB"/>
</svg>
