<svg width="24" height="24" viewBox="0 0 24 24" fill="none" xmlns="http://www.w3.org/2000/svg">
<path d="M12 22C11.687 22.0001 11.3847 21.884 11.1493 21.6731C10.2612 20.8795 9.40463 20.1336 8.6484 19.473C6.69317 17.8797 4.86685 16.1279 3.18718 14.2346C1.8299 12.7415 1.05254 10.7935 1.00099 8.75631C0.971665 6.9894 1.59492 5.27608 2.74654 3.9578C3.30536 3.33552 3.98559 2.8398 4.74337 2.50262C5.50115 2.16544 6.31966 1.99427 7.14614 2.00015C8.39991 1.99365 9.61863 2.42278 10.6024 3.21716C11.1358 3.64399 11.6065 4.14694 12 4.71061C12.3935 4.14695 12.8641 3.644 13.3976 3.21716C14.3813 2.42278 15.6001 1.99365 16.8538 2.00015C17.6805 1.99415 18.4991 2.16526 19.2571 2.50244C20.015 2.83963 20.6954 3.33541 21.2543 3.9578C22.4057 5.27617 23.0286 6.9895 22.999 8.75631C22.9483 10.7924 22.1725 12.7396 20.8171 14.2329C19.1374 16.1262 17.3111 17.878 15.3558 19.4712C14.5987 20.1301 13.7396 20.8777 12.8498 21.674C12.6142 21.8844 12.312 22.0002 11.9991 22H12ZM7.14614 3.31713C6.49778 3.31195 5.85555 3.44565 5.26085 3.70962C4.66615 3.97358 4.13217 4.36195 3.69332 4.8497C2.76189 5.92517 2.2608 7.31956 2.28974 8.75544C2.33915 10.4852 3.01021 12.1359 4.17479 13.3923C5.80885 15.2255 7.58296 16.9231 9.48034 18.4689C10.2391 19.1296 11.0966 19.8789 11.9949 20.6787C12.8318 19.9361 13.6725 19.198 14.5171 18.4646C16.4141 16.9187 18.188 15.2211 19.8218 13.3879C20.9864 12.1315 21.6574 10.4809 21.7068 8.75109C21.7368 7.31774 21.2386 5.92523 20.3109 4.8497C19.8721 4.36191 19.3381 3.97351 18.7434 3.70954C18.1487 3.44557 17.5065 3.3119 16.8581 3.31713C15.8885 3.3127 14.9463 3.6453 14.1862 4.26032C13.5895 4.7487 13.0855 5.34475 12.6992 6.0189C12.6272 6.14265 12.5248 6.24513 12.4023 6.31631C12.2798 6.38748 12.1413 6.4249 12.0004 6.4249C11.8595 6.4249 11.721 6.38748 11.5985 6.31631C11.476 6.24513 11.3737 6.14265 11.3016 6.0189C10.9154 5.34467 10.4114 4.7486 9.81465 4.26032C9.0554 3.64605 8.11452 3.31349 7.14614 3.31713V3.31713Z" fill="#6F38AB"/>
</svg>
