<svg width="24" height="24" viewBox="0 0 24 24" fill="none" xmlns="http://www.w3.org/2000/svg">
<path d="M20.9449 13.7089C20.6702 10.7259 19.0037 8.85705 17.5335 7.2074C16.1718 5.68073 14.9959 4.3622 14.9959 2.417C14.9958 2.34048 14.9705 2.26545 14.9226 2.20012C14.8748 2.13479 14.8064 2.08169 14.7248 2.04662C14.6432 2.01125 14.5515 1.99549 14.4598 2.00111C14.3681 2.00674 14.2801 2.03353 14.2057 2.07848C11.9308 3.47566 10.2792 5.46456 9.51168 7.73111C9.14616 9.11738 8.97377 10.5342 8.99793 11.9534C6.95892 11.5904 6.49672 9.0489 6.49227 9.02075C6.48118 8.95598 6.45191 8.8943 6.40686 8.84071C6.36181 8.78713 6.30224 8.74315 6.23297 8.71234C6.16371 8.68153 6.08671 8.66476 6.00822 8.66339C5.92973 8.66202 5.85195 8.67609 5.7812 8.70445C5.67454 8.74742 3.15644 9.81557 3.01067 14.0697C3 14.2112 3 14.3534 3 14.4956C3.00164 16.4842 3.94971 18.391 5.6362 19.7977C7.32269 21.2044 9.60989 21.9962 11.996 21.9994C12.0028 22.0002 12.0097 22.0002 12.0164 21.9994H12.0227C14.4046 21.9921 16.6862 21.1991 18.3685 19.7938C20.0508 18.3885 20.997 16.4851 21 14.5001C20.9869 14.2361 20.9685 13.9724 20.9449 13.7089V13.7089ZM11.996 21.166C11.1742 21.143 10.397 20.8494 9.83462 20.3495C9.27227 19.8496 8.97074 19.1842 8.99615 18.4993V18.3371C8.99353 17.8829 9.10085 17.433 9.31169 17.0141C9.43678 17.2982 9.66063 17.5446 9.95464 17.7221C10.2486 17.8996 10.5995 18 10.9623 18.0104C11.0279 18.0105 11.093 17.9999 11.1537 17.979C11.2144 17.9581 11.2696 17.9274 11.3161 17.8888C11.3626 17.8501 11.3994 17.8042 11.4246 17.7536C11.4497 17.7031 11.4627 17.6489 11.4627 17.5941C11.4397 16.9583 11.5041 16.3223 11.6547 15.6986C11.8426 15.109 12.1888 14.5626 12.6671 14.1008C12.9023 14.6705 13.2508 15.2031 13.6981 15.6764C14.4308 16.4157 14.8777 17.3227 14.9799 18.2779C14.9861 18.3519 14.9923 18.4216 14.9923 18.5001C15.0175 19.1844 14.7163 19.8491 14.1548 20.3487C13.5932 20.8484 12.817 21.1423 11.996 21.166V21.166Z" fill="#6F38AB"/>
</svg>
