<svg xmlns="http://www.w3.org/2000/svg" width="23.925" height="22.982" viewBox="0 0 23.925 22.982">

    <defs>

        <style>

            .cls-1{fill:##6F38AB}

        </style>

    </defs>

    <g id="star-of-favorites-outline" transform="translate(-4 -7.866)">

        <g id="Group_656" data-name="Group 656" transform="translate(4 7.866)">

            <path id="Path_158" d="M23.6 19.934a2.3 2.3 0 0 0-1.193-.549l-5.454-.792-2.439-4.942a2.309 2.309 0 0 0-4.143 0l-2.439 4.942-5.454.792a2.309 2.309 0 0 0-1.28 3.94l3.946 3.847-.931 5.428a2.308 2.308 0 0 0 3.352 2.435l4.878-2.564 4.878 2.564a2.31 2.31 0 0 0 3.352-2.435l-.932-5.431 3.946-3.847a2.313 2.313 0 0 0-.087-3.391zm-1.1 2.172l-4.358 4.248a.608.608 0 0 0-.175.538l1.029 6a.606.606 0 0 1-.882.641L12.726 30.7a.608.608 0 0 0-.566 0l-5.387 2.832a.606.606 0 0 1-.882-.641l1.029-6a.608.608 0 0 0-.175-.538l-4.358-4.247a.608.608 0 0 1 .337-1.037l6.023-.875a.608.608 0 0 0 .458-.333L11.9 14.4a.608.608 0 0 1 1.09 0l2.694 5.458a.608.608 0 0 0 .458.333l6.023.875a.608.608 0 0 1 .335 1.04z" class="cls-1" data-name="Path 158" transform="translate(-.48 -12.343)"/>

            <path id="Path_159" d="M17.915 34.848a2.339 2.339 0 0 1-1.084-.269l-4.869-2.56-4.869 2.56a2.33 2.33 0 0 1-3.381-2.456l.93-5.421L.7 22.862A2.329 2.329 0 0 1 2 18.888l5.439-.788 2.434-4.932a2.329 2.329 0 0 1 4.179 0l2.434 4.932 5.443.791a2.329 2.329 0 0 1 1.291 3.974L19.282 26.7l.93 5.421a2.331 2.331 0 0 1-2.3 2.725zm-5.953-2.873h.009l4.878 2.564a2.29 2.29 0 0 0 3.323-2.414l-.933-5.442 3.954-3.854a2.289 2.289 0 0 0-1.269-3.906l-5.464-.794v-.009l-2.439-4.942a2.289 2.289 0 0 0-4.107 0l-2.449 4.955h-.01L2 18.927a2.289 2.289 0 0 0-1.268 3.907l3.954 3.854v.01l-.932 5.431a2.289 2.289 0 0 0 3.323 2.414zm5.953 1.171a.622.622 0 0 1-.292-.074l-5.387-2.832a.6.6 0 0 0-.547 0L6.3 33.072a.622.622 0 0 1-.292.074.631.631 0 0 1-.482-.227.615.615 0 0 1-.136-.509l1.029-6a.588.588 0 0 0-.169-.52l-4.358-4.247a.628.628 0 0 1 .348-1.071l6.023-.872a.588.588 0 0 0 .443-.322l2.694-5.46a.628.628 0 0 1 1.126 0l2.694 5.458a.588.588 0 0 0 .443.322l6.023.875a.628.628 0 0 1 .348 1.071l-4.358 4.248a.588.588 0 0 0-.169.52l1.029 6a.615.615 0 0 1-.136.509.631.631 0 0 1-.485.225zm-5.953-3.013a.63.63 0 0 1 .292.072l5.387 2.832a.584.584 0 0 0 .274.069.591.591 0 0 0 .452-.212.576.576 0 0 0 .128-.476l-1.029-6a.628.628 0 0 1 .181-.556L22 21.615a.588.588 0 0 0-.326-1l-6.023-.875a.628.628 0 0 1-.473-.343l-2.688-5.461a.588.588 0 0 0-1.055 0l-2.694 5.457a.628.628 0 0 1-.473.343l-6.023.875a.588.588 0 0 0-.326 1l4.358 4.248a.628.628 0 0 1 .181.556l-1.029 6a.576.576 0 0 0 .128.476.591.591 0 0 0 .452.212.584.584 0 0 0 .274-.069l5.387-2.832a.63.63 0 0 1 .292-.069z" class="cls-1" data-name="Path 159" transform="translate(0 -11.866)"/>

        </g>

    </g>

</svg>

