<svg width="24" height="24" viewBox="0 0 24 24" fill="none" xmlns="http://www.w3.org/2000/svg">
<path d="M19.4995 2H4.49972C3.82711 2.02573 3.19071 2.31141 2.72447 2.79689C2.25823 3.28238 1.99852 3.92981 2.00001 4.60291V19.5148C1.99991 19.8411 2.06407 20.1642 2.18883 20.4656C2.31359 20.7671 2.49651 21.041 2.72714 21.2718C2.95777 21.5026 3.23159 21.6856 3.53298 21.8106C3.83436 21.9355 4.15741 21.9999 4.48367 22H19.3856C20.0597 22.0012 20.7082 21.7418 21.1955 21.2759C21.6827 20.81 21.971 20.1738 22 19.5003V4.49971C21.997 3.83755 21.7325 3.20337 21.2642 2.73521C20.7959 2.26706 20.1617 2.00282 19.4995 2V2ZM20.7494 19.4995C20.7222 19.8425 20.5666 20.1626 20.3136 20.3957C20.0606 20.6289 19.7289 20.7579 19.3849 20.757H4.48367C4.15421 20.757 3.83825 20.6261 3.60529 20.3932C3.37233 20.1602 3.24145 19.8443 3.24145 19.5148V4.60291C3.24115 4.26005 3.37081 3.92982 3.60429 3.67874C3.83778 3.42767 4.15774 3.27442 4.49972 3.24986H19.4995C19.8305 3.25146 20.1475 3.38366 20.3815 3.61771C20.6156 3.85175 20.7478 4.16873 20.7494 4.49971V19.4995ZM16.9998 14.4993H7.0002C6.83824 14.505 6.6848 14.5733 6.57223 14.6899C6.45966 14.8065 6.39675 14.9622 6.39675 15.1243C6.39675 15.2863 6.45966 15.442 6.57223 15.5586C6.6848 15.6752 6.83824 15.7435 7.0002 15.7492H16.9998C17.1618 15.7435 17.3152 15.6752 17.4278 15.5586C17.5403 15.442 17.6033 15.2863 17.6033 15.1243C17.6033 14.9622 17.5403 14.8065 17.4278 14.6899C17.3152 14.5733 17.1618 14.505 16.9998 14.4993ZM16.9998 10.7498H7.0002C6.83824 10.7554 6.6848 10.8237 6.57223 10.9403C6.45966 11.0569 6.39675 11.2126 6.39675 11.3747C6.39675 11.5367 6.45966 11.6925 6.57223 11.8091C6.6848 11.9256 6.83824 11.994 7.0002 11.9996H16.9998C17.1618 11.994 17.3152 11.9256 17.4278 11.8091C17.5403 11.6925 17.6033 11.5367 17.6033 11.3747C17.6033 11.2126 17.5403 11.0569 17.4278 10.9403C17.3152 10.8237 17.1618 10.7554 16.9998 10.7498V10.7498ZM16.9998 7.00019H7.0002C6.83824 7.00586 6.6848 7.07418 6.57223 7.19075C6.45966 7.30733 6.39675 7.46306 6.39675 7.62512C6.39675 7.78718 6.45966 7.9429 6.57223 8.05948C6.6848 8.17606 6.83824 8.24438 7.0002 8.25005H16.9998C17.0837 8.25298 17.1674 8.23899 17.2457 8.20891C17.3241 8.17882 17.3956 8.13326 17.456 8.07494C17.5164 8.01662 17.5645 7.94674 17.5973 7.86946C17.6301 7.79217 17.647 7.70908 17.647 7.62512C17.647 7.54116 17.6301 7.45806 17.5973 7.38078C17.5645 7.3035 17.5164 7.23361 17.456 7.1753C17.3956 7.11698 17.3241 7.07141 17.2457 7.04133C17.1674 7.01125 17.0837 6.99726 16.9998 7.00019Z" fill="#6F38AB"/>
</svg>
