<svg width="24" height="24" viewBox="0 0 24 24" fill="none" xmlns="http://www.w3.org/2000/svg">
<path d="M21.8728 12.1032C21.6938 11.8532 17.437 6 11.9999 6C6.5628 6 2.30596 11.854 2.12696 12.1032C2.04446 12.2184 2 12.3574 2 12.5C2 12.6426 2.04446 12.7816 2.12696 12.8968C2.30515 13.1468 6.5628 19 11.9999 19C17.437 19 21.6938 13.146 21.8728 12.8968C21.9555 12.7816 22 12.6427 22 12.5C22 12.3573 21.9555 12.2184 21.8728 12.1032V12.1032ZM11.9999 17.6547C7.99482 17.6547 4.52593 13.7695 3.49932 12.4992C4.52511 11.228 7.98665 7.34451 11.9999 7.34451C16.0132 7.34451 19.4731 11.2288 20.5005 12.5C19.4755 13.7712 16.014 17.6547 11.9999 17.6547V17.6547Z" fill="#6F38AB"/>
<path d="M11.9999 8.46564C11.2175 8.46564 10.4526 8.70224 9.80207 9.14554C9.1515 9.58884 8.64444 10.2189 8.34502 10.9561C8.0456 11.6933 7.96726 12.5045 8.1199 13.2871C8.27255 14.0697 8.64932 14.7885 9.20258 15.3527C9.75584 15.9169 10.4607 16.3012 11.2281 16.4568C11.9955 16.6125 12.791 16.5326 13.5138 16.2273C14.2367 15.9219 14.8546 15.4048 15.2893 14.7414C15.724 14.0779 15.956 13.2979 15.956 12.5C15.9547 11.4304 15.5375 10.405 14.7958 9.64874C14.0542 8.89243 13.0487 8.46696 11.9999 8.46564V8.46564ZM11.9999 15.1899C11.4782 15.1899 10.9683 15.0321 10.5345 14.7365C10.1008 14.441 9.76271 14.0209 9.56307 13.5294C9.36344 13.0379 9.3112 12.497 9.41297 11.9752C9.51475 11.4535 9.76596 10.9742 10.1348 10.598C10.5037 10.2218 10.9737 9.96562 11.4854 9.86183C11.997 9.75804 12.5273 9.8113 13.0093 10.0149C13.4913 10.2185 13.9032 10.5632 14.193 11.0056C14.4829 11.4479 14.6376 11.968 14.6376 12.5C14.6369 13.2132 14.3588 13.897 13.8643 14.4013C13.3698 14.9056 12.6993 15.1892 11.9999 15.1899V15.1899Z" fill="#6F38AB"/>
</svg>
