<svg width="14" height="13" viewBox="0 0 14 13" fill="none" xmlns="http://www.w3.org/2000/svg">
<path fill-rule="evenodd" clip-rule="evenodd" d="M6.54902 1C7.62276 1 8.63234 1.41889 9.39163 2.17941C10.7968 3.58664 10.9714 6.23437 9.76499 7.84506L6.54902 12.4974L3.32823 7.83856C2.12662 6.23438 2.30124 3.58664 3.70641 2.17941C4.46569 1.41889 5.47507 1 6.54902 1ZM5.11874 4.98957C5.11874 4.1793 5.77719 3.51978 6.58616 3.51978C7.39513 3.51978 8.05359 4.1793 8.05359 4.98957C8.05359 5.79985 7.39513 6.45937 6.58616 6.45937C5.77719 6.45937 5.11874 5.79985 5.11874 4.98957Z" fill="#9F97B8"/>
<path d="M9.39163 2.17941L9.32086 2.25006L9.32087 2.25007L9.39163 2.17941ZM9.76499 7.84506L9.68489 7.78507L9.68273 7.7882L9.76499 7.84506ZM6.54902 12.4974L6.46676 12.5543L6.54902 12.6733L6.63128 12.5543L6.54902 12.4974ZM3.32823 7.83856L3.41055 7.78165L3.40827 7.7786L3.32823 7.83856ZM3.70641 2.17941L3.77717 2.25007L3.77717 2.25006L3.70641 2.17941ZM9.4624 2.10876C8.68437 1.32947 7.64933 0.9 6.54902 0.9V1.1C7.59618 1.1 8.58032 1.50832 9.32086 2.25006L9.4624 2.10876ZM9.84502 7.90501C10.465 7.07728 10.7272 5.98792 10.6574 4.92936C10.5877 3.87087 10.1852 2.83266 9.46239 2.10875L9.32087 2.25007C10.0032 2.93339 10.3907 3.92266 10.4579 4.94252C10.5251 5.9623 10.2714 7.00216 9.68495 7.78511L9.84502 7.90501ZM6.63128 12.5543L9.84725 7.90193L9.68273 7.7882L6.46676 12.4405L6.63128 12.5543ZM3.24597 7.89542L6.46676 12.5543L6.63128 12.4405L3.41049 7.78169L3.24597 7.89542ZM3.63564 2.10875C2.9128 2.83265 2.51038 3.87084 2.44 4.92848C2.36961 5.98617 2.63056 7.07396 3.24819 7.89851L3.40827 7.7786C2.82428 6.99897 2.57174 5.9608 2.63956 4.94176C2.70737 3.92269 3.09484 2.93339 3.77717 2.25007L3.63564 2.10875ZM6.54902 0.9C5.44849 0.9 4.41366 1.32947 3.63564 2.10876L3.77717 2.25006C4.51773 1.50831 5.50165 1.1 6.54902 1.1V0.9ZM6.58616 3.41978C5.72181 3.41978 5.01874 4.12422 5.01874 4.98957H5.21874C5.21874 4.23437 5.83257 3.61978 6.58616 3.61978V3.41978ZM8.15359 4.98957C8.15359 4.12422 7.45051 3.41978 6.58616 3.41978V3.61978C7.33975 3.61978 7.95359 4.23437 7.95359 4.98957H8.15359ZM6.58616 6.55937C7.45051 6.55937 8.15359 5.85493 8.15359 4.98957H7.95359C7.95359 5.74478 7.33975 6.35937 6.58616 6.35937V6.55937ZM5.01874 4.98957C5.01874 5.85493 5.72181 6.55937 6.58616 6.55937V6.35937C5.83257 6.35937 5.21874 5.74478 5.21874 4.98957H5.01874Z" fill="#9F97B8"/>
</svg>
