<?xml version="1.0" encoding="utf-8"?>
<!-- Generator: Adobe Illustrator 16.0.0, SVG Export Plug-In . SVG Version: 6.00 Build 0)  -->
<!DOCTYPE svg PUBLIC "-//W3C//DTD SVG 1.1//EN" "http://www.w3.org/Graphics/SVG/1.1/DTD/svg11.dtd">
<svg version="1.1" id="Слой_1" xmlns="http://www.w3.org/2000/svg" xmlns:xlink="http://www.w3.org/1999/xlink" x="0px" y="0px"
	 width="48px" height="48px" viewBox="0 0 48 48" enable-background="new 0 0 48 48" xml:space="preserve">
<path fill="#4EADF4" d="M47.847,35.922c0,6.586-5.339,11.924-11.925,11.924H12.076c-6.584,0-11.921-5.338-11.921-11.924V12.077
	c0-6.586,5.337-11.923,11.921-11.923h23.846c6.586,0,11.925,5.337,11.925,11.923V35.922z"/>
<polygon fill="#FFFFFF" points="41.217,35.537 41.217,13.239 27.69,25.345 "/>
<polygon fill="#FFFFFF" points="7.096,13.237 7.096,35.49 20.514,25.251 "/>
<polygon fill="#FFFFFF" points="24.155,28.514 22.01,26.59 9.028,36.497 39.214,36.497 26.195,26.687 "/>
<polygon fill="#FFFFFF" points="24.155,25.865 26.087,24.135 39.621,12.019 8.69,12.019 22.109,24.034 "/>
</svg>
