<?xml version="1.0" encoding="utf-8"?>
<!-- Generator: Adobe Illustrator 16.0.0, SVG Export Plug-In . SVG Version: 6.00 Build 0)  -->
<!DOCTYPE svg PUBLIC "-//W3C//DTD SVG 1.1//EN" "http://www.w3.org/Graphics/SVG/1.1/DTD/svg11.dtd">
<svg version="1.1" id="Слой_1" xmlns="http://www.w3.org/2000/svg" xmlns:xlink="http://www.w3.org/1999/xlink" x="0px" y="0px"
	 width="48px" height="48px" viewBox="0 0 48 48" enable-background="new 0 0 48 48" xml:space="preserve">
<path fill="#3C5B9B" d="M47.847,35.922c0,6.586-5.339,11.924-11.925,11.924H12.075c-6.584,0-11.921-5.338-11.921-11.924V12.076
	c0-6.586,5.337-11.923,11.921-11.923h23.847c6.586,0,11.925,5.337,11.925,11.923V35.922z"/>
<g>
	<path fill="#FFFFFF" d="M20.229,38.589h6.18c0,0,0-8.202,0-14.865h4.168l0.537-5.25h-4.705v-3.089c0-1.158,0.768-1.429,1.309-1.429
		c0.538,0,3.321,0,3.321,0V8.858l-4.574-0.017c-5.08,0-6.235,3.802-6.235,6.234v3.398H17.29v5.25h2.938
		C20.229,30.467,20.229,38.589,20.229,38.589z"/>
</g>
</svg>
