<svg width="16" height="16" viewBox="0 0 16 16" fill="none" xmlns="http://www.w3.org/2000/svg">
<path d="M13.6667 15.6668H9.66666C9.48241 15.6668 9.33332 15.5177 9.33332 15.3335V11.0002H6.66666V15.3335C6.66666 15.5177 6.51758 15.6668 6.33332 15.6668H2.33333C2.14907 15.6668 1.99999 15.5177 1.99999 15.3335V8.66683C1.99999 8.48257 2.14907 8.33349 2.33333 8.33349C2.51758 8.33349 2.66667 8.48257 2.66667 8.66683V15.0002H6.00001V10.6668C6.00001 10.4826 6.1491 10.3335 6.33335 10.3335H9.66669C9.85095 10.3335 10 10.4826 10 10.6668V15.0002H13.3334V9.00017C13.3334 8.81591 13.4825 8.66683 13.6667 8.66683C13.851 8.66683 14.0001 8.81591 14.0001 9.00017V15.3335C14 15.5177 13.8509 15.6668 13.6667 15.6668ZM15.6667 8.66683C15.5814 8.66683 15.4961 8.63427 15.431 8.56918L7.99999 1.1382L0.56901 8.56918C0.438802 8.69939 0.227864 8.69939 0.0976558 8.56918C-0.0325519 8.43897 -0.0325519 8.22803 0.0976558 8.09783L7.76433 0.431152C7.89454 0.300944 8.10548 0.300944 8.23568 0.431152L15.9024 8.09783C16.0326 8.22803 16.0326 8.43897 15.9024 8.56918C15.8372 8.63427 15.752 8.66683 15.6667 8.66683ZM13 4.00016C12.8157 4.00016 12.6667 3.85107 12.6667 3.66682V1.66683H10.6667C10.4824 1.66683 10.3333 1.51775 10.3333 1.33349C10.3333 1.14924 10.4824 1.00015 10.6667 1.00015H13C13.1843 1.00015 13.3333 1.14924 13.3333 1.33349V3.66682C13.3333 3.85107 13.1843 4.00016 13 4.00016Z" fill="black"/>
</svg>
