<?xml version="1.0" encoding="utf-8"?>
<!-- Generator: Adobe Illustrator 16.0.0, SVG Export Plug-In . SVG Version: 6.00 Build 0)  -->
<!DOCTYPE svg PUBLIC "-//W3C//DTD SVG 1.1//EN" "http://www.w3.org/Graphics/SVG/1.1/DTD/svg11.dtd">
<svg version="1.1" id="Слой_1" xmlns="http://www.w3.org/2000/svg" xmlns:xlink="http://www.w3.org/1999/xlink" x="0px" y="0px"
	 width="48px" height="48px" viewBox="0 0 48 48" enable-background="new 0 0 48 48" xml:space="preserve">
<path fill="#038C31" d="M47.847,35.922c0,6.586-5.339,11.924-11.925,11.924H12.076c-6.584,0-11.921-5.338-11.921-11.924V12.077
	c0-6.586,5.337-11.923,11.921-11.923h23.846c6.586,0,11.925,5.337,11.925,11.923V35.922z"/>
<path fill="#FFFFFF" d="M36.27,29.371L36.27,29.371c-0.674-0.336-3.975-1.961-4.591-2.188c-0.616-0.225-1.064-0.337-1.514,0.34
	c-0.444,0.67-1.736,2.184-2.126,2.631c-0.394,0.447-0.788,0.506-1.457,0.168c-0.671-0.338-2.836-1.043-5.403-3.336
	c-1.999-1.777-3.346-3.979-3.736-4.65c-0.392-0.673-0.042-1.035,0.293-1.372c0.302-0.3,0.67-0.784,1.005-1.175
	c0.338-0.392,0.448-0.673,0.673-1.121s0.112-0.84-0.054-1.178c-0.169-0.335-1.513-3.643-2.074-4.986
	c-0.546-1.309-1.097-1.134-1.509-1.155c-0.392-0.021-0.841-0.024-1.289-0.024s-1.175,0.169-1.792,0.841
	c-0.616,0.673-2.353,2.298-2.353,5.605c0,3.308,2.407,6.499,2.742,6.948c0.336,0.448,4.738,7.234,11.479,10.145
	c1.604,0.689,2.855,1.107,3.831,1.414c1.61,0.516,3.076,0.441,4.233,0.27c1.292-0.195,3.978-1.625,4.538-3.197
	c0.559-1.566,0.559-2.91,0.393-3.193C37.391,29.875,36.941,29.707,36.27,29.371z"/>
</svg>
