<?xml version="1.0" encoding="utf-8"?>
<!-- Generator: Adobe Illustrator 16.0.0, SVG Export Plug-In . SVG Version: 6.00 Build 0)  -->
<!DOCTYPE svg PUBLIC "-//W3C//DTD SVG 1.1//EN" "http://www.w3.org/Graphics/SVG/1.1/DTD/svg11.dtd">
<svg version="1.1" id="Слой_1" xmlns="http://www.w3.org/2000/svg" xmlns:xlink="http://www.w3.org/1999/xlink" x="0px" y="0px"
	 width="48px" height="48px" viewBox="0 0 48 48" enable-background="new 0 0 48 48" xml:space="preserve">
<path fill="#00A9F0" d="M47.848,35.922c0,6.586-5.34,11.924-11.926,11.924H12.076c-6.584,0-11.921-5.338-11.921-11.924V12.077
	c0-6.586,5.337-11.923,11.921-11.923h23.846c6.586,0,11.926,5.337,11.926,11.923V35.922z"/>
<path fill-rule="evenodd" clip-rule="evenodd" fill="#FEFEFE" d="M40.285,28.041c-0.104-0.238-0.148-0.459-0.095-0.725
	c0.392-1.937,0.405-3.879,0.084-5.831C38.858,12.882,30.752,6.85,22.137,8.015c-0.504,0.067-0.922-0.012-1.375-0.253
	c-3.641-1.944-8.094-1.276-11.054,1.631c-2.915,2.863-3.649,7.338-1.781,10.982c0.196,0.384,0.258,0.729,0.169,1.156
	c-0.18,0.874-0.196,1.769-0.236,2.7c0.03,0.521,0.039,1.083,0.098,1.642c0.975,9.324,9.516,15.865,18.816,14.411
	c0.285-0.045,0.523,0.003,0.776,0.131c1.758,0.886,3.646,1.102,5.547,0.798C39.314,40.222,42.779,33.831,40.285,28.041z
	 M32.178,32.389c-1.043,1.188-2.357,1.948-3.852,2.379c-2.8,0.806-5.631,0.832-8.42-0.007c-2.539-0.764-4.41-2.336-5.155-4.972
	c-0.528-1.87,0.677-3.267,2.54-3.048c0.805,0.095,1.334,0.581,1.711,1.252c0.236,0.421,0.434,0.863,0.646,1.298
	c0.691,1.419,1.805,2.221,3.389,2.395c1.296,0.143,2.549,0.05,3.747-0.493c0.465-0.21,0.875-0.5,1.209-0.887
	c0.896-1.035,0.735-2.501-0.365-3.316c-1.063-0.787-2.34-0.997-3.58-1.274c-1.777-0.396-3.561-0.772-5.23-1.517
	c-1.728-0.77-3.131-1.888-3.583-3.841c-0.524-2.267,0.105-4.183,1.919-5.652c1.6-1.297,3.525-1.716,5.52-1.889
	c0.461-0.041,0.928-0.007,1.393-0.007c1.84-0.05,3.633,0.194,5.295,1.042c1.271,0.648,2.324,1.534,2.938,2.862
	c0.3,0.65,0.443,1.345,0.25,2.036c-0.234,0.841-0.807,1.427-1.676,1.604c-0.904,0.184-1.747,0.041-2.316-0.8
	c-0.271-0.4-0.533-0.808-0.777-1.225c-0.777-1.323-1.885-2.061-3.459-2.056c-0.719,0.003-1.434-0.021-2.137,0.149
	c-0.631,0.153-1.209,0.416-1.689,0.861c-0.855,0.793-0.822,1.883,0.09,2.608c0.602,0.478,1.313,0.744,2.047,0.932
	c1.724,0.44,3.455,0.848,5.178,1.298c0.937,0.245,1.832,0.613,2.7,1.049C34.541,25.194,34.254,30.025,32.178,32.389z"/>
</svg>
