<?xml version="1.0" encoding="utf-8"?>
<!-- Generator: Adobe Illustrator 16.0.0, SVG Export Plug-In . SVG Version: 6.00 Build 0)  -->
<!DOCTYPE svg PUBLIC "-//W3C//DTD SVG 1.1//EN" "http://www.w3.org/Graphics/SVG/1.1/DTD/svg11.dtd">
<svg version="1.1" id="Слой_1" xmlns="http://www.w3.org/2000/svg" xmlns:xlink="http://www.w3.org/1999/xlink" x="0px" y="0px"
	 width="48px" height="48px" viewBox="0 0 48 48" enable-background="new 0 0 48 48" xml:space="preserve">
<linearGradient id="SVGID_1_" gradientUnits="userSpaceOnUse" x1="0.1553" y1="24" x2="47.8477" y2="24">
	<stop  offset="0" style="stop-color:#1D93D2"/>
	<stop  offset="1" style="stop-color:#38B0E3"/>
</linearGradient>
<path fill="url(#SVGID_1_)" d="M47.848,35.922c0,6.586-5.34,11.924-11.926,11.924H12.076c-6.584,0-11.921-5.338-11.921-11.924
	V12.077c0-6.586,5.337-11.923,11.921-11.923h23.846c6.586,0,11.926,5.337,11.926,11.923V35.922z"/>
<rect x="-119.313" y="-24.264" fill="none" width="72.403" height="72.109"/>
<g transform="matrix(.27118644655 0 0 -.27118644655 -4.31267855885 67.79633990509)">
	<path fill="#C8DAEA" d="M63.513,150.473l13.999-38.748c0,0,1.75-3.623,3.624-3.623c1.876,0,29.749,28.996,29.749,28.996
		l31.002,59.877l-77.875-36.501L63.513,150.473z"/>
</g>
<rect x="-119.313" y="-24.264" fill="none" width="72.403" height="72.109"/>
<g transform="matrix(.27118644655 0 0 -.27118644655 -4.31267855885 67.79633990509)">
	<path fill="#A9C6D8" d="M82.074,140.538l-2.688-28.56c0,0-1.125-8.751,7.625,0c8.751,8.75,17.125,15.499,17.125,15.499"/>
</g>
<rect x="-119.313" y="-24.264" fill="none" width="72.403" height="72.109"/>
<g transform="matrix(.27118644655 0 0 -.27118644655 -4.31267855885 67.79633990509)">
	<path fill="#FFFFFF" d="M63.764,149.094l-28.794,9.381c0,0-3.437,1.397-2.333,4.564c0.229,0.652,0.688,1.207,2.062,2.166
		c6.383,4.447,118.103,44.605,118.103,44.605s3.155,1.062,5.02,0.355c0.854-0.322,1.397-0.688,1.854-2.02
		c0.169-0.484,0.263-1.516,0.249-2.542c-0.007-0.738-0.097-1.424-0.166-2.499c-0.677-10.98-21.038-92.919-21.038-92.919
		s-1.217-4.797-5.582-4.959c-1.595-0.061-3.526,0.263-5.834,2.251c-8.567,7.368-38.175,27.267-44.715,31.639
		c-0.371,0.248-0.475,0.569-0.538,0.879c-0.092,0.461,0.411,1.037,0.411,1.037s51.551,45.824,52.923,50.633
		c0.108,0.373-0.292,0.556-0.835,0.396c-3.421-1.26-62.778-38.742-69.328-42.884C64.839,148.939,63.764,149.094,63.764,149.094"/>
</g>
</svg>
