<?xml version="1.0" encoding="utf-8"?>
<!-- Generator: Adobe Illustrator 16.0.0, SVG Export Plug-In . SVG Version: 6.00 Build 0)  -->
<!DOCTYPE svg PUBLIC "-//W3C//DTD SVG 1.1//EN" "http://www.w3.org/Graphics/SVG/1.1/DTD/svg11.dtd">
<svg version="1.1" id="Слой_1" xmlns="http://www.w3.org/2000/svg" xmlns:xlink="http://www.w3.org/1999/xlink" x="0px" y="0px"
	 width="48px" height="48px" viewBox="0 0 48 48" enable-background="new 0 0 48 48" xml:space="preserve">
<path fill="#7B519D" d="M47.847,35.922c0,6.586-5.339,11.924-11.925,11.924H12.076c-6.584,0-11.921-5.338-11.921-11.924V12.077
	c0-6.586,5.337-11.923,11.921-11.923h23.846c6.586,0,11.925,5.337,11.925,11.923V35.922z"/>
<g>
	<path fill="#FFFFFF" d="M38.081,31.704c-0.993-0.8-2.054-1.517-3.098-2.25c-2.083-1.462-3.987-1.576-5.541,0.777
		c-0.873,1.321-2.095,1.38-3.372,0.799c-3.521-1.596-6.241-4.057-7.833-7.636c-0.705-1.583-0.695-3.003,0.953-4.123
		c0.873-0.592,1.752-1.293,1.682-2.587c-0.092-1.688-4.189-7.327-5.807-7.922c-0.669-0.247-1.336-0.23-2.018-0.001
		c-3.794,1.276-5.365,4.396-3.86,8.091c4.49,11.021,12.391,18.695,23.268,23.379c0.62,0.267,1.309,0.374,1.657,0.471
		c2.477,0.023,5.378-2.362,6.215-4.73C41.134,33.694,39.429,32.79,38.081,31.704L38.081,31.704z M25.885,9.892
		c7.952,1.223,11.619,5.004,12.632,13.012c0.095,0.74-0.182,1.853,0.874,1.874c1.103,0.021,0.837-1.075,0.847-1.816
		c0.093-7.543-6.484-14.535-14.122-14.793c-0.576,0.083-1.768-0.397-1.843,0.895C24.223,9.934,25.228,9.791,25.885,9.892
		L25.885,9.892z"/>
	<path fill="#FFFFFF" d="M27.44,12.088c-0.765-0.092-1.773-0.453-1.952,0.608c-0.188,1.115,0.938,1.001,1.661,1.163
		c4.911,1.098,6.621,2.885,7.43,7.757c0.117,0.71-0.116,1.815,1.091,1.632c0.895-0.136,0.57-1.083,0.646-1.637
		C36.355,16.935,32.348,12.677,27.44,12.088L27.44,12.088z"/>
	<path fill="#FFFFFF" d="M27.892,15.913c-0.511,0.013-1.012,0.067-1.198,0.613c-0.282,0.815,0.311,1.01,0.914,1.107
		c2.014,0.323,3.075,1.512,3.275,3.521c0.055,0.545,0.401,0.986,0.929,0.925c0.729-0.087,0.794-0.737,0.772-1.354
		C32.619,18.467,30.068,15.858,27.892,15.913L27.892,15.913z"/>
</g>
</svg>
