<?xml version="1.0" encoding="utf-8"?>
<!-- Generator: Adobe Illustrator 16.0.0, SVG Export Plug-In . SVG Version: 6.00 Build 0)  -->
<!DOCTYPE svg PUBLIC "-//W3C//DTD SVG 1.1//EN" "http://www.w3.org/Graphics/SVG/1.1/DTD/svg11.dtd">
<svg version="1.1" id="Слой_1" xmlns="http://www.w3.org/2000/svg" xmlns:xlink="http://www.w3.org/1999/xlink" x="0px" y="0px"
	 width="48px" height="48px" viewBox="0 0 48 48" enable-background="new 0 0 48 48" xml:space="preserve">
<path fill="#4C75A3" d="M47.847,35.922c0,6.586-5.339,11.924-11.925,11.924H12.075c-6.584,0-11.921-5.338-11.921-11.924V12.076
	c0-6.586,5.337-11.923,11.921-11.923h23.847c6.586,0,11.925,5.337,11.925,11.923V35.922z"/>
<path fill="#FFFFFF" d="M23.646,33.324h1.97c0,0,0.596-0.066,0.899-0.393c0.28-0.301,0.271-0.865,0.271-0.865
	s-0.039-2.645,1.188-3.035c1.21-0.383,2.763,2.557,4.409,3.686c1.245,0.855,2.191,0.67,2.191,0.67l4.403-0.063
	c0,0,2.303-0.143,1.211-1.953c-0.09-0.148-0.637-1.34-3.274-3.787c-2.761-2.563-2.391-2.148,0.936-6.58
	c2.024-2.699,2.834-4.347,2.581-5.053c-0.241-0.672-1.73-0.495-1.73-0.495l-4.957,0.031c0,0-0.368-0.05-0.641,0.113
	c-0.266,0.16-0.438,0.532-0.438,0.532s-0.784,2.089-1.83,3.865c-2.208,3.748-3.091,3.947-3.451,3.713
	c-0.84-0.542-0.63-2.179-0.63-3.342c0-3.632,0.551-5.147-1.073-5.539c-0.538-0.13-0.936-0.216-2.313-0.23
	c-1.769-0.018-3.266,0.005-4.113,0.42c-0.564,0.276-0.999,0.892-0.734,0.927c0.328,0.043,1.069,0.2,1.463,0.735
	c0.508,0.691,0.49,2.243,0.49,2.243s0.292,4.276-0.682,4.807c-0.668,0.364-1.585-0.379-3.553-3.78
	c-1.008-1.742-1.77-3.667-1.77-3.667s-0.146-0.359-0.408-0.552c-0.318-0.233-0.762-0.307-0.762-0.307l-4.71,0.031
	c0,0-0.707,0.02-0.967,0.327c-0.231,0.274-0.019,0.839-0.019,0.839s3.688,8.627,7.864,12.977
	C19.298,33.586,23.646,33.324,23.646,33.324"/>
</svg>
