<?xml version="1.0" encoding="utf-8"?>
<!-- Generator: Adobe Illustrator 16.0.0, SVG Export Plug-In . SVG Version: 6.00 Build 0)  -->
<!DOCTYPE svg PUBLIC "-//W3C//DTD SVG 1.1//EN" "http://www.w3.org/Graphics/SVG/1.1/DTD/svg11.dtd">
<svg version="1.1" id="Слой_1" xmlns="http://www.w3.org/2000/svg" xmlns:xlink="http://www.w3.org/1999/xlink" x="0px" y="0px"
	 width="48px" height="48px" viewBox="0 0 48 48" enable-background="new 0 0 48 48" xml:space="preserve">
<linearGradient id="SVGID_1_" gradientUnits="userSpaceOnUse" x1="0.1553" y1="24" x2="47.8477" y2="24">
	<stop  offset="0" style="stop-color:#20B038"/>
	<stop  offset="1" style="stop-color:#60D66A"/>
</linearGradient>
<path fill="url(#SVGID_1_)" d="M47.848,35.922c0,6.586-5.34,11.924-11.926,11.924H12.076c-6.584,0-11.921-5.338-11.921-11.924
	V12.077c0-6.586,5.337-11.923,11.921-11.923h23.846c6.586,0,11.926,5.337,11.926,11.923V35.922z"/>
<path fill="#E0E0E0" d="M39.063,8.488c-3.905-3.909-9.099-6.062-14.63-6.064c-11.402,0-20.68,9.275-20.684,20.676
	c-0.002,3.646,0.95,7.202,2.761,10.338L3.575,44.151l10.965-2.875c3.021,1.648,6.422,2.517,9.884,2.519h0.009h0
	c11.399,0,20.678-9.278,20.684-20.678C45.119,17.591,42.969,12.396,39.063,8.488L39.063,8.488z M24.433,40.302h-0.007
	c-3.085-0.002-6.111-0.83-8.75-2.396l-0.628-0.372l-6.507,1.706l1.737-6.341l-0.41-0.651c-1.721-2.735-2.629-5.899-2.628-9.146
	c0.003-9.476,7.715-17.185,17.199-17.185c4.591,0.001,8.908,1.792,12.153,5.039c3.246,3.249,5.033,7.566,5.031,12.159
	C41.62,32.592,33.908,40.302,24.433,40.302z"/>
<linearGradient id="SVGID_2_" gradientUnits="userSpaceOnUse" x1="-729.3276" y1="610.8916" x2="-729.3276" y2="630.4043" gradientTransform="matrix(2.0408 0 0 -2.0408 1512.7485 1290.6656)">
	<stop  offset="0" style="stop-color:#20B038"/>
	<stop  offset="1" style="stop-color:#60D66A"/>
</linearGradient>
<path fill="url(#SVGID_2_)" d="M4.524,43.964l2.801-10.227c-1.728-2.992-2.637-6.387-2.636-9.865
	c0.005-10.879,8.859-19.73,19.739-19.73c5.28,0.002,10.237,2.058,13.962,5.787c3.727,3.729,5.778,8.687,5.775,13.959
	c-0.004,10.88-8.859,19.732-19.737,19.732c-0.001,0,0,0,0,0H24.42c-3.303-0.002-6.549-0.829-9.432-2.4L4.524,43.964L4.524,43.964z"
	/>
<path fill="#FFFFFF" d="M19.321,14.322c-0.382-0.851-0.785-0.868-1.149-0.883c-0.298-0.013-0.639-0.012-0.979-0.012
	c-0.34,0-0.895,0.128-1.363,0.64s-1.788,1.748-1.788,4.261c0,2.513,1.831,4.942,2.086,5.283c0.255,0.342,3.535,5.664,8.727,7.712
	c4.315,1.701,5.193,1.363,6.13,1.278c0.938-0.086,3.024-1.236,3.449-2.429c0.425-1.193,0.425-2.216,0.298-2.429
	s-0.468-0.34-0.979-0.597c-0.512-0.255-3.022-1.491-3.49-1.662c-0.469-0.17-0.81-0.256-1.149,0.257
	c-0.341,0.511-1.32,1.662-1.618,2.002c-0.298,0.342-0.596,0.383-1.107,0.128c-0.51-0.255-2.155-0.795-4.108-2.535
	c-1.519-1.354-2.544-3.026-2.842-3.538c-0.298-0.511-0.033-0.788,0.224-1.042c0.229-0.229,0.511-0.597,0.766-0.896
	c0.255-0.298,0.34-0.51,0.511-0.851c0.17-0.341,0.085-0.639-0.042-0.896C20.769,17.859,19.775,15.332,19.321,14.322L19.321,14.322z"
	/>
<path fill="#FFFFFF" d="M38.895,8.422c-3.861-3.863-8.993-5.992-14.463-5.995c-11.271,0-20.442,9.169-20.446,20.44
	c-0.001,3.602,0.939,7.118,2.729,10.219L3.813,43.677l10.839-2.842c2.986,1.628,6.349,2.487,9.771,2.487h0.009l0,0
	c11.269,0,20.441-9.17,20.447-20.439C44.88,17.421,42.755,12.286,38.895,8.422L38.895,8.422z M24.432,39.871h-0.006
	c-3.05-0.002-6.041-0.82-8.65-2.369l-0.621-0.367l-6.432,1.687l1.718-6.271l-0.405-0.642c-1.701-2.705-2.6-5.832-2.599-9.042
	C7.441,13.501,15.064,5.88,24.438,5.88c4.541,0.003,8.806,1.771,12.016,4.983c3.209,3.211,4.974,7.479,4.973,12.019
	C41.422,32.249,33.798,39.871,24.432,39.871z"/>
</svg>
