<?xml version="1.0" encoding="utf-8"?>
<!-- Generator: Adobe Illustrator 16.0.0, SVG Export Plug-In . SVG Version: 6.00 Build 0)  -->
<!DOCTYPE svg PUBLIC "-//W3C//DTD SVG 1.1//EN" "http://www.w3.org/Graphics/SVG/1.1/DTD/svg11.dtd">
<svg version="1.1" id="Слой_1" xmlns="http://www.w3.org/2000/svg" xmlns:xlink="http://www.w3.org/1999/xlink" x="0px" y="0px"
	 width="20px" height="15px" viewBox="0 0 20 15" enable-background="new 0 0 20 15" xml:space="preserve">
<rect fill="#FEEAC9" width="20" height="15"/>
<g enable-background="new    ">
	<path d="M5.354,10.381l0.943,0.237c-0.198,0.775-0.554,1.365-1.067,1.773C4.716,12.796,4.089,13,3.347,13
		c-0.768,0-1.392-0.157-1.873-0.47c-0.48-0.313-0.847-0.766-1.098-1.357S0,9.942,0,9.263c0-0.74,0.142-1.388,0.425-1.94
		c0.283-0.551,0.686-0.971,1.209-1.258c0.523-0.287,1.099-0.43,1.727-0.43c0.712,0,1.312,0.182,1.798,0.544
		c0.485,0.363,0.824,0.873,1.015,1.53L5.247,7.928c-0.165-0.52-0.405-0.896-0.719-1.132C4.213,6.559,3.819,6.441,3.342,6.441
		c-0.547,0-1.005,0.131-1.373,0.394C1.603,7.097,1.344,7.449,1.195,7.891C1.046,8.333,0.972,8.789,0.972,9.259
		c0,0.605,0.088,1.135,0.265,1.587c0.176,0.451,0.451,0.789,0.824,1.013c0.372,0.224,0.775,0.334,1.209,0.334
		c0.528,0,0.975-0.151,1.341-0.457C4.977,11.433,5.224,10.979,5.354,10.381z"/>
	<path d="M7.316,12.878V5.756h1.419l1.686,5.043c0.155,0.47,0.269,0.819,0.339,1.056c0.082-0.261,0.209-0.641,0.381-1.144
		l1.705-4.955h1.268v7.122h-0.908V6.917l-2.069,5.961h-0.85L8.225,6.814v6.063H7.316z"/>
</g>
</svg>
