<?xml version="1.0" encoding="utf-8"?>
<!-- Generator: Adobe Illustrator 16.0.0, SVG Export Plug-In . SVG Version: 6.00 Build 0)  -->
<!DOCTYPE svg PUBLIC "-//W3C//DTD SVG 1.1//EN" "http://www.w3.org/Graphics/SVG/1.1/DTD/svg11.dtd">
<svg version="1.1" id="Слой_1" xmlns="http://www.w3.org/2000/svg" xmlns:xlink="http://www.w3.org/1999/xlink" x="0px" y="0px"
	 width="348.076px" height="348.078px" viewBox="0 0 348.076 348.078" enable-background="new 0 0 348.076 348.078"
	 xml:space="preserve">
<g id="Capa_1">
	<g>
		<g>
			<g>
				<path d="M273.328,288.302l-42.778-42.784c-8.521-8.486-22.631-8.229-31.447,0.593l-21.553,21.547
					c-1.361-0.751-2.771-1.534-4.253-2.365c-13.61-7.542-32.238-17.878-51.839-37.493c-19.66-19.656-30.005-38.313-37.569-51.933
					c-0.798-1.442-1.563-2.834-2.318-4.154l14.464-14.442l7.112-7.12c8.831-8.833,9.075-22.939,0.573-31.451L60.942,75.911
					c-8.5-8.499-22.618-8.242-31.448,0.592L17.437,88.628l0.33,0.327c-4.042,5.159-7.421,11.108-9.935,17.524
					c-2.317,6.106-3.76,11.935-4.419,17.773c-5.648,46.829,15.75,89.625,73.825,147.701c80.277,80.272,144.969,74.207,147.76,73.912
					c6.078-0.728,11.903-2.18,17.823-4.479c6.359-2.485,12.305-5.857,17.461-9.893l0.263,0.233l12.214-11.96
					C281.571,310.937,281.824,296.826,273.328,288.302z"/>
			</g>
		</g>
	</g>
	<polygon points="238.114,92.361 175.2,152.822 192.187,170.486 255.216,109.914 283.69,139.14 298.088,88.073 312.487,37.005 
		261.063,50.07 209.638,63.135 	"/>
</g>
<g id="Слой_2">
</g>
<g id="Слой_3">
</g>
</svg>
