<svg width="18" height="18" viewBox="0 0 18 18" fill="none" xmlns="http://www.w3.org/2000/svg">
<path fill-rule="evenodd" clip-rule="evenodd" d="M0 9C0 4.0372 4.0372 0 9 0C13.9628 0 18 4.0372 18 9C18 13.9628 13.9628 18 9 18C4.0372 18 0 13.9628 0 9ZM13.6889 13.6891C14.1037 13.2741 14.1037 12.6036 13.6889 12.1886L10.5003 9.00012L13.6889 5.81162C14.1037 5.39661 14.1037 4.72611 13.6889 4.31111C13.2739 3.8963 12.6034 3.8963 12.1884 4.31111L9 7.49981L5.81157 4.31111C5.39658 3.8963 4.7261 3.8963 4.3111 4.31111C3.8963 4.72611 3.8963 5.39661 4.3111 5.81162L7.49972 9.00012L4.3111 12.1886C3.8963 12.6036 3.8963 13.2741 4.3111 13.6891C4.51802 13.8961 4.78963 14 5.06143 14C5.33305 14 5.60466 13.8961 5.81157 13.6891L9 10.5004L12.1884 13.6891C12.3953 13.8961 12.667 14 12.9386 14C13.2104 14 13.482 13.8961 13.6889 13.6891Z" fill="#E0E0E0"/>
</svg>
