<?xml version="1.0" encoding="utf-8"?>
<!-- Generator: Adobe Illustrator 16.0.0, SVG Export Plug-In . SVG Version: 6.00 Build 0)  -->
<!DOCTYPE svg PUBLIC "-//W3C//DTD SVG 1.1//EN" "http://www.w3.org/Graphics/SVG/1.1/DTD/svg11.dtd">
<svg version="1.1" id="Слой_1" xmlns="http://www.w3.org/2000/svg" xmlns:xlink="http://www.w3.org/1999/xlink" x="0px" y="0px"
	 width="65px" height="65px" viewBox="0 0 65 65" enable-background="new 0 0 65 65" xml:space="preserve">
<path fill-rule="evenodd" clip-rule="evenodd" fill="#FDB229" d="M3.846,60.987c1.939-4.318,3.523-8.073,4.428-12.09
	c0.484-2.148,0.344-3.899-0.973-5.865c-6.611-9.873-4.518-22.035,5.006-30.234c12.451-10.718,33.81-9.646,45.103,2.265
	c10.53,11.105,7.415,28.458-6.504,36.454c-7.552,4.337-15.655,5.128-24.043,3.724c-2.167-0.362-3.963-0.204-5.958,0.723
	C15.632,58.413,10.025,59.822,3.846,60.987z"/>
<path fill-rule="evenodd" clip-rule="evenodd" fill="#FFFFFF" d="M28.301,49.985c-2.049-0.194-5.229-1.003-5.229-1.003
	c-2.292,0.143-4.033,1.543-6.906,3.199c-0.78,0.449-3.81,1.721-3.81,1.721s1.217-2.882,1.384-3.76
	c0.265-1.399,0.652-2.778,1.013-4.159c0.386-1.479,0.197-2.734-0.934-3.92c-7.488-7.856-5.591-19.608,3.812-26.175
	c9.162-6.397,23.309-6.423,32.268,0.203c5.578,4.125,8.987,9.542,7.938,16.663c-1.147,7.785-6.224,12.644-13.299,15.51
	C39.546,50.486,33.619,50.486,28.301,49.985z"/>
<circle fill="#FEB125" cx="34.133" cy="21.383" r="4.013"/>
<path fill-rule="evenodd" clip-rule="evenodd" fill="#FDB229" d="M37.837,35.584c0,1.814-0.042,3.227,0.03,5.441
	c0.06,1.827-0.593,2.279-2.298,2.235c-5.817-0.145-4.621,0.506-4.726-4.673c-0.057-2.864,0.054-5.731-0.034-8.594
	c-0.046-1.519,0.296-2.181,2.026-2.217c5.002-0.103,5-0.19,5.001,4.657C37.837,33.484,37.837,34.533,37.837,35.584z"/>
</svg>
