<?xml version="1.0" encoding="utf-8"?>
<!-- Generator: Adobe Illustrator 16.0.0, SVG Export Plug-In . SVG Version: 6.00 Build 0)  -->
<!DOCTYPE svg PUBLIC "-//W3C//DTD SVG 1.1//EN" "http://www.w3.org/Graphics/SVG/1.1/DTD/svg11.dtd">
<svg version="1.1" id="Слой_1" xmlns="http://www.w3.org/2000/svg" xmlns:xlink="http://www.w3.org/1999/xlink" x="0px" y="0px"
	 width="86px" height="69px" viewBox="0 0 86 69" enable-background="new 0 0 86 69" xml:space="preserve">
<path fill-rule="evenodd" clip-rule="evenodd" d="M49.832,38.615c0.332-0.247,0.644-0.479,0.957-0.714
	c-0.11-0.146-0.166-0.305-0.261-0.332c-0.675-0.2-1.358-0.373-2.039-0.554c0.722-0.581,1.367-1.492,2.18-1.682
	c2.678-0.621,5.256,0.007,7.733,1.13c7.383,3.346,12.283,8.908,14.488,16.675c0.569,2.004,0.309,4.243,0.434,6.374
	c0.041,0.71,0.094,1.42,0.172,2.583c1.381-1.217,2.408-2.228,3.546-3.095c0.929-0.707,2.038-1.478,2.45,0.397
	c-2.312,1.835-4.595,3.646-6.789,5.386c-2.398-2.599-4.972-5.386-7.545-8.173c0.063-0.121,0.126-0.241,0.189-0.362
	c1.854,1.066,3.709,2.133,5.647,3.248c0.767-5.881-1.078-10.915-4.93-15.596C61.689,38.585,55.672,39.326,49.832,38.615z"/>
<g>
	<path d="M9.897,44.849l-1.43,0.612c-0.817,0.351-1.737,0.212-2.758-0.416c-1.021-0.629-1.711-1.359-2.067-2.192
		c-0.534-1.244-0.767-2.655-0.701-4.233c0.066-1.579,0.416-2.995,1.05-4.25c0.633-1.254,1.423-2.085,2.371-2.491
		c0.01-0.004,0.244-0.133,0.699-0.387c0.455-0.254,0.862-0.458,1.222-0.611c0.604-0.259,1.168-0.377,1.692-0.355
		c0.524,0.022,1.114,0.17,1.77,0.443c0.657,0.273,1.231,0.667,1.725,1.184c0.492,0.516,0.871,1.084,1.136,1.704
		c0.375,0.874,0.381,2.121,0.019,3.74c-0.363,1.62-0.994,3.127-1.894,4.523C11.831,43.516,10.886,44.425,9.897,44.849z
		 M8.562,32.072l-0.047,0.021c-0.109,0.047-0.292,0.165-0.55,0.354c-0.3,0.222-0.525,0.371-0.677,0.448
		c-0.479,0.305-1.004,0.831-1.573,1.58c-0.57,0.751-0.969,1.958-1.197,3.625c-0.229,1.665-0.095,3.079,0.403,4.24
		c0.337,0.786,0.866,1.339,1.587,1.654c0.722,0.315,1.418,0.332,2.09,0.044c0.989-0.424,1.889-1.217,2.698-2.374
		c0.811-1.157,1.411-2.393,1.8-3.705c0.389-1.313,0.498-2.192,0.326-2.637l-0.145-0.382c-0.576-1.516-1.355-2.431-2.338-2.746
		C9.957,31.881,9.165,31.84,8.562,32.072z"/>
	<path d="M22.308,31.811c-0.271,0.116-0.49,0.42-0.659,0.911c-0.169,0.491-0.316,1.495-0.444,3.01
		c-0.154,2.025-0.309,3.207-0.463,3.545c-0.154,0.337-0.314,0.542-0.481,0.613c-0.614,0.263-1.049,0.098-1.304-0.496
		c-0.106-0.249-0.217-0.622-0.33-1.114c-0.388-1.696-0.955-3.415-1.702-5.16c-0.085-0.197-0.095-0.453-0.029-0.769
		c0.065-0.314,0.173-0.504,0.324-0.568c0.271-0.116,0.499-0.115,0.685,0.002c0.186,0.118,0.388,0.429,0.604,0.934
		c0.226,0.526,0.534,1.676,0.924,3.45c0.128,0.585,0.224,0.951,0.285,1.097c0.036,0.084,0.075,0.117,0.117,0.1
		c0.078-0.034,0.172-0.811,0.285-2.333c0.108-1.543,0.297-2.679,0.565-3.403c0.269-0.726,0.696-1.214,1.285-1.466
		c0.468-0.201,0.942-0.151,1.419,0.15c0.477,0.3,1.025,0.986,1.645,2.058c0.697,1.225,1.172,1.968,1.424,2.233
		c0.251,0.266,0.505,0.342,0.76,0.232c0.161-0.069,0.34-0.213,0.536-0.432c0.032-0.04,0.059-0.063,0.08-0.072
		c0.224-0.096,0.391-0.014,0.503,0.247c0.098,0.229,0.049,0.537-0.147,0.927c-0.197,0.39-0.512,0.677-0.943,0.862
		c-0.443,0.189-0.86,0.16-1.253-0.087c-0.393-0.248-0.986-1.104-1.781-2.569C23.411,32.244,22.776,31.609,22.308,31.811z"/>
	<path d="M34.227,29.79c-0.188,1.404-0.498,2.564-0.932,3.479c-0.435,0.912-0.951,1.497-1.55,1.754
		c-0.344,0.147-0.779,0.098-1.309-0.151c-0.528-0.247-0.971-0.788-1.328-1.621c-0.292-0.683-0.559-1.757-0.8-3.226
		c-0.199-1.228-0.396-2.065-0.587-2.513c0.017-0.377,0.187-0.635,0.51-0.772c0.219-0.095,0.426-0.092,0.622,0.006
		s0.329,0.229,0.401,0.396c0.156,0.364,0.251,0.937,0.284,1.718c0.076,1.515,0.314,2.74,0.716,3.677
		c0.366,0.854,0.747,1.196,1.142,1.026c0.506-0.216,0.965-0.921,1.377-2.114c0.413-1.193,0.568-2.68,0.467-4.453
		c-0.044-0.708-0.037-1.185,0.021-1.428c0.059-0.244,0.205-0.416,0.439-0.517c0.354-0.151,0.633,0.007,0.833,0.475
		c0.024,0.058,0.056,0.269,0.096,0.634c0.177,1.273,0.481,2.419,0.917,3.435c0.522,1.219,1.061,1.921,1.616,2.109
		c0.291,0.102,0.462,0.214,0.513,0.334c0.063,0.146,0.015,0.323-0.146,0.533c-0.159,0.211-0.325,0.352-0.497,0.425
		c-0.364,0.156-0.774,0.013-1.23-0.433c-0.456-0.446-0.91-1.197-1.363-2.254l-0.11-0.258C34.294,29.968,34.259,29.881,34.227,29.79z
		"/>
	<path d="M42.246,30.901c-0.781,0.334-1.478,0.367-2.088,0.1c-0.611-0.268-1.09-0.806-1.436-1.612
		c-0.582-1.359-0.658-3.024-0.227-4.993s1.111-3.152,2.038-3.55c0.422-0.181,0.883-0.108,1.382,0.216
		c0.5,0.325,0.859,0.744,1.078,1.254c0.132,0.308,0.179,0.6,0.141,0.878c-0.038,0.277-0.125,0.446-0.26,0.504
		c-0.302,0.13-0.646-0.083-1.032-0.639c-0.422-0.597-0.765-0.838-1.03-0.724c-0.542,0.232-0.906,1.15-1.095,2.753
		c-0.188,1.604-0.093,2.847,0.286,3.731c0.38,0.886,1.072,1.113,2.077,0.683c0.765-0.327,1.512-1.074,2.24-2.236
		c0.255-0.411,0.468-0.654,0.64-0.729c0.178-0.075,0.311-0.011,0.396,0.192c0.17,0.396-0.082,1.093-0.757,2.094
		S43.142,30.518,42.246,30.901z"/>
	<path d="M52.075,22.796c-0.31,1.291-0.716,2.334-1.219,3.13c-0.505,0.795-1.053,1.318-1.646,1.573
		c-0.401,0.172-0.819,0.152-1.256-0.062c-0.437-0.213-0.77-0.586-0.997-1.116c-0.587-1.37-0.607-3.107-0.061-5.212
		c0.546-2.104,1.424-3.416,2.631-3.934c0.438-0.188,0.87-0.076,1.298,0.331c0.139,0.138,0.281,0.176,0.427,0.113
		c0.417-0.179,0.694-0.106,0.833,0.216c0.069,0.162,0.138,0.396,0.206,0.697c0.377,1.657,0.701,2.801,0.971,3.431
		c0.54,1.26,1.104,1.911,1.689,1.957c0.283,0.025,0.463,0.13,0.541,0.313c0.069,0.161,0.027,0.373-0.126,0.633
		c-0.153,0.259-0.335,0.435-0.543,0.523c-0.401,0.172-0.851,0.037-1.347-0.402C52.979,24.547,52.513,23.816,52.075,22.796z
		 M49.714,18.603c-0.688,0.295-1.21,1.282-1.569,2.961c-0.358,1.679-0.355,2.943,0.008,3.791c0.257,0.6,0.583,0.813,0.979,0.645
		c0.573-0.246,1.119-1.164,1.639-2.756c0.52-1.589,0.572-2.87,0.157-3.837C50.607,18.661,50.203,18.393,49.714,18.603z"/>
	<path d="M60.979,16.307c0.012-0.133-0.178-0.825-0.566-2.077c-0.316-0.998-0.217-1.607,0.299-1.828
		c0.422-0.181,0.723-0.062,0.903,0.36c0.042,0.1,0.092,0.316,0.148,0.648c0.312,1.834,0.707,3.312,1.188,4.437
		c0.523,1.219,1.062,1.921,1.616,2.109c0.291,0.103,0.462,0.214,0.514,0.334c0.063,0.146,0.014,0.324-0.146,0.534
		c-0.159,0.211-0.325,0.352-0.497,0.425c-0.813,0.349-1.756-0.731-2.831-3.241c-0.071-0.167-0.17-0.224-0.295-0.17
		c-0.489,0.21-1.075,0.495-1.759,0.855c-0.684,0.361-1.159,0.651-1.426,0.871c-0.267,0.219-0.418,0.381-0.457,0.486
		c-0.038,0.106-0.015,0.333,0.07,0.682s0.203,0.697,0.352,1.046l0.412,0.962c0.239,0.556,0.104,0.944-0.407,1.163
		c-0.427,0.184-0.76-0.005-0.999-0.561c-0.156-0.365-0.308-0.849-0.454-1.45c-0.271-1.105-0.86-2.954-1.769-5.548
		c-0.12-0.338-0.181-0.558-0.182-0.661c-0.001-0.104,0.052-0.243,0.159-0.417c0.108-0.171,0.253-0.297,0.436-0.375
		c0.375-0.16,0.628-0.087,0.76,0.22c0.021,0.048,0.128,0.464,0.323,1.249c0.188,0.787,0.371,1.385,0.545,1.791
		c0.122,0.286,0.283,0.387,0.48,0.303c0.396-0.17,1.092-0.547,2.086-1.13C60.478,16.74,60.977,16.4,60.979,16.307z"/>
	<path d="M70.885,14.077c-0.186,1.404-0.496,2.563-0.931,3.479c-0.435,0.912-0.951,1.497-1.55,1.754
		c-0.344,0.147-0.779,0.098-1.309-0.151c-0.527-0.247-0.971-0.788-1.328-1.621c-0.293-0.683-0.559-1.757-0.8-3.226
		c-0.199-1.228-0.396-2.065-0.587-2.513c0.017-0.377,0.188-0.635,0.51-0.773c0.219-0.094,0.426-0.091,0.622,0.007
		s0.329,0.229,0.401,0.396c0.156,0.364,0.25,0.937,0.283,1.718c0.076,1.514,0.314,2.74,0.717,3.677
		c0.365,0.854,0.746,1.196,1.143,1.026c0.504-0.216,0.963-0.921,1.376-2.114s0.568-2.68,0.468-4.453
		c-0.045-0.708-0.037-1.185,0.021-1.428c0.059-0.245,0.206-0.416,0.44-0.517c0.354-0.152,0.631,0.007,0.832,0.475
		c0.024,0.058,0.057,0.269,0.096,0.634c0.176,1.273,0.482,2.419,0.917,3.435c0.522,1.219,1.061,1.921,1.616,2.109
		c0.291,0.102,0.462,0.213,0.513,0.333c0.063,0.146,0.015,0.324-0.146,0.534c-0.159,0.211-0.325,0.352-0.497,0.425
		c-0.364,0.156-0.774,0.013-1.229-0.433c-0.457-0.446-0.911-1.197-1.364-2.254l-0.11-0.258
		C70.953,14.255,70.918,14.168,70.885,14.077z"/>
	<path d="M82.132,10.143c0.228,0.532,0.032,1.375-0.586,2.526c-0.618,1.152-1.427,1.943-2.427,2.372
		c-0.838,0.359-1.591,0.389-2.259,0.09c-0.668-0.301-1.191-0.891-1.57-1.777c-0.639-1.488-0.743-3.12-0.313-4.895
		c0.43-1.773,1.239-2.916,2.432-3.428c0.391-0.167,0.764-0.176,1.121-0.026c0.356,0.148,0.611,0.403,0.766,0.762
		c0.344,0.803,0.279,1.738-0.191,2.81c-0.473,1.07-1.215,2.243-2.229,3.516c-0.21,0.257-0.268,0.497-0.172,0.72
		c0.186,0.433,0.459,0.727,0.82,0.88c0.362,0.152,0.787,0.125,1.276-0.085c1.12-0.479,1.996-1.591,2.632-3.329
		c0.098-0.245,0.191-0.387,0.28-0.425C81.879,9.781,82.019,9.878,82.132,10.143z M76.183,11.252
		c1.645-2.259,2.297-3.786,1.955-4.583c-0.134-0.313-0.341-0.408-0.622-0.288c-0.479,0.206-0.868,0.79-1.168,1.749
		C76.047,9.091,75.992,10.132,76.183,11.252z"/>
</g>
</svg>
