<svg width="18" height="16" viewBox="0 0 18 16" fill="none" xmlns="http://www.w3.org/2000/svg">
<path fill-rule="evenodd" clip-rule="evenodd" d="M3.12193 1.45485L4.00912 4.04022L6.42307 11.2034C6.50092 11.5346 6.68344 11.7692 7.0338 11.7692C7.0338 11.7692 14.3728 11.7649 14.3728 11.7692C14.8086 11.7643 14.9637 11.5148 15.0894 11.2034L17.981 3.98301C18.0062 3.87628 18.0063 3.76539 17.9813 3.65862C17.9562 3.55184 17.9066 3.45194 17.8362 3.36635C17.7657 3.28077 17.6763 3.21172 17.5745 3.16435C17.4727 3.11698 17.3612 3.09251 17.2484 3.09277L5.24182 3.01817L4.37594 0.49527C4.32579 0.350798 4.23011 0.225262 4.10244 0.136393C3.97476 0.0475245 3.82152 -0.00018514 3.66438 5.39931e-07H0.749851C0.550978 5.39931e-07 0.360251 0.0766423 0.219627 0.213061C0.0790026 0.349479 0 0.534501 0 0.727426C0 0.920351 0.0790026 1.10538 0.219627 1.24179C0.360251 1.37821 0.550978 1.45485 0.749851 1.45485H3.12193ZM7.76542 12.9462C7.52808 12.9462 7.29608 13.0152 7.09874 13.1445C6.9014 13.2738 6.74759 13.4576 6.65677 13.6727C6.56594 13.8877 6.54218 14.1244 6.58848 14.3527C6.63478 14.581 6.74907 14.7907 6.91689 14.9553C7.08471 15.1199 7.29853 15.232 7.53131 15.2774C7.76409 15.3228 8.00537 15.2995 8.22464 15.2104C8.44391 15.1213 8.63132 14.9705 8.76318 14.7769C8.89504 14.5834 8.96542 14.3559 8.96542 14.1231C8.96542 13.8109 8.83899 13.5116 8.61395 13.2909C8.3889 13.0702 8.08368 12.9462 7.76542 12.9462ZM14.2154 12.9462C13.9781 12.9462 13.7461 13.0152 13.5487 13.1445C13.3514 13.2738 13.1976 13.4576 13.1068 13.6727C13.0159 13.8877 12.9922 14.1244 13.0385 14.3527C13.0848 14.581 13.1991 14.7907 13.3669 14.9553C13.5347 15.1199 13.7485 15.232 13.9813 15.2774C14.2141 15.3228 14.4554 15.2995 14.6746 15.2104C14.8939 15.1213 15.0813 14.9705 15.2132 14.7769C15.345 14.5834 15.4154 14.3559 15.4154 14.1231C15.4154 13.8109 15.289 13.5116 15.0639 13.2909C14.8389 13.0702 14.5337 12.9462 14.2154 12.9462Z" fill="white"/>
</svg>
