<svg width="15" height="13" viewBox="0 0 15 13" fill="none" xmlns="http://www.w3.org/2000/svg">
<path d="M13.0515 1.74868C12.4103 1.01996 11.5208 0.618652 10.5469 0.618652C9.1771 0.618652 8.30988 1.43806 7.8236 2.12548C7.69744 2.30386 7.59011 2.48272 7.5 2.65103C7.40989 2.48272 7.30259 2.30386 7.1764 2.12548C6.69012 1.43806 5.8229 0.618652 4.45313 0.618652C3.47919 0.618652 2.58968 1.01999 1.94847 1.74871C1.33686 2.44386 1 3.37486 1 4.37021C1 5.45367 1.42232 6.4614 2.32907 7.54154C3.13946 8.50693 4.30533 9.50202 5.65537 10.6543C6.15844 11.0837 6.67866 11.5277 7.23251 12.0131L7.24914 12.0277C7.32095 12.0907 7.41047 12.1221 7.5 12.1221C7.58953 12.1221 7.67906 12.0906 7.75086 12.0277L7.76749 12.0131C8.32134 11.5277 8.84157 11.0837 9.34471 10.6543C10.6947 9.50204 11.8605 8.50695 12.6709 7.54154C13.5777 6.46138 14 5.45367 14 4.37021C14 3.37486 13.6631 2.44386 13.0515 1.74868Z" stroke="#6F38AB" stroke-width="0.5"/>
</svg>
